<svg width="309" height="305" fill="none" xmlns="http://www.w3.org/2000/svg"><mask id="a" fill="#fff"><path d="M279.89 175.79c.547-.758 1.044-1.553 1.592-2.311l2.443-3.701c1.436-2.303 2.821-4.643 4.029-7.05 1.409-2.687 2.698-5.521 3.452-8.558.702-2.65 1.256-5.408 1.779-8.127-.35 1.326-.673 2.61-1.024 3.936-.38 1.365-.731 2.69-1.16 4.019-.43 1.33-.86 2.659-1.468 3.921-.492 1.101-1.034 2.167-1.576 3.233l.057-.08c-1.705 3.201-3.637 6.299-5.719 9.29-.959 1.433-1.968 2.83-2.976 4.227l-1.008 1.398c-1.684 2.124-3.29 4.244-4.973 6.368-1.541 1.924-3.06 3.924-4.599 5.849-.605.838-1.338 1.645-2.043 2.411-3.559 3.989-7.068 8.014-10.578 12.038-.539.643-1.128 1.25-1.718 1.857l-5.389 5.582c-3.033 3.154-6.036 6.269-9.069 9.423-2.98 2.767-6.01 5.498-9.04 8.23-2.003 1.833-4.085 3.67-6.088 5.502l-1.918 1.713-.581.492c-6.52 4.948-13.019 9.972-19.54 14.919-.165.124-.359.288-.603.416a242.76 242.76 0 0022.875-19.435c2.292-2.232 4.562-4.54 6.803-6.808.927-.971 1.904-1.905 2.782-2.911 1.244-1.409 2.438-2.855 3.681-4.264l11.134-12.912 1.445-1.689c.165-.124.252-.244.367-.403 1.058-1.362 2.066-2.759 3.074-4.157 3.421-4.635 6.762-9.266 10.154-13.861l1.844-2.555c.851-1.39 1.724-2.703 2.546-4.053 3.043-4.846 6.107-9.617 9.151-14.463.461-.639.9-1.353 1.311-2.028l1.69-2.97c2.968-5.266 5.836-10.603 8.455-16.12 5.16-11.029 9.516-22.518 12.469-34.472a209.745 209.745 0 003.797-17.841c1.009-6.011 1.841-12.09 2.208-18.26.209-3.135.329-6.308.36-9.514.04-2.886-.02-5.843-.287-8.828a84.797 84.797 0 00-1.26-9.47c-.531-2.933-1.19-5.898-2.193-8.807-1.064-3.136-2.336-6.3-3.931-9.333-.79-1.42-1.58-2.84-2.478-4.217-.849-1.34-1.774-2.677-2.788-3.894-1.233-1.436-2.545-2.868-3.942-4.18a53.193 53.193 0 00-3.75-3.191c-2.678-2.054-5.508-3.793-8.547-5.136a55.007 55.007 0 00-5.441-2.105c-1.532-.498-3.092-.956-4.611-1.263-3.037-.613-6.119-.955-9.158-1.145a67.359 67.359 0 00-10.003.13 99.69 99.69 0 00-9.03 1.193 126.31 126.31 0 00-18.319 4.63c-5.981 1.999-11.7 4.368-17.327 6.925-5.735 2.601-11.357 5.466-16.859 8.478-2.628 1.442-5.336 2.888-7.845 4.477-4.716 2.972-9.403 5.904-14.12 8.875-2.071 1.298-4.064 2.592-6.135 3.89-.574.376-1.147.751-1.749 1.167-7.523 5.5-15.126 11.002-22.649 16.501-.165.124-.359.288-.524.412l-1.658 1.353-6.049 4.924c-4.341 3.606-8.705 7.136-13.096 10.706-.61.532-1.27 1.027-1.88 1.558-1.163.982-2.305 2.04-3.418 3.059a9308.282 9308.282 0 00-13.153 11.94c-1.616 1.505-3.253 2.934-4.869 4.44-.56.566-1.17 1.097-1.73 1.665-3.285 3.398-6.548 6.872-9.832 10.269-3.428 3.598-6.934 7.199-10.362 10.797-.396.443-.791.886-1.216 1.369-1.31 1.605-2.697 3.214-4.007 4.82-3.727 4.535-7.532 9.074-11.258 13.61-.992 1.166-1.964 2.408-2.957 3.573l-1.498 2.076c-3.363 4.556-6.647 9.107-10.01 13.662-1.383 1.917-2.786 3.757-4.17 5.673-1.662 2.201-3.205 4.548-4.719 6.855-3.46 5.214-6.819 10.5-9.881 16.001-2.968 5.265-5.864 10.643-8.384 16.231a157.244 157.244 0 00-3.675 8.763 131.708 131.708 0 00-2.88 8.182c-.932 2.97-1.736 5.971-2.313 9.076-.524 2.719-.999 5.473-1.266 8.255-.262 3.089-.446 6.174-.324 9.358.069 2.842.293 5.675.774 8.572.516 3.166 1.267 6.318 2.41 9.45 1.01 2.793 2.227 5.614 3.737 8.343 1.702 2.988 3.618 5.889 5.885 8.617a59.354 59.354 0 007 7.177c5.474 4.678 11.81 8.583 18.46 11.317 6.294 2.599 12.859 4.3 19.328 5.083 6.47.783 12.859.84 19.121.441a133.644 133.644 0 0018.434-2.483c6.219-1.281 12.284-2.976 18.227-4.818a295.458 295.458 0 0017.929-6.187c1.64-.699 3.3-1.323 4.91-1.982.293-.092.537-.22.859-.352.602-.25 1.193-.511 1.775-.783 5.355-2.389 10.66-4.815 16.016-7.204l4.681-2.085c.293-.092.566-.26.838-.428.681-.419 1.383-.763 2.064-1.182 5.072-2.836 10.222-5.676 15.324-8.553 1.382-.762 2.686-1.521 4.069-2.284.272-.168.466-.331.739-.5.709-.459 1.447-.958 2.157-1.417 4.889-3.211 9.808-6.462 14.696-9.673l3.849-2.505c.273-.167.495-.371.718-.575l2.066-1.605c4.52-3.538 9.118-7.081 13.667-10.659.746-.615 1.543-1.194 2.289-1.809.193-.163.466-.331.688-.535 1.064-1.054 2.148-2.032 3.261-3.051 4.23-3.869 8.38-7.735 12.581-11.564.696-.651 1.413-1.225 2.032-1.872 1.351-1.454 2.723-2.831 4.075-4.285 3.6-3.837 7.222-7.598 10.823-11.435a41.203 41.203 0 001.812-2.093c1.841-2.131 3.653-4.223 5.495-6.355 1.697-1.933 3.374-3.941 5.07-5.874.28-.283.589-.607.819-.926.317-.439.713-.882 1.03-1.322 2.951-3.88 5.924-7.685 8.875-11.566.202-.279.375-.519.54-.643zm-59.205 52.172c.137-.084.252-.244.417-.368-17.554 16.779-37.734 31.116-60.306 42.27l.007.005c-.014.005-.021.015-.035.035-.136.084-.322.132-.459.216.137-.084.244-.128.38-.211-8.578 4.13-17.398 7.966-26.612 11.091-9.136 3.122-18.597 5.644-28.445 7.342-6.203 1.049-12.617 1.762-19.1 1.941-3.4.097-6.84.043-10.3-.087-3.02-.114-6.117-.224-9.228-.526-1.84-.175-3.73-.385-5.564-.676-1.005-.179-2.06-.394-3.066-.573a19.65 19.65 0 01-1.597-.302c-1.49-.347-2.901-.697-4.341-1.008-2.466-.565-4.883-1.095-7.312-1.816a110.55 110.55 0 006.27 2.946c.911.415 1.85.789 2.762 1.204 1.217.514 2.434 1.029 3.68 1.503 2.78.972 5.486 1.832 8.287 2.458 2.753.589 5.484 1.103 8.23 1.385 2.925.349 5.857.584 8.727.59 2.633.018 5.247-.039 7.868-.212 6.578-.414 13.029-1.283 19.347-2.491a197.288 197.288 0 0018.948-4.663 191.452 191.452 0 0013.142-4.481c-1.347.607-2.742 1.179-4.088 1.786-.537.22-1.024.476-1.56.696-.78.347-1.611.659-2.441.97a299.864 299.864 0 01-13.537 4.924 268.834 268.834 0 01-14.52 4.397c-4.627 1.276-9.267 2.36-14.048 3.22-9.898 1.661-20.204 2.42-30.813 1.504a79.646 79.646 0 01-16.668-3.528 72.43 72.43 0 01-6.224-2.487c-2.07-1.008-4.112-2.057-6.147-3.222a60.497 60.497 0 01-5.566-3.713c-1.64-1.184-3.147-2.453-4.672-3.796-1.399-1.313-2.768-2.665-4-4.101a65.175 65.175 0 01-3.684-4.54c-1.139-1.672-2.248-3.383-3.172-5.143-.995-1.871-1.911-3.746-2.67-5.63-.752-1.999-1.424-4.002-1.94-6.013a61.056 61.056 0 01-1.179-6.437 72.03 72.03 0 01-.383-10.476 72.892 72.892 0 011.112-9.822c.634-3.185 1.317-6.334 2.23-9.38.882-3.006 1.972-5.983 3.083-8.886 1.233-3.177 2.517-6.318 3.979-9.392 1.317-2.874 2.735-5.676 4.23-8.483 2.868-5.337 5.914-10.607 9.158-15.733 1.658-2.507 3.267-5.05 4.974-7.521.814-1.234 1.707-2.472 2.523-3.705.41-.674.843-1.274 1.304-1.912l7.524-10.113 8.705-11.75c.403-.559.828-1.042 1.252-1.525 1.31-1.605 2.697-3.214 4.007-4.819l11.33-13.499c.934-1.086 1.848-2.248 2.812-3.373.115-.16.28-.284.395-.444.474-.447.899-.93 1.373-1.377 6.452-6.637 12.855-13.309 19.308-19.945 5.635-4.98 11.201-10.07 16.786-15.086 1.558-1.426 3.195-2.855 4.753-4.28.446-.408.919-.855 1.414-1.227 3.897-3.198 7.814-6.321 11.711-9.52 3.538-2.911 7.097-5.746 10.635-8.657.581-.491 1.29-.95 1.922-1.406 2.029-1.45 4.038-2.976 6.067-4.425 4.583-3.31 9.087-6.618 13.67-9.928.71-.46 1.32-.99 2-1.41l4.58-2.888 14.965-9.418c1.226-.754 2.402-1.545 3.677-2.264 5.296-3.04 10.661-5.968 16.197-8.713 3.294-1.63 6.659-3.148 10.073-4.63 3.171-1.355 6.392-2.673 9.733-3.844 6.633-2.378 13.548-4.31 20.73-5.562 3.401-.52 6.774-1.002 10.309-1.182 1.806-.093 3.584-.146 5.433-.087 1.386.043 2.79.125 4.21.245a42.33 42.33 0 015.684.823c1.647.339 3.257.833 4.868 1.327a38.423 38.423 0 014.522 1.806c1.138.518 2.219 1.116 3.301 1.714 1.152.71 2.225 1.424 3.241 2.217 1.065.83 2.081 1.623 3.04 2.498a41.984 41.984 0 012.588 2.596 46.049 46.049 0 012.479 3.064c1.14 1.672 2.2 3.348 3.074 5.071.973 1.795 1.811 3.675 2.599 5.518 2.219 5.73 3.36 11.593 4.087 17.4.392 3.439.528 6.815.535 10.16-.051 3.424-.13 6.888-.358 10.244-.436 6.79-1.306 13.446-2.455 19.964-1.842 10.206-4.396 20.14-7.763 29.733-1.715 4.893-3.659 9.683-5.702 14.402-2.122 4.722-4.393 9.336-6.763 13.879l.006-.008c-.979 1.755-1.943 3.565-2.924 5.31-.448.83-.974 1.665-1.451 2.535-.238.435-.427.906-.715 1.306-.461.638-.872 1.313-1.283 1.987-2.019 3.218-4.06 6.36-6.079 9.578-1.839 2.862-3.599 5.721-5.408 8.543-.678 1.15-1.506 2.192-2.313 3.309-3.42 4.636-6.762 9.267-10.153 13.862-1.059 1.362-2.067 2.759-3.075 4.157-.144.199-.309.323-.425.483-.453.522-.934 1.086-1.388 1.609l-11.132 12.912c-1.244 1.409-2.439 2.854-3.682 4.264l-.202.279a106.977 106.977 0 01-3.061 3.195 378.724 378.724 0 01-6.244 6.241zm59.631-79.742a1.89 1.89 0 01.165-.295l-.165.296v-.001zM160.874 269.86s-.026.036-.072.009a.237.237 0 01.072-.009zm119.344-121.468l.097-.171c-.028.059-.06.116-.096.171h-.001zm20.121-57.655c-.009.039-.018.077-.008.116l.008-.116zm.008-.116l-.008.116a.23.23 0 00.008-.116zM66.655 289.63c.05.009.097.012.142.012l-.142-.012zm-.143-.012l.143.012c-.052-.007-.104-.014-.143-.012zm-21.91 7.929a.343.343 0 01-.128-.032l.128.032zm-.128-.032l-.128-.032a.35.35 0 01.127.032zM5.553 252.916c-.021-.076.007-.116-.043-.152l.043.152zm155.058 16.996c.078-.003.078-.003.107-.044l-.107.044z"/></mask><path d="M279.89 175.79c.547-.758 1.044-1.553 1.592-2.311l2.443-3.701c1.436-2.303 2.821-4.643 4.029-7.05 1.409-2.687 2.698-5.521 3.452-8.558.702-2.65 1.256-5.408 1.779-8.127-.35 1.326-.673 2.61-1.024 3.936-.38 1.365-.731 2.69-1.16 4.019-.43 1.33-.86 2.659-1.468 3.921-.492 1.101-1.034 2.167-1.576 3.233l.057-.08c-1.705 3.201-3.637 6.299-5.719 9.29-.959 1.433-1.968 2.83-2.976 4.227l-1.008 1.398c-1.684 2.124-3.29 4.244-4.973 6.368-1.541 1.924-3.06 3.924-4.599 5.849-.605.838-1.338 1.645-2.043 2.411-3.559 3.989-7.068 8.014-10.578 12.038-.539.643-1.128 1.25-1.718 1.857l-5.389 5.582c-3.033 3.154-6.036 6.269-9.069 9.423-2.98 2.767-6.01 5.498-9.04 8.23-2.003 1.833-4.085 3.67-6.088 5.502l-1.918 1.713-.581.492c-6.52 4.948-13.019 9.972-19.54 14.919-.165.124-.359.288-.603.416a242.76 242.76 0 0022.875-19.435c2.292-2.232 4.562-4.54 6.803-6.808.927-.971 1.904-1.905 2.782-2.911 1.244-1.409 2.438-2.855 3.681-4.264l11.134-12.912 1.445-1.689c.165-.124.252-.244.367-.403 1.058-1.362 2.066-2.759 3.074-4.157 3.421-4.635 6.762-9.266 10.154-13.861l1.844-2.555c.851-1.39 1.724-2.703 2.546-4.053 3.043-4.846 6.107-9.617 9.151-14.463.461-.639.9-1.353 1.311-2.028l1.69-2.97c2.968-5.266 5.836-10.603 8.455-16.12 5.16-11.029 9.516-22.518 12.469-34.472a209.745 209.745 0 003.797-17.841c1.009-6.011 1.841-12.09 2.208-18.26.209-3.135.329-6.308.36-9.514.04-2.886-.02-5.843-.287-8.828a84.797 84.797 0 00-1.26-9.47c-.531-2.933-1.19-5.898-2.193-8.807-1.064-3.136-2.336-6.3-3.931-9.333-.79-1.42-1.58-2.84-2.478-4.217-.849-1.34-1.774-2.677-2.788-3.894-1.233-1.436-2.545-2.868-3.942-4.18a53.193 53.193 0 00-3.75-3.191c-2.678-2.054-5.508-3.793-8.547-5.136a55.007 55.007 0 00-5.441-2.105c-1.532-.498-3.092-.956-4.611-1.263-3.037-.613-6.119-.955-9.158-1.145a67.359 67.359 0 00-10.003.13 99.69 99.69 0 00-9.03 1.193 126.31 126.31 0 00-18.319 4.63c-5.981 1.999-11.7 4.368-17.327 6.925-5.735 2.601-11.357 5.466-16.859 8.478-2.628 1.442-5.336 2.888-7.845 4.477-4.716 2.972-9.403 5.904-14.12 8.875-2.071 1.298-4.064 2.592-6.135 3.89-.574.376-1.147.751-1.749 1.167-7.523 5.5-15.126 11.002-22.649 16.501-.165.124-.359.288-.524.412l-1.658 1.353-6.049 4.924c-4.341 3.606-8.705 7.136-13.096 10.706-.61.532-1.27 1.027-1.88 1.558-1.163.982-2.305 2.04-3.418 3.059a9308.282 9308.282 0 00-13.153 11.94c-1.616 1.505-3.253 2.934-4.869 4.44-.56.566-1.17 1.097-1.73 1.665-3.285 3.398-6.548 6.872-9.832 10.269-3.428 3.598-6.934 7.199-10.362 10.797-.396.443-.791.886-1.216 1.369-1.31 1.605-2.697 3.214-4.007 4.82-3.727 4.535-7.532 9.074-11.258 13.61-.992 1.166-1.964 2.408-2.957 3.573l-1.498 2.076c-3.363 4.556-6.647 9.107-10.01 13.662-1.383 1.917-2.786 3.757-4.17 5.673-1.662 2.201-3.205 4.548-4.719 6.855-3.46 5.214-6.819 10.5-9.881 16.001-2.968 5.265-5.864 10.643-8.384 16.231a157.244 157.244 0 00-3.675 8.763 131.708 131.708 0 00-2.88 8.182c-.932 2.97-1.736 5.971-2.313 9.076-.524 2.719-.999 5.473-1.266 8.255-.262 3.089-.446 6.174-.324 9.358.069 2.842.293 5.675.774 8.572.516 3.166 1.267 6.318 2.41 9.45 1.01 2.793 2.227 5.614 3.737 8.343 1.702 2.988 3.618 5.889 5.885 8.617a59.354 59.354 0 007 7.177c5.474 4.678 11.81 8.583 18.46 11.317 6.294 2.599 12.859 4.3 19.328 5.083 6.47.783 12.859.84 19.121.441a133.644 133.644 0 0018.434-2.483c6.219-1.281 12.284-2.976 18.227-4.818a295.458 295.458 0 0017.929-6.187c1.64-.699 3.3-1.323 4.91-1.982.293-.092.537-.22.859-.352.602-.25 1.193-.511 1.775-.783 5.355-2.389 10.66-4.815 16.016-7.204l4.681-2.085c.293-.092.566-.26.838-.428.681-.419 1.383-.763 2.064-1.182 5.072-2.836 10.222-5.676 15.324-8.553 1.382-.762 2.686-1.521 4.069-2.284.272-.168.466-.331.739-.5.709-.459 1.447-.958 2.157-1.417 4.889-3.211 9.808-6.462 14.696-9.673l3.849-2.505c.273-.167.495-.371.718-.575l2.066-1.605c4.52-3.538 9.118-7.081 13.667-10.659.746-.615 1.543-1.194 2.289-1.809.193-.163.466-.331.688-.535 1.064-1.054 2.148-2.032 3.261-3.051 4.23-3.869 8.38-7.735 12.581-11.564.696-.651 1.413-1.225 2.032-1.872 1.351-1.454 2.723-2.831 4.075-4.285 3.6-3.837 7.222-7.598 10.823-11.435a41.203 41.203 0 001.812-2.093c1.841-2.131 3.653-4.223 5.495-6.355 1.697-1.933 3.374-3.941 5.07-5.874.28-.283.589-.607.819-.926.317-.439.713-.882 1.03-1.322 2.951-3.88 5.924-7.685 8.875-11.566.202-.279.375-.519.54-.643zm-59.205 52.172c.137-.084.252-.244.417-.368-17.554 16.779-37.734 31.116-60.306 42.27l.007.005c-.014.005-.021.015-.035.035-.136.084-.322.132-.459.216.137-.084.244-.128.38-.211-8.578 4.13-17.398 7.966-26.612 11.091-9.136 3.122-18.597 5.644-28.445 7.342-6.203 1.049-12.617 1.762-19.1 1.941-3.4.097-6.84.043-10.3-.087-3.02-.114-6.117-.224-9.228-.526-1.84-.175-3.73-.385-5.564-.676-1.005-.179-2.06-.394-3.066-.573a19.65 19.65 0 01-1.597-.302c-1.49-.347-2.901-.697-4.341-1.008-2.466-.565-4.883-1.095-7.312-1.816a110.55 110.55 0 006.27 2.946c.911.415 1.85.789 2.762 1.204 1.217.514 2.434 1.029 3.68 1.503 2.78.972 5.486 1.832 8.287 2.458 2.753.589 5.484 1.103 8.23 1.385 2.925.349 5.857.584 8.727.59 2.633.018 5.247-.039 7.868-.212 6.578-.414 13.029-1.283 19.347-2.491a197.288 197.288 0 0018.948-4.663 191.452 191.452 0 0013.142-4.481c-1.347.607-2.742 1.179-4.088 1.786-.537.22-1.024.476-1.56.696-.78.347-1.611.659-2.441.97a299.864 299.864 0 01-13.537 4.924 268.834 268.834 0 01-14.52 4.397c-4.627 1.276-9.267 2.36-14.048 3.22-9.898 1.661-20.204 2.42-30.813 1.504a79.646 79.646 0 01-16.668-3.528 72.43 72.43 0 01-6.224-2.487c-2.07-1.008-4.112-2.057-6.147-3.222a60.497 60.497 0 01-5.566-3.713c-1.64-1.184-3.147-2.453-4.672-3.796-1.399-1.313-2.768-2.665-4-4.101a65.175 65.175 0 01-3.684-4.54c-1.139-1.672-2.248-3.383-3.172-5.143-.995-1.871-1.911-3.746-2.67-5.63-.752-1.999-1.424-4.002-1.94-6.013a61.056 61.056 0 01-1.179-6.437 72.03 72.03 0 01-.383-10.476 72.892 72.892 0 011.112-9.822c.634-3.185 1.317-6.334 2.23-9.38.882-3.006 1.972-5.983 3.083-8.886 1.233-3.177 2.517-6.318 3.979-9.392 1.317-2.874 2.735-5.676 4.23-8.483 2.868-5.337 5.914-10.607 9.158-15.733 1.658-2.507 3.267-5.05 4.974-7.521.814-1.234 1.707-2.472 2.523-3.705.41-.674.843-1.274 1.304-1.912l7.524-10.113 8.705-11.75c.403-.559.828-1.042 1.252-1.525 1.31-1.605 2.697-3.214 4.007-4.819l11.33-13.499c.934-1.086 1.848-2.248 2.812-3.373.115-.16.28-.284.395-.444.474-.447.899-.93 1.373-1.377 6.452-6.637 12.855-13.309 19.308-19.945 5.635-4.98 11.201-10.07 16.786-15.086 1.558-1.426 3.195-2.855 4.753-4.28.446-.408.919-.855 1.414-1.227 3.897-3.198 7.814-6.321 11.711-9.52 3.538-2.911 7.097-5.746 10.635-8.657.581-.491 1.29-.95 1.922-1.406 2.029-1.45 4.038-2.976 6.067-4.425 4.583-3.31 9.087-6.618 13.67-9.928.71-.46 1.32-.99 2-1.41l4.58-2.888 14.965-9.418c1.226-.754 2.402-1.545 3.677-2.264 5.296-3.04 10.661-5.968 16.197-8.713 3.294-1.63 6.659-3.148 10.073-4.63 3.171-1.355 6.392-2.673 9.733-3.844 6.633-2.378 13.548-4.31 20.73-5.562 3.401-.52 6.774-1.002 10.309-1.182 1.806-.093 3.584-.146 5.433-.087 1.386.043 2.79.125 4.21.245a42.33 42.33 0 015.684.823c1.647.339 3.257.833 4.868 1.327a38.423 38.423 0 014.522 1.806c1.138.518 2.219 1.116 3.301 1.714 1.152.71 2.225 1.424 3.241 2.217 1.065.83 2.081 1.623 3.04 2.498a41.984 41.984 0 012.588 2.596 46.049 46.049 0 012.479 3.064c1.14 1.672 2.2 3.348 3.074 5.071.973 1.795 1.811 3.675 2.599 5.518 2.219 5.73 3.36 11.593 4.087 17.4.392 3.439.528 6.815.535 10.16-.051 3.424-.13 6.888-.358 10.244-.436 6.79-1.306 13.446-2.455 19.964-1.842 10.206-4.396 20.14-7.763 29.733-1.715 4.893-3.659 9.683-5.702 14.402-2.122 4.722-4.393 9.336-6.763 13.879l.006-.008c-.979 1.755-1.943 3.565-2.924 5.31-.448.83-.974 1.665-1.451 2.535-.238.435-.427.906-.715 1.306-.461.638-.872 1.313-1.283 1.987-2.019 3.218-4.06 6.36-6.079 9.578-1.839 2.862-3.599 5.721-5.408 8.543-.678 1.15-1.506 2.192-2.313 3.309-3.42 4.636-6.762 9.267-10.153 13.862-1.059 1.362-2.067 2.759-3.075 4.157-.144.199-.309.323-.425.483-.453.522-.934 1.086-1.388 1.609l-11.132 12.912c-1.244 1.409-2.439 2.854-3.682 4.264l-.202.279a106.977 106.977 0 01-3.061 3.195 378.724 378.724 0 01-6.244 6.241zm59.631-79.742a1.89 1.89 0 01.165-.295l-.165.296v-.001zM160.874 269.86s-.026.036-.072.009a.237.237 0 01.072-.009zm119.344-121.468l.097-.171c-.028.059-.06.116-.096.171h-.001zm20.121-57.655c-.009.039-.018.077-.008.116l.008-.116zm.008-.116l-.008.116a.23.23 0 00.008-.116zM66.655 289.63c.05.009.097.012.142.012l-.142-.012zm-.143-.012l.143.012c-.052-.007-.104-.014-.143-.012zm-21.91 7.929a.343.343 0 01-.128-.032l.128.032zm-.128-.032l-.128-.032a.35.35 0 01.127.032h0zM5.553 252.916c-.021-.076.007-.116-.043-.152l.043.152zm155.058 16.996c.078-.003.078-.003.107-.044l-.107.044z" fill="#F37060" stroke="#F37060" stroke-width=".744" mask="url(#a)"/></svg>