<svg width="200" height="153" fill="none" xmlns="http://www.w3.org/2000/svg"><mask id="a" fill="#fff"><path d="M25.11 15.959c-.378.244-.729.533-1.107.778l-1.71 1.291c-1.011.84-1.994 1.724-2.873 2.726-1.018 1.092-1.971 2.328-2.61 3.919-.584 1.37-1.084 2.87-1.563 4.358.292-.685.564-1.357.856-2.041.312-.698.604-1.383.945-2.037.34-.654.68-1.308 1.126-1.844.365-.484.758-.924 1.152-1.365l-.04.026a25.66 25.66 0 014.038-3.417c.67-.494 1.367-.945 2.064-1.396l.698-.451c1.153-.622 2.258-1.274 3.41-1.896 1.053-.557 2.098-1.17 3.151-1.727.419-.271.914-.468 1.389-.65 2.407-1 4.786-2.042 7.165-3.084a10 10 0 011.157-.438l3.619-1.224c2.036-.697 4.053-1.382 6.09-2.079a261.09 261.09 0 016.002-1.34c1.33-.303 2.71-.574 4.04-.877l1.271-.263.384-.063c4.271-.345 8.534-.746 12.806-1.09.108-.009.236-.03.392-.006-5.298.38-10.337 1.218-15.107 2.516-1.53.431-3.051.92-4.553 1.395-.623.217-1.274.39-1.87.65-.841.359-1.655.762-2.497 1.12l-7.555 3.397-.982.45a.469.469 0 00-.248.097c-.725.408-1.423.86-2.12 1.31-2.36 1.464-4.673 2.96-7.013 4.41l-1.276.826c-.601.513-1.211.969-1.792 1.469-2.143 1.757-4.294 3.458-6.436 5.215-.32.206-.63.47-.92.72l-1.206 1.15c-2.12 2.054-4.185 4.194-6.108 6.553-3.798 4.75-7.132 10.129-9.637 16.397a89.375 89.375 0 00-3.365 9.614c-.969 3.355-1.833 6.826-2.42 10.553a96.774 96.774 0 00-.778 5.834 55.79 55.79 0 00-.343 5.677c-.04 2.048.03 4.215.213 6.493.152 2.071.381 4.217.822 6.473a71.314 71.314 0 001.853 7.542c.399 1.23.798 2.459 1.265 3.706.44 1.204.927 2.438 1.474 3.634a77.12 77.12 0 002.161 4.305 78.925 78.925 0 002.102 3.6c1.515 2.43 3.14 4.725 4.918 6.861a76.692 76.692 0 003.198 3.635c.906.964 1.832 1.915 2.74 2.753a78.355 78.355 0 005.525 4.609 66.6 66.6 0 006.115 4.166 83.49 83.49 0 005.583 3.084 88.247 88.247 0 0011.457 4.865c3.768 1.282 7.399 2.22 10.985 3a119.82 119.82 0 0010.79 1.825c1.69.209 3.428.449 5.053.514 3.054.133 6.087.278 9.142.411 1.34.063 2.633.095 3.974.157.372.008.744.015 1.136.009 4.916-.266 9.881-.5 14.797-.766.108-.008.236-.028.344-.037l1.091-.147 3.983-.53c2.862-.425 5.733-.794 8.624-1.176.403-.075.835-.106 1.239-.181.768-.124 1.527-.306 2.266-.474a2998.33 2998.33 0 008.732-1.927c1.075-.261 2.158-.466 3.233-.727.376-.118.779-.193 1.154-.313 2.205-.743 4.401-1.544 6.605-2.287 2.304-.808 4.657-1.585 6.961-2.393.268-.111.535-.222.822-.346.894-.454 1.836-.877 2.729-1.331 2.542-1.271 5.132-2.512 7.673-3.784.674-.312 1.341-.681 2.015-.992l1.037-.671c2.32-1.438 4.592-2.908 6.913-4.346.957-.619 1.922-1.181 2.879-1.799 1.144-.679 2.223-1.501 3.283-2.309 2.419-1.812 4.78-3.712 6.973-5.873 2.12-2.053 4.204-4.207 6.071-6.653a50.308 50.308 0 002.758-3.953 45.665 45.665 0 002.238-3.926c.744-1.473 1.411-3.02 1.945-4.73.48-1.488.931-3.019 1.258-4.656.341-1.832.635-3.695.747-5.751.125-1.817.154-3.695.03-5.723a46.985 46.985 0 00-.916-6.97 65.462 65.462 0 00-1.792-6.836 78.556 78.556 0 00-3.087-7.921 85.93 85.93 0 00-3.853-7.49c-3.068-5.267-6.707-10.415-10.606-14.959-3.691-4.308-7.599-8.166-11.503-11.405a107.201 107.201 0 00-11.648-8.397 111.503 111.503 0 00-11.4-6.266c-3.872-1.835-7.675-3.343-11.412-4.708a178.07 178.07 0 00-11.309-3.72c-1.042-.256-2.092-.569-3.114-.838-.184-.066-.341-.09-.545-.143a23.013 23.013 0 00-1.13-.261c-3.41-.77-6.791-1.498-10.201-2.268l-2.98-.676a1.818 1.818 0 00-.537-.087c-.441-.025-.889-.107-1.33-.132-3.263-.37-6.574-.77-9.857-1.125-.89-.108-1.73-.184-2.62-.291-.175-.01-.303.01-.48 0-.46-.012-.94-.01-1.4-.024-3.173-.055-6.367-.098-9.54-.153L75.885.234c-.176-.01-.324.024-.472.057l-1.356.133c-2.967.307-5.982.584-8.97.904-.491.07-1.012.096-1.503.166-.128.02-.304.01-.452.044-.711.212-1.43.367-2.17.536-2.81.638-5.57 1.308-8.36 1.934-.463.114-.935.17-1.35.315-.91.341-1.829.625-2.74.966-2.423.885-4.855 1.714-7.279 2.6a11.5 11.5 0 00-1.229.547c-1.249.56-2.478 1.106-3.728 1.665-1.15.496-2.29 1.048-3.44 1.544a2.338 2.338 0 00-.554.235c-.22.142-.487.252-.707.394-2.03 1.188-4.068 2.32-6.097 3.51-.14.09-.26.167-.368.175zM64.32 8.27c-.089-.005-.169.047-.276.055 11.702-3.104 24.864-3.557 39.299-.99a.477.477 0 00-.003-.006c.008.002.013 0 .023-.007.088.004.205.053.293.059-.088-.006-.156-.024-.245-.03 5.48 1.045 11.09 2.376 16.899 4.322a128.118 128.118 0 0117.798 7.46 120.579 120.579 0 0111.776 6.889 158.477 158.477 0 016.284 4.428c1.836 1.354 3.721 2.739 5.602 4.25a104.83 104.83 0 013.358 2.787c.603.54 1.234 1.123 1.838 1.663.326.285.651.57.957.868.889.851 1.73 1.67 2.591 2.478 1.473 1.403 2.917 2.762 4.358 4.248a159.517 159.517 0 00-3.655-4.517c-.532-.648-1.084-1.282-1.616-1.93-.713-.84-1.426-1.681-2.159-2.509-1.639-1.792-3.241-3.482-4.915-5.065-1.646-1.54-3.283-3.023-4.943-4.366-1.765-1.462-3.542-2.855-5.293-4.077a104.439 104.439 0 00-4.817-3.209 130.46 130.46 0 00-11.958-6.647c-4.057-1.968-8.008-3.674-11.842-5.112a116.605 116.605 0 00-8.287-2.761c.858.19 1.743.422 2.6.612.341.09.654.136.994.225.497.112 1.022.269 1.547.425 2.808.791 5.66 1.675 8.554 2.65 2.99 1.018 6.032 2.15 9.123 3.4 2.9 1.161 5.796 2.45 8.766 3.939 6.14 3.157 12.478 7.056 18.901 12.137 3.369 2.719 6.708 5.828 9.969 9.298a102.221 102.221 0 013.654 4.208 151.49 151.49 0 013.564 4.638 89.953 89.953 0 013.18 4.7c.933 1.442 1.778 2.88 2.631 4.373.776 1.42 1.533 2.852 2.201 4.279a90.753 90.753 0 011.982 4.42c.598 1.536 1.175 3.084 1.635 4.584.498 1.6.947 3.169 1.3 4.676.342 1.577.634 3.123.831 4.608.189 1.59.303 3.108.342 4.55.026 2.418-.101 4.674-.38 6.755-.293 2.053-.712 3.958-1.256 5.709-.574 1.735-1.176 3.426-1.912 4.956-.715 1.516-1.555 2.927-2.404 4.281-.939 1.476-1.907 2.907-2.98 4.221a47.333 47.333 0 01-3.08 3.542c-2.065 2.14-4.234 4.162-6.516 6.01-1.159.874-2.291 1.791-3.478 2.621-.57.431-1.188.83-1.758 1.26-.29.25-.589.444-.908.65l-5.187 3.168-6.005 3.697c-.279.181-.566.304-.854.428-.893.454-1.835.877-2.729 1.331l-7.709 3.683c-.635.287-1.261.63-1.916.929-.08.051-.187.059-.267.111-.316.08-.603.203-.919.284-4.329 1.436-8.63 2.915-12.959 4.351-3.733.74-7.43 1.58-11.134 2.365-1.035.235-2.118.44-3.153.675-.296.067-.612.147-.935.171-2.568.358-5.142.66-7.71 1.017-2.33.33-4.67.603-7.001.932-.383.062-.843.05-1.255.069-1.325.05-2.64.158-3.965.208-2.992.137-5.936.305-8.928.442-.46-.012-.864.063-1.304.038l-2.966-.128-9.69-.428c-.793-.046-1.557-.048-2.378-.137-3.41-.335-6.859-.771-10.4-1.395-2.106-.373-4.25-.847-6.421-1.364-2.016-.494-4.06-1.032-6.169-1.714a85.184 85.184 0 01-12.982-5.303c-2.108-1.116-4.195-2.246-6.364-3.633a63.954 63.954 0 01-3.322-2.253 86.942 86.942 0 01-2.556-1.942 49.892 49.892 0 01-3.422-2.932c-.986-.912-1.94-1.907-2.894-2.902a53.85 53.85 0 01-2.655-3.056 69.727 69.727 0 01-1.915-2.48 52.475 52.475 0 01-1.849-2.772 75.5 75.5 0 01-1.709-2.862 61.49 61.49 0 01-1.428-2.733 64.509 64.509 0 01-1.334-2.981c-.597-1.536-1.146-3.041-1.579-4.496-.488-1.543-.89-3.081-1.262-4.575-1.019-4.549-1.372-8.722-1.475-12.684a61.524 61.524 0 01.27-6.621c.232-2.133.484-4.28.82-6.294a90.544 90.544 0 012.67-11.52c1.724-5.64 3.867-10.807 6.485-15.413 1.335-2.351 2.803-4.54 4.327-6.641a78.904 78.904 0 014.944-5.862l-.004.003c.7-.69 1.395-1.418 2.097-2.1.322-.332.692-.634 1.034-.979.171-.172.314-.39.513-.518.32-.206.61-.456.9-.706 1.422-1.167 2.852-2.278 4.274-3.445 1.29-1.02 2.533-2.072 3.804-3.08.481-.435 1.048-.739 1.606-1.1 2.36-1.464 4.672-2.959 7.012-4.41a39.682 39.682 0 002.122-1.31c.1-.065.207-.072.287-.124.307-.137.634-.287.942-.423l7.555-3.398c.842-.358 1.656-.76 2.498-1.12l.14-.09a31.6 31.6 0 012.056-.71A112 112 0 0164.32 8.27zM23.231 33.126c-.034.04-.071.085-.118.116l.118-.116zm80.064-25.822s.018-.012.044.025a.22.22 0 01-.044-.025zM23.302 33.059l-.07.067a.401.401 0 01.07-.067zM7.633 60.795c.008-.021.016-.041.012-.07l-.012.07zm-.012.069l.012-.07a.125.125 0 00-.012.07zm154.36-25.991a.956.956 0 00-.086-.068l.086.068zm.087.068l-.087-.068c.032.026.063.053.087.068zm13.842 4.314c.024.016.05.046.076.075l-.076-.075zm.076.075l.077.074a.4.4 0 01-.076-.073h-.001zm21.146 44.591c.008.057-.012.07.017.114l-.017-.114zM103.46 7.383c-.049-.031-.049-.031-.069-.018l.069.018z"/></mask><path d="M25.11 15.959c-.378.244-.729.533-1.107.778l-1.71 1.291c-1.011.84-1.994 1.724-2.873 2.726-1.018 1.092-1.971 2.328-2.61 3.919-.584 1.37-1.084 2.87-1.563 4.358.292-.685.564-1.357.856-2.041.312-.698.604-1.383.945-2.037.34-.654.68-1.308 1.126-1.844.365-.484.758-.924 1.152-1.365l-.04.026a25.66 25.66 0 014.038-3.417c.67-.494 1.367-.945 2.064-1.396l.698-.451c1.153-.622 2.258-1.274 3.41-1.896 1.053-.557 2.098-1.17 3.151-1.727.419-.271.914-.468 1.389-.65 2.407-1 4.786-2.042 7.165-3.084a10 10 0 011.157-.438l3.619-1.224c2.036-.697 4.053-1.382 6.09-2.079a261.09 261.09 0 016.002-1.34c1.33-.303 2.71-.574 4.04-.877l1.271-.263.384-.063c4.271-.345 8.534-.746 12.806-1.09.108-.009.236-.03.392-.006-5.298.38-10.337 1.218-15.107 2.516-1.53.431-3.051.92-4.553 1.395-.623.217-1.274.39-1.87.65-.841.359-1.655.762-2.497 1.12l-7.555 3.397-.982.45a.469.469 0 00-.248.097c-.725.408-1.423.86-2.12 1.31-2.36 1.464-4.673 2.96-7.013 4.41l-1.276.826c-.601.513-1.211.969-1.792 1.469-2.143 1.757-4.294 3.458-6.436 5.215-.32.206-.63.47-.92.72l-1.206 1.15c-2.12 2.054-4.185 4.194-6.108 6.553-3.798 4.75-7.132 10.129-9.637 16.397a89.375 89.375 0 00-3.365 9.614c-.969 3.355-1.833 6.826-2.42 10.553a96.774 96.774 0 00-.778 5.834 55.79 55.79 0 00-.343 5.677c-.04 2.048.03 4.215.213 6.493.152 2.071.381 4.217.822 6.473a71.314 71.314 0 001.853 7.542c.399 1.23.798 2.459 1.265 3.706.44 1.204.927 2.438 1.474 3.634a77.12 77.12 0 002.161 4.305 78.925 78.925 0 002.102 3.6c1.515 2.43 3.14 4.725 4.918 6.861a76.692 76.692 0 003.198 3.635c.906.964 1.832 1.915 2.74 2.753a78.355 78.355 0 005.525 4.609 66.6 66.6 0 006.115 4.166 83.49 83.49 0 005.583 3.084 88.247 88.247 0 0011.457 4.865c3.768 1.282 7.399 2.22 10.985 3a119.82 119.82 0 0010.79 1.825c1.69.209 3.428.449 5.053.514 3.054.133 6.087.278 9.142.411 1.34.063 2.633.095 3.974.157.372.008.744.015 1.136.009 4.916-.266 9.881-.5 14.797-.766.108-.008.236-.028.344-.037l1.091-.147 3.983-.53c2.862-.425 5.733-.794 8.624-1.176.403-.075.835-.106 1.239-.181.768-.124 1.527-.306 2.266-.474a2998.33 2998.33 0 008.732-1.927c1.075-.261 2.158-.466 3.233-.727.376-.118.779-.193 1.154-.313 2.205-.743 4.401-1.544 6.605-2.287 2.304-.808 4.657-1.585 6.961-2.393.268-.111.535-.222.822-.346.894-.454 1.836-.877 2.729-1.331 2.542-1.271 5.132-2.512 7.673-3.784.674-.312 1.341-.681 2.015-.992l1.037-.671c2.32-1.438 4.592-2.908 6.913-4.346.957-.619 1.922-1.181 2.879-1.799 1.144-.679 2.223-1.501 3.283-2.309 2.419-1.812 4.78-3.712 6.973-5.873 2.12-2.053 4.204-4.207 6.071-6.653a50.308 50.308 0 002.758-3.953 45.665 45.665 0 002.238-3.926c.744-1.473 1.411-3.02 1.945-4.73.48-1.488.931-3.019 1.258-4.656.341-1.832.635-3.695.747-5.751.125-1.817.154-3.695.03-5.723a46.985 46.985 0 00-.916-6.97 65.462 65.462 0 00-1.792-6.836 78.556 78.556 0 00-3.087-7.921 85.93 85.93 0 00-3.853-7.49c-3.068-5.267-6.707-10.415-10.606-14.959-3.691-4.308-7.599-8.166-11.503-11.405a107.201 107.201 0 00-11.648-8.397 111.503 111.503 0 00-11.4-6.266c-3.872-1.835-7.675-3.343-11.412-4.708a178.07 178.07 0 00-11.309-3.72c-1.042-.256-2.092-.569-3.114-.838-.184-.066-.341-.09-.545-.143a23.013 23.013 0 00-1.13-.261c-3.41-.77-6.791-1.498-10.201-2.268l-2.98-.676a1.818 1.818 0 00-.537-.087c-.441-.025-.889-.107-1.33-.132-3.263-.37-6.574-.77-9.857-1.125-.89-.108-1.73-.184-2.62-.291-.175-.01-.303.01-.48 0-.46-.012-.94-.01-1.4-.024-3.173-.055-6.367-.098-9.54-.153L75.885.234c-.176-.01-.324.024-.472.057l-1.356.133c-2.967.307-5.982.584-8.97.904-.491.07-1.012.096-1.503.166-.128.02-.304.01-.452.044-.711.212-1.43.367-2.17.536-2.81.638-5.57 1.308-8.36 1.934-.463.114-.935.17-1.35.315-.91.341-1.829.625-2.74.966-2.423.885-4.855 1.714-7.279 2.6a11.5 11.5 0 00-1.229.547c-1.249.56-2.478 1.106-3.728 1.665-1.15.496-2.29 1.048-3.44 1.544a2.338 2.338 0 00-.554.235c-.22.142-.487.252-.707.394-2.03 1.188-4.068 2.32-6.097 3.51-.14.09-.26.167-.368.175zM64.32 8.27c-.089-.005-.169.047-.276.055 11.702-3.104 24.864-3.557 39.299-.99a.477.477 0 00-.003-.006c.008.002.013 0 .023-.007.088.004.205.053.293.059-.088-.006-.156-.024-.245-.03 5.48 1.045 11.09 2.376 16.899 4.322a128.118 128.118 0 0117.798 7.46 120.579 120.579 0 0111.776 6.889 158.477 158.477 0 016.284 4.428c1.836 1.354 3.721 2.739 5.602 4.25a104.83 104.83 0 013.358 2.787c.603.54 1.234 1.123 1.838 1.663.326.285.651.57.957.868.889.851 1.73 1.67 2.591 2.478 1.473 1.403 2.917 2.762 4.358 4.248a159.517 159.517 0 00-3.655-4.517c-.532-.648-1.084-1.282-1.616-1.93-.713-.84-1.426-1.681-2.159-2.509-1.639-1.792-3.241-3.482-4.915-5.065-1.646-1.54-3.283-3.023-4.943-4.366-1.765-1.462-3.542-2.855-5.293-4.077a104.439 104.439 0 00-4.817-3.209 130.46 130.46 0 00-11.958-6.647c-4.057-1.968-8.008-3.674-11.842-5.112a116.605 116.605 0 00-8.287-2.761c.858.19 1.743.422 2.6.612.341.09.654.136.994.225.497.112 1.022.269 1.547.425 2.808.791 5.66 1.675 8.554 2.65 2.99 1.018 6.032 2.15 9.123 3.4 2.9 1.161 5.796 2.45 8.766 3.939 6.14 3.157 12.478 7.056 18.901 12.137 3.369 2.719 6.708 5.828 9.969 9.298a102.221 102.221 0 013.654 4.208 151.49 151.49 0 013.564 4.638 89.953 89.953 0 013.18 4.7c.933 1.442 1.778 2.88 2.631 4.373.776 1.42 1.533 2.852 2.201 4.279a90.753 90.753 0 011.982 4.42c.598 1.536 1.175 3.084 1.635 4.584.498 1.6.947 3.169 1.3 4.676.342 1.577.634 3.123.831 4.608.189 1.59.303 3.108.342 4.55.026 2.418-.101 4.674-.38 6.755-.293 2.053-.712 3.958-1.256 5.709-.574 1.735-1.176 3.426-1.912 4.956-.715 1.516-1.555 2.927-2.404 4.281-.939 1.476-1.907 2.907-2.98 4.221a47.333 47.333 0 01-3.08 3.542c-2.065 2.14-4.234 4.162-6.516 6.01-1.159.874-2.291 1.791-3.478 2.621-.57.431-1.188.83-1.758 1.26-.29.25-.589.444-.908.65l-5.187 3.168-6.005 3.697c-.279.181-.566.304-.854.428-.893.454-1.835.877-2.729 1.331l-7.709 3.683c-.635.287-1.261.63-1.916.929-.08.051-.187.059-.267.111-.316.08-.603.203-.919.284-4.329 1.436-8.63 2.915-12.959 4.351-3.733.74-7.43 1.58-11.134 2.365-1.035.235-2.118.44-3.153.675-.296.067-.612.147-.935.171-2.568.358-5.142.66-7.71 1.017-2.33.33-4.67.603-7.001.932-.383.062-.843.05-1.255.069-1.325.05-2.64.158-3.965.208-2.992.137-5.936.305-8.928.442-.46-.012-.864.063-1.304.038l-2.966-.128-9.69-.428c-.793-.046-1.557-.048-2.378-.137-3.41-.335-6.859-.771-10.4-1.395-2.106-.373-4.25-.847-6.421-1.364-2.016-.494-4.06-1.032-6.169-1.714a85.184 85.184 0 01-12.982-5.303c-2.108-1.116-4.195-2.246-6.364-3.633a63.954 63.954 0 01-3.322-2.253 86.942 86.942 0 01-2.556-1.942 49.892 49.892 0 01-3.422-2.932c-.986-.912-1.94-1.907-2.894-2.902a53.85 53.85 0 01-2.655-3.056 69.727 69.727 0 01-1.915-2.48 52.475 52.475 0 01-1.849-2.772 75.5 75.5 0 01-1.709-2.862 61.49 61.49 0 01-1.428-2.733 64.509 64.509 0 01-1.334-2.981c-.597-1.536-1.146-3.041-1.579-4.496-.488-1.543-.89-3.081-1.262-4.575-1.019-4.549-1.372-8.722-1.475-12.684a61.524 61.524 0 01.27-6.621c.232-2.133.484-4.28.82-6.294a90.544 90.544 0 012.67-11.52c1.724-5.64 3.867-10.807 6.485-15.413 1.335-2.351 2.803-4.54 4.327-6.641a78.904 78.904 0 014.944-5.862l-.004.003c.7-.69 1.395-1.418 2.097-2.1.322-.332.692-.634 1.034-.979.171-.172.314-.39.513-.518.32-.206.61-.456.9-.706 1.422-1.167 2.852-2.278 4.274-3.445 1.29-1.02 2.533-2.072 3.804-3.08.481-.435 1.048-.739 1.606-1.1 2.36-1.464 4.672-2.959 7.012-4.41a39.682 39.682 0 002.122-1.31c.1-.065.207-.072.287-.124.307-.137.634-.287.942-.423l7.555-3.398c.842-.358 1.656-.76 2.498-1.12l.14-.09a31.6 31.6 0 012.056-.71A112 112 0 0164.32 8.27zM23.231 33.126c-.034.04-.071.085-.118.116l.118-.116h0zm80.064-25.822s.018-.012.044.025a.22.22 0 01-.044-.025zM23.302 33.059l-.07.067a.401.401 0 01.07-.067h0zM7.633 60.795c.008-.021.016-.041.012-.07l-.012.07zm-.012.069l.012-.07a.125.125 0 00-.012.07zm154.36-25.991a.956.956 0 00-.086-.068l.086.068zm.087.068l-.087-.068c.032.026.063.053.087.068zm13.842 4.314c.024.016.05.046.076.075l-.076-.075zm.076.075l.077.074a.4.4 0 01-.076-.073h-.001zm21.146 44.591c.008.057-.012.07.017.114l-.017-.114zM103.46 7.383c-.049-.031-.049-.031-.069-.018l.069.018z" fill="#F37060" stroke="#F37060" stroke-width=".632" mask="url(#a)"/></svg>