<svg width="184" height="127" fill="none" xmlns="http://www.w3.org/2000/svg"><mask id="a" fill="#fff"><path d="M41.465 7.772c-.406.153-.797.344-1.203.497l-1.878.84c-1.13.557-2.247 1.154-3.298 1.858-1.201.76-2.38 1.643-3.364 2.85-.878 1.034-1.713 2.183-2.526 3.325.44-.517.857-1.026 1.296-1.543.46-.526.9-1.043 1.374-1.53.475-.486.95-.973 1.49-1.352.454-.347.923-.655 1.392-.964l-.043.016a29.73 29.73 0 014.53-2.278 47.01 47.01 0 012.228-.883l.747-.281c1.203-.366 2.37-.762 3.574-1.127 1.096-.325 2.2-.697 3.296-1.022.448-.169.947-.27 1.425-.36a460.91 460.91 0 007.28-1.645c.377-.098.769-.158 1.16-.217l3.593-.562c2.023-.323 4.026-.638 6.05-.961 1.918-.15 3.85-.263 5.782-.376 1.283-.088 2.603-.145 3.886-.233l1.22-.064.364-.005c3.96.222 7.927.398 11.887.62.1.006.221.005.357.042-4.9-.315-9.682-.229-14.336.258-1.497.168-3 .383-4.483.59-.62.101-1.255.165-1.86.304-.855.19-1.695.42-2.55.61l-7.714 1.85-1.004.247a.536.536 0 00-.25.05c-.761.243-1.508.525-2.255.807-2.513.902-4.99 1.835-7.48 2.73l-1.367.514c-.675.343-1.344.638-1.998.973-2.39 1.164-4.773 2.282-7.162 3.445-.342.13-.69.305-1.017.472l-1.387.786c-2.445 1.404-4.861 2.886-7.205 4.56-4.651 3.38-9.042 7.32-12.908 12.073a85.97 85.97 0 00-5.497 7.346c-1.732 2.587-3.399 5.28-4.879 8.212a82.87 82.87 0 00-2.19 4.606 45.795 45.795 0 00-1.755 4.53 50.778 50.778 0 00-1.459 5.253C.94 64.317.6 66.072.427 67.94c-.195 2.007-.303 4.114-.24 6.288.05 1.037.098 2.073.204 3.132.093 1.02.22 2.07.412 3.098.243 1.228.522 2.485.864 3.718.292 1.034.62 2.097.99 3.144.755 2.134 1.645 4.172 2.712 6.1a50.599 50.599 0 001.975 3.3 36.965 36.965 0 001.785 2.537 54.09 54.09 0 003.835 4.357 48.054 48.054 0 004.484 4.07 63.468 63.468 0 004.277 3.136 70.737 70.737 0 009.15 5.257c3.09 1.474 6.143 2.653 9.195 3.701 3.11 1.07 6.225 1.963 9.319 2.732 1.478.366 2.993.762 4.45 1.005 2.735.464 5.448.936 8.183 1.401 1.2.207 2.363.384 3.563.592.336.049.671.098 1.028.139 4.525.362 9.085.754 13.61 1.115.1.007.221.005.32.011l1.028.009 3.745.04c2.703-.008 5.4.031 8.118.062.385-.013.785.012 1.17-.001.728-.01 1.462-.067 2.175-.116 2.803-.173 5.605-.35 8.406-.53 1.041-.084 2.076-.122 3.117-.206.37-.052.755-.065 1.126-.117 2.188-.341 4.382-.728 6.57-1.069 2.295-.381 4.625-.731 6.919-1.112.271-.058.542-.116.834-.182.926-.26 1.887-.491 2.813-.752 2.628-.726 5.291-1.422 7.919-2.148.69-.173 1.388-.391 2.079-.563l1.111-.419c2.469-.887 4.903-1.804 7.373-2.69 1.025-.386 2.042-.725 3.067-1.111 1.21-.413 2.398-.948 3.565-1.475 2.654-1.176 5.278-2.429 7.815-3.912 2.445-1.405 4.883-2.895 7.198-4.646a54.854 54.854 0 003.506-2.86 47.789 47.789 0 003.028-2.898c1.049-1.099 2.047-2.266 2.966-3.58.814-1.142 1.613-2.322 2.325-3.601.776-1.436 1.516-2.901 2.141-4.543a34.743 34.743 0 001.484-4.603c.445-1.795.783-3.68.942-5.718.146-1.814.205-3.726.115-5.714a52.403 52.403 0 00-.784-6.739 56.113 56.113 0 00-1.588-6.48c-1.44-4.6-3.43-9.17-5.809-13.284-2.25-3.9-4.811-7.463-7.526-10.528-2.715-3.065-5.549-5.734-8.424-8.123a84.595 84.595 0 00-8.742-6.379c-3.043-1.93-6.107-3.59-9.148-5.125a150.213 150.213 0 00-9.306-4.319c-.88-.328-1.752-.702-2.61-1.038-.15-.076-.286-.113-.458-.18a20.393 20.393 0 00-.958-.342c-2.895-1.02-5.776-2-8.671-3.02l-2.53-.892a1.685 1.685 0 00-.465-.133c-.393-.072-.779-.19-1.172-.262-2.864-.68-5.764-1.389-8.65-2.06-.779-.19-1.522-.35-2.301-.54-.157-.029-.278-.027-.435-.056-.414-.064-.85-.12-1.264-.183-2.863-.417-5.747-.825-8.61-1.24l-2.249-.34a1.69 1.69 0 00-.442-.009L89.793.994c-2.769-.1-5.573-.23-8.362-.322C80.967.67 80.489.63 80.025.63c-.12.002-.278-.027-.42-.017-.7.087-1.39.128-2.104.177-2.71.185-5.383.401-8.071.579-.45.037-.891.028-1.305.095-.912.168-1.817.29-2.73.457-2.422.43-4.837.812-7.26 1.24-.435.077-.834.183-1.254.298l-3.803.904c-1.169.265-2.344.576-3.512.84-.185.026-.392.06-.562.125-.235.088-.506.146-.74.235-2.144.719-4.28 1.392-6.422 2.111-.15.056-.277.105-.377.098zm37.503-1.6c-.079-.015-.164.017-.264.011 11.4-1.13 23.447.046 35.882 3.802l-.002-.006c.007.004.012.002.023-.002.079.014.172.067.25.081-.078-.014-.135-.037-.214-.051 4.703 1.481 9.45 3.21 14.221 5.456a103.074 103.074 0 0114.238 8.088 90.058 90.058 0 018.923 6.924 113.119 113.119 0 014.57 4.301c1.321 1.305 2.677 2.64 3.999 4.076a71.93 71.93 0 012.334 2.638c.41.505.834 1.048 1.244 1.553.223.268.445.536.647.811.589.79 1.143 1.548 1.719 2.298.978 1.302 1.941 2.566 2.87 3.93a104.583 104.583 0 00-2.165-4.064c-.317-.584-.656-1.159-.974-1.743-.432-.76-.865-1.52-1.319-2.272-1.03-1.635-2.052-3.183-3.167-4.653-1.1-1.433-2.207-2.818-3.371-4.094-1.228-1.383-2.484-2.712-3.761-3.901a76.072 76.072 0 00-3.551-3.147 98.58 98.58 0 00-9.15-6.751 111.094 111.094 0 00-9.436-5.501 97.963 97.963 0 00-6.81-3.193c.729.254 1.473.544 2.202.797.286.112.558.186.843.298a21.3 21.3 0 011.295.523c2.345.965 4.705 2.01 7.081 3.135a143.5 143.5 0 017.406 3.804 90.406 90.406 0 016.945 4.197c4.763 3.26 9.517 7.14 14.048 11.983 2.362 2.583 4.598 5.477 6.672 8.652a66.631 66.631 0 012.242 3.816 99.29 99.29 0 012.052 4.15 59.074 59.074 0 011.687 4.156c.478 1.27.879 2.526 1.272 3.828a50.71 50.71 0 01.907 3.703c.27 1.285.494 2.55.672 3.79.151 1.307.281 2.62.317 3.882a47.239 47.239 0 01-.012 3.917 41.318 41.318 0 01-.419 3.806 38.23 38.23 0 01-.847 3.704 38.664 38.664 0 01-2.064 5.394 33.137 33.137 0 01-2.591 4.448c-.962 1.33-1.938 2.621-2.994 3.766-1.034 1.137-2.155 2.174-3.269 3.166-1.227 1.078-2.469 2.117-3.776 3.049a53.153 53.153 0 01-3.693 2.491 83.438 83.438 0 01-7.437 4.076c-1.273.568-2.532 1.174-3.82 1.703-.626.28-1.288.529-1.914.809a9.196 9.196 0 01-.989.416l-5.509 1.944-6.384 2.274c-.299.112-.591.178-.883.244-.926.261-1.887.492-2.813.752l-7.927 2.063c-.648.157-1.303.36-1.973.524-.085.032-.185.026-.27.058-.307.027-.599.093-.905.121-4.291.649-8.566 1.337-12.856 1.986-3.573.16-7.138.403-10.696.601-.999.069-2.033.106-3.03.175-.286.019-.593.047-.892.028-2.419-.013-4.83-.071-7.248-.083-2.197-.007-4.388-.062-6.585-.069-.363.005-.777-.059-1.156-.092-1.213-.115-2.433-.182-3.647-.297-2.747-.239-5.46-.448-8.207-.688-.414-.064-.8-.051-1.192-.122l-2.656-.45-8.676-1.479c-.707-.13-1.4-.221-2.12-.388-3.008-.67-6.023-1.424-9.075-2.341a101.775 101.775 0 01-5.475-1.849c-1.701-.634-3.417-1.306-5.156-2.102a69.004 69.004 0 01-10.421-5.788c-1.626-1.146-3.231-2.3-4.845-3.67a46.104 46.104 0 01-2.438-2.202 60.746 60.746 0 01-1.824-1.863 34.374 34.374 0 01-2.356-2.761c-.662-.85-1.274-1.762-1.886-2.675a35.525 35.525 0 01-1.629-2.771c-.397-.73-.75-1.475-1.105-2.221a34.133 34.133 0 01-.97-2.448 48.766 48.766 0 01-.822-2.504 39.9 39.9 0 01-.6-2.367c-.179-.866-.33-1.72-.45-2.556-.151-1.306-.266-2.582-.288-3.804-.05-1.3-.023-2.585.02-3.832.233-3.78.975-7.181 1.89-10.383a49.886 49.886 0 011.93-5.299c.752-1.69 1.526-3.388 2.344-4.971a81.99 81.99 0 015.352-8.962c2.998-4.338 6.255-8.247 9.8-11.649 1.809-1.737 3.696-3.327 5.613-4.84a88.429 88.429 0 015.973-4.14l-.004.001c.81-.473 1.626-.978 2.435-1.445.377-.23.79-.43 1.188-.667.198-.119.383-.277.596-.357.342-.129.67-.296.996-.463 1.586-.773 3.165-1.5 4.751-2.273 1.43-.67 2.824-1.372 4.232-2.034.547-.295 1.138-.473 1.736-.698 2.513-.903 4.99-1.836 7.48-2.73a46.91 46.91 0 002.257-.807c.106-.04.206-.033.292-.066l.961-.23 7.714-1.851c.855-.19 1.695-.418 2.55-.61l.15-.056a35.877 35.877 0 012.044-.33 126.21 126.21 0 014.113-.539zm-43.574 15.2a.632.632 0 01-.137.08l.137-.08zM114.55 9.955s.019-.008.033.025a.14.14 0 01-.033-.025zM35.474 21.327l-.08.046a.467.467 0 01.08-.046zM14.212 41.823c.012-.016.024-.032.028-.055l-.028.055zm-.029.054l.029-.054a.109.109 0 00-.029.054zm146.558-2.86a.674.674 0 00-.061-.065l.061.065zm.061.065l-.061-.066c.022.026.043.05.061.066zm11.452 5.093a.28.28 0 01.05.069l-.05-.07zm.05.069l.05.069a.334.334 0 01-.05-.068v-.001zm7.825 38.373c-.007.047-.028.055-.013.093l.013-.093zm-65.45-72.58c-.036-.03-.036-.03-.057-.022l.057.022z"/></mask><path d="M41.465 7.772c-.406.153-.797.344-1.203.497l-1.878.84c-1.13.557-2.247 1.154-3.298 1.858-1.201.76-2.38 1.643-3.364 2.85-.878 1.034-1.713 2.183-2.526 3.325.44-.517.857-1.026 1.296-1.543.46-.526.9-1.043 1.374-1.53.475-.486.95-.973 1.49-1.352.454-.347.923-.655 1.392-.964l-.043.016a29.73 29.73 0 014.53-2.278 47.01 47.01 0 012.228-.883l.747-.281c1.203-.366 2.37-.762 3.574-1.127 1.096-.325 2.2-.697 3.296-1.022.448-.169.947-.27 1.425-.36a460.91 460.91 0 007.28-1.645c.377-.098.769-.158 1.16-.217l3.593-.562c2.023-.323 4.026-.638 6.05-.961 1.918-.15 3.85-.263 5.782-.376 1.283-.088 2.603-.145 3.886-.233l1.22-.064.364-.005c3.96.222 7.927.398 11.887.62.1.006.221.005.357.042-4.9-.315-9.682-.229-14.336.258-1.497.168-3 .383-4.483.59-.62.101-1.255.165-1.86.304-.855.19-1.695.42-2.55.61l-7.714 1.85-1.004.247a.536.536 0 00-.25.05c-.761.243-1.508.525-2.255.807-2.513.902-4.99 1.835-7.48 2.73l-1.367.514c-.675.343-1.344.638-1.998.973-2.39 1.164-4.773 2.282-7.162 3.445-.342.13-.69.305-1.017.472l-1.387.786c-2.445 1.404-4.861 2.886-7.205 4.56-4.651 3.38-9.042 7.32-12.908 12.073a85.97 85.97 0 00-5.497 7.346c-1.732 2.587-3.399 5.28-4.879 8.212a82.87 82.87 0 00-2.19 4.606 45.795 45.795 0 00-1.755 4.53 50.778 50.778 0 00-1.459 5.253C.94 64.317.6 66.072.427 67.94c-.195 2.007-.303 4.114-.24 6.288.05 1.037.098 2.073.204 3.132.093 1.02.22 2.07.412 3.098.243 1.228.522 2.485.864 3.718.292 1.034.62 2.097.99 3.144.755 2.134 1.645 4.172 2.712 6.1a50.599 50.599 0 001.975 3.3 36.965 36.965 0 001.785 2.537 54.09 54.09 0 003.835 4.357 48.054 48.054 0 004.484 4.07 63.468 63.468 0 004.277 3.136 70.737 70.737 0 009.15 5.257c3.09 1.474 6.143 2.653 9.195 3.701 3.11 1.07 6.225 1.963 9.319 2.732 1.478.366 2.993.762 4.45 1.005 2.735.464 5.448.936 8.183 1.401 1.2.207 2.363.384 3.563.592.336.049.671.098 1.028.139 4.525.362 9.085.754 13.61 1.115.1.007.221.005.32.011l1.028.009 3.745.04c2.703-.008 5.4.031 8.118.062.385-.013.785.012 1.17-.001.728-.01 1.462-.067 2.175-.116 2.803-.173 5.605-.35 8.406-.53 1.041-.084 2.076-.122 3.117-.206.37-.052.755-.065 1.126-.117 2.188-.341 4.382-.728 6.57-1.069 2.295-.381 4.625-.731 6.919-1.112.271-.058.542-.116.834-.182.926-.26 1.887-.491 2.813-.752 2.628-.726 5.291-1.422 7.919-2.148.69-.173 1.388-.391 2.079-.563l1.111-.419c2.469-.887 4.903-1.804 7.373-2.69 1.025-.386 2.042-.725 3.067-1.111 1.21-.413 2.398-.948 3.565-1.475 2.654-1.176 5.278-2.429 7.815-3.912 2.445-1.405 4.883-2.895 7.198-4.646a54.854 54.854 0 003.506-2.86 47.789 47.789 0 003.028-2.898c1.049-1.099 2.047-2.266 2.966-3.58.814-1.142 1.613-2.322 2.325-3.601.776-1.436 1.516-2.901 2.141-4.543a34.743 34.743 0 001.484-4.603c.445-1.795.783-3.68.942-5.718.146-1.814.205-3.726.115-5.714a52.403 52.403 0 00-.784-6.739 56.113 56.113 0 00-1.588-6.48c-1.44-4.6-3.43-9.17-5.809-13.284-2.25-3.9-4.811-7.463-7.526-10.528-2.715-3.065-5.549-5.734-8.424-8.123a84.595 84.595 0 00-8.742-6.379c-3.043-1.93-6.107-3.59-9.148-5.125a150.213 150.213 0 00-9.306-4.319c-.88-.328-1.752-.702-2.61-1.038-.15-.076-.286-.113-.458-.18a20.393 20.393 0 00-.958-.342c-2.895-1.02-5.776-2-8.671-3.02l-2.53-.892a1.685 1.685 0 00-.465-.133c-.393-.072-.779-.19-1.172-.262-2.864-.68-5.764-1.389-8.65-2.06-.779-.19-1.522-.35-2.301-.54-.157-.029-.278-.027-.435-.056-.414-.064-.85-.12-1.264-.183-2.863-.417-5.747-.825-8.61-1.24l-2.249-.34a1.69 1.69 0 00-.442-.009L89.793.994c-2.769-.1-5.573-.23-8.362-.322C80.967.67 80.489.63 80.025.63c-.12.002-.278-.027-.42-.017-.7.087-1.39.128-2.104.177-2.71.185-5.383.401-8.071.579-.45.037-.891.028-1.305.095-.912.168-1.817.29-2.73.457-2.422.43-4.837.812-7.26 1.24-.435.077-.834.183-1.254.298l-3.803.904c-1.169.265-2.344.576-3.512.84-.185.026-.392.06-.562.125-.235.088-.506.146-.74.235-2.144.719-4.28 1.392-6.422 2.111-.15.056-.277.105-.377.098zm37.503-1.6c-.079-.015-.164.017-.264.011 11.4-1.13 23.447.046 35.882 3.802l-.002-.006c.007.004.012.002.023-.002.079.014.172.067.25.081-.078-.014-.135-.037-.214-.051 4.703 1.481 9.45 3.21 14.221 5.456a103.074 103.074 0 0114.238 8.088 90.058 90.058 0 018.923 6.924 113.119 113.119 0 014.57 4.301c1.321 1.305 2.677 2.64 3.999 4.076a71.93 71.93 0 012.334 2.638c.41.505.834 1.048 1.244 1.553.223.268.445.536.647.811.589.79 1.143 1.548 1.719 2.298.978 1.302 1.941 2.566 2.87 3.93a104.583 104.583 0 00-2.165-4.064c-.317-.584-.656-1.159-.974-1.743-.432-.76-.865-1.52-1.319-2.272-1.03-1.635-2.052-3.183-3.167-4.653-1.1-1.433-2.207-2.818-3.371-4.094-1.228-1.383-2.484-2.712-3.761-3.901a76.072 76.072 0 00-3.551-3.147 98.58 98.58 0 00-9.15-6.751 111.094 111.094 0 00-9.436-5.501 97.963 97.963 0 00-6.81-3.193c.729.254 1.473.544 2.202.797.286.112.558.186.843.298a21.3 21.3 0 011.295.523c2.345.965 4.705 2.01 7.081 3.135a143.5 143.5 0 017.406 3.804 90.406 90.406 0 016.945 4.197c4.763 3.26 9.517 7.14 14.048 11.983 2.362 2.583 4.598 5.477 6.672 8.652a66.631 66.631 0 012.242 3.816 99.29 99.29 0 012.052 4.15 59.074 59.074 0 011.687 4.156c.478 1.27.879 2.526 1.272 3.828a50.71 50.71 0 01.907 3.703c.27 1.285.494 2.55.672 3.79.151 1.307.281 2.62.317 3.882a47.239 47.239 0 01-.012 3.917 41.318 41.318 0 01-.419 3.806 38.23 38.23 0 01-.847 3.704 38.664 38.664 0 01-2.064 5.394 33.137 33.137 0 01-2.591 4.448c-.962 1.33-1.938 2.621-2.994 3.766-1.034 1.137-2.155 2.174-3.269 3.166-1.227 1.078-2.469 2.117-3.776 3.049a53.153 53.153 0 01-3.693 2.491 83.438 83.438 0 01-7.437 4.076c-1.273.568-2.532 1.174-3.82 1.703-.626.28-1.288.529-1.914.809a9.196 9.196 0 01-.989.416l-5.509 1.944-6.384 2.274c-.299.112-.591.178-.883.244-.926.261-1.887.492-2.813.752l-7.927 2.063c-.648.157-1.303.36-1.973.524-.085.032-.185.026-.27.058-.307.027-.599.093-.905.121-4.291.649-8.566 1.337-12.856 1.986-3.573.16-7.138.403-10.696.601-.999.069-2.033.106-3.03.175-.286.019-.593.047-.892.028-2.419-.013-4.83-.071-7.248-.083-2.197-.007-4.388-.062-6.585-.069-.363.005-.777-.059-1.156-.092-1.213-.115-2.433-.182-3.647-.297-2.747-.239-5.46-.448-8.207-.688-.414-.064-.8-.051-1.192-.122l-2.656-.45-8.676-1.479c-.707-.13-1.4-.221-2.12-.388-3.008-.67-6.023-1.424-9.075-2.341a101.775 101.775 0 01-5.475-1.849c-1.701-.634-3.417-1.306-5.156-2.102a69.004 69.004 0 01-10.421-5.788c-1.626-1.146-3.231-2.3-4.845-3.67a46.104 46.104 0 01-2.438-2.202 60.746 60.746 0 01-1.824-1.863 34.374 34.374 0 01-2.356-2.761c-.662-.85-1.274-1.762-1.886-2.675a35.525 35.525 0 01-1.629-2.771c-.397-.73-.75-1.475-1.105-2.221a34.133 34.133 0 01-.97-2.448 48.766 48.766 0 01-.822-2.504 39.9 39.9 0 01-.6-2.367c-.179-.866-.33-1.72-.45-2.556-.151-1.306-.266-2.582-.288-3.804-.05-1.3-.023-2.585.02-3.832.233-3.78.975-7.181 1.89-10.383a49.886 49.886 0 011.93-5.299c.752-1.69 1.526-3.388 2.344-4.971a81.99 81.99 0 015.352-8.962c2.998-4.338 6.255-8.247 9.8-11.649 1.809-1.737 3.696-3.327 5.613-4.84a88.429 88.429 0 015.973-4.14l-.004.001c.81-.473 1.626-.978 2.435-1.445.377-.23.79-.43 1.188-.667.198-.119.383-.277.596-.357.342-.129.67-.296.996-.463 1.586-.773 3.165-1.5 4.751-2.273 1.43-.67 2.824-1.372 4.232-2.034.547-.295 1.138-.473 1.736-.698 2.513-.903 4.99-1.836 7.48-2.73a46.91 46.91 0 002.257-.807c.106-.04.206-.033.292-.066l.961-.23 7.714-1.851c.855-.19 1.695-.418 2.55-.61l.15-.056a35.877 35.877 0 012.044-.33 126.21 126.21 0 014.113-.539zm-43.574 15.2a.632.632 0 01-.137.08l.137-.08h0zM114.55 9.955s.019-.008.033.025a.14.14 0 01-.033-.025zM35.474 21.327l-.08.046a.467.467 0 01.08-.046h0zM14.212 41.823c.012-.016.024-.032.028-.055l-.028.055zm-.029.054l.029-.054a.109.109 0 00-.029.054zm146.558-2.86a.674.674 0 00-.061-.065l.061.065zm.061.065l-.061-.066c.022.026.043.05.061.066zm11.452 5.093a.28.28 0 01.05.069l-.05-.07zm.05.069l.05.069a.334.334 0 01-.05-.068v-.001zm7.825 38.373c-.007.047-.028.055-.013.093l.013-.093zm-65.45-72.58c-.036-.03-.036-.03-.057-.022l.057.022z" fill="#969595" stroke="#8C8C8C" stroke-width=".632" mask="url(#a)"/></svg>