<svg width="139" height="44" fill="none" xmlns="http://www.w3.org/2000/svg"><path fill-rule="evenodd" clip-rule="evenodd" d="M34.031 22.165c-.957-6.657-5.111-14.567-10.88-18.91C20.785 1.476 17.9.32 15.242.056 8.68-.599 2.831 4.873 1.078 10.876c-2.402 7.99-.184 18.655 7.636 26.728l.004.003a.03.03 0 00.005.009l.02.016c.484.494 1.429 1.27 2.173 1.789 3.205 2.474 6.365 4.04 11.03 4.084 4.544.042 5.778-2.125 3.89-6.15-2.292-4.88-6.281-3.333-10.315-8.143-1.254-1.496-2.272-3.207-3.071-5.012-3.303-7.453-2.21-15.11 2.438-17.099 4.65-1.99 10.354 2.139 13.657 9.592.836 1.886 1.446 3.553 1.804 5.354.39 1.955 1.192 2.195 2.29 2.852 1.29.77 1.708-.54 1.392-2.734z" fill="#10B899"/><path d="M43.916 28.569l.506-.819a.656.656 0 01.219-.227.613.613 0 01.335-.083c.142 0 .281.043.414.129.136.088.295.185.48.29.182.11.408.208.666.297.258.09.58.135.964.135.315 0 .59-.039.825-.115.232-.076.424-.179.576-.31a1.26 1.26 0 00.335-.446c.07-.165.106-.347.106-.538a.895.895 0 00-.222-.627 1.838 1.838 0 00-.586-.419 5.613 5.613 0 00-.828-.324c-.309-.095-.623-.195-.941-.293a8.193 8.193 0 01-.938-.357 3.2 3.2 0 01-.825-.54 2.408 2.408 0 01-.583-.797c-.146-.31-.219-.69-.219-1.142a2.729 2.729 0 01.964-2.082 3.592 3.592 0 011.173-.65c.46-.158.994-.238 1.597-.238.692 0 1.322.106 1.892.32.566.215 1.043.505 1.424.869l-.49.795a.552.552 0 01-.186.201.472.472 0 01-.255.066.793.793 0 01-.377-.113c-.14-.076-.298-.157-.477-.25a3.94 3.94 0 00-.637-.245 3.15 3.15 0 00-.854-.105c-.265 0-.504.03-.716.092a1.535 1.535 0 00-.543.274 1.26 1.26 0 00-.345.416 1.09 1.09 0 00-.122.515c0 .244.07.445.212.606.142.163.331.305.566.424.235.118.504.224.812.323l.93.294c.316.099.63.218.948.353.315.135.597.303.845.502.249.2.45.438.603.721.15.282.225.622.225 1.017 0 .482-.086.928-.261 1.333-.173.406-.428.76-.762 1.06-.335.3-.752.532-1.256.7-.503.165-1.073.248-1.72.248-.347 0-.688-.03-1.023-.093a5.71 5.71 0 01-.94-.264 4.821 4.821 0 01-1.511-.903zm9.415 1.105V19.578h1.424c.322 0 .53.135.623.406l.043.88a6.25 6.25 0 01.567-.58c.192-.175.4-.327.626-.456a3.27 3.27 0 01.722-.303c.26-.076.537-.113.835-.113a2.7 2.7 0 01.874.138 2.313 2.313 0 011.23 1.024 4.1 4.1 0 01.377.821c.156-.35.348-.65.577-.9A3.02 3.02 0 0162 19.88c.284-.158.59-.274.907-.354.322-.076.65-.116.987-.116.543 0 1.03.086 1.457.258.428.169.789.42 1.084.75.294.326.516.729.669 1.204.152.471.228 1.013.228 1.617v6.433h-2.136V23.24c0-.712-.153-1.25-.46-1.607-.309-.36-.77-.537-1.376-.537-.275 0-.526.046-.765.139a1.88 1.88 0 00-.626.409 1.79 1.79 0 00-.424.667c-.1.266-.15.577-.15.93v6.433H59.26V23.24c0-.74-.15-1.285-.447-1.628-.299-.346-.733-.517-1.309-.517a2.11 2.11 0 00-1.1.303 3.595 3.595 0 00-.937.828v7.446H53.33zm15.76-2.545c0-.386.104-.762.313-1.132.213-.369.556-.703 1.037-.993.477-.294 1.11-.534 1.899-.73.784-.191 1.755-.3 2.909-.326v-.69c0-.74-.156-1.29-.465-1.65-.31-.36-.769-.542-1.368-.542-.408 0-.75.053-1.034.159a4.617 4.617 0 00-.728.343 12.52 12.52 0 00-.543.344.906.906 0 01-.51.158.584.584 0 01-.375-.12 1.085 1.085 0 01-.258-.287l-.381-.713c1.147-1.046 2.51-1.567 4.09-1.567.578 0 1.094.091 1.545.28.453.189.832.453 1.136.8.304.342.536.752.695 1.22.163.471.243.994.243 1.567v6.423h-.95c-.21 0-.364-.03-.471-.092-.11-.06-.199-.189-.269-.38l-.19-.818a6.685 6.685 0 01-.761.62 4.98 4.98 0 01-.778.453 3.676 3.676 0 01-.857.28 5.158 5.158 0 01-1.018.093c-.41 0-.792-.056-1.15-.165a2.37 2.37 0 01-1.536-1.352 2.91 2.91 0 01-.226-1.183zm2.046-.148c0 .235.04.436.116.598.08.165.187.3.323.406.135.102.291.181.473.23.182.05.38.076.602.076.554 0 1.034-.102 1.435-.306.4-.208.79-.499 1.163-.878v-1.852c-.762.034-1.404.093-1.925.186-.52.091-.945.211-1.268.36-.328.148-.565.324-.706.522-.144.2-.213.418-.213.658zm8.657 2.693V19.578h1.344c.246 0 .414.04.508.115.095.077.158.215.194.41l.043 1.254c.272-.613.63-1.091 1.081-1.445.45-.354.99-.528 1.626-.528.219 0 .424.022.616.072.19.047.361.122.511.224l-.145 1.535c-.028.102-.067.175-.123.214a.37.37 0 01-.23.063c-.095 0-.237-.02-.42-.055a2.978 2.978 0 00-.589-.053c-.294 0-.56.043-.796.132a1.863 1.863 0 00-.616.383 2.55 2.55 0 00-.472.61 6.37 6.37 0 00-.395.818v6.347h-2.137zm6.408-8.882v-.847l1.639-.252.467-2.917a.582.582 0 01.17-.27.468.468 0 01.314-.106h1.096v3.314h2.813v1.538h-2.813v5.766c0 .362.089.64.269.835.174.194.414.293.711.293.17 0 .312-.023.432-.07.118-.045.222-.098.307-.151.083-.053.156-.106.222-.156a.302.302 0 01.186-.075c.117 0 .212.069.288.207l.633 1.052c-.33.281-.718.499-1.17.65-.449.15-.914.225-1.394.225-.841 0-1.487-.235-1.941-.706-.455-.468-.68-1.136-.68-1.994V21.25h-1.113a.455.455 0 01-.307-.116c-.088-.074-.13-.19-.13-.342zM94.38 33.03V19.578h1.426c.322 0 .53.132.623.399l.053 1.033a6.34 6.34 0 01.662-.663 4.15 4.15 0 01.751-.512 3.903 3.903 0 011.843-.452c.57 0 1.088.116 1.55.343a3.32 3.32 0 011.197.993c.327.432.582.97.765 1.615.181.642.272 1.38.272 2.208 0 .752-.101 1.448-.303 2.091a5.004 5.004 0 01-.867 1.674 4.07 4.07 0 01-1.371 1.11 4.035 4.035 0 01-1.815.402c-.594 0-1.1-.093-1.517-.281a3.793 3.793 0 01-1.13-.783v4.274H94.38v.001zm2.137-5.893c.298.382.623.649.98.804.357.155.75.235 1.185.235.835 0 1.484-.304 1.948-.914.467-.607.699-1.515.699-2.72 0-.62-.053-1.152-.158-1.598-.11-.442-.259-.802-.458-1.082a1.77 1.77 0 00-.725-.608 2.405 2.405 0 00-.969-.189c-.548 0-1.016.12-1.403.354-.389.238-.756.578-1.097 1.016v4.702h-.002zm8.531-2.516c0-.802.117-1.522.345-2.165.227-.64.559-1.186.993-1.633.434-.45.954-.797 1.557-1.043.607-.245 1.285-.367 2.045-.367.744 0 1.421.122 2.024.367a4.332 4.332 0 011.539 1.043c.428.448.756.992.988 1.633.231.643.347 1.363.347 2.165 0 .8-.116 1.518-.347 2.154a4.705 4.705 0 01-.988 1.637c-.424.457-.94.803-1.543 1.044a5.423 5.423 0 01-2.02.363c-.76 0-1.437-.122-2.045-.363a4.35 4.35 0 01-1.557-1.044 4.55 4.55 0 01-.993-1.637c-.228-.636-.345-1.355-.345-2.154zm2.194.01c0 1.14.224 2.016.679 2.628.453.61 1.142.917 2.067.917.911 0 1.589-.308 2.037-.917.446-.61.67-1.489.67-2.628s-.224-2.02-.67-2.643c-.448-.62-1.126-.932-2.037-.932-.925 0-1.614.311-2.067.932-.455.624-.679 1.504-.679 2.643zm9.803 5.043V19.578h2.137v10.096h-2.137zm4.82 0V19.578h1.424c.322 0 .531.135.622.406l.048.937a6.64 6.64 0 01.648-.614c.226-.181.467-.34.727-.471a3.85 3.85 0 011.782-.423c.556 0 1.047.092 1.467.277.424.182.777.443 1.066.783.289.336.507.742.653 1.214.146.468.219.987.219 1.555v6.433h-2.137v-6.433c0-.677-.156-1.201-.471-1.58-.313-.377-.79-.565-1.441-.565-.477 0-.916.109-1.321.329a4.74 4.74 0 00-1.149.888v7.36h-2.137zm10.22-8.882v-.847l1.64-.252.466-2.917a.6.6 0 01.17-.27.47.47 0 01.314-.106h1.097v3.314h2.812v1.538h-2.812v5.766c0 .362.09.64.268.835.176.194.414.293.711.293.17 0 .313-.023.432-.07.118-.045.222-.098.307-.151.083-.053.156-.106.222-.156a.303.303 0 01.186-.075c.117 0 .212.069.289.207l.632 1.052a3.48 3.48 0 01-1.169.65c-.45.15-.914.225-1.395.225-.841 0-1.486-.235-1.941-.706-.455-.468-.679-1.136-.679-1.994V21.25h-1.113a.457.457 0 01-.308-.116c-.087-.074-.129-.19-.129-.342z" fill="#253942"/><path fill-rule="evenodd" clip-rule="evenodd" d="M118.157 14.291c1.027 0 1.859.83 1.859 1.852a1.855 1.855 0 01-1.859 1.851 1.854 1.854 0 01-1.858-1.851c0-1.022.831-1.852 1.858-1.852zM16.736 16.166c1.893-.81 4.518.993 5.863 4.028 1.344 3.035.9 6.151-.993 6.962-1.893.809-4.518-.994-5.862-4.029-1.344-3.034-.901-6.15.992-6.961z" fill="#F37060"/><path fill-rule="evenodd" clip-rule="evenodd" d="M29 38.1c.857 1.792 1.764 1.219 1.722-.59-.027-1.13-.067-1.344-.121-2.548-.049-1.089.01-2.21 1.095-2.456.29-.065.567-.108 1.132-.237.51-.115.79-.222.875-.401.188-.4-.203-.873-.988-1.264a84.641 84.641 0 00-4.943-2.292c-1.893-.801-2.59-1.193-2.954-.867-.335.3.026 1.04 1.016 3.407A289.212 289.212 0 0029 38.099z" fill="#253942"/><path fill-rule="evenodd" clip-rule="evenodd" d="M22.52 2.825c1.034.682 2.381 1.708 3.482 2.798 4.29 4.253 7.169 10.569 8.028 16.543.093.643.26 1.895.249 2.622-.027 1.753-.652 3.106-1.7 2.936-1.198-.196-1.814-1.224-1.862-2.511a22.199 22.199 0 00-.37-3.166c-.357-1.8-.968-3.467-1.803-5.354-3.303-7.453-9.009-11.58-13.658-9.591-2.398 1.024-3.627 3.753-4.036 6.238-1.01 6.15 1.584 13.116 7.054 18.086C5.914 24.791 4.633 8.309 10.986 2.989c3.107-2.602 6.63-3.395 11.534-.164z" fill="url(#paint0_linear_0_3018)"/><defs><linearGradient id="paint0_linear_0_3018" x1="29.324" y1="29.791" x2="14.352" y2="9.386" gradientUnits="userSpaceOnUse"><stop stop-color="#009891"/><stop offset="1" stop-color="#036B65"/></linearGradient></defs></svg>