<svg width="848" height="441" fill="none" xmlns="http://www.w3.org/2000/svg"><mask id="a" fill="#fff"><path d="M141.427 497.708l-47.104 45.227-47.104-45.227v45.227L.115 497.708l47.104-45.227 47.104 45.227h47.104zm-47.104-90.454l-47.104 45.227L.115 407.254h94.208zm-47.104 0L.115 362.027H47.22v45.227zm0-45.227L.115 316.8H47.22v45.227zm47.104-90.454L47.219 316.8.115 271.573h94.208zM188.53 316.8l-47.103 45.227-47.104 45.227-47.104-45.227h47.104l47.104-45.227 47.103-45.227V316.8zm-94.207 45.227L47.219 316.8h47.104v45.227zm47.104 135.681l-47.104-45.227 47.104-45.227v90.454zm0-180.908H94.323l47.104-45.227V316.8zm47.103 226.135l-47.103-45.227 47.103-45.227v90.454zm0-90.454h-47.103l47.103-45.227v45.227zm0-45.227l-47.103-45.227h47.103v45.227zm141.312 90.454l-47.104 45.227-47.104-45.227v45.227l-47.104-45.227 47.104-45.227 47.104 45.227h47.104zm0-135.681l-94.208 90.454H188.53l47.104-45.227 47.104-45.227h47.104zm-94.208 45.227l-47.104-45.227h47.104v45.227zm0-90.454l-47.104 45.227V316.8l47.104-45.227V316.8zm47.104 45.227h-47.104V316.8l47.104 45.227zm47.104-90.454L282.738 316.8l-47.104-45.227h94.208zm47.104 226.135h-47.104l-47.104-45.227h47.104l47.104 45.227zm0-45.227h-47.104l-47.104-45.227h47.104l47.104 45.227zm0-135.681l-47.104 45.227-47.104-45.227h94.208zm47.103 226.135h-94.207l47.104-45.227 47.103 45.227zm-47.103-135.681h-47.104v-45.227l47.104 45.227zm0-135.681L329.842 316.8v-45.227h47.104zm47.103 226.135h-47.103l47.103-45.227v45.227zm0-90.454l-47.103 45.227v-45.227l47.103-45.227v45.227zm0-45.227h-47.103l47.103-45.227v45.227zm0-45.227l-47.103-45.227h47.103V316.8zm-282.622-90.454l-47.104 45.227-47.104-45.227v45.227L.115 226.346l47.104-45.227 47.104 45.227h47.104zm-47.104-90.454l-47.104 45.227L.115 135.892h94.208zm-47.104 0L.115 90.665H47.22v45.227zm0-45.227L.115 45.437H47.22v45.228zM94.323.21L47.219 45.438.115.21h94.208zm94.207 45.227l-47.103 45.227-47.104 45.227-47.104-45.227h47.104l47.104-45.228L188.53.212v45.227zM94.323 90.665L47.219 45.437h47.104v45.228zm47.104 135.681l-47.104-45.227 47.104-45.227v90.454zm0-180.909H94.323L141.427.212v45.227zm47.103 226.136l-47.103-45.227 47.103-45.227v90.454zm0-90.454h-47.103l47.103-45.227v45.227zm0-45.227l-47.103-45.227h47.103v45.227zm141.312 90.454l-47.104 45.227-47.104-45.227v45.227l-47.104-45.227 47.104-45.227 47.104 45.227h47.104zm0-135.681l-94.208 90.454H188.53l47.104-45.227 47.104-45.227h47.104zm-94.208 45.227L188.53 90.665h47.104v45.227zm0-90.454L188.53 90.665V45.437L235.634.212v45.227zm47.104 45.227h-47.104V45.437l47.104 45.228zM329.842.21l-47.104 45.227L235.634.21h94.208zm47.104 226.135h-47.104l-47.104-45.227h47.104l47.104 45.227zm0-45.227h-47.104l-47.104-45.227h47.104l47.104 45.227zm0-135.681l-47.104 45.227-47.104-45.228h94.208zm47.103 226.135h-94.207l47.104-45.227 47.103 45.227zm-47.103-135.681h-47.104V90.665l47.104 45.227zm0-135.681l-47.104 45.227V.21h47.104zm47.103 226.135h-47.103l47.103-45.227v45.227zm0-90.454l-47.103 45.227v-45.227l47.103-45.227v45.227zm0-45.227h-47.103l47.103-45.228v45.228zm0-45.228L376.946.212h47.103v45.227zm141.312 452.271l-47.104 45.227-47.104-45.227v45.227l-47.104-45.227 47.104-45.227 47.104 45.227h47.104zm-47.104-90.454l-47.104 45.227-47.104-45.227h94.208zm-47.104 0l-47.104-45.227h47.104v45.227zm0-45.227L424.049 316.8h47.104v45.227zm47.104-90.454L471.153 316.8l-47.104-45.227h94.208zm94.207 45.227l-47.103 45.227-47.104 45.227-47.104-45.227h47.104l47.104-45.227 47.103-45.227V316.8zm-94.207 45.227L471.153 316.8h47.104v45.227zm47.104 135.681l-47.104-45.227 47.104-45.227v90.454zm0-180.908h-47.104l47.104-45.227V316.8zm47.103 226.135l-47.103-45.227 47.103-45.227v90.454zm0-90.454h-47.103l47.103-45.227v45.227zm0-45.227l-47.103-45.227h47.103v45.227zm141.312 90.454l-47.104 45.227-47.104-45.227v45.227l-47.104-45.227 47.104-45.227 47.104 45.227h47.104zm0-135.681l-94.208 90.454h-47.104l47.104-45.227 47.104-45.227h47.104zm-94.208 45.227l-47.104-45.227h47.104v45.227zm0-90.454l-47.104 45.227V316.8l47.104-45.227V316.8zm47.104 45.227h-47.104V316.8l47.104 45.227zm47.104-90.454L706.672 316.8l-47.104-45.227h94.208zm47.104 226.135h-47.104l-47.104-45.227h47.104l47.104 45.227zm0-45.227h-47.104l-47.104-45.227h47.104l47.104 45.227zm0-135.681l-47.104 45.227-47.104-45.227h94.208zm47.103 226.135h-94.207l47.104-45.227 47.103 45.227zm-47.103-135.68h-47.104v-45.227l47.104 45.227zm0-135.681L753.776 316.8v-45.227h47.104zm47.103 226.135H800.88l47.103-45.227v45.227zm0-90.454l-47.103 45.227v-45.227l47.103-45.227v45.227zm0-45.227H800.88l47.103-45.227v45.227zm0-45.227l-47.103-45.227h47.103V316.8zm-282.622-90.454l-47.104 45.227-47.104-45.227v45.227l-47.104-45.227 47.104-45.227 47.104 45.227h47.104zm-47.104-90.454l-47.104 45.227-47.104-45.227h94.208zm-47.104 0l-47.104-45.227h47.104v45.227zm0-45.227l-47.104-45.228h47.104v45.228zM518.257.21l-47.104 45.227L424.049.21h94.208zm94.207 45.227l-47.103 45.227-47.104 45.227-47.104-45.227h47.104l47.104-45.227L612.464.21v45.227zm-94.207 45.227l-47.104-45.227h47.104v45.227zm47.104 135.681l-47.104-45.227 47.104-45.227v90.454zm0-180.908h-47.104L565.361.21v45.227zm47.103 226.135l-47.103-45.227 47.103-45.227v90.454zm0-90.454h-47.103l47.103-45.227v45.227zm0-45.227l-47.103-45.227h47.103v45.227zm141.312 90.454l-47.104 45.227-47.104-45.227v45.227l-47.104-45.227 47.104-45.227 47.104 45.227h47.104zm0-135.681l-94.208 90.454h-47.104l47.104-45.227 47.104-45.227h47.104zm-94.208 45.227l-47.104-45.227h47.104v45.227zm0-90.454l-47.104 45.227V45.438L659.568.21v45.227zm47.104 45.227h-47.104V45.438l47.104 45.227zM753.776.21l-47.104 45.227L659.568.21h94.208zm47.104 226.135h-47.104l-47.104-45.227h47.104l47.104 45.227zm0-45.227h-47.104l-47.104-45.227h47.104l47.104 45.227zm0-135.681l-47.104 45.227-47.104-45.227h94.208zm47.103 226.135h-94.207l47.104-45.227 47.103 45.227zm-47.103-135.68h-47.104V90.665l47.104 45.227zm0-135.681l-47.104 45.227V.21h47.104zm47.103 226.135H800.88l47.103-45.227v45.227zm0-90.454l-47.103 45.227v-45.227l47.103-45.227v45.227zm0-45.227H800.88l47.103-45.227v45.227zm0-45.227L800.88.21h47.103v45.227z"/></mask><path d="M94.323 542.935l-.507.528.507.486.507-.486-.507-.528zm-47.104-45.227l.507-.529-1.239-1.189v1.718h.732zm0 45.227l-.507.528 1.24 1.189v-1.717h-.733zM.115 497.708l-.507-.529-.55.529.55.528.507-.528zm94.208 0l-.507.528.212.204h.295v-.732zM.115 407.254v-.733h-1.82l1.313 1.261.507-.528zm47.104 0l-.507.528 1.24 1.189v-1.717h-.733zM.115 362.027v-.733h-1.82l1.313 1.261.507-.528zm0-45.227v-.733h-1.82l1.313 1.261.507-.528zm0-45.227v-.733h-1.82l1.313 1.261.507-.528zm141.312 90.454l-.507-.529.507.529zm-47.104 0v.732h.295l.212-.204-.507-.528zm47.104-45.227l.507.528-.507-.528zM94.323 452.481l-.507-.529-.55.529.55.528.507-.528zm47.104-45.227h.732v-1.718l-1.239 1.189.507.529zm0-135.681h.732v-1.718l-1.239 1.189.507.529zm47.103 271.362l-.507.528 1.24 1.189v-1.717h-.733zm-47.103-90.454l-.507-.529-1.313 1.261h1.82v-.732zm141.311 90.454l-.507.528.507.486.507-.486-.507-.528zm-47.104-45.227l.507-.529-1.239-1.189v1.718h.732zm0 45.227l-.507.528 1.239 1.189v-1.717h-.732zm-47.104-45.227l-.507-.529-.55.529.55.528.507-.528zm94.208 0l-.507.528.212.204h.295v-.732zm-47.104-90.454l.507.528-.507-.528zm47.104-90.454l-.507.528.507-.528zm0 135.681v-.733h-1.82l1.313 1.261.507-.528zm94.208 0v.732h.294l.213-.204-.507-.528zm-94.208-45.227v-.733h-1.82l1.313 1.261.507-.528zm94.208-90.454l.507.528 1.312-1.261h-1.819v.733zm47.103 226.135v.732h1.82l-1.313-1.261-.507.529zm-94.207 0l-.507-.529-1.313 1.261h1.82v-.732zm0-226.135h-.732v1.717l1.239-1.189-.507-.528zm94.207 135.681h.732v-1.718l-1.239 1.189.507.529zm-47.103-90.454l-.507-.529-1.313 1.261h1.82v-.732zM47.219 226.346l.507-.529-1.239-1.189v1.718h.732zm0 45.227l-.507.528 1.24 1.189v-1.717h-.733zM.115 226.346l-.507-.529-.55.529.55.528.507-.528zm94.208 0l-.507.528.212.204h.295v-.732zm0-90.454l.507.528-.507-.528zm-94.208 0v-.733h-1.82l1.313 1.261.507-.528zm47.104 0l-.507.528 1.24 1.189v-1.717h-.733zM.115 90.665v-.733h-1.82l1.313 1.26.507-.527zm0-45.228v-.732h-1.82l1.313 1.26.507-.528zM94.323.212l.507.528 1.313-1.26h-1.82v.73zM.115.21v-.733h-1.82L-.391.738.115.212zm141.312 90.454l-.507-.529.507.529zm-47.104 0v.732h.295l.212-.204-.507-.528zM188.53.21h.733v-1.718l-1.24 1.19.507.528zM94.323 181.119l-.507-.529-.55.529.55.528.507-.528zm47.104-45.227h.732v-1.718l-1.239 1.189.507.529zm0-135.681h.732v-1.718l-1.239 1.19.507.528zm0 180.908l-.507-.529-1.313 1.261h1.82v-.732zm141.311 90.454l-.507.528.507.486.507-.486-.507-.528zm-47.104-45.227l.507-.529-1.239-1.189v1.718h.732zm-47.104 0l-.507-.529-.55.529.55.528.507-.528zm94.208 0l-.507.528.212.204h.295v-.732zm-47.104-90.454l.507.528-.507-.528zm0-135.681v-.733h-.294l-.213.204.507.529zm47.104 180.908v-.733h-1.82l1.313 1.261.507-.528zm94.208 0v.732h.294l.213-.204-.507-.528zm-94.208-45.227v-.733h-1.82l1.313 1.261.507-.528zm94.208-90.454l.507.528 1.312-1.26h-1.819v.731zm-47.104 0h-.732v1.717l1.239-1.19-.507-.528zm94.207 135.681h.732v-1.718l-1.239 1.189.507.529zm-47.103-90.454l-.507-.529-1.313 1.26h1.82v-.731zm141.311 452.27l-.507.528.507.487.507-.487-.507-.528zm-47.104-45.227l.507-.529-1.239-1.189v1.718h.732zm0 45.227l-.507.528 1.239 1.189v-1.717h-.732zm47.104-45.227l-.507.528.212.204h.295v-.732zm-47.104-90.454l-.507.528 1.239 1.189v-1.717h-.732zm94.208-45.227l-.507-.529.507.529zm-47.104 0v.732h.294l.213-.204-.507-.528zm47.104-45.227l.507.528-.507-.528zm-47.104 135.681l-.507-.529-.55.529.55.528.507-.528zm47.104-45.227h.732v-1.718l-1.239 1.189.507.529zm0-135.681h.732v-1.718l-1.239 1.189.507.529zm47.103 271.362l-.507.528 1.24 1.189v-1.717h-.733zm-47.103-90.454l-.507-.529-1.313 1.261h1.82v-.732zm141.311 90.454l-.507.528.507.487.507-.487-.507-.528zm-47.104-45.227l.507-.529-1.239-1.189v1.718h.732zm0 45.227l-.507.528 1.239 1.189v-1.717h-.732zm-47.104-45.227l-.507-.529-.55.529.55.528.507-.528zm94.208 0l-.507.528.212.204h.295v-.732zm0-180.908l-.507.528.507-.528zm0 135.681v-.733h-1.82l1.313 1.261.507-.528zm94.208 0v.732h.294l.213-.204-.507-.528zm-94.208-45.227v-.733h-1.82l1.313 1.261.507-.528zM800.88 316.8l.507.528 1.312-1.261h-1.819v.733zm47.103 226.135v.732h1.82l-1.313-1.261-.507.529zm-94.207 0l-.507-.529-1.313 1.261h1.82v-.732zm0-226.135h-.732v1.717l1.239-1.189-.507-.528zm94.207 180.908v.732h.732v-.732h-.732zm0-45.227h.732v-1.718l-1.239 1.189.507.529zm0-45.227l.507.528.225-.216v-.312h-.732zm-47.103-45.227l-.507-.529-1.313 1.261h1.82v-.732zm47.103-90.454h.733v-.312l-.226-.217-.507.529zm-376.83-45.227l.507-.529-1.239-1.189v1.718h.732zm0 45.227l-.507.528 1.239 1.189v-1.717h-.732zm47.104-45.227l-.507.528.212.204h.295v-.732zm-47.104-90.454l-.507.528 1.239 1.189v-1.717h-.732zM518.257.211l.507.528 1.312-1.26h-1.819V.21zm47.104 90.454l-.507-.529.507.529zm-47.104 0v.732h.294l.213-.204-.507-.528zM612.464.21h.733v-1.718l-1.24 1.19.507.528zm-94.207 180.908l-.507-.529-.55.529.55.528.507-.528zm47.104-45.227h.732v-1.718l-1.239 1.189.507.529zm0-135.681h.732v-1.718l-1.239 1.19.507.528zm0 180.908l-.507-.529-1.313 1.261h1.82v-.732zm141.311 90.454l-.507.528.507.487.507-.487-.507-.528zm-47.104-45.227l.507-.529-1.239-1.189v1.718h.732zm-47.104 0l-.507-.529-.55.529.55.528.507-.528zm94.208 0l-.507.528.212.204h.295v-.732zm-47.104-90.454l.507.528-.507-.528zm0-135.681v-.733h-.294l-.213.204.507.529zm47.104 45.227l-.507.528.507-.528zm0 135.681v-.733h-1.82l1.313 1.261.507-.528zm94.208 0v.732h.294l.213-.204-.507-.528zm-94.208-45.227v-.733h-1.82l1.313 1.261.507-.528zm94.208-90.454l.507.528 1.312-1.26h-1.819v.732zm-47.104 0h-.732v1.718l1.239-1.19-.507-.528zm94.207 180.908v.732h.733v-.732h-.733zm0-45.227h.733V179.4l-1.24 1.189.507.529zm0-45.227l.507.528.226-.216v-.312h-.733zM800.88 90.665l-.507-.529-1.313 1.26h1.82v-.731zM847.983.21h.733v-.733h-.733V.21zM140.92 497.179l-47.104 45.227 1.014 1.057 47.104-45.227-1.014-1.057zm-46.09 45.227l-47.104-45.227-1.014 1.057 47.104 45.227 1.014-1.057zm-48.343-44.698v45.227h1.464v-45.227h-1.464zm1.24 44.698L.621 497.179l-1.014 1.057 47.104 45.227 1.014-1.057zM.621 498.236l47.104-45.227-1.014-1.057-47.104 45.227 1.014 1.057zm46.09-45.227l47.104 45.227 1.014-1.057-47.104-45.227-1.014 1.057zm47.61 45.431h47.105v-1.465H94.323v1.465zm-.506-91.715l-47.104 45.227 1.014 1.057 47.104-45.227-1.014-1.057zm-46.09 45.227L.622 406.725l-1.014 1.057 47.104 45.227 1.014-1.057zM.116 407.986h94.207v-1.465H.115v1.465zm47.61-1.261L.622 361.498l-1.014 1.057 47.104 45.227 1.014-1.057zM.116 362.759h47.103v-1.465H.115v1.465zm46.371-.732v45.227h1.464v-45.227h-1.464zm1.24-.529L.621 316.271l-1.014 1.057 47.104 45.227 1.014-1.057zM.114 317.532H47.22v-1.465H.115v1.465zm46.372-.732v45.227h1.464V316.8h-1.464zm47.329-45.756l-47.104 45.227 1.014 1.057 47.104-45.227-1.014-1.057zm-46.09 45.227L.622 271.044l-1.014 1.057 47.104 45.227 1.014-1.057zM.116 272.305h94.207v-1.465H.115v1.465zm187.907 43.966l-47.103 45.227 1.014 1.057 47.103-45.227-1.014-1.057zm-47.103 45.227l-47.104 45.227 1.014 1.057 47.104-45.227-1.014-1.057zm-46.09 45.227l-47.104-45.227-1.014 1.057 47.104 45.227 1.014-1.057zm-47.61-43.966h47.103v-1.465H47.219v1.465zm47.61-.204l47.104-45.227-1.014-1.057-47.104 45.227 1.014 1.057zm47.104-45.227l47.103-45.227-1.014-1.057-47.103 45.227 1.014 1.057zm45.864-45.755V316.8h1.465v-45.227h-1.465zM94.83 361.498l-47.104-45.227-1.014 1.057 47.104 45.227 1.014-1.057zm-47.61-43.966h47.103v-1.465H47.219v1.465zm46.37-.732v45.227h1.465V316.8h-1.464zm48.344 180.379L94.83 451.952l-1.014 1.057 47.104 45.227 1.014-1.057zm-47.104-44.17l47.104-45.227-1.014-1.057-47.104 45.227 1.014 1.057zm45.865-45.755v90.454h1.464v-90.454h-1.464zm.732-91.187H94.323v1.465h47.104v-1.465zm-46.597 1.261l47.104-45.227-1.014-1.057-47.104 45.227 1.014 1.057zm45.865-45.755V316.8h1.464v-45.227h-1.464zm48.342 270.833l-47.103-45.227-1.014 1.057 47.103 45.227 1.014-1.057zm-47.103-44.17l47.103-45.227-1.014-1.057-47.103 45.227 1.014 1.057zm45.864-45.755v90.454h1.465v-90.454h-1.465zm.732-.733h-47.103v1.465h47.103v-1.465zm-46.596 1.261l47.103-45.227-1.014-1.057-47.103 45.227 1.014 1.057zm45.864-45.755v45.227h1.465v-45.227h-1.465zm1.239-.529l-47.103-45.227-1.014 1.057 47.103 45.227 1.014-1.057zm-47.61-43.966h47.103v-1.465h-47.103v1.465zm46.371-.732v45.227h1.465v-45.227h-1.465zm141.537 135.152l-47.104 45.227 1.014 1.057 47.104-45.227-1.014-1.057zm-46.09 45.227l-47.104-45.227-1.014 1.057 47.104 45.227 1.014-1.057zm-48.343-44.698v45.227h1.464v-45.227h-1.464zm1.239 44.698l-47.104-45.227-1.014 1.057 47.104 45.227 1.014-1.057zm-47.104-44.17l47.104-45.227-1.014-1.057-47.104 45.227 1.014 1.057zm46.09-45.227l47.104 45.227 1.014-1.057-47.104-45.227-1.014 1.057zm47.611 45.431h47.104v-1.465h-47.104v1.465zm46.597-136.942l-94.208 90.454 1.014 1.057 94.208-90.454-1.014-1.057zm-93.701 90.25H188.53v1.465h47.104v-1.465zm-46.597 1.261l47.104-45.227-1.014-1.057-47.104 45.227 1.014 1.057zm47.104-45.227l47.104-45.227-1.014-1.057-47.104 45.227 1.014 1.057zm46.597-45.023h47.104v-1.465h-47.104v1.465zm-46.597 43.966l-47.104-45.227-1.014 1.057 47.104 45.227 1.014-1.057zm-47.611-43.966h47.104v-1.465H188.53v1.465zm46.372-.732v45.227h1.464v-45.227h-1.464zm.225-45.756l-47.104 45.227 1.014 1.057 47.104-45.227-1.014-1.057zm-45.864 45.756V316.8h-1.465v45.227h1.465zm-.226-44.699l47.104-45.227-1.014-1.057-47.104 45.227 1.014 1.057zm45.865-45.755V316.8h1.464v-45.227h-1.464zm47.836 89.721h-47.104v1.465h47.104v-1.465zm-46.372.733V316.8h-1.464v45.227h1.464zm-1.239-44.699l47.104 45.227 1.014-1.057-47.104-45.227-1.014 1.057zm94.208-46.284l-47.104 45.227 1.014 1.057 47.104-45.227-1.014-1.057zm-46.09 45.227l-47.104-45.227-1.014 1.057 47.104 45.227 1.014-1.057zm-47.611-43.966h94.208v-1.465h-94.208v1.465zm141.312 224.67h-47.104v1.465h47.104v-1.465zm-46.597.204l-47.104-45.227-1.014 1.057 47.104 45.227 1.014-1.057zm-47.611-43.966h47.104v-1.465h-47.104v1.465zm46.597-.204l47.104 45.227 1.014-1.057-47.104-45.227-1.014 1.057zm47.611-1.261h-47.104v1.465h47.104v-1.465zm-46.597.204l-47.104-45.227-1.014 1.057 47.104 45.227 1.014-1.057zm-47.611-43.966h47.104v-1.465h-47.104v1.465zm46.597-.204l47.104 45.227 1.014-1.057-47.104-45.227-1.014 1.057zm47.104-91.511l-47.104 45.227 1.014 1.057 47.104-45.227-1.014-1.057zm-46.09 45.227l-47.104-45.227-1.014 1.057 47.104 45.227 1.014-1.057zm-47.611-43.966h94.208v-1.465h-94.208v1.465zm141.311 224.67h-94.207v1.465h94.207v-1.465zm-93.7 1.261l47.104-45.227-1.014-1.057-47.104 45.227 1.014 1.057zm46.09-45.227l47.103 45.227 1.014-1.057-47.103-45.227-1.014 1.057zm.507-91.715h-47.104v1.465h47.104v-1.465zm-46.372.733v-45.227h-1.464v45.227h1.464zm-1.239-44.699l47.104 45.227 1.014-1.057-47.104-45.227-1.014 1.057zm47.104-91.511l-47.104 45.227 1.014 1.057 47.104-45.227-1.014-1.057zM330.574 316.8v-45.227h-1.464V316.8h1.464zm-.732-44.495h47.104v-1.465h-47.104v1.465zm94.207 224.67h-47.103v1.465h47.103v-1.465zm-46.596 1.261l47.103-45.227-1.014-1.057-47.103 45.227 1.014 1.057zm45.864-45.755v45.227h1.464v-45.227h-1.464zm.225-45.756l-47.103 45.227 1.014 1.057 47.103-45.227-1.014-1.057zm-45.864 45.756v-45.227h-1.465v45.227h1.465zm-.225-44.699l47.103-45.227-1.014-1.057-47.103 45.227 1.014 1.057zm45.864-45.755v45.227h1.464v-45.227h-1.464zm.732-.733h-47.103v1.465h47.103v-1.465zm-46.596 1.261l47.103-45.227-1.014-1.057-47.103 45.227 1.014 1.057zm45.864-45.755v45.227h1.464V316.8h-1.464zm1.239-.529l-47.103-45.227-1.014 1.057 47.103 45.227 1.014-1.057zm-47.61-43.966h47.103v-1.465h-47.103v1.465zm46.371-.732V316.8h1.464v-45.227h-1.464zM140.92 225.817l-47.104 45.227 1.014 1.057 47.104-45.227-1.014-1.057zm-46.09 45.227l-47.104-45.227-1.014 1.057 47.104 45.227 1.014-1.057zm-48.343-44.698v45.227h1.464v-45.227h-1.464zm1.24 44.698L.621 225.817l-1.014 1.057 47.104 45.227 1.014-1.057zM.621 226.874l47.104-45.227-1.014-1.057-47.104 45.227 1.014 1.057zm46.09-45.227l47.104 45.227 1.014-1.057-47.104-45.227-1.014 1.057zm47.61 45.431h47.105v-1.465H94.323v1.465zm-.506-91.715L46.712 180.59l1.014 1.057L94.83 136.42l-1.014-1.057zm-46.09 45.227L.622 135.363l-1.014 1.057 47.104 45.227 1.014-1.057zM.116 136.624h94.207v-1.465H.115v1.465zm47.61-1.261L.622 90.136l-1.014 1.057 47.104 45.227 1.014-1.057zM.116 91.397h47.103v-1.465H.115v1.465zm46.371-.733v45.228h1.464V90.665h-1.464zm1.24-.528L.621 44.91l-1.014 1.057 47.104 45.227 1.014-1.057zM.114 46.17H47.22v-1.465H.115v1.465zm46.372-.733v45.228h1.464V45.437h-1.464zM93.816-.318L46.712 44.91l1.014 1.057L94.83.739 93.816-.318zM47.726 44.91L.622-.318-.392.74l47.104 45.227 1.014-1.057zM.116.943h94.207V-.522H.115V.943zm187.907 43.966L140.92 90.136l1.014 1.057 47.103-45.227-1.014-1.057zM140.92 90.136l-47.104 45.227 1.014 1.057 47.104-45.227-1.014-1.057zm-46.09 45.227L47.726 90.136l-1.014 1.057 47.104 45.227 1.014-1.057zM47.22 91.397h47.103v-1.465H47.219v1.465zm47.61-.204l47.104-45.227-1.014-1.057-47.104 45.227 1.014 1.057zm47.104-45.227L189.037.739l-1.014-1.057L140.92 44.91l1.014 1.057zM187.798.21v45.227h1.465V.21h-1.465zM94.83 90.136L47.726 44.91l-1.014 1.057 47.104 45.227 1.014-1.057zM47.22 46.17h47.103v-1.465H47.219v1.465zm46.37-.733v45.228h1.465V45.437h-1.464zm48.344 180.38L94.83 180.59l-1.014 1.057 47.104 45.227 1.014-1.057zm-47.104-44.17l47.104-45.227-1.014-1.057-47.104 45.227 1.014 1.057zm45.865-45.755v90.454h1.464v-90.454h-1.464zm.732-91.187H94.323v1.465h47.104v-1.465zm-46.597 1.26L141.934.74 140.92-.318 93.816 44.91l1.014 1.057zM140.695.212v45.227h1.464V.21h-1.464zm48.342 270.833l-47.103-45.227-1.014 1.057 47.103 45.227 1.014-1.057zm-47.103-44.17l47.103-45.227-1.014-1.057-47.103 45.227 1.014 1.057zm45.864-45.755v90.454h1.465V181.12h-1.465zm.732-.733h-47.103v1.465h47.103v-1.465zm-46.596 1.261l47.103-45.227-1.014-1.057-47.103 45.227 1.014 1.057zm45.864-45.755v45.227h1.465v-45.227h-1.465zm1.239-.529l-47.103-45.227-1.014 1.057 47.103 45.227 1.014-1.057zm-47.61-43.966h47.103v-1.465h-47.103v1.465zm46.371-.733v45.228h1.465V90.665h-1.465zm141.537 135.153l-47.104 45.227 1.014 1.057 47.104-45.227-1.014-1.057zm-46.09 45.227l-47.104-45.227-1.014 1.057 47.104 45.227 1.014-1.057zm-48.343-44.698v45.227h1.464v-45.227h-1.464zm1.239 44.698l-47.104-45.227-1.014 1.057 47.104 45.227 1.014-1.057zm-47.104-44.17l47.104-45.227-1.014-1.057-47.104 45.227 1.014 1.057zm46.09-45.227l47.104 45.227 1.014-1.057-47.104-45.227-1.014 1.057zm47.611 45.431h47.104v-1.465h-47.104v1.465zm46.597-136.942l-94.208 90.454 1.014 1.057 94.208-90.454-1.014-1.057zm-93.701 90.25H188.53v1.465h47.104v-1.465zm-46.597 1.261l47.104-45.227-1.014-1.057-47.104 45.227 1.014 1.057zm47.104-45.227l47.104-45.227-1.014-1.057-47.104 45.227 1.014 1.057zm46.597-45.023h47.104v-1.465h-47.104v1.465zm-46.597 43.966l-47.104-45.227-1.014 1.057 47.104 45.227 1.014-1.057zM188.53 91.397h47.104v-1.465H188.53v1.465zm46.372-.733v45.228h1.464V90.665h-1.464zm.225-45.755l-47.104 45.227 1.014 1.057 47.104-45.227-1.014-1.057zm-45.864 45.756V45.437h-1.465v45.228h1.465zm-.226-44.7L236.141.74l-1.014-1.057-47.104 45.227 1.014 1.057zM234.902.212v45.227h1.464V.21h-1.464zm47.836 89.721h-47.104v1.465h47.104v-1.465zm-46.372.733V45.437h-1.464v45.228h1.464zm-1.239-44.7l47.104 45.228 1.014-1.057-47.104-45.227-1.014 1.057zM329.335-.317L282.231 44.91l1.014 1.057L330.349.739l-1.014-1.057zm-46.09 45.227L236.141-.318 235.127.74l47.104 45.227 1.014-1.057zM235.634.943h94.208V-.522h-94.208V.943zm141.312 224.67h-47.104v1.465h47.104v-1.465zm-46.597.204l-47.104-45.227-1.014 1.057 47.104 45.227 1.014-1.057zm-47.611-43.966h47.104v-1.465h-47.104v1.465zm46.597-.204l47.104 45.227 1.014-1.057-47.104-45.227-1.014 1.057zm47.611-1.261h-47.104v1.465h47.104v-1.465zm-46.597.204l-47.104-45.227-1.014 1.057 47.104 45.227 1.014-1.057zm-47.611-43.966h47.104v-1.465h-47.104v1.465zm46.597-.204l47.104 45.227 1.014-1.057-47.104-45.227-1.014 1.057zm47.104-91.51l-47.104 45.226 1.014 1.057 47.104-45.227-1.014-1.057zm-46.09 45.226L283.245 44.91l-1.014 1.057 47.104 45.227 1.014-1.057zM282.738 46.17h94.208v-1.465h-94.208v1.465zm141.311 224.67h-94.207v1.465h94.207v-1.465zm-93.7 1.261l47.104-45.227-1.014-1.057-47.104 45.227 1.014 1.057zm46.09-45.227l47.103 45.227 1.014-1.057-47.103-45.227-1.014 1.057zm.507-91.715h-47.104v1.465h47.104v-1.465zm-46.372.733V90.665h-1.464v45.227h1.464zm-1.239-44.7l47.104 45.228 1.014-1.057-47.104-45.227-1.014 1.057zm47.104-91.51L329.335 44.91l1.014 1.057L377.453.739l-1.014-1.057zm-45.865 45.755V.212h-1.464v45.226h1.464zM329.842.944h47.104V-.522h-47.104V.943zm94.207 224.67h-47.103v1.465h47.103v-1.465zm-46.596 1.261l47.103-45.227-1.014-1.057-47.103 45.227 1.014 1.057zm45.864-45.755v45.227h1.464V181.12h-1.464zm.225-45.756l-47.103 45.227 1.014 1.057 47.103-45.227-1.014-1.057zm-45.864 45.756v-45.227h-1.465v45.227h1.465zm-.225-44.699l47.103-45.227-1.014-1.057-47.103 45.227 1.014 1.057zm45.864-45.755v45.227h1.464V90.665h-1.464zm.732-.733h-47.103v1.465h47.103v-1.465zm-46.596 1.26l47.103-45.226-1.014-1.056-47.103 45.226 1.014 1.057zm45.864-45.754v45.227h1.464V45.437h-1.464zm1.239-.529L377.453-.317 376.439.74l47.103 45.227 1.014-1.056zM376.946.944h47.103V-.522h-47.103V.943zM423.317.21v45.227h1.464V.21h-1.464zm141.537 496.968l-47.104 45.227 1.014 1.057 47.104-45.227-1.014-1.057zm-46.09 45.227l-47.104-45.227-1.014 1.057 47.104 45.227 1.014-1.057zm-48.343-44.698v45.227h1.464v-45.227h-1.464zm1.239 44.698l-47.104-45.227-1.014 1.057 47.104 45.227 1.014-1.057zm-47.104-44.17l47.104-45.227-1.014-1.057-47.104 45.227 1.014 1.057zm46.09-45.227l47.104 45.227 1.014-1.057-47.104-45.227-1.014 1.057zm47.611 45.431h47.104v-1.465h-47.104v1.465zm-.507-91.715l-47.104 45.227 1.014 1.057 47.104-45.227-1.014-1.057zm-46.09 45.227l-47.104-45.227-1.014 1.057 47.104 45.227 1.014-1.057zm-47.611-43.966h94.208v-1.465h-94.208v1.465zm47.611-1.261l-47.104-45.227-1.014 1.057 47.104 45.227 1.014-1.057zm-47.611-43.966h47.104v-1.465h-47.104v1.465zm46.372-.732v45.227h1.464v-45.227h-1.464zm1.239-.529l-47.104-45.227-1.014 1.057 47.104 45.227 1.014-1.057zm-47.611-43.966h47.104v-1.465h-47.104v1.465zm46.372-.732v45.227h1.464V316.8h-1.464zm47.329-45.756l-47.104 45.227 1.014 1.057 47.104-45.227-1.014-1.057zm-46.09 45.227l-47.104-45.227-1.014 1.057 47.104 45.227 1.014-1.057zm-47.611-43.966h94.208v-1.465h-94.208v1.465zm187.908 43.966l-47.103 45.227 1.014 1.057 47.104-45.227-1.015-1.057zm-47.103 45.227l-47.104 45.227 1.014 1.057 47.104-45.227-1.014-1.057zm-46.09 45.227l-47.104-45.227-1.014 1.057 47.104 45.227 1.014-1.057zm-47.611-43.966h47.104v-1.465h-47.104v1.465zm47.611-.204l47.104-45.227-1.014-1.057-47.104 45.227 1.014 1.057zm47.104-45.227l47.104-45.227-1.015-1.057-47.103 45.227 1.014 1.057zm45.864-45.755V316.8h1.465v-45.227h-1.465zm-92.968 89.925L471.66 316.27l-1.014 1.057 47.104 45.227 1.014-1.057zm-47.611-43.966h47.104v-1.465h-47.104v1.465zm46.372-.732v45.227h1.464V316.8h-1.464zm48.343 180.379l-47.104-45.227-1.014 1.057 47.104 45.227 1.014-1.057zm-47.104-44.17l47.104-45.227-1.014-1.057-47.104 45.227 1.014 1.057zm45.865-45.755v90.454h1.464v-90.454h-1.464zm.732-91.187h-47.104v1.465h47.104v-1.465zm-46.597 1.261l47.104-45.227-1.014-1.057-47.104 45.227 1.014 1.057zm45.865-45.755V316.8h1.464v-45.227h-1.464zm48.343 270.833l-47.104-45.227-1.014 1.057 47.103 45.227 1.015-1.057zm-47.104-44.17l47.104-45.227-1.015-1.057-47.103 45.227 1.014 1.057zm45.864-45.755v90.454h1.465V452.48h-1.465zm.732-.733h-47.103v1.465h47.103v-1.465zm-46.596 1.261l47.104-45.227-1.015-1.057-47.103 45.227 1.014 1.057zm45.864-45.755v45.227h1.465v-45.227h-1.465zm1.24-.529l-47.104-45.227-1.014 1.057 47.103 45.227 1.015-1.057zm-47.611-43.966h47.103v-1.465h-47.103v1.465zm46.371-.732v45.227h1.465v-45.227h-1.465zM753.269 497.18l-47.104 45.226 1.014 1.057 47.104-45.227-1.014-1.056zm-46.09 45.226l-47.104-45.227-1.014 1.057 47.104 45.227 1.014-1.057zm-48.343-44.698v45.227h1.464v-45.227h-1.464zm1.239 44.698l-47.103-45.227-1.015 1.057 47.104 45.227 1.014-1.057zm-47.103-44.17l47.103-45.227-1.014-1.057-47.104 45.227 1.015 1.057zm46.089-45.227l47.104 45.227 1.014-1.057-47.104-45.227-1.014 1.057zm47.611 45.431h47.104v-1.465h-47.104v1.465zm46.597-136.942l-94.208 90.454 1.014 1.057 94.208-90.454-1.014-1.057zm-93.701 90.25h-47.104v1.465h47.104v-1.465zm-46.596 1.261l47.103-45.227-1.014-1.057-47.104 45.227 1.015 1.057zm47.103-45.227l47.104-45.227-1.014-1.057-47.104 45.227 1.014 1.057zm46.597-45.023h47.104v-1.465h-47.104v1.465zm-46.597 43.966l-47.103-45.227-1.015 1.057 47.104 45.227 1.014-1.057zm-47.611-43.966h47.104v-1.465h-47.104v1.465zm46.372-.732v45.227h1.464v-45.227h-1.464zm.225-45.756l-47.104 45.227 1.015 1.057 47.103-45.227-1.014-1.057zm-45.864 45.756V316.8h-1.465v45.227h1.465zm-.225-44.699l47.103-45.227-1.014-1.057-47.104 45.227 1.015 1.057zm45.864-45.755V316.8h1.464v-45.227h-1.464zm47.836 89.721h-47.104v1.465h47.104v-1.465zm-46.372.733V316.8h-1.464v45.227h1.464zm-1.239-44.699l47.104 45.227 1.014-1.057-47.104-45.227-1.014 1.057zm94.208-46.284l-47.104 45.227 1.014 1.057 47.104-45.227-1.014-1.057zm-46.09 45.227l-47.104-45.227-1.014 1.057 47.104 45.227 1.014-1.057zm-47.611-43.966h94.208v-1.465h-94.208v1.465zm141.312 224.67h-47.104v1.465h47.104v-1.465zm-46.597.205l-47.104-45.228-1.014 1.057 47.104 45.227 1.014-1.056zm-47.611-43.967h47.104v-1.465h-47.104v1.465zm46.597-.204l47.104 45.227 1.014-1.056-47.104-45.228-1.014 1.057zm47.611-1.261h-47.104v1.465h47.104v-1.465zm-46.597.204l-47.104-45.227-1.014 1.057 47.104 45.227 1.014-1.057zm-47.611-43.966h47.104v-1.465h-47.104v1.465zm46.597-.204l47.104 45.227 1.014-1.057-47.104-45.227-1.014 1.057zm47.104-91.511l-47.104 45.227 1.014 1.057 47.104-45.227-1.014-1.057zm-46.09 45.227l-47.104-45.227-1.014 1.057 47.104 45.227 1.014-1.057zm-47.611-43.966h94.208v-1.465h-94.208v1.465zm141.311 224.67h-94.207v1.465h94.207v-1.465zm-93.7 1.261l47.104-45.227-1.014-1.056-47.104 45.226 1.014 1.057zm46.09-45.227l47.103 45.227 1.014-1.057-47.103-45.226-1.014 1.056zm.507-91.715h-47.104v1.465h47.104v-1.465zm-46.372.733v-45.227h-1.464v45.227h1.464zm-1.239-44.699l47.104 45.227 1.014-1.057-47.104-45.227-1.014 1.057zm47.104-91.511l-47.104 45.227 1.014 1.057 47.104-45.227-1.014-1.057zM754.508 316.8v-45.227h-1.464V316.8h1.464zm-.732-44.495h47.104v-1.465h-47.104v1.465zm94.207 224.67H800.88v1.465h47.103v-1.465zm-46.596 1.261l47.103-45.227-1.014-1.057-47.103 45.228 1.014 1.056zm45.864-45.755v45.227h1.464v-45.227h-1.464zm.225-45.756l-47.103 45.227 1.014 1.057 47.103-45.227-1.014-1.057zm-45.864 45.756v-45.227h-1.465v45.227h1.465zm-.225-44.699l47.103-45.227-1.014-1.057-47.103 45.227 1.014 1.057zm45.864-45.755v45.227h1.464v-45.227h-1.464zm.732-.733H800.88v1.465h47.103v-1.465zm-46.596 1.261l47.103-45.227-1.014-1.057-47.103 45.227 1.014 1.057zm45.864-45.755v45.227h1.464l.001-45.227h-1.465zm1.239-.529l-47.103-45.227-1.014 1.057 47.103 45.227 1.014-1.057zm-47.61-43.966h47.103v-1.465H800.88v1.465zm46.371-.732V316.8h1.465v-45.227h-1.465zm-282.397-45.756l-47.104 45.227 1.014 1.057 47.104-45.227-1.014-1.057zm-46.09 45.227l-47.104-45.227-1.014 1.057 47.104 45.227 1.014-1.057zm-48.343-44.698v45.227h1.464v-45.227h-1.464zm1.239 44.698l-47.104-45.227-1.014 1.057 47.104 45.227 1.014-1.057zm-47.104-44.17l47.104-45.227-1.014-1.057-47.104 45.227 1.014 1.057zm46.09-45.227l47.104 45.227 1.014-1.057-47.104-45.227-1.014 1.057zm47.611 45.431h47.104v-1.465h-47.104v1.465zm-.507-91.715l-47.104 45.227 1.014 1.057 47.104-45.227-1.014-1.057zm-46.09 45.227l-47.104-45.227-1.014 1.057 47.104 45.227 1.014-1.057zm-47.611-43.966h94.208v-1.465h-94.208v1.465zm47.611-1.261l-47.104-45.227-1.014 1.057 47.104 45.227 1.014-1.057zm-47.611-43.966h47.104v-1.465h-47.104v1.465zm46.372-.733v45.228h1.464V90.665h-1.464zm1.239-.528L424.556 44.91l-1.014 1.056 47.104 45.227 1.014-1.056zM424.049 46.17h47.104v-1.465h-47.104v1.465zm46.372-.732v45.227h1.464V45.438h-1.464zM517.75-.318L470.646 44.91l1.014 1.057L518.764.739 517.75-.318zM471.66 44.91L424.556-.317 423.542.74l47.104 45.227 1.014-1.056zM424.049.944h94.208V-.522h-94.208V.943zM611.957 44.91l-47.103 45.227 1.014 1.056 47.104-45.227-1.015-1.056zm-47.103 45.227l-47.104 45.226 1.014 1.057 47.104-45.227-1.014-1.056zm-46.09 45.226L471.66 90.136l-1.014 1.057 47.104 45.227 1.014-1.057zm-47.611-43.966h47.104v-1.465h-47.104v1.465zm47.611-.204l47.104-45.227-1.014-1.056-47.104 45.227 1.014 1.056zm47.104-45.227L612.972.739l-1.015-1.057-47.103 45.227 1.014 1.057zM611.732.21v45.227h1.465V.21h-1.465zm-92.968 89.925L471.66 44.91l-1.014 1.056 47.104 45.227 1.014-1.056zM471.153 46.17h47.104v-1.465h-47.104v1.465zm46.372-.732v45.227h1.464V45.438h-1.464zm48.343 180.379l-47.104-45.227-1.014 1.057 47.104 45.227 1.014-1.057zm-47.104-44.17l47.104-45.227-1.014-1.057-47.104 45.227 1.014 1.057zm45.865-45.755v90.454h1.464v-90.454h-1.464zm.732-91.187h-47.104v1.465h47.104v-1.465zm-46.597 1.26L565.868.74l-1.014-1.057L517.75 44.91l1.014 1.057zM564.629.212v45.227h1.464V.21h-1.464zm48.343 270.833l-47.104-45.227-1.014 1.057 47.103 45.227 1.015-1.057zm-47.104-44.17l47.104-45.227-1.015-1.057-47.103 45.227 1.014 1.057zm45.864-45.755v90.454h1.465V181.12h-1.465zm.732-.733h-47.103v1.465h47.103v-1.465zm-46.596 1.261l47.104-45.227-1.015-1.057-47.103 45.227 1.014 1.057zm45.864-45.755v45.227h1.465v-45.227h-1.465zm1.24-.529l-47.104-45.227-1.014 1.057 47.103 45.227 1.015-1.057zm-47.611-43.966h47.103v-1.465h-47.103v1.465zm46.371-.732v45.227h1.465V90.665h-1.465zm141.537 135.152l-47.104 45.227 1.014 1.057 47.104-45.227-1.014-1.057zm-46.09 45.227l-47.104-45.227-1.014 1.057 47.104 45.227 1.014-1.057zm-48.343-44.698v45.227h1.464v-45.227h-1.464zm1.239 44.698l-47.103-45.227-1.015 1.057 47.104 45.227 1.014-1.057zm-47.103-44.17l47.103-45.227-1.014-1.057-47.104 45.227 1.015 1.057zm46.089-45.227l47.104 45.227 1.014-1.057-47.104-45.227-1.014 1.057zm47.611 45.431h47.104v-1.465h-47.104v1.465zm46.597-136.942l-94.208 90.454 1.014 1.057 94.208-90.454-1.014-1.056zm-93.701 90.25h-47.104v1.465h47.104v-1.465zm-46.596 1.261l47.103-45.227-1.014-1.057-47.104 45.227 1.015 1.057zm47.103-45.227l47.104-45.227-1.014-1.056-47.104 45.226 1.014 1.057zm46.597-45.023h47.104v-1.465h-47.104v1.465zm-46.597 43.966l-47.103-45.227-1.015 1.057 47.104 45.227 1.014-1.057zm-47.611-43.966h47.104v-1.465h-47.104v1.465zm46.372-.732v45.227h1.464V90.665h-1.464zm.225-45.756l-47.104 45.227 1.015 1.057 47.103-45.227-1.014-1.056zm-45.864 45.756V45.438h-1.465v45.227h1.465zm-.225-44.7L660.075.74l-1.014-1.057-47.104 45.227 1.015 1.057zM658.836.212v45.227h1.464V.21h-1.464zm47.836 89.721h-47.104v1.465h47.104v-1.465zm-46.372.733V45.438h-1.464v45.227h1.464zm-1.239-44.7l47.104 45.228 1.014-1.056-47.104-45.227-1.014 1.056zM753.269-.317L706.165 44.91l1.014 1.057L754.283.739l-1.014-1.057zm-46.09 45.227L660.075-.317 659.061.74l47.104 45.227 1.014-1.056zM659.568.944h94.208V-.522h-94.208V.943zm141.312 224.67h-47.104v1.465h47.104v-1.465zm-46.597.204l-47.104-45.227-1.014 1.057 47.104 45.227 1.014-1.057zm-47.611-43.966h47.104v-1.465h-47.104v1.465zm46.597-.204l47.104 45.227 1.014-1.057-47.104-45.227-1.014 1.057zm47.611-1.261h-47.104v1.465h47.104v-1.465zm-46.597.204l-47.104-45.227-1.014 1.057 47.104 45.227 1.014-1.057zm-47.611-43.966h47.104v-1.465h-47.104v1.465zm46.597-.204l47.104 45.227 1.014-1.057-47.104-45.227-1.014 1.057zm47.104-91.51l-47.104 45.227 1.014 1.056 47.104-45.227-1.014-1.056zm-46.09 45.227L707.179 44.91l-1.014 1.056 47.104 45.227 1.014-1.056zM706.672 46.17h94.208v-1.465h-94.208v1.465zm141.311 224.67h-94.207v1.465h94.207v-1.465zm-93.7 1.261l47.104-45.227-1.014-1.057-47.104 45.227 1.014 1.057zm46.09-45.227l47.103 45.227 1.014-1.057-47.103-45.227-1.014 1.057zm.507-91.715h-47.104v1.465h47.104v-1.465zm-46.372.733V90.665h-1.464v45.227h1.464zm-1.239-44.7l47.104 45.228 1.014-1.057-47.104-45.227-1.014 1.057zm47.104-91.51L753.269 44.91l1.014 1.057L801.387.739l-1.014-1.057zm-45.865 45.756V.21h-1.464v45.227h1.464zM753.776.943h47.104V-.522h-47.104V.943zm94.207 224.67H800.88v1.465h47.103v-1.465zm-46.596 1.261l47.103-45.227-1.014-1.057-47.103 45.227 1.014 1.057zm45.864-45.755v45.227h1.465v-45.227h-1.465zm.225-45.756l-47.103 45.227 1.014 1.057 47.103-45.227-1.014-1.057zm-45.864 45.756v-45.227h-1.465v45.227h1.465zm-.225-44.699l47.103-45.227-1.014-1.056-47.103 45.226 1.014 1.057zm45.864-45.755v45.227h1.465V90.665h-1.465zm.732-.733H800.88v1.465h47.103v-1.465zm-46.596 1.26l47.103-45.226-1.014-1.056-47.103 45.227 1.014 1.056zm45.864-45.754v45.227h1.465V45.438h-1.465zm1.239-.529L801.387-.317 800.373.74l47.103 45.227 1.014-1.056zM800.88.944h47.103V-.522H800.88V.943zM847.251.21v45.227h1.465V.21h-1.465z" fill="#E9EBEC" mask="url(#a)"/></svg>