<svg width="170" height="12" fill="none" xmlns="http://www.w3.org/2000/svg"><path d="M109.14 0c-4.468 0-9.077 0-13.545.138-4.888.137-9.775.137-14.662.275-3.91 0-7.82.275-11.73.413-3.91.138-7.96.275-11.87.413-1.954.138-4.05.138-6.144.276-2.374.137-4.887.275-7.261.413-3.63.275-7.4.413-11.032.55-2.653.138-5.306.276-7.82.413-1.815.138-3.63.276-5.585.414-3.072.275-6.005.413-9.077.963a33.466 33.466 0 00-5.027 1.24A69.871 69.871 0 00.5 7.298c2.095.275 6.423.688 6.423.688s4.05.138 6.145 0c1.256-.138 2.513-.275 3.77-.275.838-.138 1.536-.138 2.374-.138 1.955-.138 3.77-.276 5.725-.413 8.797-.551 17.734-.964 26.532-1.377 1.815-.138 3.63-.138 5.445-.275 2.235-.138 4.469-.138 6.843-.276L77.58 4.82c3.77-.138 7.54-.138 11.45-.138 3.77 0 7.402-.137 11.172-.137 4.189 0 8.239-.138 12.428 0h12.987c2.653.137 5.445.137 8.099.275-2.234 0-4.469.138-6.703.138-4.05.137-8.099.275-12.009.413-8.937.413-17.874.688-26.81 1.239-7.96.413-16.06.826-24.02 1.377-4.607.275-9.355.55-13.963.826-1.955.138-3.91.138-5.725.275-2.095.138-4.05.413-6.145.689-1.815.275-3.63.688-5.306.964 4.19.826 8.658 1.377 12.987 1.239 4.05-.138 7.96-.275 12.009-.55 8.937-.552 17.874-.965 26.671-1.515 7.96-.413 15.919-.689 23.879-1.102 3.91-.138 7.959-.275 11.869-.413 4.189-.138 8.378-.275 12.567-.275 4.33 0 8.519-.138 12.847-.138 4.468 0 9.077 0 13.545-.138 1.118 0 2.234 0 3.491-.137 1.816 0 3.631 0 5.307-.689.698-.275 1.117-.826 1.256-1.377.14-.688-.139-1.239-.697-1.79-.14-.137-.28-.275-.419-.275a3.488 3.488 0 00-1.257-.55c-.28-.139-.559-.139-.838-.276-.42-.138-.838-.276-1.396-.276-.978-.137-1.816-.275-2.794-.413-1.815-.275-3.63-.413-5.445-.55-3.631-.413-6.638-.466-10.892-.689-9.431-.494-13.744-.28-24.158-.688h-9.356C110.955 0 110.118 0 109.14 0z" fill="#10B899"/></svg>