<svg width="228" height="84" fill="none" xmlns="http://www.w3.org/2000/svg"><mask id="a" fill="#fff"><path d="M151.943 3.728c.549.08 1.094.186 1.643.265l2.587.456c1.577.309 3.151.643 4.684 1.05 1.735.437 3.488.955 5.121 1.692 1.441.63 2.872 1.338 4.273 2.042-.721-.316-1.412-.627-2.133-.942-.75-.32-1.471-.635-2.224-.928-.754-.294-1.507-.588-2.301-.808a57.64 57.64 0 00-2.042-.56l.058.008a75.907 75.907 0 00-6.333-1.264c-1.007-.173-2.018-.32-3.028-.467l-1.011-.148c-1.596-.18-3.159-.381-4.755-.561-1.451-.159-2.928-.348-4.379-.507-.607-.088-1.25-.13-1.863-.166-3.153-.223-6.302-.471-9.451-.72a28.562 28.562 0 00-1.491-.085l-4.572-.193-7.708-.335c-2.387-.006-4.779.014-7.171.033-1.593.004-3.219.03-4.811.035l-1.507.017-.445.014c-4.737.335-9.5.64-14.238.974-.119.009-.267.014-.419.044a192.72 192.72 0 0117.534-.52c1.882.037 3.789.105 5.667.168.791.037 1.586.047 2.373.11 1.109.082 2.214.19 3.322.273l10.053.834 1.311.112a1.33 1.33 0 01.321.02c1.014.122 2.025.27 3.036.417 3.382.466 6.732.954 10.086 1.416l1.848.27c.945.19 1.866.35 2.782.536 3.328.642 6.63 1.255 9.957 1.897.462.067.949.165 1.407.258l1.971.444c3.482.796 6.956 1.644 10.411 2.62 6.879 1.975 13.644 4.326 20.063 7.232 3.154 1.395 6.269 2.9 9.339 4.514 3.041 1.599 6.041 3.27 8.9 5.106 1.461.926 2.904 1.89 4.327 2.89a52.358 52.358 0 013.77 2.862 47.275 47.275 0 013.671 3.346c1.082 1.077 2.127 2.201 3.013 3.408.961 1.296 1.854 2.66 2.562 4.078.314.676.628 1.352.881 2.046.257.668.481 1.357.618 2.035.148.81.262 1.64.291 2.46.017.685.003 1.393-.069 2.091-.149 1.424-.495 2.792-1.098 4.097-.355.78-.76 1.53-1.212 2.241a14.969 14.969 0 01-1.255 1.736c-.923 1.074-1.983 2.075-3.094 3.017a31.609 31.609 0 01-3.985 2.862 52.991 52.991 0 01-4.072 2.245c-2.959 1.487-6.066 2.769-9.232 3.857-3.228 1.107-6.517 2.02-9.852 2.848a176.943 176.943 0 01-10.351 2.224c-1.667.309-3.366.64-5.051.867-3.16.433-6.29.87-9.45 1.304-1.384.192-2.736.363-4.121.556-.39.048-.781.096-1.2.14-5.374.452-10.781.926-16.155 1.378-.119.01-.268.014-.387.023l-1.246.055-4.542.205c-3.292.125-6.558.28-9.854.43-.473.01-.95.046-1.423.056-.889.028-1.803.026-2.688.029a8224.3 8224.3 0 01-10.419.059c-1.297-.005-2.569.02-3.865.015-.47-.016-.943-.006-1.413-.022-2.785-.117-5.594-.263-8.379-.38-2.929-.138-5.89-.253-8.82-.391-.35-.025-.7-.05-1.08-.079-1.22-.125-2.472-.228-3.693-.354-3.459-.346-6.95-.67-10.41-1.017-.902-.079-1.83-.188-2.732-.266l-1.502-.219c-3.325-.458-6.617-.938-9.941-1.396-1.387-.202-2.748-.373-4.134-.575-1.62-.21-3.26-.502-4.869-.788-3.653-.638-7.297-1.326-10.92-2.17-3.482-.795-6.985-1.647-10.433-2.675a125.815 125.815 0 01-5.298-1.692c-1.589-.54-3.166-1.12-4.73-1.74a57.926 57.926 0 01-4.902-2.185c-1.401-.703-2.8-1.432-4.128-2.23-1.462-.897-2.891-1.814-4.244-2.852a35.355 35.355 0 01-3.467-2.923c-1.19-1.145-2.282-2.355-3.21-3.673-.832-1.172-1.595-2.413-2.203-3.71-.646-1.434-1.17-2.904-1.479-4.42-.296-1.41-.44-2.85-.407-4.29a21.27 21.27 0 012.272-8.918c1.329-2.644 3.159-5.084 5.355-7.208 2.197-2.123 4.681-3.995 7.317-5.687a70.856 70.856 0 018.332-4.567c3.006-1.401 6.134-2.628 9.279-3.772a187.7 187.7 0 019.764-3.255c.951-.256 1.878-.541 2.8-.8.155-.057.308-.088.492-.14a31.84 31.84 0 011.042-.268c3.154-.802 6.305-1.578 9.46-2.38l2.755-.702c.156-.056.337-.082.517-.108.453-.066.88-.161 1.331-.227 3.24-.58 6.512-1.18 9.781-1.755.879-.16 1.725-.3 2.604-.461.18-.027.328-.031.51-.057.48-.062.99-.119 1.47-.18 3.333-.408 6.695-.812 10.028-1.22l2.614-.328c.18-.027.357-.027.534-.028l1.518-.094c3.332-.198 6.696-.417 10.057-.611.563-.023 1.131-.072 1.694-.095.148-.004.33-.03.506-.031.882.023 1.738.016 2.623.014 3.363-.01 6.694.003 10.029-.01.559.002 1.094-.025 1.621-.001 1.17.066 2.315.1 3.486.166 3.102.163 6.179.296 9.281.459.556.028 1.08.078 1.632.133l4.954.405c1.517.117 3.059.262 4.576.378.234.008.498.02.729.054.318.046.668.07.986.117 2.866.365 5.707.7 8.574 1.065.202.03.375.055.494.046zm-46.204.758c.091-.013.206.004.325-.005-14.275-.187-28.508 1.155-42.28 4.194v-.003c-.008.002-.015.001-.03 0-.09.012-.184.051-.274.064.09-.013.152-.03.242-.044-5.187 1.19-10.338 2.541-15.332 4.231-4.962 1.668-9.787 3.62-14.402 5.943-2.898 1.47-5.731 3.106-8.356 4.931a71.687 71.687 0 00-4.008 3.016c-1.135.912-2.303 1.846-3.392 2.843a37.086 37.086 0 00-1.889 1.827c-.316.348-.635.722-.952 1.07a7.63 7.63 0 00-.494.559c-.433.541-.833 1.061-1.262 1.577-.72.893-1.436 1.761-2.073 2.693.34-.922.74-1.837 1.167-2.747.175-.395.38-.785.555-1.18.252-.515.504-1.03.785-1.541.663-1.112 1.348-2.169 2.173-3.178.822-.984 1.669-1.938 2.623-2.824a32.642 32.642 0 013.168-2.718 51.388 51.388 0 013.184-2.216c2.766-1.778 5.682-3.377 8.695-4.83a115.847 115.847 0 019.493-4.03c2.361-.877 4.74-1.679 7.133-2.403-.796.2-1.595.424-2.39.624-.309.087-.612.147-.92.234-.459.117-.922.26-1.385.402-2.505.74-5 1.534-7.483 2.379-2.561.877-5.108 1.82-7.638 2.829a91.174 91.174 0 00-6.934 3.063c-4.618 2.349-9 5.1-12.764 8.467a30.065 30.065 0 00-4.995 5.946c-.499.829-.95 1.694-1.35 2.59-.37.917-.71 1.84-.997 2.797-.25.91-.447 1.852-.553 2.783-.124.85-.157 1.685-.166 2.551.029.819.086 1.642.233 2.451.136.849.32 1.683.55 2.498.289.857.606 1.717 1.017 2.54.432.877.898 1.733 1.428 2.546a27.335 27.335 0 001.884 2.455 32.583 32.583 0 002.368 2.368 43.964 43.964 0 004.458 3.409 50.083 50.083 0 004.757 2.768c1.65.819 3.304 1.612 5.002 2.306 1.67.69 3.407 1.31 5.12 1.902 1.882.642 3.768 1.258 5.695 1.801 1.781.523 3.57.993 5.392 1.443a211.76 211.76 0 0010.519 2.294c1.754.308 3.504.642 5.262.924.862.152 1.758.282 2.62.434.459.093.892.156 1.354.224l7.404 1 8.588 1.172c.404.058.783.087 1.162.116 1.22.125 2.474.23 3.694.354l10.388.962c.845.07 1.715.17 2.589.245.116.017.235.008.35.025.383.003.763.032 1.145.035 5.454.217 10.904.459 16.358.675 4.404-.068 8.829-.08 13.229-.122 1.239-.004 2.511-.029 3.75-.032.354-.001.737.002 1.095-.025 2.937-.124 5.85-.277 8.788-.401 2.67-.11 5.315-.25 7.985-.361.444-.014.925-.075 1.373-.115 1.435-.133 2.895-.235 4.33-.368 3.256-.288 6.48-.554 9.737-.842.48-.061.954-.071 1.406-.136l3.069-.42 10.021-1.379c.813-.118 1.623-.21 2.44-.354 3.417-.58 6.812-1.215 10.194-1.957 2.011-.443 4-.941 5.994-1.465 1.841-.494 3.686-1.014 5.514-1.615 3.651-1.176 7.216-2.574 10.589-4.264 1.564-.823 3.101-1.65 4.569-2.62.75-.494 1.471-.993 2.172-1.548a34.95 34.95 0 001.545-1.3 16.946 16.946 0 001.871-1.908c.498-.584.913-1.207 1.328-1.83.376-.592.705-1.221.982-1.88.219-.493.381-.995.542-1.497.141-.558.248-1.094.298-1.639.053-.57.103-1.114.095-1.668a12.984 12.984 0 00-.125-1.568 15.46 15.46 0 00-.374-1.684c-.288-.856-.609-1.691-1.024-2.487-.407-.848-.905-1.682-1.406-2.491-1.649-2.447-3.78-4.624-6.049-6.662-1.359-1.196-2.791-2.298-4.259-3.353-1.526-1.063-3.081-2.13-4.648-3.12-3.157-2.011-6.427-3.854-9.746-5.572a145.115 145.115 0 00-16.128-7.105c-2.827-1.043-5.697-1.986-8.576-2.878a213.41 213.41 0 00-8.761-2.406h.006c-1.157-.268-2.331-.558-3.485-.823-.541-.13-1.115-.24-1.685-.376-.285-.068-.566-.162-.855-.204-.462-.067-.92-.16-1.378-.253-2.209-.427-4.392-.824-6.601-1.25-1.981-.368-3.93-.757-5.882-1.12-.773-.165-1.556-.253-2.365-.37-3.382-.467-6.732-.955-10.085-1.418a119.808 119.808 0 01-3.037-.416c-.144-.02-.263-.012-.379-.028l-1.253-.104-10.053-.834c-1.108-.082-2.213-.19-3.321-.274l-.203-.029a88.665 88.665 0 00-2.607-.117c-1.73-.068-3.493-.115-5.198-.153zm58.5 7.795c.06.017.127.036.194.045l-.194-.045zM63.815 8.654s-.025-.004-.031.018a.12.12 0 00.032-.018zm100.311 3.601l.113.026a1.142 1.142 0 00-.113-.026zm33.265 12.309c-.021-.01-.042-.02-.055-.035l.055.035zm.053.034l-.053-.034a.15.15 0 01.053.034zM18.112 29.77a.358.358 0 01.05-.045l-.05.045zm-.051.045l.05-.045a.38.38 0 01-.05.045zM5.967 33.677c-.016.01-.026.03-.036.047l.036-.047zm-.036.047l-.036.047a.127.127 0 00.036-.047zm4.332 25.33c.025.03.054.035.05.06l-.05-.06zM63.69 8.714c.032-.022.032-.022.06-.017l-.06.017z"/></mask><path d="M151.943 3.728c.549.08 1.094.186 1.643.265l2.587.456c1.577.309 3.151.643 4.684 1.05 1.735.437 3.488.955 5.121 1.692 1.441.63 2.872 1.338 4.273 2.042-.721-.316-1.412-.627-2.133-.942-.75-.32-1.471-.635-2.224-.928-.754-.294-1.507-.588-2.301-.808a57.64 57.64 0 00-2.042-.56l.058.008a75.907 75.907 0 00-6.333-1.264c-1.007-.173-2.018-.32-3.028-.467l-1.011-.148c-1.596-.18-3.159-.381-4.755-.561-1.451-.159-2.928-.348-4.379-.507-.607-.088-1.25-.13-1.863-.166-3.153-.223-6.302-.471-9.451-.72a28.562 28.562 0 00-1.491-.085l-4.572-.193-7.708-.335c-2.387-.006-4.779.014-7.171.033-1.593.004-3.219.03-4.811.035l-1.507.017-.445.014c-4.737.335-9.5.64-14.238.974-.119.009-.267.014-.419.044a192.72 192.72 0 0117.534-.52c1.882.037 3.789.105 5.667.168.791.037 1.586.047 2.373.11 1.109.082 2.214.19 3.322.273l10.053.834 1.311.112a1.33 1.33 0 01.321.02c1.014.122 2.025.27 3.036.417 3.382.466 6.732.954 10.086 1.416l1.848.27c.945.19 1.866.35 2.782.536 3.328.642 6.63 1.255 9.957 1.897.462.067.949.165 1.407.258l1.971.444c3.482.796 6.956 1.644 10.411 2.62 6.879 1.975 13.644 4.326 20.063 7.232 3.154 1.395 6.269 2.9 9.339 4.514 3.041 1.599 6.041 3.27 8.9 5.106 1.461.926 2.904 1.89 4.327 2.89a52.358 52.358 0 013.77 2.862 47.275 47.275 0 013.671 3.346c1.082 1.077 2.127 2.201 3.013 3.408.961 1.296 1.854 2.66 2.562 4.078.314.676.628 1.352.881 2.046.257.668.481 1.357.618 2.035.148.81.262 1.64.291 2.46.017.685.003 1.393-.069 2.091-.149 1.424-.495 2.792-1.098 4.097-.355.78-.76 1.53-1.212 2.241a14.969 14.969 0 01-1.255 1.736c-.923 1.074-1.983 2.075-3.094 3.017a31.609 31.609 0 01-3.985 2.862 52.991 52.991 0 01-4.072 2.245c-2.959 1.487-6.066 2.769-9.232 3.857-3.228 1.107-6.517 2.02-9.852 2.848a176.943 176.943 0 01-10.351 2.224c-1.667.309-3.366.64-5.051.867-3.16.433-6.29.87-9.45 1.304-1.384.192-2.736.363-4.121.556-.39.048-.781.096-1.2.14-5.374.452-10.781.926-16.155 1.378-.119.01-.268.014-.387.023l-1.246.055-4.542.205c-3.292.125-6.558.28-9.854.43-.473.01-.95.046-1.423.056-.889.028-1.803.026-2.688.029a8224.3 8224.3 0 01-10.419.059c-1.297-.005-2.569.02-3.865.015-.47-.016-.943-.006-1.413-.022-2.785-.117-5.594-.263-8.379-.38-2.929-.138-5.89-.253-8.82-.391-.35-.025-.7-.05-1.08-.079-1.22-.125-2.472-.228-3.693-.354-3.459-.346-6.95-.67-10.41-1.017-.902-.079-1.83-.188-2.732-.266l-1.502-.219c-3.325-.458-6.617-.938-9.941-1.396-1.387-.202-2.748-.373-4.134-.575-1.62-.21-3.26-.502-4.869-.788-3.653-.638-7.297-1.326-10.92-2.17-3.482-.795-6.985-1.647-10.433-2.675a125.815 125.815 0 01-5.298-1.692c-1.589-.54-3.166-1.12-4.73-1.74a57.926 57.926 0 01-4.902-2.185c-1.401-.703-2.8-1.432-4.128-2.23-1.462-.897-2.891-1.814-4.244-2.852a35.355 35.355 0 01-3.467-2.923c-1.19-1.145-2.282-2.355-3.21-3.673-.832-1.172-1.595-2.413-2.203-3.71-.646-1.434-1.17-2.904-1.479-4.42-.296-1.41-.44-2.85-.407-4.29a21.27 21.27 0 012.272-8.918c1.329-2.644 3.159-5.084 5.355-7.208 2.197-2.123 4.681-3.995 7.317-5.687a70.856 70.856 0 018.332-4.567c3.006-1.401 6.134-2.628 9.279-3.772a187.7 187.7 0 019.764-3.255c.951-.256 1.878-.541 2.8-.8.155-.057.308-.088.492-.14a31.84 31.84 0 011.042-.268c3.154-.802 6.305-1.578 9.46-2.38l2.755-.702c.156-.056.337-.082.517-.108.453-.066.88-.161 1.331-.227 3.24-.58 6.512-1.18 9.781-1.755.879-.16 1.725-.3 2.604-.461.18-.027.328-.031.51-.057.48-.062.99-.119 1.47-.18 3.333-.408 6.695-.812 10.028-1.22l2.614-.328c.18-.027.357-.027.534-.028l1.518-.094c3.332-.198 6.696-.417 10.057-.611.563-.023 1.131-.072 1.694-.095.148-.004.33-.03.506-.031.882.023 1.738.016 2.623.014 3.363-.01 6.694.003 10.029-.01.559.002 1.094-.025 1.621-.001 1.17.066 2.315.1 3.486.166 3.102.163 6.179.296 9.281.459.556.028 1.08.078 1.632.133l4.954.405c1.517.117 3.059.262 4.576.378.234.008.498.02.729.054.318.046.668.07.986.117 2.866.365 5.707.7 8.574 1.065.202.03.375.055.494.046zm-46.204.758c.091-.013.206.004.325-.005-14.275-.187-28.508 1.155-42.28 4.194v-.003c-.008.002-.015.001-.03 0-.09.012-.184.051-.274.064.09-.013.152-.03.242-.044-5.187 1.19-10.338 2.541-15.332 4.231-4.962 1.668-9.787 3.62-14.402 5.943-2.898 1.47-5.731 3.106-8.356 4.931a71.687 71.687 0 00-4.008 3.016c-1.135.912-2.303 1.846-3.392 2.843a37.086 37.086 0 00-1.889 1.827c-.316.348-.635.722-.952 1.07a7.63 7.63 0 00-.494.559c-.433.541-.833 1.061-1.262 1.577-.72.893-1.436 1.761-2.073 2.693.34-.922.74-1.837 1.167-2.747.175-.395.38-.785.555-1.18.252-.515.504-1.03.785-1.541.663-1.112 1.348-2.169 2.173-3.178.822-.984 1.669-1.938 2.623-2.824a32.642 32.642 0 013.168-2.718 51.388 51.388 0 013.184-2.216c2.766-1.778 5.682-3.377 8.695-4.83a115.847 115.847 0 019.493-4.03c2.361-.877 4.74-1.679 7.133-2.403-.796.2-1.595.424-2.39.624-.309.087-.612.147-.92.234-.459.117-.922.26-1.385.402-2.505.74-5 1.534-7.483 2.379-2.561.877-5.108 1.82-7.638 2.829a91.174 91.174 0 00-6.934 3.063c-4.618 2.349-9 5.1-12.764 8.467a30.065 30.065 0 00-4.995 5.946c-.499.829-.95 1.694-1.35 2.59-.37.917-.71 1.84-.997 2.797-.25.91-.447 1.852-.553 2.783-.124.85-.157 1.685-.166 2.551.029.819.086 1.642.233 2.451.136.849.32 1.683.55 2.498.289.857.606 1.717 1.017 2.54.432.877.898 1.733 1.428 2.546a27.335 27.335 0 001.884 2.455 32.583 32.583 0 002.368 2.368 43.964 43.964 0 004.458 3.409 50.083 50.083 0 004.757 2.768c1.65.819 3.304 1.612 5.002 2.306 1.67.69 3.407 1.31 5.12 1.902 1.882.642 3.768 1.258 5.695 1.801 1.781.523 3.57.993 5.392 1.443a211.76 211.76 0 0010.519 2.294c1.754.308 3.504.642 5.262.924.862.152 1.758.282 2.62.434.459.093.892.156 1.354.224l7.404 1 8.588 1.172c.404.058.783.087 1.162.116 1.22.125 2.474.23 3.694.354l10.388.962c.845.07 1.715.17 2.589.245.116.017.235.008.35.025.383.003.763.032 1.145.035 5.454.217 10.904.459 16.358.675 4.404-.068 8.829-.08 13.229-.122 1.239-.004 2.511-.029 3.75-.032.354-.001.737.002 1.095-.025 2.937-.124 5.85-.277 8.788-.401 2.67-.11 5.315-.25 7.985-.361.444-.014.925-.075 1.373-.115 1.435-.133 2.895-.235 4.33-.368 3.256-.288 6.48-.554 9.737-.842.48-.061.954-.071 1.406-.136l3.069-.42 10.021-1.379c.813-.118 1.623-.21 2.44-.354 3.417-.58 6.812-1.215 10.194-1.957 2.011-.443 4-.941 5.994-1.465 1.841-.494 3.686-1.014 5.514-1.615 3.651-1.176 7.216-2.574 10.589-4.264 1.564-.823 3.101-1.65 4.569-2.62.75-.494 1.471-.993 2.172-1.548a34.95 34.95 0 001.545-1.3 16.946 16.946 0 001.871-1.908c.498-.584.913-1.207 1.328-1.83.376-.592.705-1.221.982-1.88.219-.493.381-.995.542-1.497.141-.558.248-1.094.298-1.639.053-.57.103-1.114.095-1.668a12.984 12.984 0 00-.125-1.568 15.46 15.46 0 00-.374-1.684c-.288-.856-.609-1.691-1.024-2.487-.407-.848-.905-1.682-1.406-2.491-1.649-2.447-3.78-4.624-6.049-6.662-1.359-1.196-2.791-2.298-4.259-3.353-1.526-1.063-3.081-2.13-4.648-3.12-3.157-2.011-6.427-3.854-9.746-5.572a145.115 145.115 0 00-16.128-7.105c-2.827-1.043-5.697-1.986-8.576-2.878a213.41 213.41 0 00-8.761-2.406h.006c-1.157-.268-2.331-.558-3.485-.823-.541-.13-1.115-.24-1.685-.376-.285-.068-.566-.162-.855-.204-.462-.067-.92-.16-1.378-.253-2.209-.427-4.392-.824-6.601-1.25-1.981-.368-3.93-.757-5.882-1.12-.773-.165-1.556-.253-2.365-.37-3.382-.467-6.732-.955-10.085-1.418a119.808 119.808 0 01-3.037-.416c-.144-.02-.263-.012-.379-.028l-1.253-.104-10.053-.834c-1.108-.082-2.213-.19-3.321-.274l-.203-.029a88.665 88.665 0 00-2.607-.117c-1.73-.068-3.493-.115-5.198-.153zm58.5 7.795c.06.017.127.036.194.045l-.194-.045zM63.815 8.654s-.025-.004-.031.018a.12.12 0 00.032-.018zm100.311 3.601l.113.026a1.142 1.142 0 00-.113-.026zm33.265 12.309c-.021-.01-.042-.02-.055-.035l.055.035zm.053.034l-.053-.034a.15.15 0 01.053.034zM18.112 29.77a.358.358 0 01.05-.045l-.05.045zm-.051.045l.05-.045a.38.38 0 01-.05.045zM5.967 33.677c-.016.01-.026.03-.036.047l.036-.047zm-.036.047l-.036.047a.127.127 0 00.036-.047zm4.332 25.33c.025.03.054.035.05.06l-.05-.06zM63.69 8.714c.032-.022.032-.022.06-.017l-.06.017z" fill="#F37060"/><path d="M151.943 3.728l.151-1.036-.114-.016-.115.009.078 1.043zm1.643.265l.181-1.03-.015-.003-.015-.002-.151 1.035zm2.587.456l.201-1.027-.01-.002-.009-.001-.182 1.03zm4.684 1.05l-.269 1.011.013.004.256-1.015zm5.121 1.692l-.431.954.011.005.42-.959zm4.273 2.042l-.42.958.89-1.893-.47.935zm-2.133-.942l.419-.959-.009-.003-.41.962zm-4.525-1.736l-.301 1.002.01.003.011.003.28-1.008zm-2.042-.56l.151-1.036-.415 2.048.264-1.012zm.058.008l-.151 1.035.402-2.05-.251 1.015zm-6.333-1.264l-.177 1.03.014.003.163-1.033zm-4.039-.615l.15-1.035-.016-.003-.017-.001-.117 1.04zm-4.755-.561l.117-1.04h-.003l-.114 1.04zm-4.379-.507l-.151 1.036.018.003.019.002.114-1.04zm-1.863-.166l-.074 1.044h.011l.063-1.044zm-9.451-.72l-.096 1.043h.014l.082-1.042zm-1.491-.085l-.044 1.045h.003l.041-1.045zm-4.572-.193l-.046 1.045h.002l.044-1.045zm-7.708-.335l.046-1.045-.021-.001h-.022l-.003 1.046zm-7.171.033l.003 1.046h.006l-.009-1.046zm-4.811.035l-.003-1.047h-.009l.012 1.047zm-1.507.017l-.012-1.046h-.021l.033 1.046zm-.445.014L103.051.61h-.02l-.02.002.073 1.044zm-14.238.974l-.074-1.044h-.001l.075 1.044zm-.419.044L88.22 1.65l.285 2.069-.078-1.044zm17.534-.52l.021-1.046h-.004l-.017 1.046zm5.667.168l.048-1.045h-.013l-.035 1.045zm2.373.11l-.082 1.042h.004l.078-1.043zm3.322.273l.086-1.042-.008-.001-.078 1.043zm10.053.834l.089-1.043h-.003l-.086 1.043zm1.311.112l-.09 1.042.085.008.084-.007-.079-1.043zm.321.02l-.151 1.036.013.002.013.001.125-1.039zm3.036.417l-.151 1.035.008.001.143-1.036zm10.086 1.416l.15-1.035-.008-.002-.142 1.037zm1.848.27l.206-1.027-.027-.005-.028-.004-.151 1.035zm2.782.536l-.208 1.025.01.002.198-1.027zm9.957 1.897l-.198 1.027.023.005.024.003.151-1.035zm1.407.258l.231-1.021-.011-.002-.011-.003-.209 1.026zm1.971.444l.233-1.02h-.003l-.23 1.02zm10.411 2.62l.289-1.005-.004-.002-.285 1.007zm20.063 7.232l-.432.953.008.004.424-.957zm9.339 4.514l.487-.926-.487.926zm8.9 5.106l-.566.88.006.004.56-.884zm4.327 2.89l-.602.856.003.002.599-.858zm3.77 2.862l-.673.8.01.009.663-.81zm3.671 3.346l-.744.735.006.006.738-.741zm3.013 3.408l-.843.62.003.003.84-.623zm2.562 4.078l.949-.44-.007-.014-.006-.014-.936.468zm.881 2.046l-.983.359.003.008.003.008.977-.375zm.618 2.035l1.029-.188-.002-.01-.002-.01-1.025.208zm.291 2.46l1.046-.028-.001-.009-1.045.036zm-.069 2.091l1.04.109-1.04-.109zm-1.098 4.097l-.95-.439-.003.007.953.432zm-1.212 2.241l.883.562-.883-.562zm-1.255 1.736l.794.682-.794-.682zm-3.094 3.017l.677.799-.677-.799zm-3.985 2.862l.545.893-.545-.893zm-4.072 2.245l-.464-.938-.006.003.47.935zm-9.232 3.857l.339.99h.001l-.34-.99zm-9.852 2.848l-.252-1.015h-.001l.253 1.015zm-10.351 2.224l.191 1.029h.001l-.192-1.029zm-5.051.867l-.14-1.037h-.002l.142 1.037zm-9.45 1.304l-.142-1.037h-.002l.144 1.037zm-4.121.556l.128 1.038h.008l.008-.002-.144-1.036zm-1.2.14l.088 1.043.01-.001.011-.001-.109-1.041zm-16.155 1.378l.079 1.043h.009l-.088-1.043zm-.387.023l.047 1.045h.015l.014-.002-.076-1.043zm-1.246.055L146.064 82h-.001l.048 1.046zm-4.542.205l.039 1.046h.008l-.047-1.046zm-9.854.43l.022 1.046h.026l-.048-1.046zm-1.423.056l-.022-1.046h-.012l.034 1.046zm-2.688.029l-.003-1.047h-.004l.007 1.047zm-10.419.059l-.004 1.046h.009l-.005-1.046zm-3.865.015l-.035 1.045h.03l.005-1.045zm-1.413-.022l-.043 1.045h.008l.035-1.045zm-8.379-.38l-.049 1.045h.006l.043-1.045zm-8.82-.391l-.073 1.044h.012l.013.001.049-1.045zm-1.08-.079l-.106 1.041.014.002h.014l.079-1.043zm-3.693-.354l.107-1.04h-.003l-.104 1.04zm-10.41-1.017l.105-1.04-.013-.002-.091 1.042zm-2.732-.266l-.151 1.035.03.004.03.003.09-1.042zm-1.502-.219l.15-1.035-.007-.002-.143 1.037zm-9.941-1.396l-.151 1.036h.008l.143-1.036zm-4.134-.575l.151-1.036-.008-.001-.008-.001-.135 1.038zm-4.869-.788l.184-1.03-.004-.001-.18 1.03zm-10.92-2.17l.237-1.018-.004-.001-.233 1.02zM34.994 73.51l.299-1.003h-.003l-.296 1.003zm-5.298-1.692l.34-.99h-.003l-.337.99zm-4.73-1.74l-.387.973h.002l.385-.972zm-4.902-2.185l.475-.933-.005-.002-.47.935zm-4.128-2.23l-.547.891.008.005.539-.897zm-4.244-2.852l.637-.83-.01-.008-.627.838zm-3.467-2.923l.728-.751-.002-.002-.726.753zm-3.21-3.673l.855-.603-.002-.002-.853.605zm-2.203-3.71l-.953.43.003.007.003.007.947-.444zm-1.479-4.42l1.025-.21-.001-.005-1.024.215zm-.407-4.29l-1.046-.031v.007l1.046.024zm2.272-8.918l.934.472v-.002l-.934-.47zm5.355-7.208l-.727-.752.727.752zm7.317-5.687l.565.881-.565-.88zm8.332-4.567l.442.949-.442-.949zm9.279-3.772l.358.983h.001l-.359-.983zm9.764-3.255l-.272-1.01-.016.004-.017.005.305 1zm2.8-.8l.284 1.006.036-.01.035-.013-.355-.984zm.492-.14l-.28-1.008-.003.001.283 1.007zm1.042-.268l.243 1.018.007-.002.008-.002-.258-1.014zm9.46-2.38l.257 1.014-.258-1.014zm2.755-.702l.259 1.014.048-.012.048-.017-.355-.985zm.517-.108l.15 1.035-.15-1.035zm1.331-.227l.15 1.035.018-.002.016-.003-.184-1.03zm9.781-1.755l.181 1.031.008-.001-.189-1.03zm2.604-.461l-.15-1.036-.02.003-.02.003.19 1.03zm.51-.057l-.133-1.038h-.008l-.008.002.148 1.036zm1.47-.18l-.127-1.04h-.005l.132 1.039zm10.028-1.22l.127 1.039h.003l-.13-1.039zm2.614-.328l.13 1.038.01-.002.011-.001-.151-1.035zm.534-.028l.004 1.047h.03l.031-.002-.065-1.045zm1.518-.094L90.639.594h-.003l.065 1.045zm10.057-.611l-.043-1.045h-.018l.061 1.045zm1.694-.095l-.034-1.045h-.008l.042 1.045zm.506-.031l.028-1.046h-.029l.001 1.046zm2.623.014l.003 1.047-.003-1.047zm10.029-.01l.005-1.047h-.01l.005 1.046zm1.621-.001l.059-1.045h-.011l-.048 1.045zm3.486.166l-.059 1.045h.004l.055-1.045zm9.281.459l-.055 1.044h.001l.054-1.044zm1.632.133l-.102 1.04.008.002h.009l.085-1.042zm4.954.405l-.085 1.043h.006l.079-1.043zm4.576.378l-.08 1.043.022.002h.023l.035-1.045zm1.715.171l-.151 1.036h.009l.009.002.133-1.038zm8.574 1.065l.15-1.035-.009-.002h-.009l-.132 1.037zm-45.71.804l-.151-1.035.128 2.081.023-1.046zm.325-.005l.076 1.044-.062-2.09-.014 1.046zm-42.28 4.194l-1.043-.094-.128 1.424 1.396-.308-.226-1.022zm-.03-.004l.151-1.035-.149-.022-.149.021.148 1.036zm-.032.021l.234 1.02-.386-2.055.152 1.035zm-15.332 4.23l.334.992h.001l-.335-.992zm-14.402 5.943l-.47-.935-.003.002.473.933zm-8.356 4.931l.596.86h.001l-.597-.86zm-4.008 3.016l-.655-.816.655.816zm-3.392 2.843l.704.773.002-.001-.706-.772zm-1.889 1.827l-.758-.72-.008.008-.008.01.774.702zm-.952 1.07l.761.719.007-.008.007-.007-.775-.704zm-.494.559l.817.653.006-.007.006-.007-.829-.64zm-1.262 1.577l-.804-.67-.005.007-.005.006.814.657zm-2.073 2.693l-.981-.363 1.845.953-.864-.59zm1.167-2.747l.947.445.005-.01.004-.01-.956-.425zm.555-1.18l-.94-.46-.008.017-.008.018.956.425zm.785-1.541l-.899-.536-.01.016-.008.016.917.504zm2.173-3.178l-.803-.67-.007.008.81.662zm2.623-2.824l.712.767.007-.007.007-.006-.726-.754zm3.168-2.718l.624.84.004-.003-.628-.837zm3.184-2.216l.563.882.003-.002-.566-.88zm8.695-4.83l-.45-.944-.004.002.454.942zm9.493-4.03l-.364-.98.364.98zm7.133-2.403l.303 1.001-.557-2.016.254 1.015zm-2.39.624l-.255-1.015-.015.004-.015.004.284 1.007zm-.92.234l.259 1.014.012-.003.012-.004-.283-1.007zm-1.385.402l.296 1.004.012-.004-.308-1zm-7.483 2.379l-.337-.99h-.003l.34.99zm-7.638 2.829l.385.973.003-.001-.388-.972zm-6.934 3.063l-.464-.938-.01.005.474.933zm-12.764 8.467l-.698-.78-.006.005-.006.006.71.769zm-4.995 5.946l-.883-.561-.006.01-.007.012.896.54zm-1.35 2.59l-.955-.428-.008.018-.008.018.971.391zm-.997 2.797l-1.003-.3-.003.01-.003.012 1.009.278zm-.553 2.783l1.035.151.003-.016.001-.016-1.04-.119zm-.166 2.551l-1.046-.01v.046l1.046-.036zm.233 2.451l1.033-.165-.001-.01-.002-.012-1.03.188zm.55 2.498l-1.006.285.007.025.008.023.992-.333zm1.017 2.54l.939-.463-.003-.006-.936.468zm1.428 2.546l-.877.571.008.012.008.011.86-.594zm1.884 2.455l-.789.688.006.007.006.006.777-.7zm2.368 2.368l-.7.777.006.006.007.006.687-.789zm4.458 3.409l-.581.87.006.004.575-.874zm4.757 2.768l-.476.932.011.006.465-.938zm5.002 2.306l.4-.967-.004-.002-.396.969zm5.12 1.902l-.341.989h.003l.338-.99zm5.695 1.801l.294-1.004-.01-.003-.284 1.007zm5.392 1.443l-.25 1.016h.003l.247-1.016zm10.519 2.294l-.196 1.028.007.001.008.002.18-1.031zm5.262.924l.181-1.03-.007-.002-.008-.001-.166 1.033zm2.62.434l.209-1.025-.014-.003-.013-.002-.181 1.03zm1.354.224l-.15 1.035.01.001.14-1.036zm7.404 1l.142-1.037h-.002l-.14 1.036zm8.588 1.172l.15-1.036-.009-.001-.141 1.037zm1.162.116l.107-1.04-.013-.002-.014-.001-.08 1.043zm3.694.354l-.106 1.041.01.001.096-1.042zm10.388.962l-.096 1.041.009.001.087-1.042zm2.589.245l.15-1.035-.03-.005-.031-.002-.089 1.042zm.35.025l-.15 1.036.07.01h.072l.008-1.046zm1.145.035l.042-1.045h-.032l-.01 1.046zm16.358.675l-.042 1.046h.058l-.016-1.046zm13.229-.122l-.003-1.046h-.007l.01 1.046zm3.75-.032l.003 1.046h.001l-.004-1.046zm1.095-.025l-.044-1.045h-.017l-.017.002.078 1.043zm8.788-.401l-.043-1.046h-.002l.045 1.046zm7.985-.361l-.033-1.046h-.01l.043 1.046zm1.373-.115l.093 1.042h.004l-.097-1.042zm4.33-.368l-.092-1.043h-.004l.096 1.043zm9.737-.842l.092 1.043.02-.002.02-.003-.132-1.038zm1.406-.136l-.142-1.037-.008.001.15 1.036zm3.069-.42l.142 1.036-.142-1.036zm10.021-1.379l.142 1.037.008-.001-.15-1.036zm2.44-.354l-.175-1.031h-.006l.181 1.031zm10.194-1.957l.224 1.022h.001l-.225-1.022zm5.994-1.465l.266 1.012.005-.002-.271-1.01zm5.514-1.615l-.321-.996-.006.002.327.994zm10.589-4.264l.468.935.01-.004.009-.005-.487-.926zm4.569-2.62l-.576-.873h-.001l.577.874zm2.172-1.548l-.65-.82.65.82zm1.545-1.3l-.686-.789-.01.008.696.782zm1.871-1.908l-.796-.678-.006.006.802.672zm1.328-1.83l.871.58.006-.009.006-.01-.883-.56zm.982-1.88l-.956-.425-.005.01-.004.01.965.405zm.542-1.497l.996.32.011-.032.008-.033-1.015-.255zm.298-1.639l-1.042-.097v.002l1.042.095zm.095-1.668l1.046-.015v-.006l-1.046.021zm-.125-1.568l1.036-.145-.002-.013-.002-.012-1.032.17zm-.374-1.684l1.007-.283-.007-.025-.008-.025-.992.333zm-1.024-2.487l-.943.453.008.015.007.015.928-.483zm-1.406-2.491l.889-.551-.01-.017-.012-.017-.867.585zm-6.049-6.662l.699-.779-.008-.006-.691.785zm-4.259-3.353l.61-.85-.006-.004-.006-.005-.598.859zm-4.648-3.12l-.562.882.003.002.559-.885zm-9.746-5.572l.481-.929-.003-.002-.478.931zm-16.128-7.105l-.362.981.362-.981zm-8.576-2.878l.31-1-.01-.003-.3 1.003zm-8.761-2.406l.15-1.036-.407 2.05.257-1.014zm-3.479-.823l-.246 1.017.012.003.234-1.02zm-1.685-.376l-.242 1.018.242-1.018zm-2.233-.457l.208-1.025-.01-.002-.198 1.027zm-6.601-1.25l.198-1.028-.007-.001-.191 1.028zm-5.882-1.12l-.219 1.023.013.003.014.003.192-1.03zm-2.365-.37l.151-1.036-.008-.001-.143 1.036zM131.79 6.44l.142-1.036-.009-.001-.009-.002-.124 1.04zm-3.416-.444l.151-1.036-.033-.005-.033-.002-.085 1.043zm-1.253-.104l-.086 1.043h.002l.084-1.043zm-10.053-.834l.087-1.043h-.009l-.078 1.043zm-3.321-.274l-.151 1.036.036.005.036.003.079-1.044zm-.203-.029l.151-1.035-.046-.007-.046-.003-.059 1.045zm-2.607-.117l-.041 1.045h.013l.028-1.045zm53.496 7.687l-.151 1.036.388-2.055-.237 1.02zM63.816 8.654l.643.825 1.891-1.476-2.368-.382-.166 1.033zm133.52 15.875l.56-.884-1.357 1.561.797-.677zm.108.069l-.556.886 1.28-1.642-.724.756zM18.163 29.725l.694.783-1.308-1.63.614.847zm-.102.09l-.697-.78 1.278 1.65-.581-.87zM5.967 33.677l.83.638-1.411-1.508.581.87zm-.072.094l-.83-.636 1.477 1.458-.647-.822zm4.368 25.283l.802-.672-1.605 1.343.803-.67zm.05.06l-.803.67 1.5 1.8.339-2.319-1.036-.15zm53.377-50.4l-.582-.87.867 1.876-.285-1.006zm.06-.017l.287 1.006-.135-2.042-.151 1.036zm88.043-3.934c.26.038.521.082.796.13.272.045.557.094.846.136l.302-2.07a33.425 33.425 0 01-.797-.13c-.272-.046-.557-.095-.846-.137l-.301 2.071zm1.611.26l2.588.457.363-2.061-2.588-.456-.363 2.06zm2.568.453c1.568.307 3.116.636 4.616 1.034l.537-2.022c-1.565-.416-3.164-.755-4.751-1.066l-.402 2.054zm4.629 1.038c1.713.43 3.397.931 4.946 1.63l.861-1.907c-1.716-.774-3.538-1.31-5.296-1.753l-.511 2.03zm4.957 1.636c1.414.618 2.824 1.315 4.223 2.018l.94-1.87c-1.403-.705-2.855-1.423-4.324-2.066l-.839 1.918zm5.113.124c-.658-.288-1.464-.648-2.134-.941l-.839 1.917c.772.337 1.35.598 2.133.941l.84-1.917zm-2.143-.945c-.738-.315-1.481-.64-2.254-.941l-.76 1.95c.733.285 1.432.591 2.194.916l.82-1.925zm-2.254-.941c-.746-.29-1.548-.604-2.401-.841l-.56 2.016c.735.204 1.44.478 2.201.775l.76-1.95zm-2.38-.835a58.261 58.261 0 00-2.078-.57l-.529 2.024c.685.179 1.348.352 2.005.55l.602-2.004zm-2.493 1.477l.057.008.302-2.07-.058-.009-.301 2.07zm.459-2.043a76.895 76.895 0 00-6.421-1.282l-.326 2.067a74.74 74.74 0 016.246 1.247l.501-2.032zm-6.407-1.28a122.238 122.238 0 00-3.055-.47l-.301 2.07a119.3 119.3 0 013.002.463l.354-2.063zm-3.055-.47l-1.011-.148-.301 2.07 1.011.148.301-2.07zm-1.044-.152c-.793-.09-1.579-.185-2.369-.28-.789-.095-1.583-.191-2.386-.282l-.234 2.08c.793.089 1.579.184 2.369.28.789.095 1.583.19 2.385.281l.235-2.08zm-4.758-.562a238.78 238.78 0 01-2.18-.252c-.731-.087-1.468-.175-2.199-.255l-.228 2.08c.72.08 1.447.166 2.18.253.731.087 1.468.174 2.199.254l.228-2.08zm-4.343-.502a23.322 23.322 0 00-1.951-.175l-.125 2.089a21.47 21.47 0 011.775.157l.301-2.07zm-1.939-.174c-3.148-.223-6.293-.471-9.442-.72l-.165 2.087c3.148.248 6.301.497 9.459.72l.148-2.087zm-9.428-.718a29.65 29.65 0 00-1.546-.09l-.083 2.091c.502.02.973.04 1.436.082l.193-2.083zm-1.544-.09L124.77.846l-.088 2.091 4.572.193.088-2.09zm-4.57-.193L120.917.68c-1.282-.055-2.564-.11-3.853-.167l-.091 2.09 3.854.168c1.282.055 2.564.11 3.853.167l.092-2.09zm-7.751-.335c-2.394-.006-4.791.013-7.182.033l.017 2.092a658.56 658.56 0 017.16-.033l.005-2.092zm-7.177.033c-.8.002-1.608.01-2.412.017-.806.008-1.607.015-2.399.017l.005 2.093c.801-.002 1.609-.01 2.413-.017.806-.008 1.607-.016 2.399-.018l-.006-2.092zm-4.82.035l-1.507.017.024 2.092 1.507-.017-.024-2.092zm-1.528.017l-.445.014.066 2.092.445-.014-.066-2.092zm-.485.016c-2.367.167-4.74.327-7.116.487-2.375.16-4.751.32-7.122.487l.147 2.088c2.367-.168 4.74-.327 7.116-.487 2.374-.16 4.751-.32 7.122-.487l-.147-2.088zm-14.24.975c-.067.004-.314.014-.551.062l.414 2.05a.955.955 0 01.105-.013l.08-.006.103-.006-.151-2.087zm-.266 2.13c5.816-.437 11.633-.61 17.439-.517l.034-2.092c-5.87-.094-11.75.08-17.63.523l.157 2.087zM105.94 3.2c1.873.037 3.771.105 5.653.168l.07-2.091c-1.875-.064-3.79-.132-5.681-.17L105.94 3.2zm5.64.168c.84.038 1.571.046 2.339.106l.164-2.086c-.807-.063-1.664-.077-2.407-.11l-.096 2.09zm2.343.107c.547.04 1.095.088 1.649.136.552.047 1.112.096 1.673.138l.156-2.087c-.547-.04-1.095-.088-1.649-.136-.552-.048-1.112-.096-1.673-.138l-.156 2.087zm3.313.273l10.053.833.173-2.085-10.053-.833-.173 2.085zm10.05.833l1.311.112.179-2.085-1.311-.112-.179 2.085zm1.48.113h-.002c-.002 0-.003 0 0 0l.027.003.066.01.302-2.071c-.114-.017-.305-.047-.552-.028l.159 2.086zm.117.016c.999.12 1.997.265 3.01.413l.302-2.07a115.847 115.847 0 00-3.062-.42l-.25 2.077zm3.018.414c1.689.233 3.37.471 5.05.71 1.679.237 3.357.475 5.036.706l.285-2.073c-1.674-.23-3.348-.468-5.028-.706-1.679-.238-3.364-.476-5.057-.71l-.286 2.073zm10.078 1.415l1.848.27.302-2.071-1.849-.27-.301 2.071zm1.792.26c.481.097.954.186 1.415.272.464.088.916.173 1.366.264l.417-2.05a98.414 98.414 0 00-1.396-.27 99.802 99.802 0 01-1.389-.268l-.413 2.052zm2.791.538c1.666.322 3.325.636 4.982.95 1.658.313 3.313.627 4.975.947l.396-2.054c-1.666-.322-3.325-.636-4.982-.95-1.657-.313-3.313-.627-4.974-.947l-.397 2.054zm10.004 1.905c.43.063.89.154 1.35.248l.417-2.05a27.15 27.15 0 00-1.465-.268l-.302 2.07zm1.328.243l1.971.445.46-2.041-1.97-.445-.461 2.041zm1.968.444c3.472.794 6.928 1.637 10.36 2.607l.569-2.014c-3.479-.983-6.972-1.834-10.463-2.633l-.466 2.04zm10.356 2.606c6.843 1.964 13.557 4.3 19.919 7.18l.863-1.907c-6.476-2.932-13.291-5.3-20.205-7.284l-.577 2.01zm19.927 7.183a152.471 152.471 0 019.276 4.483l.974-1.853a154.825 154.825 0 00-9.403-4.544l-.847 1.914zm9.276 4.483c3.027 1.592 5.998 3.248 8.821 5.06l1.131-1.76c-2.894-1.859-5.924-3.546-8.978-5.152l-.974 1.852zm8.827 5.064a107.66 107.66 0 014.285 2.862l1.203-1.712a109.798 109.798 0 00-4.368-2.918l-1.12 1.768zm4.288 2.864a51.514 51.514 0 013.696 2.804l1.347-1.6a53.179 53.179 0 00-3.846-2.92l-1.197 1.716zm3.706 2.813a46.345 46.345 0 013.59 3.272l1.488-1.471a48.764 48.764 0 00-3.751-3.42l-1.327 1.619zm3.596 3.278c1.066 1.061 2.068 2.142 2.908 3.286l1.687-1.238c-.932-1.27-2.021-2.438-3.118-3.53l-1.477 1.482zm2.911 3.29c.938 1.265 1.794 2.577 2.466 3.922l1.872-.935c-.744-1.488-1.673-2.907-2.657-4.233l-1.681 1.246zm2.453 3.896c.317.683.612 1.319.847 1.964l1.966-.717c-.271-.743-.605-1.46-.915-2.129l-1.898.882zm.853 1.98c.245.638.448 1.268.569 1.867l2.051-.415c-.152-.755-.398-1.503-.666-2.202l-1.954.75zm.566 1.847c.142.783.248 1.56.274 2.309l2.091-.073a18.003 18.003 0 00-.307-2.611l-2.058.375zm.274 2.3c.017.654.003 1.314-.064 1.956l2.081.216c.079-.755.093-1.509.075-2.227l-2.092.054zm-.064 1.956c-.138 1.324-.458 2.578-1.007 3.766l1.899.878c.657-1.421 1.031-2.903 1.189-4.427l-2.081-.217zm-1.01 3.773a17.053 17.053 0 01-1.142 2.112l1.766 1.122c.479-.753.907-1.546 1.281-2.37l-1.905-.864zm-1.141 2.112a14.173 14.173 0 01-1.166 1.615l1.587 1.364c.508-.592.95-1.237 1.344-1.856l-1.765-1.123zm-1.166 1.614c-.877 1.02-1.894 1.983-2.977 2.902l1.353 1.596c1.137-.964 2.24-2.005 3.211-3.133l-1.587-1.364zm-2.977 2.902a30.49 30.49 0 01-3.854 2.767l1.09 1.786a32.654 32.654 0 004.116-2.956l-1.352-1.597zm-3.853 2.766a51.932 51.932 0 01-3.992 2.2l.928 1.876a54.071 54.071 0 004.153-2.289l-1.089-1.787zm-3.998 2.204a73.651 73.651 0 01-9.102 3.803l.68 1.979a75.745 75.745 0 009.362-3.912l-.94-1.87zm-9.102 3.803c-3.189 1.093-6.447 1.998-9.764 2.822l.504 2.03c3.353-.832 6.673-1.753 9.939-2.873l-.679-1.98zm-9.765 2.822a175.86 175.86 0 01-10.289 2.21l.383 2.058c3.501-.652 6.99-1.386 10.412-2.237l-.506-2.03zm-10.288 2.21c-1.681.312-3.348.636-5.001.86l.28 2.073c1.717-.232 3.449-.569 5.102-.875l-.381-2.058zm-5.003.86c-1.58.216-3.154.434-4.726.651-1.573.218-3.145.436-4.724.652l.284 2.073c1.581-.216 3.154-.434 4.727-.652 1.572-.217 3.144-.435 4.723-.651l-.284-2.074zm-9.452 1.303c-.688.096-1.369.187-2.054.277a334 334 0 00-2.067.28l.288 2.072c.689-.096 1.37-.186 2.054-.277.684-.09 1.371-.182 2.067-.279l-.288-2.073zm-4.105.554c-.392.049-.773.096-1.18.138l.217 2.082c.43-.045.83-.095 1.219-.143l-.256-2.077zm-1.16.136c-2.688.227-5.384.458-8.079.69-2.695.231-5.39.462-8.076.689l.176 2.085c2.688-.227 5.384-.458 8.079-.69 2.695-.231 5.39-.463 8.076-.688l-.176-2.086zm-16.146 1.378a7.086 7.086 0 01-.168.01l-.216.012.152 2.087.171-.01c.064-.003.144-.007.219-.013l-.158-2.086zm-.354.02l-1.247.055.093 2.09 1.247-.054-.093-2.09zm-1.248.055l-4.542.206.095 2.09 4.542-.205-.095-2.09zm-4.534.206c-3.297.124-6.569.28-9.861.43l.095 2.09c3.298-.15 6.559-.305 9.845-.43l-.079-2.09zm-9.835.43c-.254.004-.505.017-.741.028-.24.011-.463.022-.683.027l.043 2.092c.254-.006.505-.018.74-.029.24-.011.464-.022.684-.027l-.043-2.092zm-1.436.055c-.869.028-1.764.026-2.657.028l.006 2.093c.876-.003 1.81 0 2.718-.03l-.067-2.091zm-2.661.028c-3.472.022-6.945.042-10.417.06l.01 2.092c3.474-.018 6.947-.037 10.42-.059l-.013-2.093zm-10.408.06a156.64 156.64 0 00-1.945.007c-.643.005-1.279.01-1.92.007l-.009 2.093c.656.002 1.304-.003 1.945-.008.644-.005 1.28-.01 1.921-.007l.008-2.093zm-3.835.015c-.251-.008-.501-.01-.734-.011a24.21 24.21 0 01-.677-.011l-.071 2.091c.251.009.501.01.735.012.238.002.459.003.678.01l.069-2.091zm-1.403-.022a684.93 684.93 0 01-4.184-.19 810.03 810.03 0 00-4.195-.19l-.087 2.091c1.389.059 2.784.124 4.184.19 1.398.066 2.799.132 4.195.19l.087-2.09zm-8.374-.38c-1.467-.068-2.941-.132-4.413-.195-1.474-.063-2.944-.127-4.406-.195l-.098 2.09c1.466.069 2.941.132 4.413.196 1.473.063 2.944.126 4.406.195l.098-2.09zm-8.795-.389l-1.074-.078-.158 2.087c.382.029.734.054 1.085.079l.147-2.088zm-1.046-.076c-.617-.063-1.24-.12-1.857-.177a182.68 182.68 0 01-1.837-.177l-.214 2.082c.617.063 1.24.121 1.858.178.619.058 1.232.114 1.836.176l.214-2.082zm-3.697-.354c-1.731-.173-3.47-.34-5.208-.509-1.738-.167-3.474-.335-5.201-.508l-.209 2.082c1.732.174 3.472.342 5.209.51 1.738.167 3.474.335 5.201.507l.208-2.082zm-10.422-1.018a93.097 93.097 0 01-1.351-.132 90.885 90.885 0 00-1.383-.135l-.181 2.085c.442.039.892.085 1.35.132.457.046.922.094 1.382.135l.183-2.085zm-2.674-.26l-1.501-.218-.302 2.07 1.502.22.302-2.072zm-1.51-.22c-1.66-.228-3.312-.462-4.966-.697-1.654-.234-3.31-.469-4.975-.698l-.285 2.073c1.66.228 3.312.462 4.966.697 1.654.234 3.31.469 4.975.699l.286-2.074zM65.5 78.682c-.698-.102-1.39-.196-2.076-.29-.688-.093-1.37-.186-2.057-.286l-.302 2.071c.7.102 1.39.196 2.077.29.687.093 1.37.186 2.057.286l.301-2.071zm-4.15-.578c-1.592-.206-3.206-.493-4.82-.78l-.367 2.06c1.606.286 3.27.581 4.919.795l.269-2.075zm-4.823-.781c-3.644-.636-7.267-1.32-10.863-2.157l-.474 2.038c3.65.849 7.316 1.542 10.977 2.18l.36-2.061zM45.66 75.165c-3.474-.795-6.951-1.64-10.367-2.659l-.598 2.006c3.48 1.037 7.01 1.895 10.499 2.693l.466-2.04zm-10.37-2.66a124.55 124.55 0 01-5.254-1.677l-.68 1.979c1.77.608 3.55 1.177 5.342 1.706l.592-2.008zm-5.257-1.678a101.84 101.84 0 01-4.682-1.722l-.77 1.945c1.58.626 3.173 1.212 4.778 1.758l.674-1.981zm-4.681-1.722a56.862 56.862 0 01-4.813-2.146l-.95 1.865a58.926 58.926 0 004.99 2.226l.773-1.945zm-4.818-2.148c-1.395-.7-2.765-1.415-4.06-2.192l-1.077 1.793c1.363.819 2.789 1.562 4.198 2.27l.939-1.871zm-4.051-2.188c-1.453-.89-2.845-1.785-4.154-2.79l-1.274 1.661c1.396 1.072 2.863 2.011 4.334 2.913l1.094-1.784zm-4.165-2.797a34.317 34.317 0 01-3.365-2.836l-1.456 1.503a36.404 36.404 0 003.569 3.01l1.252-1.677zm-3.367-2.838C7.794 58.02 6.75 56.86 5.87 55.61l-1.71 1.206c.976 1.386 2.116 2.646 3.34 3.824l1.45-1.507zm-3.083-3.525c-.806-1.136-1.534-2.323-2.108-3.549l-1.895.888c.64 1.368 1.439 2.663 2.296 3.872l1.707-1.211zm-2.102-3.535c-.623-1.385-1.118-2.779-1.408-4.2l-2.05.42c.33 1.612.882 3.156 1.55 4.64l1.908-.86zM2.357 47.87a17.75 17.75 0 01-.385-4.05l-2.092-.05a19.84 19.84 0 00.43 4.53l2.047-.43zm-.386-4.043a20.23 20.23 0 012.16-8.478l-1.867-.944A22.316 22.316 0 00-.12 43.764l2.091.063zm2.162-8.48c1.272-2.531 3.03-4.877 5.148-6.925l-1.455-1.505c-2.275 2.2-4.177 4.733-5.563 7.49l1.87.94zm5.148-6.925c2.135-2.064 4.56-3.895 7.154-5.559l-1.13-1.761c-2.678 1.719-5.22 3.632-7.479 5.815l1.455 1.505zm7.154-5.56a69.8 69.8 0 018.21-4.498l-.884-1.897a71.884 71.884 0 00-8.457 4.635l1.131 1.76zm8.21-4.499c2.967-1.383 6.063-2.598 9.194-3.737l-.716-1.966c-3.16 1.15-6.318 2.388-9.363 3.807l.884 1.896zm9.195-3.737a186.478 186.478 0 019.71-3.237l-.61-2.002c-3.287 1-6.558 2.083-9.818 3.273l.718 1.966zm9.676-3.228c.95-.255 1.931-.556 2.813-.804L45.76 8.58c-.964.271-1.835.541-2.788.797l.543 2.021zm2.884-.827c.114-.04.136-.035.42-.115l-.566-2.015c-.084.024-.367.09-.564.162l.71 1.968zm.416-.114c.334-.093.67-.179 1.006-.26l-.486-2.035c-.36.086-.72.179-1.078.278l.558 2.017zm1.02-.263c1.576-.4 3.15-.794 4.727-1.189 1.575-.394 3.154-.79 4.733-1.19l-.516-2.029c-1.575.4-3.149.795-4.726 1.19-1.575.394-3.154.789-4.733 1.19l.516 2.028zm9.46-2.38l2.757-.702-.517-2.028-2.756.702.516 2.028zm2.853-.731a1.92 1.92 0 01.312-.058l-.299-2.07c-.157.022-.448.06-.722.159l.709 1.969zm.313-.058c.248-.036.487-.08.703-.12.223-.04.424-.077.628-.107l-.301-2.07c-.248.036-.487.08-.704.12-.222.04-.423.077-.627.106l.3 2.071zm1.364-.232c3.248-.58 6.51-1.18 9.779-1.754l-.363-2.061c-3.27.575-6.552 1.177-9.784 1.755l.368 2.06zm9.786-1.755c.434-.08.86-.154 1.293-.23.43-.075.866-.15 1.31-.232l-.377-2.059c-.434.08-.861.155-1.293.23-.43.075-.866.15-1.31.232l.377 2.059zm2.564-.456c.061-.009.119-.014.203-.022.08-.008.187-.018.306-.035l-.297-2.071c-.062.009-.12.014-.204.022-.08.008-.187.018-.307.035l.299 2.071zm.493-.055c.236-.03.479-.059.727-.088.247-.03.499-.06.744-.091l-.265-2.076c-.236.03-.479.06-.727.089l-.744.09.265 2.076zm1.466-.179c3.346-.41 6.677-.81 10.027-1.22l-.254-2.076c-3.316.405-6.709.813-10.028 1.22l.255 2.076zm10.03-1.22L88.78 2.8 88.518.722l-2.614.329.261 2.076zm2.635-.331c.095-.014.197-.016.387-.016L89.18.687c-.164 0-.416 0-.683.038l.303 2.07zm.448-.018l1.518-.095-.13-2.088-1.518.094.13 2.089zm1.515-.095c3.344-.198 6.69-.416 10.055-.61l-.121-2.09c-3.357.194-6.739.414-10.058.611l.124 2.09zm10.037-.61c.296-.012.591-.03.871-.048.285-.018.556-.035.824-.046l-.085-2.091c-.295.012-.59.03-.871.048-.285.018-.556.036-.824.047l.085 2.09zm1.687-.094c.108-.003.229-.015.295-.02.084-.007.136-.01.178-.01l-.003-2.093c-.135 0-.262.01-.35.017-.105.01-.149.013-.189.015l.069 2.091zm.444-.031c.9.024 1.776.017 2.653.015l-.006-2.093c-.893.002-1.73.009-2.592-.014l-.055 2.092zm2.653.015c3.343-.01 6.706.002 10.03-.011l-.009-2.093c-3.344.014-6.643.001-10.027.01l.006 2.094zm10.02-.011c.649.003 1.07-.025 1.58-.002l.095-2.09c-.545-.025-1.193.001-1.664-.001l-.011 2.093zm1.569-.002c.592.033 1.178.058 1.755.083.58.026 1.153.05 1.73.083l.117-2.09c-.593-.033-1.178-.058-1.756-.083a123.51 123.51 0 01-1.729-.083l-.117 2.09zm3.489.166c1.554.082 3.101.156 4.645.23 1.546.073 3.088.147 4.636.228l.11-2.09a997.78 997.78 0 00-4.646-.229c-1.545-.074-3.087-.147-4.636-.229l-.109 2.09zm9.282.458c.53.028 1.031.075 1.584.13l.205-2.083a35.284 35.284 0 00-1.681-.136l-.108 2.09zm1.601.131l4.954.406.171-2.085-4.954-.406-.171 2.085zm4.96.407c.753.057 1.513.122 2.278.188.764.065 1.533.13 2.297.19l.159-2.087c-.752-.058-1.512-.123-2.278-.188-.763-.066-1.533-.131-2.297-.19l-.159 2.087zm4.62.38c.233.008.445.019.613.043l.302-2.07a7.844 7.844 0 00-.846-.065l-.069 2.092zm.613.043c.183.027.37.047.533.064.171.018.318.034.453.054l.301-2.071c-.182-.027-.37-.047-.533-.064a11.945 11.945 0 01-.452-.053l-.302 2.07zm1.004.12c1.436.183 2.866.358 4.292.533 1.428.175 2.852.35 4.282.532l.265-2.076a918.347 918.347 0 00-4.292-.533c-1.427-.175-2.852-.35-4.282-.532l-.265 2.076zm8.556 1.063c.148.021.461.073.724.053l-.157-2.086c.023-.002.033-.001.024-.002a6.57 6.57 0 01-.29-.037l-.301 2.072zm-45.407.804a.51.51 0 01-.062.005h.006l.028.001.107.002c.046 0 .104 0 .17-.005l-.151-2.087-.07-.002c-.027 0-.074-.002-.125-.001a1.48 1.48 0 00-.206.016l.303 2.07zm.187-2.087c-14.35-.188-28.663 1.161-42.52 4.219l.451 2.043c13.688-3.02 27.84-4.356 42.042-4.17l.027-2.092zM64.826 8.77a1.016 1.016 0 01-.016.11l-2.052-.414a1.096 1.096 0 00-.017.116l2.085.188zm-1.373-1.09a1.015 1.015 0 01.442-.045l.01.002-.301 2.07.03.005a1.078 1.078 0 00.482-.046l-.663-1.986zm.154-.044a1.74 1.74 0 00-.274.062l-.038.01a.146.146 0 01.033-.006l.303 2.07a1.63 1.63 0 00.27-.061l.036-.01a.123.123 0 01-.035.007l-.295-2.072zm.024 2.136c.077-.01.14-.024.177-.031l.065-.012-.303-2.071c-.076.011-.14.024-.176.032a1.21 1.21 0 01-.066.012l.303 2.07zm-.143-2.099c-5.206 1.194-10.394 2.555-15.433 4.26l.67 1.982c4.95-1.674 10.064-3.017 15.23-4.202l-.467-2.04zm-15.431 4.26c-5.001 1.68-9.874 3.65-14.54 6l.942 1.869c4.563-2.298 9.342-4.23 14.265-5.886l-.667-1.984zm-14.542 6c-2.93 1.487-5.808 3.148-8.48 5.006l1.194 1.718c2.577-1.791 5.367-3.404 8.232-4.857l-.946-1.866zm-8.48 5.006a72.658 72.658 0 00-4.066 3.06l1.31 1.631a70.616 70.616 0 013.95-2.972l-1.194-1.72zm-4.066 3.06c-1.129.906-2.325 1.862-3.444 2.887l1.413 1.543c1.06-.97 2.2-1.882 3.341-2.799l-1.31-1.632zm-3.443 2.885a38.07 38.07 0 00-1.941 1.88l1.517 1.44a36.062 36.062 0 011.834-1.774l-1.41-1.546zM15.57 30.78c-.164.18-.329.367-.487.547-.16.181-.313.355-.465.522l1.549 1.408c.164-.181.328-.368.487-.547.16-.182.313-.356.465-.523l-1.55-1.407zm-.938 1.055c-.168.177-.38.4-.563.638l1.658 1.278a7 7 0 01.426-.48l-1.521-1.436zm-.551.624c-.449.561-.828 1.055-1.249 1.56l1.609 1.339c.437-.526.858-1.072 1.274-1.593l-1.634-1.306zm-1.26 1.573c-.707.878-1.456 1.785-2.122 2.76l1.728 1.18c.608-.889 1.292-1.718 2.024-2.627l-1.63-1.313zm-.277 3.713c.328-.886.713-1.771 1.133-2.665l-1.894-.89a36.04 36.04 0 00-1.201 2.83l1.963.725zm1.142-2.685c.08-.18.167-.36.263-.56.094-.193.197-.405.292-.62l-1.912-.85c-.08.18-.167.36-.263.56-.094.193-.197.405-.292.62l1.912.85zm.539-1.146c.254-.518.495-1.01.762-1.496l-1.834-1.008c-.295.536-.558 1.074-.808 1.585l1.88.92zm.743-1.464c.652-1.092 1.306-2.099 2.085-3.052l-1.62-1.324c-.872 1.066-1.586 2.171-2.262 3.304l1.797 1.072zm2.079-3.044c.81-.97 1.623-1.885 2.531-2.727l-1.423-1.534c-1.002.93-1.881 1.922-2.715 2.92l1.607 1.341zm2.545-2.74c.974-.938 1.988-1.831 3.066-2.631l-1.247-1.68a33.546 33.546 0 00-3.27 2.803l1.451 1.508zm3.07-2.635a50.3 50.3 0 013.12-2.171l-1.127-1.764a52.407 52.407 0 00-3.248 2.261l1.255 1.674zm3.122-2.173c2.724-1.752 5.603-3.33 8.584-4.767l-.91-1.885c-3.044 1.468-5.999 3.087-8.806 4.892l1.132 1.76zm8.58-4.766a114.806 114.806 0 019.408-3.993l-.73-1.961a116.892 116.892 0 00-9.58 4.066l.902 1.888zM43.77 13.1a120.34 120.34 0 017.071-2.383l-.606-2.003c-2.414.731-4.813 1.54-7.194 2.424l.729 1.962zm6.514-4.4c-.407.102-.813.21-1.21.316-.4.106-.792.21-1.181.308l.508 2.03c.407-.102.813-.21 1.21-.316.4-.106.792-.21 1.182-.308l-.51-2.03zm-2.421.632c-.131.037-.265.07-.42.107-.15.036-.322.077-.498.127l.566 2.014c.132-.037.266-.07.422-.107.15-.036.322-.077.498-.127l-.568-2.014zm-.893.227c-.489.124-.977.275-1.436.417l.617 2c.467-.145.906-.28 1.336-.39L46.97 9.56zm-1.424.413a194.344 194.344 0 00-7.523 2.391l.674 1.981c2.47-.84 4.951-1.629 7.442-2.365l-.593-2.007zm-7.526 2.392c-2.577.883-5.14 1.832-7.685 2.847l.775 1.944a164.843 164.843 0 017.589-2.811l-.679-1.98zm-7.683 2.846a92.202 92.202 0 00-7.013 3.098l.928 1.875a90.122 90.122 0 016.855-3.027l-.77-1.946zm-7.023 3.103c-4.67 2.376-9.136 5.175-12.988 8.62l1.395 1.56c3.677-3.289 7.976-5.992 12.542-8.315l-.95-1.865zm-13 8.631a31.109 31.109 0 00-5.168 6.154l1.766 1.123a29.015 29.015 0 014.822-5.74l-1.42-1.537zM5.133 33.12a24.988 24.988 0 00-1.41 2.701l1.911.854a23.12 23.12 0 011.291-2.476l-1.792-1.08zm-1.425 2.737c-.377.937-.73 1.89-1.029 2.888l2.005.601a31.29 31.29 0 01.965-2.707l-1.94-.782zm-1.035 2.91a19.61 19.61 0 00-.584 2.944l2.08.237a17.25 17.25 0 01.521-2.624l-2.017-.556zm-.58 2.912c-.133.917-.167 1.808-.176 2.69l2.093.021c.008-.848.04-1.63.154-2.41l-2.07-.301zm-.175 2.737c.029.84.088 1.72.249 2.603l2.059-.375c-.135-.737-.19-1.502-.217-2.3l-2.091.072zm.245 2.58c.142.889.335 1.763.577 2.618l2.013-.57a20.694 20.694 0 01-.524-2.378l-2.066.33zm.592 2.666c.293.872.628 1.787 1.072 2.674L5.7 51.4c-.379-.757-.677-1.563-.96-2.405l-1.984.667zm1.07 2.668c.444.902.93 1.797 1.49 2.656l1.752-1.142a23.3 23.3 0 01-1.365-2.438l-1.878.924zm1.505 2.68c.599.867 1.24 1.727 1.956 2.548l1.577-1.375a26.298 26.298 0 01-1.811-2.362L5.33 55.009zm1.968 2.561a33.62 33.62 0 002.444 2.444l1.401-1.554a31.55 31.55 0 01-2.292-2.292l-1.553 1.402zm2.458 2.456a44.996 44.996 0 004.564 3.49l1.161-1.74a42.937 42.937 0 01-4.351-3.328l-1.374 1.578zm4.57 3.494a51.116 51.116 0 004.857 2.826l.95-1.864a49.005 49.005 0 01-4.657-2.71l-1.15 1.748zm4.867 2.832c1.656.821 3.337 1.628 5.071 2.336l.792-1.937c-1.662-.68-3.289-1.459-4.933-2.274l-.93 1.875zm5.068 2.335c1.698.701 3.46 1.33 5.178 1.924l.682-1.978c-1.708-.59-3.422-1.203-5.061-1.88l-.8 1.934zm5.181 1.925c1.89.644 3.796 1.267 5.749 1.818l.568-2.014c-1.9-.536-3.767-1.145-5.641-1.785l-.676 1.98zm5.738 1.815c1.8.528 3.605 1.002 5.437 1.455l.501-2.032a127.471 127.471 0 01-5.349-1.431l-.589 2.008zm5.44 1.455c3.49.852 7.021 1.63 10.57 2.306l.391-2.056a209.828 209.828 0 01-10.466-2.283l-.495 2.033zm10.585 2.309c1.733.304 3.51.642 5.277.926l.332-2.066c-1.749-.281-3.472-.61-5.247-.922l-.362 2.062zm5.261.923c.44.078.888.15 1.326.22.441.071.873.14 1.295.215l.363-2.061a79.61 79.61 0 00-1.326-.22c-.44-.07-.872-.14-1.294-.214l-.364 2.06zm2.594.43c.491.1.953.166 1.411.233l.302-2.07c-.466-.069-.871-.128-1.296-.214l-.417 2.05zm1.422.234l7.404 1 .28-2.074-7.404-1-.28 2.075zm7.403 1l8.587 1.172.283-2.073-8.587-1.172-.284 2.073zm8.578 1.17c.445.066.859.097 1.234.125l.159-2.086c-.383-.03-.728-.056-1.091-.109l-.302 2.07zm1.207.123c.616.063 1.24.121 1.857.178.62.057 1.232.114 1.837.176l.213-2.082c-.616-.063-1.24-.12-1.857-.178-.62-.057-1.233-.114-1.837-.176l-.213 2.082zm3.704.355l10.388.961.193-2.083-10.388-.962-.193 2.084zm10.397.962c.412.035.833.077 1.267.12.43.043.874.088 1.32.126l.178-2.085c-.428-.037-.856-.08-1.29-.123a79.298 79.298 0 00-1.3-.123l-.175 2.085zm2.525.239c.124.018.24.02.29.022l.06.003.302-2.071c-.124-.018-.24-.021-.29-.023l-.06-.002-.302 2.07zm.493.035c.17.002.344.009.537.017.187.008.395.017.607.019l.019-2.093a16.09 16.09 0 01-.538-.017 18.372 18.372 0 00-.608-.018l-.017 2.093zm1.112.035c2.725.108 5.45.223 8.176.337 2.726.115 5.453.23 8.181.338l.083-2.091c-2.725-.108-5.45-.223-8.176-.337-2.726-.115-5.453-.23-8.181-.338l-.083 2.091zm16.415.675c4.401-.067 8.813-.08 13.223-.122l-.02-2.092c-4.39.041-8.828.054-13.235.122l.032 2.092zm13.216-.122c.625-.002 1.257-.009 1.884-.016.629-.007 1.252-.014 1.866-.016l-.006-2.092c-.625.001-1.257.009-1.884.016-.628.007-1.251.014-1.866.016l.006 2.092zm3.751-.032c.332 0 .764.003 1.169-.027l-.156-2.087c-.31.023-.645.02-1.02.022l.007 2.092zm1.135-.025c1.472-.062 2.937-.132 4.399-.201 1.463-.07 2.923-.139 4.389-.201l-.089-2.09c-1.471.061-2.937.131-4.399.2-1.463.07-2.923.14-4.388.201l.088 2.09zm8.787-.402c1.338-.055 2.67-.118 3.999-.18 1.329-.063 2.655-.126 3.986-.18l-.086-2.092c-1.339.056-2.671.119-3.999.181a664.84 664.84 0 01-3.986.18l.086 2.091zm7.975-.36c.483-.016 1.042-.084 1.433-.119l-.185-2.084c-.506.044-.909.098-1.314.111l.066 2.092zm1.437-.12c.71-.065 1.428-.123 2.153-.182.723-.06 1.452-.118 2.177-.185l-.193-2.084c-.711.066-1.429.124-2.153.183-.723.059-1.453.118-2.177.185l.193 2.084zm4.325-.367c1.627-.144 3.245-.282 4.865-.42 1.62-.139 3.242-.277 4.872-.421l-.184-2.085c-1.627.144-3.245.282-4.866.42-1.62.139-3.241.278-4.871.422l.184 2.084zm9.777-.846c.21-.027.421-.043.663-.061.232-.019.495-.04.76-.078l-.299-2.07a9.595 9.595 0 01-.624.061c-.228.018-.494.038-.765.073l.265 2.075zm1.416-.138l3.069-.42-.284-2.073-3.069.42.284 2.073zm3.069-.42l10.021-1.378-.285-2.073-10.021 1.378.285 2.073zm10.029-1.38c.769-.11 1.636-.211 2.471-.358l-.362-2.061c-.8.14-1.552.224-2.41.35l.301 2.07zm2.465-.357c3.428-.582 6.841-1.22 10.243-1.967l-.448-2.044c-3.361.738-6.739 1.37-10.145 1.948l.35 2.063zm10.244-1.967c2.03-.447 4.034-.95 6.035-1.475l-.532-2.024a151.95 151.95 0 01-5.953 1.455l.45 2.044zm6.04-1.477c1.848-.495 3.715-1.021 5.569-1.63l-.653-1.989c-1.801.592-3.624 1.106-5.458 1.598l.542 2.021zm5.563-1.629c3.692-1.189 7.309-2.607 10.737-4.325l-.937-1.87c-3.316 1.66-6.83 3.04-10.441 4.203l.641 1.992zm10.756-4.334c1.566-.824 3.143-1.672 4.658-2.672l-1.153-1.747c-1.42.938-2.916 1.744-4.48 2.567l.975 1.852zm4.658-2.672a31.427 31.427 0 002.245-1.602l-1.299-1.64a29.706 29.706 0 01-2.098 1.495l1.152 1.747zm2.245-1.602a36.112 36.112 0 001.592-1.338l-1.392-1.563c-.49.437-.99.857-1.499 1.26l1.299 1.64zm1.583-1.33a18.091 18.091 0 001.986-2.026l-1.604-1.344a15.973 15.973 0 01-1.755 1.791l1.373 1.58zm1.98-2.019c.545-.639.993-1.313 1.403-1.928l-1.742-1.161c-.42.63-.802 1.202-1.253 1.732l1.592 1.357zm1.415-1.947c.408-.643.764-1.325 1.063-2.036l-1.929-.811a11.532 11.532 0 01-.9 1.724l1.766 1.123zm1.055-2.017c.245-.553.423-1.108.582-1.601l-1.991-.642c-.165.51-.31.959-.503 1.393l1.912.85zm.601-1.667c.148-.587.268-1.18.325-1.798l-2.084-.19c-.043.47-.138.95-.27 1.478l2.029.51zm.325-1.796c.052-.562.109-1.162.099-1.781l-2.092.03c.007.489-.037.978-.091 1.556l2.084.195zm.099-1.787a14.03 14.03 0 00-.135-1.693l-2.072.292c.067.475.105.958.115 1.444l2.092-.043zm-.139-1.717c-.1-.61-.233-1.21-.399-1.797l-2.014.567c.144.512.261 1.037.349 1.57l2.064-.34zm-.414-1.847c-.297-.882-.638-1.774-1.088-2.638l-1.856.967c.38.728.681 1.506.96 2.338l1.984-.667zm-1.073-2.608c-.433-.9-.955-1.774-1.46-2.588l-1.779 1.102c.498.803.971 1.599 1.353 2.393l1.886-.907zm-1.482-2.622c-1.718-2.55-3.92-4.792-6.217-6.855l-1.398 1.556c2.241 2.014 4.3 4.124 5.88 6.469l1.735-1.17zm-6.225-6.862c-1.392-1.227-2.854-2.35-4.34-3.418l-1.221 1.7c1.451 1.041 2.853 2.122 4.179 3.288l1.382-1.57zm-4.352-3.427c-1.529-1.064-3.099-2.143-4.687-3.146l-1.118 1.769c1.546.977 3.085 2.033 4.609 3.094l1.196-1.717zm-4.684-3.144c-3.189-2.03-6.487-3.888-9.827-5.618l-.962 1.858c3.297 1.707 6.539 3.535 9.665 5.525l1.124-1.765zm-9.83-5.62a146.077 146.077 0 00-16.245-7.156l-.723 1.964a144.084 144.084 0 0116.012 7.054l.956-1.862zm-16.244-7.156c-2.85-1.05-5.739-2-8.628-2.896l-.619 1.999c2.867.889 5.719 1.826 8.523 2.86l.724-1.963zm-8.638-2.899a214.783 214.783 0 00-8.804-2.418l-.514 2.029a212.84 212.84 0 018.719 2.394l.599-2.005zm-9.212-.368h.006l.301-2.07h-.006l-.301 2.07zm.393-2.054c-1.114-.259-2.355-.564-3.487-.823l-.468 2.04c1.175.269 2.283.543 3.482.822l.473-2.039zm-3.474-.82c-.286-.07-.577-.133-.858-.193-.285-.062-.56-.12-.832-.185l-.484 2.036c.298.07.596.134.875.194.284.062.55.12.806.181l.493-2.034zm-1.689-.378c-.157-.037-.604-.171-.947-.221l-.302 2.07c.235.035.351.088.764.187l.485-2.036zm-.947-.221c-.429-.063-.859-.15-1.321-.243l-.417 2.05c.455.093.941.191 1.436.263l.302-2.07zm-1.331-.245c-1.107-.214-2.208-.42-3.306-.627-1.098-.206-2.194-.411-3.295-.624l-.397 2.055c1.108.214 2.209.42 3.306.626 1.099.206 2.194.411 3.295.624l.397-2.054zm-6.608-1.252c-.987-.183-1.966-.372-2.945-.56-.978-.189-1.957-.378-2.937-.56l-.383 2.058c.972.18 1.944.368 2.924.556.978.189 1.964.379 2.959.563l.382-2.057zm-5.855-1.114c-.817-.175-1.669-.272-2.432-.383l-.301 2.07c.854.125 1.568.203 2.296.359l.437-2.046zm-2.44-.384c-1.689-.233-3.37-.472-5.05-.71-1.679-.238-3.356-.476-5.036-.707l-.285 2.073c1.674.23 3.348.468 5.028.706 1.679.238 3.364.477 5.057.71l.286-2.072zm-10.104-1.42c-.999-.12-1.997-.264-3.01-.412l-.301 2.07c1.008.148 2.032.297 3.062.42l.249-2.078zm-3.01-.412c-.131-.02-.246-.023-.309-.026l-.07-.003-.302 2.071c.124.018.243.021.288.023a.966.966 0 01.092.006l.301-2.07zm-.445-.036l-.624-.052-.629-.052-.169 2.086.624.051.629.053.169-2.086zm-1.251-.104l-10.053-.834-.173 2.086 10.053.834.173-2.086zm-10.062-.834a140.37 140.37 0 01-1.649-.136c-.552-.047-1.111-.096-1.672-.138l-.157 2.087c.548.04 1.095.088 1.65.136.552.048 1.112.096 1.673.137l.155-2.086zm-3.249-.266l-.202-.03-.301 2.071.202.03.301-2.07zm-.294-.039a90.009 90.009 0 00-2.638-.118l-.056 2.092a87.06 87.06 0 012.577.116l.117-2.09zm-2.625-.118a308.743 308.743 0 00-5.215-.153l-.047 2.092c1.703.038 3.458.085 5.18.152l.082-2.09zm52.981 9.697c.05.014.18.051.323.072l.302-2.07c.009 0 .01.001-.003-.002l-.062-.017-.56 2.017zm.711-1.983l-.195-.045-.473 2.039.195.045.473-2.039zM63.816 8.654l.165-1.033h-.002l-.004-.001a1.258 1.258 0 00-.145-.012 1.07 1.07 0 00-1.056.792l2.02.544a1.023 1.023 0 01-1.13.745h-.008l-.004-.002h-.002l.166-1.033zm.342.995a1.14 1.14 0 00.301-.17l-1.287-1.65a.926.926 0 01.239-.135l.747 1.955zm99.733 3.626l.113.026.47-2.04-.113-.025-.47 2.039zm.634-2a2.175 2.175 0 00-.216-.05l-.367 2.06.011.003.572-2.013zm33.314 12.344c-.027-.013.01.003.049.026a.971.971 0 01.246.208l-1.595 1.353a1.133 1.133 0 00.373.288c.008.005.016.008.021.01a.034.034 0 00.006.004l.003.001.897-1.89zm-1.062 1.795l.054.034 1.119-1.768-.054-.035-1.119 1.769zm1.224-1.703l-.054-.033-1.113 1.772.054.034 1.113-1.773zm-.967 1.837a.883.883 0 01-.313-.195l1.447-1.51a1.198 1.198 0 00-.421-.263l-.713 1.968zM18.877 30.483a.691.691 0 01-.1.088l-1.229-1.694a1.396 1.396 0 00-.2.178l1.529 1.428zm-1.408-1.542l-.05.045 1.387 1.566.05-.045-1.387-1.566zm1.289 1.654l.05-.046-1.393-1.56-.05.045 1.393 1.56zm-1.385-1.567c-.012.012-.005.005.005-.004a.847.847 0 01.102-.08l1.162 1.74a1.25 1.25 0 00.152-.12c.027-.024.051-.049.056-.054l-1.477-1.482zM5.386 32.807a1.126 1.126 0 00-.348.371l-.02.036 1.826 1.02c.012-.021-.01.022-.043.068a.97.97 0 01-.252.245l-1.163-1.74zm1.374 1.555l.037-.047-1.659-1.276-.036.047 1.658 1.276zM5.1 33.088l-.036.047 1.661 1.273.036-.047-1.66-1.273zm1.442 1.505c.16-.126.271-.282.341-.435l-1.904-.868a.92.92 0 01.268-.34l1.295 1.643zm2.92 25.134c.062.074.121.126.16.158l.035.027-.02-.015c-.019-.016-.14-.112-.237-.282a1.023 1.023 0 01-.122-.651l2.07.301a1.07 1.07 0 00-.128-.683 1.12 1.12 0 00-.295-.334l.017.013a.909.909 0 01.123.121L9.46 59.727zm1.655-1.283l-.05-.06-1.607 1.34.05.06 1.607-1.34zM64.27 9.584c.017-.012-.003.002-.027.017a.993.993 0 01-.569.138c-.052-.003-.1-.01-.075-.007l.302-2.07-.029-.005a1.081 1.081 0 00-.766.187l1.164 1.74zm-.806-1.894l-.062.018.572 2.012.062-.017-.572-2.013z" fill="#F37060" mask="url(#a)"/></svg>