<svg width="336" height="89" fill="none" xmlns="http://www.w3.org/2000/svg"><path d="M217.296 2.463c.818.063 1.633.154 2.452.218l3.867.382c2.362.266 4.721.559 7.031.93 2.612.396 5.26.876 7.759 1.592 2.205.611 4.404 1.304 6.559 1.994-1.103-.306-2.162-.608-3.264-.914-1.145-.308-2.248-.614-3.395-.895-1.148-.282-2.296-.563-3.493-.766-1.024-.19-2.051-.352-3.078-.514l.086.007c-3.125-.463-6.303-.82-9.487-1.094-1.504-.144-3.011-.26-4.518-.378l-1.507-.117c-2.372-.129-4.699-.282-7.071-.411-2.157-.112-4.355-.255-6.511-.368a46.283 46.283 0 00-2.764-.104c-4.669-.115-9.335-.258-14.002-.4-.733-.03-1.47-.031-2.206-.033L177 1.562c-3.81-.02-7.576-.038-11.386-.06-3.515.086-7.032.197-10.549.31-2.343.064-4.733.154-7.076.22l-2.215.075-.652.032c-6.928.534-13.897 1.037-20.824 1.572-.175.014-.392.024-.612.063a391.52 391.52 0 0125.735-1.22c2.774-.031 5.589-.032 8.362-.037 1.168.008 2.339-.011 3.506.024 1.642.045 3.282.118 4.925.163l14.903.497 1.944.068c.174-.014.304-.004.475.01 1.51.09 3.016.206 4.523.323 5.039.364 10.033.751 15.029 1.111l2.756.214c1.416.165 2.792.3 4.165.46 4.981.552 9.921 1.073 14.903 1.624.689.054 1.418.138 2.105.219l2.958.394c5.229.708 10.454 1.471 15.667 2.37 10.384 1.823 20.649 4.049 30.478 6.873a297.926 297.926 0 0114.34 4.41c4.685 1.574 9.321 3.225 13.77 5.054 2.273.923 4.523 1.886 6.749 2.888 2.01.897 4.014 1.85 5.927 2.878a76.607 76.607 0 015.843 3.394c1.734 1.097 3.421 2.245 4.884 3.485 1.586 1.332 3.079 2.74 4.308 4.21.551.702 1.103 1.404 1.567 2.127.466.696.886 1.415 1.177 2.125.325.85.603 1.724.753 2.587.116.724.189 1.472.174 2.212-.03 1.51-.36 2.968-1.075 4.37a16.04 16.04 0 01-1.487 2.412c-.483.65-1.009 1.296-1.618 1.881-1.217 1.17-2.645 2.268-4.154 3.305-1.693 1.16-3.506 2.202-5.488 3.175a81.664 81.664 0 01-5.696 2.526c-4.158 1.684-8.561 3.156-13.077 4.427-4.604 1.292-9.323 2.382-14.122 3.384-4.887 1.022-9.894 1.926-14.938 2.743-2.413.39-4.87.804-7.319 1.109-4.593.578-9.142 1.16-13.735 1.737-2.012.257-3.979.489-5.991.745-.568.066-1.136.132-1.747.194-7.849.682-15.744 1.39-23.592 2.072-.175.014-.392.025-.566.038l-1.828.106-6.657.39c-4.827.258-9.613.546-14.443.83-.695.03-1.393.085-2.088.114-1.304.063-2.649.096-3.951.133-5.108.155-10.216.309-15.324.46-1.91.044-3.778.119-5.687.163-.693.001-1.388.03-2.081.03-4.114-.016-8.268-.064-12.381-.08-4.328-.034-8.702-.044-13.03-.077a391.8 391.8 0 01-1.6-.042c-1.812-.086-3.669-.147-5.482-.233-5.136-.234-10.317-.443-15.453-.677-1.338-.05-2.718-.129-4.057-.177l-2.239-.174c-4.953-.357-9.861-.738-14.814-1.095-2.066-.16-4.091-.29-6.158-.45-2.413-.16-4.863-.405-7.27-.647-5.459-.533-10.913-1.122-16.355-1.874-5.23-.708-10.497-1.474-15.707-2.428a256.1 256.1 0 01-8.02-1.584 207.488 207.488 0 01-7.19-1.657c-2.55-.638-5.051-1.327-7.502-2.122-2.155-.69-4.309-1.406-6.37-2.198-2.269-.89-4.493-1.805-6.62-2.85-1.922-.919-3.753-1.885-5.489-2.954-1.902-1.165-3.668-2.401-5.209-3.757-1.379-1.207-2.665-2.488-3.73-3.835-1.14-1.49-2.104-3.022-2.76-4.612C.89 53.581.488 52.065.346 50.543c-.268-3.236.461-6.505 2.167-9.506 1.607-2.843 3.978-5.49 6.93-7.817 2.953-2.327 6.361-4.399 10.016-6.286 3.655-1.888 7.6-3.616 11.66-5.142 4.238-1.594 8.68-3.009 13.156-4.338a332.65 332.65 0 0113.939-3.81c1.367-.307 2.692-.643 4.015-.953.222-.065.441-.103.706-.165a55.33 55.33 0 011.498-.323c4.536-.968 9.07-1.908 13.606-2.875l3.963-.847c.222-.065.485-.1.747-.134.657-.087 1.272-.204 1.928-.29C89.37 7.32 94.105 6.562 98.84 5.83c1.271-.204 2.498-.384 3.77-.588.262-.034.479-.045.742-.08.7-.083 1.442-.162 2.142-.245 4.85-.559 9.744-1.113 14.595-1.671l3.803-.447c.262-.035.523-.042.783-.05l2.221-.157c4.877-.336 9.799-.696 14.719-1.029.826-.045 1.655-.119 2.481-.164.218-.01.481-.046.741-.053 1.3-.009 2.559-.049 3.861-.085 4.948-.138 9.851-.252 14.757-.394.824-.018 1.607-.068 2.386-.062 1.731.024 3.42.018 5.151.042 4.587.054 9.132.077 13.719.13.823.01 1.599.042 2.42.079 2.462.08 4.881.158 7.344.24 2.247.064 4.535.159 6.782.224.347-.001.736.002 1.08.029.474.036.993.049 1.466.086 4.267.276 8.492.521 12.759.797.301.024.559.044.734.03zm-67.894 2.564c.131-.018.304-.004.478-.018-21.033.347-41.801 2.308-61.667 6.043v-.004c-.01.003-.021.002-.043 0-.131.018-.265.063-.396.08.131-.017.22-.038.35-.056-7.475 1.454-14.877 3.079-22.003 5.054-7.082 1.951-13.926 4.197-20.41 6.826-4.07 1.663-8.024 3.5-11.646 5.527a96.986 96.986 0 00-5.5 3.339c-1.55 1.006-3.146 2.037-4.617 3.132a44.262 44.262 0 00-2.538 2.002c-.419.38-.84.787-1.26 1.166a8.427 8.427 0 00-.653.609c-.566.588-1.086 1.153-1.649 1.714-.941.97-1.881 1.915-2.696 2.923a28.88 28.88 0 011.355-2.945c.206-.424.455-.844.661-1.268.303-.554.606-1.107.952-1.658.83-1.2 1.698-2.341 2.779-3.439 1.08-1.07 2.2-2.11 3.487-3.083a41.382 41.382 0 014.304-2.991 72.042 72.042 0 014.392-2.463c3.836-1.983 7.916-3.783 12.159-5.432a194.29 194.29 0 0113.438-4.619 214.864 214.864 0 0110.18-2.81c-1.145.241-2.292.509-3.437.75-.441.103-.88.18-1.321.282a53 53 0 00-1.986.478c-3.588.877-7.155 1.81-10.698 2.798a288.105 288.105 0 00-10.866 3.28 151.228 151.228 0 00-9.8 3.498c-6.486 2.658-12.572 5.731-17.667 9.43-2.62 1.968-4.824 4.133-6.565 6.472a20.904 20.904 0 00-1.645 2.785 25.653 25.653 0 00-1.099 2.993c-.248.97-.413 1.974-.446 2.962-.07.9-.009 1.785.093 2.7.15.864.343 1.73.666 2.58.312.89.692 1.765 1.14 2.617.537.894 1.117 1.79 1.83 2.643a29.02 29.02 0 002.438 2.635 37.696 37.696 0 003.096 2.522 50.63 50.63 0 003.798 2.41 75.67 75.67 0 007.01 3.43 93.485 93.485 0 007.366 2.743c2.536.801 5.075 1.576 7.665 2.244 2.547.665 5.187 1.254 7.785 1.814 2.855.606 5.712 1.185 8.618 1.685 2.691.484 5.387.913 8.127 1.318a435.593 435.593 0 0015.781 2.022c2.622.258 5.242.544 7.866.775 1.29.127 2.624.231 3.913.358.687.081 1.333.131 2.022.185l11.028.773 12.792.91c.603.047 1.164.063 1.726.08 1.812.085 3.67.147 5.483.232l15.413.62c1.253.042 2.547.115 3.843.16.172.013.346 0 .519.013.563-.011 1.125.005 1.689-.006 8.054.02 16.106.068 24.161.088 6.472-.24 12.982-.422 19.452-.634 1.823-.05 3.691-.126 5.514-.177.521-.014 1.085-.025 1.608-.067 4.306-.243 8.572-.517 12.879-.76 3.915-.218 7.789-.467 11.704-.686.652-.032 1.351-.115 2.005-.174 2.094-.195 4.229-.359 6.323-.554 4.754-.428 9.463-.832 14.217-1.26.7-.083 1.395-.112 2.051-.198l4.462-.56 14.564-1.838c1.182-.156 2.361-.285 3.545-.468 4.952-.742 9.865-1.543 14.743-2.456a284.472 284.472 0 008.627-1.776c2.645-.592 5.291-1.212 7.901-1.916 5.218-1.382 10.281-2.995 15.02-4.908 2.194-.929 4.346-1.861 6.378-2.94a42.12 42.12 0 002.992-1.72c.718-.459 1.42-.936 2.103-1.43a19.7 19.7 0 002.501-2.087c.656-.637 1.184-1.31 1.713-1.984.476-.64.876-1.317 1.197-2.023.257-.53.429-1.066.601-1.602.132-.595.22-1.165.221-1.742.004-.605.006-1.181-.079-1.766a10.737 10.737 0 00-.392-1.651c-.214-.6-.472-1.19-.773-1.764-.536-.894-1.119-1.764-1.834-2.589-.712-.88-1.554-1.742-2.399-2.577-2.749-2.522-6.172-4.739-9.78-6.805-2.158-1.212-4.411-2.321-6.71-3.38-2.387-1.064-4.815-2.132-7.251-3.118-4.912-2.003-9.968-3.824-15.078-5.512a285.676 285.676 0 00-24.672-6.89c-4.297-.993-8.646-1.88-12.999-2.712a439.205 439.205 0 00-13.212-2.207h.009c-1.737-.239-3.504-.5-5.236-.736-.813-.118-1.672-.212-2.529-.333-.429-.06-.855-.15-1.285-.183a51.926 51.926 0 01-2.062-.214c-3.307-.367-6.572-.703-9.879-1.07-2.964-.312-5.883-.648-8.804-.957-1.158-.145-2.323-.208-3.528-.302-5.04-.363-10.033-.75-15.03-1.111-1.509-.09-3.015-.207-4.522-.324-.215-.016-.39-.002-.562-.016l-1.858-.061L166.15 5.2c-1.642-.045-3.283-.117-4.925-.163l-.301-.023a183.142 183.142 0 00-3.853-.024 632.86 632.86 0 00-7.669.037zm87.116 6c.092.016.192.033.292.041l-.292-.04zm-148.26.001s-.04-.003-.045.02a.188.188 0 00.044-.02zm148.089-.023l.17.023a2.367 2.367 0 00-.169-.023h-.001zm50.578 11.73c-.032-.01-.063-.018-.084-.034l.084.034zm.084.034l-.084-.034c.03.007.059.019.084.034zM23.787 35.075a.443.443 0 01.068-.05l-.068.05zm-.07.05l.07-.05a.573.573 0 01-.07.05zm-17.286 4.54c-.023.012-.035.032-.048.051l.048-.051zm-.048.051l-.047.051a.13.13 0 00.047-.05zm9.718 26.588c.04.031.084.034.081.062l-.081-.062zM88.08 11.097c.044-.024.045-.024.088-.021l-.088.02z" fill="#10B899"/></svg>