<svg width="36" height="36" fill="none" xmlns="http://www.w3.org/2000/svg"><rect width="36" height="36" rx="7" fill="#10B899"/><path d="M13.727 15.78h.053v-3.924H9.857v3.924h3.87zm-4.772-5.727h5.727c.498 0 .902.403.902.901v5.728a.902.902 0 01-.902.902H8.955a.902.902 0 01-.902-.902v-5.727c0-.499.404-.902.902-.902zm9.545 2.863h9.545a.902.902 0 010 1.804H18.5a.902.902 0 110-1.804zm0 9.545h9.545a.902.902 0 010 1.805H18.5a.902.902 0 010-1.805zm-4.45-1.648h0l-3.177 3.14-.038.037-.037-.039-1.195-1.24s0 0 0 0a.902.902 0 10-1.297 1.254h0l1.865 1.939s0 0 0 0a.902.902 0 00.638.27l3.242-5.361zm0 0l.003-.003a.919.919 0 01.086-.084l-.088.087z" fill="#fff" stroke="#10B899" stroke-width=".105"/></svg>