<svg width="36" height="36" fill="none" xmlns="http://www.w3.org/2000/svg"><rect width="36" height="36" rx="7" fill="#10B899"/><path d="M28.26 20.372h0c.349.25.429.735.179 1.084h0l-.002.004-3.5 5.498a.697.697 0 01-.024.033h0a2.123 2.123 0 01-1.65.79 2.124 2.124 0 01-1.46-.583h0l-.006-.005-2.248-1.75a.778.778 0 011.08-1.119h0l.006.005 2.246 1.748a.555.555 0 00.419.148h0a.558.558 0 00.387-.192h.001l.006-.01 3.482-5.474a.778.778 0 011.083-.177zM18.09 26.41c0 .43-.348.777-.777.777H12.41a3.339 3.339 0 01-3.335-3.335V12.41a3.34 3.34 0 013.335-3.335h10.482a3.34 3.34 0 013.335 3.335v6.212a.778.778 0 01-1.555 0V12.41c0-.981-.798-1.78-1.78-1.78H12.41c-.981 0-1.78.799-1.78 1.78v11.442c0 .982.799 1.78 1.78 1.78h4.902c.43 0 .778.348.778.778zm-4.794-12.835h8.781a.778.778 0 010 1.555h-8.782a.777.777 0 110-1.555zm8.781 3.41a.778.778 0 010 1.555h-8.782a.777.777 0 110-1.555h8.782zm-9.559 4.188c0-.43.348-.777.777-.777h5.334a.778.778 0 110 1.555h-5.334a.777.777 0 01-.777-.778z" fill="#fff" stroke="#10B899" stroke-width=".15"/></svg>