<svg width="36" height="36" fill="none" xmlns="http://www.w3.org/2000/svg"><rect width="36" height="36" rx="7" fill="#10B899"/><path d="M28.853 17.59c-2-2.437-6.233-5.28-10.853-5.28-4.637 0-8.87 2.863-10.853 5.28a.647.647 0 000 .82c2.047 2.495 6.29 5.28 10.853 5.28 4.725 0 8.94-2.95 10.853-5.28a.647.647 0 000-.82zm-6.458.41A4.4 4.4 0 0118 22.395 4.4 4.4 0 0113.604 18 4.4 4.4 0 0118 13.604 4.4 4.4 0 0122.395 18zM8.521 18c.728-.757 2.484-2.39 4.95-3.439a5.675 5.675 0 00-.001 6.877c-1.875-.795-3.616-2.05-4.949-3.438zm14.008 3.439a5.675 5.675 0 00.001-6.877c1.874.794 3.615 2.05 4.949 3.438-.728.757-2.485 2.39-4.95 3.439z" fill="#fff"/><path d="M15.8 18c0 1.213.987 2.2 2.2 2.2s2.2-.987 2.2-2.2-.987-2.2-2.2-2.2-2.2.987-2.2 2.2zm3.106 0a.907.907 0 01-1.812 0 .907.907 0 011.812 0zM18 9.804c.357 0 .647-.29.647-.647v-1.51a.647.647 0 00-1.294 0v1.51c0 .357.29.647.647.647zm3.86.866c.31.176.706.068.883-.242l.861-1.51a.647.647 0 10-1.124-.641l-.861 1.51a.647.647 0 00.241.882zm-8.603-.242a.647.647 0 101.124-.641l-.861-1.51a.647.647 0 00-1.124.641l.86 1.51zM18 26.196a.647.647 0 00-.647.647v1.51a.647.647 0 101.294 0v-1.51a.647.647 0 00-.647-.647zm-3.86-.866a.647.647 0 00-.883.242l-.861 1.51a.647.647 0 001.124.641l.86-1.51a.647.647 0 00-.24-.882zm8.603.242a.647.647 0 10-1.124.641l.861 1.51a.647.647 0 101.124-.641l-.861-1.51z" fill="#fff"/></svg>