<svg width="46" height="46" fill="none" xmlns="http://www.w3.org/2000/svg"><circle cx="23" cy="23" r="23" fill="#10B899"/><path fill-rule="evenodd" clip-rule="evenodd" d="M33.297 23.28c-.573-3.99-3.063-8.729-6.52-11.331-1.416-1.066-3.146-1.759-4.738-1.917-3.933-.393-7.438 2.886-8.488 6.483-1.439 4.788-.11 11.179 4.576 16.016l.002.002a.018.018 0 00.003.005l.012.01c.29.296.857.762 1.302 1.072 1.92 1.483 3.815 2.42 6.61 2.447 2.723.025 3.462-1.273 2.33-3.685-1.372-2.924-3.763-1.997-6.18-4.88-.752-.896-1.362-1.921-1.84-3.003-1.98-4.466-1.325-9.053 1.46-10.246 2.786-1.192 6.205 1.282 8.184 5.748.5 1.13.866 2.13 1.08 3.208.234 1.172.715 1.316 1.373 1.71.773.461 1.023-.325.834-1.639z" fill="#fff"/><path fill-rule="evenodd" clip-rule="evenodd" d="M22.934 19.684c1.134-.485 2.707.596 3.513 2.414.805 1.819.539 3.686-.595 4.172-1.135.485-2.707-.596-3.513-2.414-.805-1.819-.54-3.686.595-4.172zm7.349 13.144c.513 1.074 1.057.73 1.032-.353-.016-.678-.04-.806-.073-1.527-.029-.653.006-1.324.656-1.472.174-.04.34-.065.679-.142.305-.07.473-.133.524-.24.113-.24-.122-.523-.592-.758a50.71 50.71 0 00-2.962-1.373c-1.134-.48-1.552-.715-1.77-.52-.2.18.016.623.609 2.042a173.71 173.71 0 001.897 4.343z" fill="#fff"/><path fill-rule="evenodd" clip-rule="evenodd" d="M26.4 11.69a14.39 14.39 0 012.086 1.677c2.572 2.549 4.296 6.334 4.81 9.913.056.386.157 1.136.15 1.571-.016 1.051-.39 1.861-1.018 1.76-.718-.118-1.088-.734-1.116-1.505a13.297 13.297 0 00-.222-1.897c-.214-1.079-.58-2.078-1.08-3.208-1.98-4.466-5.399-6.94-8.184-5.748-1.438.614-2.174 2.25-2.419 3.739-.606 3.685.95 7.859 4.227 10.837-7.185-3.976-7.952-13.852-4.145-17.04 1.861-1.56 3.973-2.034 6.91-.098z" fill="#fff"/></svg>