<svg width="153" height="48" fill="none" xmlns="http://www.w3.org/2000/svg"><g clip-path="url(#clip0_0_1433)"><path fill-rule="evenodd" clip-rule="evenodd" d="M37.376 24.454C36.32 17.108 31.736 8.38 25.37 3.59 22.762 1.626 19.577.35 16.645.059 9.403-.664 2.95 5.373 1.015 11.997c-2.65 8.816-.203 20.584 8.426 29.492l.004.004a.033.033 0 00.006.009l.021.018c.535.545 1.578 1.402 2.398 1.974 3.537 2.73 7.024 4.458 12.17 4.506 5.015.046 6.377-2.345 4.292-6.787-2.527-5.384-6.93-3.677-11.38-8.984-1.384-1.65-2.508-3.539-3.39-5.53-3.643-8.224-2.438-16.672 2.691-18.867 5.13-2.196 11.425 2.36 15.07 10.584.922 2.081 1.595 3.92 1.99 5.907.43 2.158 1.315 2.423 2.527 3.147 1.423.85 1.884-.596 1.536-3.016z" fill="#10B899"/><path d="M48.283 31.52l.56-.903a.725.725 0 01.24-.252.676.676 0 01.37-.09c.157 0 .31.047.456.141.15.098.326.204.53.32.202.122.45.23.735.329.285.098.64.148 1.064.148.347 0 .65-.043.91-.127a1.84 1.84 0 00.636-.343c.168-.145.289-.31.37-.49.076-.183.116-.384.116-.594 0-.281-.08-.51-.245-.692a2.028 2.028 0 00-.646-.462 6.2 6.2 0 00-.914-.358c-.34-.105-.688-.215-1.039-.323a9.048 9.048 0 01-1.034-.395 3.536 3.536 0 01-.91-.596 2.656 2.656 0 01-.643-.879c-.161-.342-.242-.76-.242-1.26a3.01 3.01 0 011.064-2.298 3.964 3.964 0 011.294-.716c.508-.175 1.097-.263 1.762-.263.764 0 1.458.117 2.087.354.625.237 1.152.556 1.572.958l-.541.877a.61.61 0 01-.205.222.52.52 0 01-.281.073.874.874 0 01-.417-.124c-.154-.084-.329-.174-.526-.276a4.342 4.342 0 00-.702-.27 3.475 3.475 0 00-.943-.117c-.293 0-.556.033-.79.102a1.702 1.702 0 00-.6.302 1.394 1.394 0 00-.38.459 1.204 1.204 0 00-.135.568c0 .27.077.492.234.67.157.179.366.335.625.466.26.131.556.248.896.357l1.027.324c.347.11.695.242 1.046.39.347.15.658.335.932.553.274.223.497.484.665.797.164.31.248.686.248 1.122 0 .532-.095 1.024-.288 1.471-.19.448-.472.838-.841 1.169-.37.33-.83.587-1.385.772-.556.182-1.185.274-1.898.274-.383 0-.76-.034-1.13-.102a6.293 6.293 0 01-1.037-.291 5.327 5.327 0 01-1.667-.997zm10.389 1.219v-11.14h1.571c.355 0 .585.15.688.448l.047.971c.205-.236.41-.447.625-.64.212-.193.442-.36.691-.503a3.62 3.62 0 01.797-.334 3.25 3.25 0 01.921-.125c.347 0 .67.052.965.153.293.106.552.252.775.44.223.186.417.416.581.689.165.27.304.572.417.907.172-.387.384-.718.636-.995s.538-.502.852-.677a4.12 4.12 0 011.001-.39 4.718 4.718 0 011.089-.128c.6 0 1.137.095 1.608.285.472.186.87.462 1.196.827.325.36.57.804.738 1.329.168.52.252 1.118.252 1.784v7.098h-2.358V25.64c0-.786-.168-1.38-.508-1.773-.34-.398-.848-.593-1.517-.593-.303 0-.58.051-.844.153a2.09 2.09 0 00-.691.452c-.201.192-.354.44-.468.735-.11.294-.164.637-.164 1.027v7.098h-2.358v-7.098c0-.816-.165-1.417-.494-1.796-.329-.383-.807-.57-1.444-.57-.434 0-.84.111-1.213.333-.377.226-.72.528-1.035.914v8.216h-2.356v.001zm17.389-2.808c0-.426.115-.841.346-1.249.235-.407.614-.776 1.144-1.096.526-.324 1.225-.59 2.096-.805.865-.211 1.936-.331 3.209-.36v-.762c0-.815-.172-1.424-.513-1.82-.342-.397-.848-.598-1.51-.598-.45 0-.827.059-1.14.175-.31.117-.577.245-.803.379-.223.134-.425.262-.6.38a1 1 0 01-.562.173.644.644 0 01-.414-.132 1.198 1.198 0 01-.285-.317l-.42-.786c1.266-1.154 2.77-1.729 4.513-1.729.637 0 1.207.101 1.705.31.5.207.917.498 1.253.88.335.38.592.831.767 1.347.18.521.268 1.098.268 1.73v7.087h-1.05c-.23 0-.4-.033-.518-.102-.122-.066-.22-.208-.296-.419l-.21-.902c-.28.261-.562.49-.84.685a5.56 5.56 0 01-.858.499 4.1 4.1 0 01-.946.31 5.69 5.69 0 01-1.123.101c-.454 0-.875-.062-1.27-.182a2.723 2.723 0 01-1.019-.557 2.613 2.613 0 01-.676-.935c-.164-.372-.248-.81-.248-1.305zm2.258-.164c0 .26.044.482.129.66.087.182.205.332.355.448.15.113.322.2.523.254.2.056.42.084.664.084.61 0 1.14-.112 1.583-.338.442-.23.87-.55 1.283-.968v-2.043c-.84.037-1.55.101-2.124.204-.573.101-1.043.233-1.399.397-.362.164-.623.358-.779.577-.159.22-.235.46-.235.725zm9.552 2.972v-11.14h1.483c.272 0 .457.044.56.127.106.085.175.238.214.452l.049 1.385c.3-.678.694-1.205 1.192-1.595.497-.391 1.093-.583 1.794-.583.242 0 .468.024.68.08.21.051.399.135.564.247l-.16 1.693c-.03.113-.074.193-.136.237a.407.407 0 01-.253.07 2.76 2.76 0 01-.464-.062 3.289 3.289 0 00-.65-.058c-.325 0-.618.047-.878.146a2.056 2.056 0 00-.68.422c-.197.182-.37.408-.521.673-.156.267-.3.569-.436.903v7.003H87.87zm7.07-9.8v-.935l1.81-.278.515-3.218a.64.64 0 01.187-.299.517.517 0 01.346-.116h1.21v3.656h3.104v1.697h-3.104v6.362c0 .4.098.706.296.922.193.215.457.323.785.323a1.3 1.3 0 00.477-.077c.13-.05.244-.108.339-.167.091-.058.171-.117.244-.171a.335.335 0 01.206-.084c.129 0 .234.076.318.23l.698 1.16c-.363.31-.792.55-1.29.718a4.85 4.85 0 01-1.539.247c-.928 0-1.64-.26-2.142-.78-.502-.515-.75-1.252-.75-2.199v-6.486h-1.228a.502.502 0 01-.339-.128c-.097-.082-.142-.21-.142-.377zm9.025 13.504V21.6h1.573c.355 0 .586.144.687.44l.059 1.14c.23-.267.471-.51.73-.733.256-.218.533-.407.829-.564a4.37 4.37 0 01.952-.368 4.31 4.31 0 011.082-.131c.629 0 1.2.128 1.71.379.515.25.955.615 1.32 1.095.361.477.643 1.07.845 1.782.2.709.299 1.522.299 2.436 0 .83-.11 1.599-.333 2.308a5.533 5.533 0 01-.957 1.847c-.418.52-.921.929-1.513 1.224-.593.294-1.262.444-2.003.444-.655 0-1.213-.103-1.674-.31a4.183 4.183 0 01-1.247-.863v4.716h-2.359zm2.358-6.504c.328.422.687.717 1.082.888.393.171.826.26 1.307.26.921 0 1.636-.336 2.149-1.01.515-.67.771-1.67.771-3 0-.685-.058-1.271-.174-1.764-.122-.488-.286-.884-.506-1.194a1.95 1.95 0 00-.799-.67 2.655 2.655 0 00-1.069-.209c-.605 0-1.122.132-1.549.391-.429.262-.834.637-1.21 1.12v5.188h-.002zm9.413-2.776c0-.884.128-1.678.38-2.389a4.92 4.92 0 011.095-1.801 4.98 4.98 0 011.719-1.151c.669-.27 1.418-.405 2.257-.405.82 0 1.567.134 2.232.405a4.78 4.78 0 011.699 1.15 5.07 5.07 0 011.09 1.802c.255.71.382 1.505.382 2.39 0 .882-.127 1.675-.382 2.377a5.193 5.193 0 01-1.09 1.806 4.639 4.639 0 01-1.702 1.152c-.669.265-1.412.4-2.229.4-.839 0-1.587-.135-2.257-.4a4.806 4.806 0 01-1.719-1.152 5.038 5.038 0 01-1.095-1.806c-.252-.702-.38-1.495-.38-2.378zm2.42.011c0 1.258.248 2.226.75 2.9.5.673 1.26 1.012 2.281 1.012 1.005 0 1.753-.34 2.247-1.012.492-.674.739-1.642.739-2.9 0-1.256-.247-2.227-.739-2.916-.494-.684-1.242-1.028-2.247-1.028-1.021 0-1.781.344-2.281 1.028-.502.689-.75 1.66-.75 2.916zm10.817 5.565v-11.14h2.358v11.14h-2.358zm5.318 0v-11.14h1.571c.356 0 .586.15.688.448l.052 1.034c.23-.247.468-.473.715-.677.25-.2.516-.375.802-.52a4.246 4.246 0 011.966-.467c.614 0 1.155.102 1.619.306.468.2.858.489 1.176.864.32.37.56.818.721 1.339.161.517.241 1.09.241 1.716v7.098h-2.358v-7.098c0-.746-.171-1.325-.519-1.744-.346-.415-.872-.623-1.59-.623a3 3 0 00-1.458.363 5.263 5.263 0 00-1.268.98v8.121h-2.358zm11.277-9.8v-.935l1.81-.278.514-3.218a.659.659 0 01.188-.299.516.516 0 01.346-.116h1.21v3.656h3.104v1.697h-3.104v6.362c0 .4.1.706.296.922.195.215.457.323.785.323.187 0 .345-.025.476-.077a1.94 1.94 0 00.339-.167 3.75 3.75 0 00.245-.171.335.335 0 01.206-.084c.129 0 .234.076.318.23l.698 1.16c-.364.31-.792.55-1.29.718a4.854 4.854 0 01-1.539.247c-.929 0-1.641-.26-2.142-.78-.502-.515-.75-1.252-.75-2.199v-6.486h-1.228a.503.503 0 01-.339-.128c-.096-.082-.143-.21-.143-.377z" fill="#fff"/><path fill-rule="evenodd" clip-rule="evenodd" d="M130.2 15.766c1.133 0 2.051.915 2.051 2.043a2.046 2.046 0 01-2.051 2.043 2.046 2.046 0 01-2.051-2.043c0-1.128.917-2.043 2.051-2.043zM18.293 17.834c2.089-.893 4.985 1.096 6.469 4.445 1.483 3.349.992 6.787-1.096 7.682-2.089.892-4.985-1.097-6.468-4.445-1.483-3.349-.994-6.788 1.095-7.682z" fill="#F37060"/><path fill-rule="evenodd" clip-rule="evenodd" d="M31.825 42.036c.945 1.978 1.947 1.345 1.9-.65-.03-1.248-.074-1.483-.133-2.812-.054-1.202.01-2.438 1.208-2.71.32-.072.626-.12 1.249-.261.562-.128.872-.245.965-.443.207-.441-.224-.963-1.09-1.395a93.458 93.458 0 00-5.454-2.529c-2.088-.884-2.858-1.316-3.259-.957-.37.33.028 1.147 1.12 3.76a320.02 320.02 0 003.494 7.997z" fill="#fff"/><path fill-rule="evenodd" clip-rule="evenodd" d="M24.675 3.113c1.142.752 2.627 1.885 3.842 3.087 4.735 4.693 7.91 11.662 8.858 18.254.102.71.287 2.091.275 2.893-.03 1.935-.72 3.427-1.875 3.24-1.322-.216-2.002-1.35-2.055-2.77a24.486 24.486 0 00-.408-3.494c-.395-1.987-1.068-3.826-1.99-5.907-3.644-8.224-9.94-12.778-15.07-10.584-2.646 1.13-4.003 4.142-4.453 6.884-1.116 6.785 1.747 14.471 7.783 19.956C6.352 27.35 4.94 9.164 11.95 3.294c3.428-2.871 7.316-3.746 12.726-.18z" fill="url(#paint0_linear_0_1433)"/></g><defs><linearGradient id="paint0_linear_0_1433" x1="32.183" y1="32.868" x2="15.662" y2="10.353" gradientUnits="userSpaceOnUse"><stop stop-color="#009891"/><stop offset="1" stop-color="#036B65"/></linearGradient><clipPath id="clip0_0_1433"><path fill="#fff" d="M0 0h153v48H0z"/></clipPath></defs></svg>