<svg width="20" height="24" fill="none" xmlns="http://www.w3.org/2000/svg"><path d="M9.736 12.412a5.44 5.44 0 100-10.88 5.44 5.44 0 000 10.88zm0-9.958a4.518 4.518 0 11-4.518 4.518 4.526 4.526 0 014.518-4.518zm0 11.319c-2.365 0-4.564.917-6.196 2.586-1.656 1.692-2.564 4.002-2.564 6.51 0 .254.207.46.461.461h16.598a.46.46 0 00.46-.461c0-2.503-.907-4.818-2.563-6.505-1.632-1.67-3.83-2.591-6.196-2.591zm-7.828 8.635c.101-2.084.908-3.988 2.286-5.399 1.457-1.49 3.426-2.31 5.537-2.31 2.112 0 4.08.82 5.537 2.31 1.384 1.41 2.186 3.315 2.287 5.399H1.908z" fill="#F37060" stroke="#F37060" stroke-width="1.163"/></svg>