<svg width="376" height="640" fill="none" xmlns="http://www.w3.org/2000/svg"><g filter="url(#filter0_dd_0_2300)"><path fill="#fff" d="M21 14h334v597H21z"/></g><path fill="#C4C4C4" fill-opacity=".2" d="M60 133.114h69.086v66.969H60zm0 98.966h69.086v66.969H60zm0 98.965h69.086v66.969H60zm92.857-197.931h69.086v66.969h-69.086zm0 98.966h69.086v66.969h-69.086zm0 98.965h69.086v66.969h-69.086zm92.857-197.931H314.8v66.969h-69.086zm0 98.966H314.8v66.969h-69.086zm0 98.965H314.8v66.969h-69.086z"/><path fill="#E8E7E7" d="M68.915 287.143h52v8.185h-52zm0-98.966h52v8.185h-52zm0-6.696h22.286v3.721H68.915zm92.856 0h22.286v3.721h-22.286zm92.857 0h22.286v3.721h-22.286zm0 97.477h22.286v3.721h-22.286zm0 95.989h22.286v3.721h-22.286zm-92.857-95.989h22.286v3.721h-22.286zm0 95.989h22.286v3.721h-22.286zm-92.856-95.989h22.286v3.721H68.915zm0 95.989h22.286v3.721H68.915zm0-200.164h22.286v3.721H68.915zm92.856 0h22.286v3.721h-22.286zm92.857 0h22.286v3.721h-22.286zm0 97.478h22.286v3.721h-22.286zm0 95.99h22.286v3.721h-22.286zm-92.857-95.99h22.286v3.721h-22.286zm0 95.99h22.286v3.721h-22.286zm-92.856-95.99h22.286v3.721H68.915zm0 95.99h22.286v3.721H68.915zm0-200.164h22.286v3.721H68.915zm92.856 0h22.286v3.721h-22.286zm92.857 0h22.286v3.721h-22.286zm0 97.477h22.286v3.721h-22.286zm0 95.99h22.286v3.721h-22.286zm-92.857-95.99h22.286v3.721h-22.286zm0 95.99h22.286v3.721h-22.286zm-92.856-95.99h22.286v3.721H68.915zm0 95.99h22.286v3.721H68.915zm92.856-74.411h52v8.185h-52zm0-98.966h52v8.185h-52zm92.857 98.966h52v8.185h-52zm0-98.966h52v8.185h-52z"/><ellipse cx="113.857" cy="148.368" rx="7.057" ry="7.069" fill="#E8E7E7"/><ellipse cx="113.857" cy="243.613" rx="7.057" ry="7.069" fill="#E8E7E7"/><ellipse cx="113.857" cy="341.091" rx="7.057" ry="7.069" fill="#E8E7E7"/><ellipse cx="206.714" cy="148.368" rx="7.057" ry="7.069" fill="#E8E7E7"/><ellipse cx="206.714" cy="243.613" rx="7.057" ry="7.069" fill="#E8E7E7"/><ellipse cx="206.714" cy="341.091" rx="7.057" ry="7.069" fill="#E8E7E7"/><path fill="#C4C4C4" fill-opacity=".2" d="M60.371 58.646h254.8v42.414h-254.8z"/><g filter="url(#filter1_d_0_2300)"><path d="M21 566.909c0-5.522 4.477-10 10-10h314c5.523 0 10 4.478 10 10V611H21v-44.091z" fill="#fff"/></g><path stroke="#C7C7C7" stroke-linecap="round" d="M188.5 561.416v45.077"/><path d="M231.52 597.965h-1.17v-2.91h-3.47v2.91h-1.17v-6.67h1.17v2.73h3.47v-2.73h1.17v6.67zm5.387 0h-1.05v-.52c-.374.426-.894.64-1.56.64-.44 0-.83-.14-1.17-.42-.34-.287-.51-.68-.51-1.18 0-.514.166-.904.5-1.17.34-.267.733-.4 1.18-.4.686 0 1.206.206 1.56.62v-.72a.79.79 0 00-.31-.66c-.207-.16-.48-.24-.82-.24-.54 0-1.017.203-1.43.61l-.43-.73c.546-.52 1.223-.78 2.03-.78.593 0 1.076.14 1.45.42.373.28.56.723.56 1.33v3.2zm-2.2-.6c.526 0 .91-.167 1.15-.5v-.73c-.24-.334-.624-.5-1.15-.5-.3 0-.547.08-.74.24a.776.776 0 00-.29.63c0 .26.096.47.29.63.193.153.44.23.74.23zm7.881.6h-1.05v-3.91h-2.22v3.91h-1.05v-4.83h4.32v4.83zm2.374 0h-1.01v-4.83h1.05v3.25l2.22-3.25h1.05v4.83h-1.05v-3.34l-2.26 3.34zm10.173-4.83h1.05v4.83h-6.55v-4.83h1.05v3.91h1.7v-3.91h1.05v3.91h1.7v-3.91zm3.42 4.83h-1.01v-4.83h1.05v3.25l2.22-3.25h1.05v4.83h-1.05v-3.34l-2.26 3.34zm6.604 0h-1.05v-3.91h-1.38v-.92h3.82v.92h-1.39v3.91zm4.48.12c-.734 0-1.34-.234-1.82-.7-.474-.474-.71-1.087-.71-1.84 0-.707.23-1.304.69-1.79.466-.494 1.053-.74 1.76-.74.713 0 1.286.246 1.72.74.44.493.66 1.123.66 1.89v.25h-3.73c.04.38.196.696.47.95.273.253.63.38 1.07.38.246 0 .493-.047.74-.14.253-.094.463-.224.63-.39l.48.69c-.487.466-1.14.7-1.96.7zm1.28-2.93a1.386 1.386 0 00-.37-.89c-.227-.26-.557-.39-.99-.39-.414 0-.737.13-.97.39-.234.253-.364.55-.39.89h2.72zm5.675 2.81h-1.05v-4.83h1.05v1.9h2.22v-1.9h1.05v4.83h-1.05v-2.01h-2.22v2.01zm8.633 0h-1.05v-.52c-.373.426-.893.64-1.56.64-.44 0-.83-.14-1.17-.42-.34-.287-.51-.68-.51-1.18 0-.514.167-.904.5-1.17.34-.267.733-.4 1.18-.4.687 0 1.207.206 1.56.62v-.72c0-.28-.103-.5-.31-.66-.207-.16-.48-.24-.82-.24-.54 0-1.017.203-1.43.61l-.43-.73c.547-.52 1.223-.78 2.03-.78.593 0 1.077.14 1.45.42.373.28.56.723.56 1.33v3.2zm-2.2-.6c.527 0 .91-.167 1.15-.5v-.73c-.24-.334-.623-.5-1.15-.5-.3 0-.547.08-.74.24a.779.779 0 00-.29.63c0 .26.097.47.29.63.193.153.44.23.74.23zm8.971.6h-1.05v-3.36l-1.44 3.36h-.42l-1.45-3.36v3.36h-1.05v-4.83h1.37l1.34 3.12 1.32-3.12h1.38v4.83zm6.886 0h-2.96v-4.83h2.89c.447 0 .797.116 1.05.35.254.233.38.53.38.89a1.104 1.104 0 01-.81 1.1c.26.06.477.203.65.43.174.22.26.47.26.75 0 .386-.13.703-.39.95-.253.24-.61.36-1.07.36zm-.22-.92c.187 0 .334-.047.44-.14.107-.1.16-.234.16-.4a.527.527 0 00-.16-.39c-.106-.107-.253-.16-.44-.16h-1.69v1.09h1.69zm-.03-2.01a.553.553 0 00.39-.13.46.46 0 00.15-.35.45.45 0 00-.15-.36c-.093-.094-.223-.14-.39-.14h-1.66v.98h1.66zm5.411-1.9h1.05v1.3c0 .36.09.613.27.76.187.146.48.22.88.22.434 0 .787-.06 1.06-.18v-2.1h1.05v4.83h-1.05v-1.88c-.346.173-.81.26-1.39.26-.66 0-1.136-.127-1.43-.38-.293-.254-.44-.637-.44-1.15v-1.68zm9.668 4.83h-1.05v-.52c-.373.426-.893.64-1.56.64-.44 0-.83-.14-1.17-.42-.34-.287-.51-.68-.51-1.18 0-.514.167-.904.5-1.17.34-.267.734-.4 1.18-.4.687 0 1.207.206 1.56.62v-.72c0-.28-.103-.5-.31-.66-.206-.16-.48-.24-.82-.24-.54 0-1.016.203-1.43.61l-.43-.73c.547-.52 1.224-.78 2.03-.78.594 0 1.077.14 1.45.42.374.28.56.723.56 1.33v3.2zm-2.2-.6c.527 0 .91-.167 1.15-.5v-.73c-.24-.334-.623-.5-1.15-.5-.3 0-.546.08-.74.24a.779.779 0 00-.29.63c0 .26.097.47.29.63.194.153.44.23.74.23zm5.492.6h-1.05v-3.91h-1.38v-.92h3.82v.92h-1.39v3.91zm-45.807-15.552c-.294 0-.577.26-.563.565.014.305.247.564.563.564.295 0 .577-.26.563-.564-.013-.306-.247-.565-.563-.565z" fill="#253942"/><path d="M280.926 586.164l-1.305-3.802a9.35 9.35 0 00.962-4.111 9.262 9.262 0 00-2.669-6.532 9.22 9.22 0 00-6.472-2.788 9.21 9.21 0 00-3.702.703 9.24 9.24 0 00-3.018 2.021 9.275 9.275 0 00-2.721 6.732 9.253 9.253 0 002.784 6.483 9.226 9.226 0 006.507 2.673h.014a9.296 9.296 0 004.104-.963l3.796 1.307a1.344 1.344 0 001.397-.324 1.35 1.35 0 00.323-1.399zm-1.12.601a.216.216 0 01-.234.055l-4.022-1.385a.559.559 0 00-.447.035 8.168 8.168 0 01-3.799.945c-4.436.007-8.106-3.603-8.176-8.046a8.121 8.121 0 012.39-5.916 8.098 8.098 0 015.906-2.394c4.436.07 8.039 3.745 8.032 8.19a8.209 8.209 0 01-.943 3.806.566.566 0 00-.035.447l1.382 4.029a.216.216 0 01-.054.234z" fill="#253942"/><path d="M271.198 573.676a2.808 2.808 0 00-2.802 2.807.564.564 0 101.126 0 1.68 1.68 0 011.676-1.679 1.68 1.68 0 010 3.357.564.564 0 00-.563.565v2.301a.564.564 0 101.126 0v-1.794a2.808 2.808 0 00-.563-5.557zM62.08 597.878h-3.37v-6.67h3.28c.593 0 1.057.164 1.39.49.34.32.51.724.51 1.21 0 .4-.113.74-.34 1.02-.22.274-.493.444-.82.51.36.054.663.24.91.56.253.314.38.674.38 1.08 0 .534-.173.967-.52 1.3-.34.334-.813.5-1.42.5zm-.33-3.91c.293 0 .523-.08.69-.24a.82.82 0 00.25-.62c0-.26-.083-.47-.25-.63-.167-.16-.397-.24-.69-.24h-1.87v1.73h1.87zm.05 2.88c.32 0 .57-.08.75-.24.18-.166.27-.396.27-.69 0-.26-.09-.476-.27-.65-.18-.18-.43-.27-.75-.27h-1.92v1.85h1.92zm3.364-3.8h1.05v1.75h1.71c.514 0 .907.147 1.18.44.28.294.42.66.42 1.1 0 .434-.143.8-.43 1.1-.28.294-.67.44-1.17.44h-2.76v-4.83zm2.63 2.67h-1.58v1.24h1.58c.207 0 .367-.056.48-.17a.589.589 0 00.18-.45.592.592 0 00-.18-.45c-.113-.113-.273-.17-.48-.17zm3.51 2.16h-1.05v-4.83h1.05v4.83zm5.02-4.83v.92h-2.61v3.91h-1.05v-4.83h3.66zm3.042 4.95c-.747 0-1.347-.243-1.8-.73-.454-.493-.68-1.096-.68-1.81 0-.713.227-1.313.68-1.8.453-.486 1.053-.73 1.8-.73.753 0 1.356.244 1.81.73.453.487.68 1.087.68 1.8 0 .72-.227 1.324-.68 1.81-.454.487-1.057.73-1.81.73zm0-.93c.433 0 .773-.153 1.02-.46.253-.313.38-.696.38-1.15 0-.446-.127-.823-.38-1.13-.247-.313-.587-.47-1.02-.47-.427 0-.767.157-1.02.47-.247.307-.37.684-.37 1.13 0 .454.123.837.37 1.15.253.307.593.46 1.02.46zm3.052 2.04v-2.1a.755.755 0 00.51-.39c.12-.213.217-.62.29-1.22l.29-2.35h3.73v3.91h.53v2.15h-1.05v-1.23h-3.25v1.23h-1.05zm2.02-5.14l-.17 1.55c-.066.64-.28 1.12-.64 1.44h2.56v-2.99h-1.75zm5.243 3.91h-1.05v-4.83h1.05v1.9h2.22v-1.9h1.05v4.83h-1.05v-2.01h-2.22v2.01zm4.634-4.83h1.05v1.75h1.71c.513 0 .906.147 1.18.44.28.294.42.66.42 1.1 0 .434-.144.8-.43 1.1-.28.294-.67.44-1.17.44h-2.76v-4.83zm2.63 2.67h-1.58v1.24h1.58c.206 0 .366-.056.48-.17a.589.589 0 00.18-.45.592.592 0 00-.18-.45c-.114-.113-.274-.17-.48-.17zm3.51 2.16h-1.05v-4.83h1.05v4.83zm2.37 0h-1.01v-4.83h1.05v3.25l2.22-3.25h1.05v4.83h-1.05v-3.34l-2.26 3.34zm2.9-6.22c-.434.587-1.017.88-1.75.88-.727 0-1.314-.293-1.76-.88l.48-.4c.32.44.746.66 1.28.66.533 0 .956-.22 1.27-.66l.48.4zm6.272 6.22h-1.05v-3.91h-1.38v-.92h3.82v.92h-1.39v3.91zm4.849.12c-.64 0-1.156-.263-1.55-.79v2.51h-1.05v-6.67h1.05v.66c.387-.52.904-.78 1.55-.78.634 0 1.147.227 1.54.68.4.454.6 1.07.6 1.85s-.2 1.4-.6 1.86c-.393.454-.906.68-1.54.68zm-.31-.93c.414 0 .744-.15.99-.45.247-.3.37-.686.37-1.16 0-.473-.123-.856-.37-1.15-.246-.3-.576-.45-.99-.45-.24 0-.476.064-.71.19-.233.127-.41.28-.53.46v1.91c.12.18.297.334.53.46.234.127.47.19.71.19zm5.722.93c-.734 0-1.34-.233-1.82-.7-.474-.473-.71-1.086-.71-1.84 0-.706.23-1.303.69-1.79.466-.493 1.053-.74 1.76-.74.713 0 1.286.247 1.72.74.44.494.66 1.124.66 1.89v.25h-3.73c.04.38.196.697.47.95.273.254.63.38 1.07.38.246 0 .493-.046.74-.14a1.71 1.71 0 00.63-.39l.48.69c-.487.467-1.14.7-1.96.7zm1.28-2.93a1.388 1.388 0 00-.37-.89c-.227-.26-.557-.39-.99-.39-.414 0-.737.13-.97.39a1.44 1.44 0 00-.39.89h2.72zm3.066 2.81h-1.01v-4.83h1.05v3.25l2.22-3.25h1.05v4.83h-1.05v-3.34l-2.26 3.34zm2.9-6.22c-.433.587-1.017.88-1.75.88-.727 0-1.313-.293-1.76-.88l.48-.4c.32.44.747.66 1.28.66s.957-.22 1.27-.66l.48.4zm1.274 7.45v-2.1a.757.757 0 00.51-.39c.12-.213.216-.62.29-1.22l.29-2.35h3.73v3.91h.53v2.15h-1.05v-1.23h-3.25v1.23h-1.05zm2.02-5.14l-.17 1.55c-.067.64-.28 1.12-.64 1.44h2.56v-2.99h-1.75zm6.213 1.94h-2.4v-.9h2.4v.9zm1.988 1.97h-1.01v-4.83h1.05v3.25l2.22-3.25h1.05v4.83h-1.05v-3.34l-2.26 3.34zm5.723 0h-1.05v-4.83h1.05v1.9h2.22v-1.9h1.05v4.83h-1.05v-2.01h-2.22v2.01zM113 578.203a9.021 9.021 0 00-5.399-8.264.844.844 0 00-.675 1.545 7.334 7.334 0 014.39 6.719 7.34 7.34 0 01-2.861 5.814l.572-2.879a.841.841 0 10-1.651-.329l-.938 4.721a.847.847 0 00.661.992l4.714.939a.842.842 0 10.328-1.654l-2.581-.514a9.028 9.028 0 003.44-7.09zm-13.365-1.943a.842.842 0 00.99-.662l.937-4.722a.843.843 0 00-.661-.991l-4.714-.939a.844.844 0 00-.328 1.654l2.583.514a9.042 9.042 0 00-3.442 7.09 9.02 9.02 0 005.399 8.264.844.844 0 00.674-1.545 7.334 7.334 0 01-1.528-12.532l-.572 2.878c-.09.456.206.9.662.991z" fill="#253942"/><rect x="61" y="515.841" width="254" height="34.057" rx="5" fill="#253942"/><path d="M302.894 537.015l-4.139-4.146 4.139-4.145a.535.535 0 00-.755-.757L298 532.113l-4.139-4.146a.535.535 0 00-.755.757l4.139 4.145-4.139 4.146a.536.536 0 000 .756.533.533 0 00.755 0l4.139-4.146 4.139 4.146a.533.533 0 00.755 0 .536.536 0 000-.756z" fill="#fff" stroke="#fff" stroke-width=".1"/><path d="M84.135 536.859H82.73v-6.768h-4.164v6.768h-1.404v-8.004h6.972v8.004zm4.28.144c-.897 0-1.617-.292-2.16-.876-.545-.592-.817-1.316-.817-2.172 0-.856.272-1.576.816-2.16.544-.584 1.264-.876 2.16-.876.904 0 1.628.292 2.172.876.544.584.816 1.304.816 2.16 0 .864-.272 1.588-.816 2.172-.544.584-1.268.876-2.172.876zm0-1.116c.52 0 .927-.184 1.223-.552.304-.376.456-.836.456-1.38 0-.536-.152-.988-.456-1.356-.296-.376-.704-.564-1.224-.564-.512 0-.92.188-1.224.564-.296.368-.444.82-.444 1.356 0 .544.148 1.004.444 1.38.304.368.712.552 1.224.552zm3.662 1.116v-1.032c.248 0 .444-.16.588-.48.152-.32.276-.856.372-1.608l.348-2.82h4.476v5.796h-1.26v-4.692h-2.1l-.204 1.86c-.112 1.04-.348 1.796-.708 2.268-.36.472-.864.708-1.512.708zm7.169 2.124l.192-1.128c.144.064.304.096.48.096.408 0 .684-.168.828-.504l.288-.66-2.376-5.868h1.344l1.692 4.344 1.692-4.344h1.356l-2.796 6.84c-.344.856-1.008 1.292-1.992 1.308-.264 0-.5-.028-.708-.084zm6.083-8.064h1.26v1.56c0 .432.108.736.324.912.224.176.576.264 1.056.264.52 0 .944-.072 1.272-.216v-2.52h1.26v5.796h-1.26v-2.256c-.416.208-.972.312-1.668.312-.792 0-1.364-.152-1.716-.456-.352-.304-.528-.764-.528-1.38v-2.016zm8.013 5.796h-1.212v-5.796h1.26v3.9l2.664-3.9h1.26v5.796h-1.26v-4.008l-2.712 4.008zm7.925 0h-1.26v-4.692h-1.656v-1.104h4.584v1.104h-1.668v4.692zm5.375.144c-.88 0-1.608-.28-2.184-.84-.568-.568-.852-1.304-.852-2.208 0-.848.276-1.564.828-2.148.56-.592 1.264-.888 2.112-.888.856 0 1.544.296 2.064.888.528.592.792 1.348.792 2.268v.3h-4.476c.048.456.236.836.564 1.14.328.304.756.456 1.284.456.296 0 .592-.056.888-.168.304-.112.556-.268.756-.468l.576.828c-.584.56-1.368.84-2.352.84zm1.536-3.516a1.658 1.658 0 00-.444-1.068c-.272-.312-.668-.468-1.188-.468-.496 0-.884.156-1.164.468-.28.304-.436.66-.468 1.068h3.264zm9.102 3.372h-3.552v-5.796h3.468c.536 0 .956.14 1.26.42.304.28.456.636.456 1.068a1.328 1.328 0 01-.972 1.32c.312.072.572.244.78.516.208.264.312.564.312.9 0 .464-.156.844-.468 1.14-.304.288-.732.432-1.284.432zm-.264-1.104c.224 0 .4-.056.528-.168a.627.627 0 00.192-.48.637.637 0 00-.192-.468c-.128-.128-.304-.192-.528-.192h-2.028v1.308h2.028zm-.036-2.412c.2 0 .356-.052.468-.156a.55.55 0 00.18-.42.541.541 0 00-.18-.432c-.112-.112-.268-.168-.468-.168h-1.992v1.176h1.992zm3.615-2.28h1.26v2.1h2.052c.616 0 1.088.176 1.416.528.336.352.504.792.504 1.32 0 .52-.172.96-.516 1.32-.336.352-.804.528-1.404.528h-3.312v-5.796zm3.156 3.204h-1.896v1.488h1.896c.248 0 .44-.068.576-.204a.708.708 0 00.216-.54.708.708 0 00-.216-.54c-.136-.136-.328-.204-.576-.204zm4.212 2.592h-1.26v-5.796h1.26v5.796zm6.024-5.796v1.104h-3.132v4.692h-1.26v-5.796h4.392zm3.65 5.94c-.896 0-1.616-.292-2.16-.876-.544-.592-.816-1.316-.816-2.172 0-.856.272-1.576.816-2.16.544-.584 1.264-.876 2.16-.876.904 0 1.628.292 2.172.876.544.584.816 1.304.816 2.16 0 .864-.272 1.588-.816 2.172-.544.584-1.268.876-2.172.876zm0-1.116c.52 0 .928-.184 1.224-.552.304-.376.456-.836.456-1.38 0-.536-.152-.988-.456-1.356-.296-.376-.704-.564-1.224-.564-.512 0-.92.188-1.224.564-.296.368-.444.82-.444 1.356 0 .544.148 1.004.444 1.38.304.368.712.552 1.224.552zm3.663 2.448v-2.52a.908.908 0 00.612-.468c.144-.256.26-.744.348-1.464l.348-2.82h4.476v4.692h.636v2.58h-1.26v-1.476h-3.9v1.476h-1.26zm2.424-6.168l-.204 1.86c-.08.768-.336 1.344-.768 1.728h3.072v-3.588h-2.1zm6.291 4.692h-1.26v-5.796h1.26v2.28h2.664v-2.28h1.26v5.796h-1.26v-2.412h-2.664v2.412zm8.177.144c-.896 0-1.616-.292-2.16-.876-.544-.592-.816-1.316-.816-2.172 0-.856.272-1.576.816-2.16.544-.584 1.264-.876 2.16-.876.904 0 1.628.292 2.172.876.544.584.816 1.304.816 2.16 0 .864-.272 1.588-.816 2.172-.544.584-1.268.876-2.172.876zm0-1.116c.52 0 .928-.184 1.224-.552.304-.376.456-.836.456-1.38 0-.536-.152-.988-.456-1.356-.296-.376-.704-.564-1.224-.564-.512 0-.92.188-1.224.564-.296.368-.444.82-.444 1.356 0 .544.148 1.004.444 1.38.304.368.712.552 1.224.552zm6.939 1.116c-.88 0-1.608-.28-2.184-.84-.568-.568-.852-1.304-.852-2.208 0-.848.276-1.564.828-2.148.56-.592 1.264-.888 2.112-.888.856 0 1.544.296 2.064.888.528.592.792 1.348.792 2.268v.3h-4.476c.048.456.236.836.564 1.14.328.304.756.456 1.284.456.296 0 .592-.056.888-.168.304-.112.556-.268.756-.468l.576.828c-.584.56-1.368.84-2.352.84zm1.536-3.516a1.658 1.658 0 00-.444-1.068c-.272-.312-.668-.468-1.188-.468-.496 0-.884.156-1.164.468-.28.304-.436.66-.468 1.068h3.264zm10.733 3.372h-1.26v-4.692h-2.664v4.692h-1.26v-5.796h5.184v5.796zm4.757.144c-.768 0-1.388-.316-1.86-.948v3.012h-1.26v-8.004h1.26v.792c.464-.624 1.084-.936 1.86-.936.76 0 1.376.272 1.848.816.48.544.72 1.284.72 2.22 0 .936-.24 1.68-.72 2.232-.472.544-1.088.816-1.848.816zm-.372-1.116c.496 0 .892-.18 1.188-.54.296-.36.444-.824.444-1.392s-.148-1.028-.444-1.38c-.296-.36-.692-.54-1.188-.54-.288 0-.572.076-.852.228a1.74 1.74 0 00-.636.552v2.292c.144.216.356.4.636.552.28.152.564.228.852.228zm6.865 1.116c-.88 0-1.608-.28-2.184-.84-.568-.568-.852-1.304-.852-2.208 0-.848.276-1.564.828-2.148.56-.592 1.264-.888 2.112-.888.856 0 1.544.296 2.064.888.528.592.792 1.348.792 2.268v.3h-4.476c.048.456.236.836.564 1.14.328.304.756.456 1.284.456.296 0 .592-.056.888-.168.304-.112.556-.268.756-.468l.576.828c-.584.56-1.368.84-2.352.84zm1.536-3.516a1.658 1.658 0 00-.444-1.068c-.272-.312-.668-.468-1.188-.468-.496 0-.884.156-1.164.468-.28.304-.436.66-.468 1.068h3.264zm1.868 4.848v-2.52a.908.908 0 00.612-.468c.144-.256.26-.744.348-1.464l.348-2.82h4.476v4.692h.636v2.58h-1.26v-1.476h-3.9v1.476h-1.26zm2.424-6.168l-.204 1.86c-.08.768-.336 1.344-.768 1.728h3.072v-3.588h-2.1zm4.431 4.836v-1.032c.248 0 .444-.16.588-.48.152-.32.276-.856.372-1.608l.348-2.82h4.476v5.796h-1.26v-4.692h-2.1l-.204 1.86c-.112 1.04-.348 1.796-.708 2.268-.36.472-.864.708-1.512.708zm10.037 0c-.896 0-1.616-.292-2.16-.876-.544-.592-.816-1.316-.816-2.172 0-.856.272-1.576.816-2.16.544-.584 1.264-.876 2.16-.876.904 0 1.628.292 2.172.876.544.584.816 1.304.816 2.16 0 .864-.272 1.588-.816 2.172-.544.584-1.268.876-2.172.876zm0-1.116c.52 0 .928-.184 1.224-.552.304-.376.456-.836.456-1.38 0-.536-.152-.988-.456-1.356-.296-.376-.704-.564-1.224-.564-.512 0-.92.188-1.224.564-.296.368-.444.82-.444 1.356 0 .544.148 1.004.444 1.38.304.368.712.552 1.224.552zm4.681.972h-1.584l2.46-3.168-2.412-2.628h1.56l2.076 2.268v-2.268h1.26v2.268l2.076-2.268h1.56l-2.412 2.628 2.46 3.168h-1.584l-1.776-2.388-.324.336v2.052h-1.26v-2.052l-.324-.336-1.776 2.388zm10.554.144c-.88 0-1.608-.28-2.184-.84-.568-.568-.852-1.304-.852-2.208 0-.848.276-1.564.828-2.148.56-.592 1.264-.888 2.112-.888.856 0 1.544.296 2.064.888.528.592.792 1.348.792 2.268v.3h-4.476c.048.456.236.836.564 1.14.328.304.756.456 1.284.456.296 0 .592-.056.888-.168.304-.112.556-.268.756-.468l.576.828c-.584.56-1.368.84-2.352.84zm1.536-3.516a1.658 1.658 0 00-.444-1.068c-.272-.312-.668-.468-1.188-.468-.496 0-.884.156-1.164.468-.28.304-.436.66-.468 1.068h3.264zm3.728 3.372h-1.26v-5.796h1.26v2.28h2.664v-2.28h1.26v5.796h-1.26v-2.412h-2.664v2.412zm6.772 0h-1.212v-5.796h1.26v3.9l2.664-3.9h1.26v5.796h-1.26v-4.008l-2.712 4.008zm8.285.144c-.88 0-1.608-.28-2.184-.84-.568-.568-.852-1.304-.852-2.208 0-.848.276-1.564.828-2.148.56-.592 1.264-.888 2.112-.888.856 0 1.544.296 2.064.888.528.592.792 1.348.792 2.268v.3h-4.476c.048.456.236.836.564 1.14.328.304.756.456 1.284.456.296 0 .592-.056.888-.168.304-.112.556-.268.756-.468l.576.828c-.584.56-1.368.84-2.352.84zm1.536-3.516a1.658 1.658 0 00-.444-1.068c-.272-.312-.668-.468-1.188-.468-.496 0-.884.156-1.164.468-.28.304-.436.66-.468 1.068h3.264z" fill="#fff"/><path stroke="#fff" stroke-linecap="round" d="M280.5 519.346v27.047"/><defs><filter id="filter0_dd_0_2300" x=".2" y=".629" width="375.6" height="638.6" filterUnits="userSpaceOnUse" color-interpolation-filters="sRGB"><feFlood flood-opacity="0" result="BackgroundImageFix"/><feColorMatrix in="SourceAlpha" values="0 0 0 0 0 0 0 0 0 0 0 0 0 0 0 0 0 0 127 0" result="hardAlpha"/><feMorphology radius="2.971" in="SourceAlpha" result="effect1_dropShadow_0_2300"/><feOffset dy="7.429"/><feGaussianBlur stdDeviation="11.886"/><feColorMatrix values="0 0 0 0 0.0941176 0 0 0 0 0.152941 0 0 0 0 0.294118 0 0 0 0.1 0"/><feBlend in2="BackgroundImageFix" result="effect1_dropShadow_0_2300"/><feColorMatrix in="SourceAlpha" values="0 0 0 0 0 0 0 0 0 0 0 0 0 0 0 0 0 0 127 0" result="hardAlpha"/><feMorphology radius="4.457" in="SourceAlpha" result="effect2_dropShadow_0_2300"/><feOffset dy="4.457"/><feGaussianBlur stdDeviation="5.2"/><feColorMatrix values="0 0 0 0 0.0941176 0 0 0 0 0.152941 0 0 0 0 0.294118 0 0 0 0.12 0"/><feBlend in2="effect1_dropShadow_0_2300" result="effect2_dropShadow_0_2300"/><feBlend in="SourceGraphic" in2="effect2_dropShadow_0_2300" result="shape"/></filter><filter id="filter1_d_0_2300" x="15" y="548.909" width="346" height="66.091" filterUnits="userSpaceOnUse" color-interpolation-filters="sRGB"><feFlood flood-opacity="0" result="BackgroundImageFix"/><feColorMatrix in="SourceAlpha" values="0 0 0 0 0 0 0 0 0 0 0 0 0 0 0 0 0 0 127 0" result="hardAlpha"/><feOffset dy="-2"/><feGaussianBlur stdDeviation="3"/><feComposite in2="hardAlpha" operator="out"/><feColorMatrix values="0 0 0 0 0 0 0 0 0 0 0 0 0 0 0 0 0 0 0.04 0"/><feBlend in2="BackgroundImageFix" result="effect1_dropShadow_0_2300"/><feBlend in="SourceGraphic" in2="effect1_dropShadow_0_2300" result="shape"/></filter></defs></svg>