<svg width="376" height="640" fill="none" xmlns="http://www.w3.org/2000/svg"><g filter="url(#filter0_dd_0_2089)"><path fill="#fff" d="M21 14h334v597H21z"/></g><path fill="#C4C4C4" fill-opacity=".2" d="M60.514 58.629h254.8v42.343h-254.8z"/><circle cx="300.086" cy="148.143" r="7.057" fill="#E8E7E7"/><circle cx="300.086" cy="243.229" r="7.057" fill="#E8E7E7"/><circle cx="300.086" cy="340.543" r="7.057" fill="#E8E7E7"/><path fill="#C4C4C4" fill-opacity=".2" d="M60.514 132.914H129.6v66.857H60.514zm0 98.8H129.6v66.857H60.514zm0 98.8H129.6v66.857H60.514zm92.857-197.6h69.086v66.857h-69.086zm0 98.8h69.086v66.857h-69.086zm0 98.8h69.086v66.857h-69.086zm92.858-197.6h69.086v66.857h-69.086zm0 98.8h69.086v66.857h-69.086zm0 98.8h69.086v66.857h-69.086z"/><path fill="#E8E7E7" d="M69.428 382.514h52v8.171h-52zm0-95.828h52v8.171h-52zm0-98.8h52v8.171h-52zm0-6.686h22.286v3.714H69.428zm92.858 0h22.286v3.714h-22.286zm92.857 0h22.286v3.714h-22.286zm0 97.314h22.286v3.714h-22.286zm0 95.829h22.286v3.714h-22.286zm-92.857-95.829h22.286v3.714h-22.286zm0 95.829h22.286v3.714h-22.286zm-92.858-95.829h22.286v3.714H69.428zm0 95.829h22.286v3.714H69.428zm0-199.829h22.286v3.714H69.428zm92.858 0h22.286v3.714h-22.286zm92.857 0h22.286v3.714h-22.286zm0 97.315h22.286v3.714h-22.286zm0 95.828h22.286v3.714h-22.286zm-92.857-95.828h22.286v3.714h-22.286zm0 95.828h22.286v3.714h-22.286zm-92.858-95.828h22.286v3.714H69.428zm0 95.828h22.286v3.714H69.428zm0-199.828h22.286v3.714H69.428zm92.858 0h22.286v3.714h-22.286zm92.857 0h22.286v3.714h-22.286zm0 97.314h22.286v3.714h-22.286zm0 95.828h22.286v3.714h-22.286zm-92.857-95.828h22.286v3.714h-22.286zm0 95.828h22.286v3.714h-22.286zm-92.858-95.828h22.286v3.714H69.428zm0 95.828h22.286v3.714H69.428zm92.858 21.543h52v8.171h-52zm0-95.828h52v8.171h-52zm0-98.8h52v8.171h-52zm92.857 194.628h52v8.171h-52zm0-95.828h52v8.171h-52zm0-98.8h52v8.171h-52z"/><circle cx="114.371" cy="148.143" r="7.057" fill="#E8E7E7"/><circle cx="114.371" cy="243.229" r="7.057" fill="#E8E7E7"/><circle cx="114.371" cy="340.543" r="7.057" fill="#E8E7E7"/><circle cx="207.229" cy="148.143" r="7.057" fill="#E8E7E7"/><circle cx="207.229" cy="243.229" r="7.057" fill="#E8E7E7"/><circle cx="207.229" cy="340.543" r="7.057" fill="#E8E7E7"/><path fill="#fff" d="M21 14h334v597H21z"/><rect x="46" y="566" width="127" height="6" rx="2.974" fill="#E1E1E1"/><rect x="46" y="566" width="26" height="6" rx="2.974" fill="#253942"/><rect x="242" y="554" width="86.98" height="30.48" rx="2.974" fill="#253942"/><path d="M261.541 576.057v-3.178c.491-.033.881-.15 1.171-.351.29-.201.552-.624.786-1.271.245-.647.446-1.584.602-2.81l.686-5.604h6.825v9.919h1.02v3.295h-1.388V574h-8.314v2.057h-1.388zm3.931-7.51c-.257 2.152-.825 3.557-1.706 4.215h6.456v-8.681h-4.198l-.552 4.466zM280.654 574H279.4v-.92c-.681.747-1.573 1.121-2.677 1.121-.747 0-1.405-.24-1.973-.72-.569-.479-.853-1.131-.853-1.957 0-.847.278-1.499.836-1.957a3.038 3.038 0 011.99-.702c1.149 0 2.041.368 2.677 1.104v-1.455c0-.536-.19-.954-.569-1.255-.379-.301-.87-.452-1.472-.452-.948 0-1.773.374-2.476 1.121l-.585-.87c.859-.892 1.935-1.338 3.228-1.338.926 0 1.679.223 2.258.669.58.446.87 1.132.87 2.058V574zm-3.479-.703c1.004 0 1.745-.334 2.225-1.003v-1.522c-.48-.669-1.221-1.004-2.225-1.004-.58 0-1.059.167-1.439.502-.368.323-.552.747-.552 1.271 0 .513.184.937.552 1.271.38.324.859.485 1.439.485zm5.041.904v-1.037c.379 0 .691-.251.936-.753.246-.502.446-1.338.602-2.509l.519-3.981h5.62V574h-1.254v-6.975h-3.262l-.368 3.027c-.178 1.484-.491 2.549-.937 3.195-.446.636-1.065.954-1.856.954zm13.829 0c-1.205 0-2.192-.391-2.961-1.171-.769-.792-1.154-1.818-1.154-3.078 0-1.182.379-2.18 1.137-2.994.759-.825 1.706-1.238 2.844-1.238 1.193 0 2.135.413 2.827 1.238.702.814 1.054 1.845 1.054 3.094v.318h-6.541c.056.792.346 1.455.87 1.991.524.535 1.204.803 2.041.803 1.003 0 1.834-.34 2.492-1.021l.602.82c-.825.825-1.895 1.238-3.211 1.238zm2.509-4.751a2.89 2.89 0 00-.703-1.856c-.457-.558-1.109-.837-1.957-.837-.803 0-1.438.273-1.907.82a3.08 3.08 0 00-.736 1.873h5.303zm6.916 4.751c-1.204 0-2.191-.391-2.961-1.171-.769-.792-1.154-1.818-1.154-3.078 0-1.182.379-2.18 1.138-2.994.758-.825 1.706-1.238 2.843-1.238 1.193 0 2.136.413 2.827 1.238.703.814 1.054 1.845 1.054 3.094v.318h-6.54c.055.792.345 1.455.869 1.991.524.535 1.205.803 2.041.803 1.004 0 1.834-.34 2.492-1.021l.603.82c-.826.825-1.896 1.238-3.212 1.238zm2.509-4.751a2.885 2.885 0 00-.703-1.856c-.457-.558-1.109-.837-1.957-.837-.802 0-1.438.273-1.906.82a3.067 3.067 0 00-.736 1.873h5.302z" fill="#fff"/><rect x="185" y="554" width="44.605" height="30.48" rx="2.974" fill="#253942"/><path d="M197.474 568.474a.745.745 0 000 1.052l4.731 4.731a.745.745 0 001.052-1.052L199.051 569l4.206-4.205a.745.745 0 00-1.052-1.052l-4.731 4.731zm19.112 1.269a.743.743 0 100-1.486v1.486zm-18.586 0h18.586v-1.486H198v1.486z" fill="#fff"/><path d="M68.5 165a9.5 9.5 0 019.5-9.5h214c5.247 0 9.5 4.256 9.5 9.503v39.994c0 5.247-4.253 9.503-9.5 9.503H78a9.5 9.5 0 01-9.5-9.5v-40z" fill="#fff" stroke="#253942"/><path d="M122.556 182.966v-3.037c.469-.032.842-.144 1.119-.336.277-.191.527-.596.751-1.214.235-.618.426-1.513.576-2.686l.655-5.354h6.521v9.478h.975v3.149h-1.327V181h-7.943v1.966h-1.327zm3.756-7.177c-.245 2.057-.788 3.4-1.63 4.028h6.169v-8.295h-4.011l-.528 4.267zm7.571 5.403v-.991c.362 0 .661-.24.895-.719.234-.48.426-1.279.575-2.398l.496-3.804h5.37V181h-1.198v-6.665h-3.117l-.352 2.893c-.17 1.417-.469 2.435-.895 3.053-.426.607-1.018.911-1.774.911zm10.881-.192h-1.407l2.062-3.037c-.586-.074-1.065-.32-1.438-.735-.363-.416-.544-.943-.544-1.582 0-.682.219-1.247.655-1.695.437-.447 1.034-.671 1.791-.671h4.075V181h-1.198v-2.989h-2.11L144.764 181zm1.247-4.044h2.749v-2.621h-2.749c-.416 0-.746.122-.991.367-.235.235-.352.549-.352.944 0 .394.117.713.352.959.234.234.564.351.991.351zm13.948 4.236c-1.151 0-2.094-.373-2.829-1.119-.735-.757-1.103-1.737-1.103-2.941 0-1.13.363-2.083 1.087-2.861.725-.789 1.63-1.183 2.717-1.183 1.14 0 2.041.394 2.702 1.183.671.778 1.006 1.763 1.006 2.957v.304h-6.249c.053.756.33 1.39.831 1.902.501.511 1.151.767 1.95.767.959 0 1.753-.325 2.382-.975l.575.783c-.789.789-1.811 1.183-3.069 1.183zm2.398-4.54a2.766 2.766 0 00-.672-1.774c-.436-.532-1.06-.799-1.87-.799-.767 0-1.374.261-1.822.783a2.938 2.938 0 00-.703 1.79h5.067zm3.684 4.348h-1.535l3.437-4.22-3.421-3.5h1.519l3.324 3.404v-3.404h1.199v3.388l3.324-3.388h1.519l-3.437 3.5 3.453 4.22h-1.535l-2.781-3.468-.543.543V181h-1.199v-2.925l-.543-.543-2.781 3.468zm14.241.192c-1.151 0-2.094-.373-2.829-1.119-.735-.757-1.103-1.737-1.103-2.941 0-1.13.362-2.083 1.087-2.861.725-.789 1.63-1.183 2.717-1.183 1.14 0 2.041.394 2.701 1.183.672.778 1.007 1.763 1.007 2.957v.304h-6.249c.053.756.33 1.39.831 1.902.501.511 1.151.767 1.95.767.959 0 1.753-.325 2.381-.975l.576.783c-.789.789-1.812 1.183-3.069 1.183zm2.398-4.54a2.766 2.766 0 00-.672-1.774c-.437-.532-1.06-.799-1.87-.799-.767 0-1.374.261-1.822.783a2.938 2.938 0 00-.703 1.79h5.067zm2.213 6.314v-2.957c.394-.075.703-.309.927-.703.224-.405.405-1.146.543-2.222l.496-3.804h5.37v6.665h.895v3.021h-1.198V181h-5.834v1.966h-1.199zm3.021-8.631l-.352 2.893c-.181 1.353-.554 2.259-1.119 2.717h4.588v-5.61h-3.117zm8.048 6.665h-1.199v-7.72h1.199v3.213h4.028v-3.213h1.199V181h-1.199v-3.452h-4.028V181zm11.105.192c-1.151 0-2.094-.373-2.829-1.119-.735-.757-1.103-1.737-1.103-2.941 0-1.13.362-2.083 1.087-2.861.724-.789 1.63-1.183 2.717-1.183 1.14 0 2.041.394 2.701 1.183.672.778 1.007 1.763 1.007 2.957v.304h-6.249c.053.756.33 1.39.831 1.902.501.511 1.151.767 1.95.767.959 0 1.753-.325 2.381-.975l.576.783c-.789.789-1.812 1.183-3.069 1.183zm2.397-4.54a2.76 2.76 0 00-.671-1.774c-.437-.532-1.06-.799-1.87-.799-.767 0-1.374.261-1.822.783a2.938 2.938 0 00-.703 1.79h5.066zM216.92 181h-4.331v-7.72h4.252c.671 0 1.198.181 1.582.543.394.363.591.842.591 1.439 0 .437-.122.815-.367 1.135a1.706 1.706 0 01-.879.623c.394.096.724.325.991.687.277.363.415.762.415 1.199 0 .629-.202 1.135-.607 1.519-.395.383-.943.575-1.647.575zm-.239-1.055c.383 0 .687-.106.911-.32.224-.213.335-.5.335-.863 0-.33-.111-.612-.335-.847-.224-.234-.528-.351-.911-.351h-2.893v2.381h2.893zm-.048-3.436c.362 0 .644-.096.847-.288.202-.203.304-.464.304-.783 0-.341-.102-.608-.304-.799-.203-.203-.485-.304-.847-.304h-2.845v2.174h2.845zm6.005 4.491h-1.199v-7.72h1.199v3.213h4.028v-3.213h1.199V181h-1.199v-3.452h-4.028V181zm7.62-7.72h1.199v2.989h2.893c.767 0 1.364.229 1.79.687.426.448.639 1.007.639 1.678 0 .672-.218 1.236-.655 1.695-.426.447-1.017.671-1.774.671h-4.092v-7.72zm3.964 4.044h-2.765v2.621h2.765c.426 0 .751-.117.975-.352.235-.245.352-.564.352-.959 0-.394-.117-.708-.352-.943-.224-.245-.549-.367-.975-.367zm5.019 3.676h-1.199v-7.72h1.199V181zm8.79 0h-1.391l-2.318-3.165-2.317 3.165h-1.375l2.957-3.964-2.797-3.756h1.391l2.141 2.941 2.142-2.941h1.391l-2.797 3.756 2.973 3.964zM123.3 200h-1.199v-6.665h-4.027V200h-1.199v-7.72h6.425V200zm8.532-.975c-.693.778-1.615 1.167-2.766 1.167-1.15 0-2.077-.389-2.781-1.167-.692-.778-1.039-1.742-1.039-2.893 0-1.151.347-2.11 1.039-2.877.704-.778 1.631-1.167 2.781-1.167 1.151 0 2.073.389 2.766 1.167.703.767 1.055 1.726 1.055 2.877 0 1.151-.352 2.115-1.055 2.893zm-4.652-.767c.469.575 1.098.863 1.886.863.789 0 1.412-.288 1.871-.863.458-.586.687-1.295.687-2.126s-.229-1.534-.687-2.11c-.459-.575-1.082-.863-1.871-.863-.788 0-1.417.293-1.886.879-.458.576-.687 1.273-.687 2.094 0 .831.229 1.54.687 2.126zm11.145 1.934c-1.151 0-2.094-.373-2.829-1.119-.735-.757-1.103-1.737-1.103-2.941 0-1.13.363-2.083 1.087-2.861.725-.789 1.63-1.183 2.717-1.183 1.14 0 2.041.394 2.702 1.183.671.778 1.006 1.763 1.006 2.957v.304h-6.249c.053.756.33 1.39.831 1.902.501.511 1.151.767 1.95.767.959 0 1.753-.325 2.382-.975l.575.783c-.789.789-1.811 1.183-3.069 1.183zm2.398-4.54a2.766 2.766 0 00-.672-1.774c-.436-.532-1.06-.799-1.87-.799-.767 0-1.374.261-1.822.783a2.938 2.938 0 00-.703 1.79h5.067zm5.857 4.54c-1.481 0-2.642-.421-3.484-1.263l.591-.767c.725.693 1.689 1.039 2.893 1.039.693 0 1.242-.123 1.647-.368.415-.245.623-.57.623-.975 0-.852-.81-1.278-2.43-1.278h-1.726v-.975h1.726c.672 0 1.221-.107 1.647-.32.426-.224.639-.549.639-.975 0-.362-.213-.655-.639-.879-.426-.235-.965-.352-1.615-.352-1.076 0-1.939.33-2.589.991l-.623-.735c.799-.821 1.854-1.231 3.164-1.231 1.055-.011 1.908.171 2.558.544.661.362.991.868.991 1.518 0 .533-.219.964-.655 1.295-.427.33-.901.527-1.423.591.543.043 1.05.224 1.518.544.48.319.72.767.72 1.342 0 .661-.32 1.204-.959 1.63-.629.416-1.487.624-2.574.624zm4.566 1.774v-2.957c.395-.075.704-.309.927-.703.224-.405.405-1.146.544-2.222l.495-3.804h5.371v6.665h.895v3.021h-1.199V200h-5.834v1.966h-1.199zm3.021-8.631l-.351 2.893c-.182 1.353-.554 2.259-1.119 2.717h4.587v-5.61h-3.117zm12.988 5.69c-.693.778-1.615 1.167-2.766 1.167-1.15 0-2.077-.389-2.781-1.167-.692-.778-1.039-1.742-1.039-2.893 0-1.151.347-2.11 1.039-2.877.704-.778 1.631-1.167 2.781-1.167 1.151 0 2.073.389 2.766 1.167.703.767 1.055 1.726 1.055 2.877 0 1.151-.352 2.115-1.055 2.893zm-4.652-.767c.469.575 1.098.863 1.886.863.789 0 1.412-.288 1.871-.863.458-.586.687-1.295.687-2.126s-.229-1.534-.687-2.11c-.459-.575-1.082-.863-1.871-.863-.788 0-1.417.293-1.886.879-.458.576-.687 1.273-.687 2.094 0 .831.229 1.54.687 2.126zM176.957 200h-1.535l-2.781-3.468-1.278 1.262V200h-1.199v-7.72h1.199v4.108l4.059-4.108h1.519l-3.421 3.5 3.437 4.22zm11.963 0h-1.199v-6.665h-4.027V200h-1.199v-7.72h6.425V200zm8.532-.975c-.693.778-1.615 1.167-2.766 1.167-1.15 0-2.077-.389-2.781-1.167-.692-.778-1.039-1.742-1.039-2.893 0-1.151.347-2.11 1.039-2.877.704-.778 1.631-1.167 2.781-1.167 1.151 0 2.073.389 2.766 1.167.703.767 1.055 1.726 1.055 2.877 0 1.151-.352 2.115-1.055 2.893zm-4.652-.767c.469.575 1.098.863 1.886.863.789 0 1.412-.288 1.871-.863.458-.586.687-1.295.687-2.126s-.229-1.534-.687-2.11c-.459-.575-1.082-.863-1.871-.863-.788 0-1.417.293-1.886.879-.458.576-.687 1.273-.687 2.094 0 .831.229 1.54.687 2.126zm17.184-5.978v1.055h-4.204V200h-1.198v-7.72h5.402zm7.697 6.745c-.693.778-1.615 1.167-2.765 1.167-1.151 0-2.078-.389-2.782-1.167-.692-.778-1.038-1.742-1.038-2.893 0-1.151.346-2.11 1.038-2.877.704-.778 1.631-1.167 2.782-1.167 1.15 0 2.072.389 2.765 1.167.703.767 1.055 1.726 1.055 2.877 0 1.151-.352 2.115-1.055 2.893zm-4.651-.767c.468.575 1.097.863 1.886.863.788 0 1.411-.288 1.87-.863.458-.586.687-1.295.687-2.126s-.229-1.534-.687-2.11c-.459-.575-1.082-.863-1.87-.863-.789 0-1.418.293-1.886.879-.459.576-.688 1.273-.688 2.094 0 .831.229 1.54.688 2.126zm11.464 1.934c-1.087 0-1.955-.453-2.605-1.359v4.108h-1.199V192.28h1.199v1.151c.287-.405.66-.73 1.119-.975a3.101 3.101 0 011.486-.368c1.023 0 1.849.368 2.477 1.103.64.725.959 1.705.959 2.941 0 1.236-.319 2.222-.959 2.957-.628.735-1.454 1.103-2.477 1.103zm-.304-1.071c.757 0 1.359-.277 1.806-.831.448-.565.672-1.284.672-2.158 0-.874-.224-1.588-.672-2.142-.447-.554-1.049-.831-1.806-.831-.458 0-.905.123-1.342.368-.427.234-.746.522-.959.863v3.484c.213.352.532.65.959.895a2.8 2.8 0 001.342.352zm11.784-.096c-.692.778-1.614 1.167-2.765 1.167s-2.078-.389-2.781-1.167c-.692-.778-1.039-1.742-1.039-2.893 0-1.151.347-2.11 1.039-2.877.703-.778 1.63-1.167 2.781-1.167 1.151 0 2.073.389 2.765 1.167.704.767 1.055 1.726 1.055 2.877 0 1.151-.351 2.115-1.055 2.893zm-4.651-.767c.469.575 1.098.863 1.886.863.789 0 1.412-.288 1.87-.863.459-.586.688-1.295.688-2.126s-.229-1.534-.688-2.11c-.458-.575-1.081-.863-1.87-.863-.788 0-1.417.293-1.886.879-.458.576-.687 1.273-.687 2.094 0 .831.229 1.54.687 2.126zm6.75 3.708v-2.957c.394-.075.703-.309.927-.703.223-.405.405-1.146.543-2.222l.496-3.804h5.37v6.665h.895v3.021h-1.199V200h-5.834v1.966h-1.198zm3.02-8.631l-.351 2.893c-.181 1.353-.554 2.259-1.119 2.717h4.587v-5.61h-3.117zm6.419 9.686l.191-1.087c.192.085.411.128.656.128.277 0 .506-.059.687-.176.181-.117.336-.33.464-.639l.511-1.167-3.229-7.8h1.295l2.573 6.329 2.558-6.329h1.31l-3.868 9.286c-.426 1.023-1.182 1.545-2.269 1.567-.32 0-.613-.038-.879-.112z" fill="#253942"/><path d="M68.5 241a9.5 9.5 0 019.5-9.5h214c5.247 0 9.5 4.256 9.5 9.503v39.994c0 5.247-4.253 9.503-9.5 9.503H78a9.5 9.5 0 01-9.5-9.5v-40z" fill="#fff" stroke="#253942"/><path d="M108.867 258.966v-3.037c.469-.032.842-.144 1.119-.336.277-.191.527-.596.751-1.214.234-.618.426-1.513.575-2.686l.656-5.354h6.521v9.478h.975v3.149h-1.327V257h-7.943v1.966h-1.327zm3.756-7.177c-.245 2.057-.788 3.4-1.63 4.028h6.169v-8.295h-4.011l-.528 4.267zm7.571 5.403v-.991c.362 0 .66-.24.895-.719.234-.48.426-1.279.575-2.398l.496-3.804h5.37V257h-1.198v-6.665h-3.117l-.352 2.893c-.17 1.417-.469 2.435-.895 3.053-.426.607-1.018.911-1.774.911zm10.881-.192h-1.407l2.062-3.037c-.586-.074-1.065-.32-1.438-.735-.363-.416-.544-.943-.544-1.582 0-.682.219-1.247.655-1.695.437-.447 1.034-.671 1.791-.671h4.075V257h-1.198v-2.989h-2.11L131.075 257zm1.246-4.044h2.75v-2.621h-2.75c-.415 0-.745.122-.99.367-.235.235-.352.549-.352.944 0 .394.117.713.352.959.234.234.564.351.99.351zm10.305-3.676h1.199v2.174c0 .692.159 1.172.479 1.438.32.267.815.4 1.487.4.831 0 1.513-.139 2.046-.416v-3.596h1.198V257h-1.198v-3.149c-.682.341-1.466.512-2.35.512-1.002 0-1.732-.203-2.19-.608-.447-.405-.671-1.049-.671-1.934v-2.541zm14.833 7.72h-1.199v-.879c-.65.714-1.502 1.071-2.557 1.071a2.839 2.839 0 01-1.886-.687c-.544-.459-.815-1.082-.815-1.871 0-.809.266-1.433.799-1.87a2.903 2.903 0 011.902-.671c1.097 0 1.95.352 2.557 1.055v-1.391c0-.511-.181-.911-.543-1.198-.363-.288-.831-.432-1.407-.432-.906 0-1.694.357-2.365 1.071l-.56-.831c.821-.853 1.849-1.279 3.085-1.279.884 0 1.604.213 2.158.639.554.427.831 1.082.831 1.966V257zm-3.325-.671c.959 0 1.668-.32 2.126-.959v-1.455c-.458-.639-1.167-.959-2.126-.959-.554 0-1.012.16-1.374.48-.352.309-.528.714-.528 1.214 0 .491.176.895.528 1.215.362.309.82.464 1.374.464zm9.132.863c-1.14 0-2.067-.384-2.781-1.151-.714-.778-1.071-1.748-1.071-2.909 0-1.161.357-2.126 1.071-2.893.714-.767 1.641-1.151 2.781-1.151 1.194 0 2.137.448 2.829 1.343l-.799.735c-.49-.671-1.145-1.007-1.966-1.007-.81 0-1.46.277-1.95.831-.479.554-.719 1.268-.719 2.142 0 .874.24 1.593.719 2.158.49.554 1.14.831 1.95.831s1.465-.336 1.966-1.007l.799.735c-.692.895-1.635 1.343-2.829 1.343zm7.115-.192h-1.199v-6.665h-2.238v-1.055h5.691v1.055h-2.254V257zm3.826-7.72h1.198v2.989h2.893c.768 0 1.364.229 1.79.687.427.448.64 1.007.64 1.678 0 .672-.219 1.236-.656 1.695-.426.447-1.017.671-1.774.671h-4.091v-7.72zm3.963 4.044h-2.765v2.621h2.765c.427 0 .752-.117.975-.352.235-.245.352-.564.352-.959 0-.394-.117-.708-.352-.943-.223-.245-.548-.367-.975-.367zm5.019 3.676h-1.198v-7.72h1.198V257zm8.79 0h-1.391l-2.317-3.165-2.318 3.165h-1.375l2.957-3.964-2.797-3.756h1.391l2.142 2.941 2.141-2.941h1.391l-2.797 3.756 2.973 3.964zm11.926 0h-1.199v-6.665h-4.028V257h-1.199v-7.72h6.426V257zm8.531-.975c-.692.778-1.614 1.167-2.765 1.167s-2.078-.389-2.781-1.167c-.693-.778-1.039-1.742-1.039-2.893 0-1.151.346-2.11 1.039-2.877.703-.778 1.63-1.167 2.781-1.167 1.151 0 2.073.389 2.765 1.167.703.767 1.055 1.726 1.055 2.877 0 1.151-.352 2.115-1.055 2.893zm-4.651-.767c.469.575 1.097.863 1.886.863.789 0 1.412-.288 1.87-.863.458-.586.687-1.295.687-2.126s-.229-1.534-.687-2.11c-.458-.575-1.081-.863-1.87-.863-.789 0-1.417.293-1.886.879-.458.576-.687 1.273-.687 2.094 0 .831.229 1.54.687 2.126zm11.145 1.934c-1.151 0-2.094-.373-2.829-1.119-.736-.757-1.103-1.737-1.103-2.941 0-1.13.362-2.083 1.087-2.861.724-.789 1.63-1.183 2.717-1.183 1.14 0 2.04.394 2.701 1.183.671.778 1.007 1.763 1.007 2.957v.304h-6.25c.054.756.331 1.39.832 1.902.5.511 1.15.767 1.95.767.959 0 1.752-.325 2.381-.975l.576.783c-.789.789-1.812 1.183-3.069 1.183zm2.397-4.54a2.76 2.76 0 00-.671-1.774c-.437-.532-1.06-.799-1.87-.799-.767 0-1.375.261-1.822.783a2.94 2.94 0 00-.704 1.79h5.067zm5.858 4.54c-1.481 0-2.643-.421-3.485-1.263l.592-.767c.724.693 1.689 1.039 2.893 1.039.692 0 1.241-.123 1.646-.368.416-.245.624-.57.624-.975 0-.852-.81-1.278-2.43-1.278h-1.726v-.975h1.726c.671 0 1.22-.107 1.646-.32.427-.224.64-.549.64-.975 0-.362-.213-.655-.64-.879-.426-.235-.964-.352-1.614-.352-1.076 0-1.939.33-2.589.991l-.624-.735c.799-.821 1.854-1.231 3.165-1.231 1.055-.011 1.907.171 2.557.544.661.362.991.868.991 1.518 0 .533-.218.964-.655 1.295-.426.33-.9.527-1.422.591a3.087 3.087 0 011.518.544c.479.319.719.767.719 1.342 0 .661-.319 1.204-.959 1.63-.628.416-1.486.624-2.573.624zm4.566 1.774v-2.957c.394-.075.703-.309.927-.703.224-.405.405-1.146.543-2.222l.496-3.804h5.37v6.665h.895v3.021h-1.198V257h-5.834v1.966h-1.199zm3.021-8.631l-.352 2.893c-.181 1.353-.554 2.259-1.119 2.717h4.588v-5.61h-3.117zm12.987 5.69c-.692.778-1.614 1.167-2.765 1.167s-2.078-.389-2.781-1.167c-.693-.778-1.039-1.742-1.039-2.893 0-1.151.346-2.11 1.039-2.877.703-.778 1.63-1.167 2.781-1.167 1.151 0 2.073.389 2.765 1.167.703.767 1.055 1.726 1.055 2.877 0 1.151-.352 2.115-1.055 2.893zm-4.651-.767c.469.575 1.098.863 1.886.863.789 0 1.412-.288 1.87-.863.458-.586.687-1.295.687-2.126s-.229-1.534-.687-2.11c-.458-.575-1.081-.863-1.87-.863-.788 0-1.417.293-1.886.879-.458.576-.687 1.273-.687 2.094 0 .831.229 1.54.687 2.126zM257.561 257h-1.534l-2.781-3.468-1.279 1.262V257h-1.199v-7.72h1.199v4.108l4.06-4.108h1.518l-3.42 3.5 3.436 4.22zm-122.96 19h-1.199v-6.665h-4.027V276h-1.199v-7.72h6.425V276zm8.531-.975c-.692.778-1.614 1.167-2.765 1.167-1.15 0-2.078-.389-2.781-1.167-.692-.778-1.039-1.742-1.039-2.893 0-1.151.347-2.11 1.039-2.877.703-.778 1.631-1.167 2.781-1.167 1.151 0 2.073.389 2.765 1.167.704.767 1.055 1.726 1.055 2.877 0 1.151-.351 2.115-1.055 2.893zm-4.651-.767c.469.575 1.098.863 1.886.863.789 0 1.412-.288 1.87-.863.459-.586.688-1.295.688-2.126s-.229-1.534-.688-2.11c-.458-.575-1.081-.863-1.87-.863-.788 0-1.417.293-1.886.879-.458.576-.687 1.273-.687 2.094 0 .831.229 1.54.687 2.126zm13.268 0c.469.575 1.097.863 1.886.863.788 0 1.412-.288 1.87-.863.458-.586.687-1.3.687-2.142 0-.82-.229-1.518-.687-2.094-.458-.575-1.082-.863-1.87-.863-.789 0-1.417.288-1.886.863-.458.576-.687 1.274-.687 2.094 0 .842.229 1.556.687 2.142zm1.886 1.934c-1.162 0-2.089-.41-2.781-1.231-.693-.82-1.039-1.881-1.039-3.181 0-1.832.33-3.186.991-4.059.66-.885 1.678-1.418 3.053-1.599.82-.128 1.385-.25 1.694-.367.32-.118.479-.256.479-.416h1.167c0 .298-.09.559-.271.783-.182.213-.443.384-.784.512-.33.128-.644.229-.943.303a12.04 12.04 0 01-1.039.176c-1.065.149-1.838.442-2.317.879-.469.437-.778 1.018-.927 1.742.703-1.097 1.673-1.646 2.909-1.646 1.065 0 1.934.389 2.605 1.167s1.007 1.731 1.007 2.861c0 1.151-.346 2.12-1.039 2.909-.693.778-1.614 1.167-2.765 1.167zm9.337 0c-1.151 0-2.094-.373-2.829-1.119-.736-.757-1.103-1.737-1.103-2.941 0-1.13.362-2.083 1.087-2.861.724-.789 1.63-1.183 2.717-1.183 1.14 0 2.04.394 2.701 1.183.671.778 1.007 1.763 1.007 2.957v.304h-6.25c.054.756.331 1.39.832 1.902.5.511 1.15.767 1.95.767.959 0 1.752-.325 2.381-.975l.576.783c-.789.789-1.812 1.183-3.069 1.183zm2.397-4.54a2.76 2.76 0 00-.671-1.774c-.437-.532-1.06-.799-1.87-.799-.767 0-1.375.261-1.822.783a2.94 2.94 0 00-.704 1.79h5.067zm5.858 4.54c-1.481 0-2.643-.421-3.485-1.263l.592-.767c.724.693 1.689 1.039 2.893 1.039.692 0 1.241-.123 1.646-.368.416-.245.623-.57.623-.975 0-.852-.809-1.278-2.429-1.278h-1.726v-.975h1.726c.671 0 1.22-.107 1.646-.32.427-.224.64-.549.64-.975 0-.362-.213-.655-.64-.879-.426-.235-.964-.352-1.614-.352-1.076 0-1.939.33-2.589.991l-.624-.735c.799-.821 1.854-1.231 3.165-1.231 1.055-.011 1.907.171 2.557.544.661.362.991.868.991 1.518 0 .533-.218.964-.655 1.295-.426.33-.9.527-1.423.591.544.043 1.05.224 1.519.544.479.319.719.767.719 1.342 0 .661-.319 1.204-.959 1.63-.629.416-1.486.624-2.573.624zm4.566 1.774v-2.957c.394-.075.703-.309.927-.703.224-.405.405-1.146.543-2.222l.496-3.804h5.37v6.665h.895v3.021h-1.198V276h-5.834v1.966h-1.199zm3.021-8.631l-.352 2.893c-.181 1.353-.554 2.259-1.119 2.717h4.588v-5.61h-3.117zm12.987 5.69c-.692.778-1.614 1.167-2.765 1.167s-2.078-.389-2.781-1.167c-.693-.778-1.039-1.742-1.039-2.893 0-1.151.346-2.11 1.039-2.877.703-.778 1.63-1.167 2.781-1.167 1.151 0 2.073.389 2.765 1.167.703.767 1.055 1.726 1.055 2.877 0 1.151-.352 2.115-1.055 2.893zm-4.651-.767c.469.575 1.097.863 1.886.863.789 0 1.412-.288 1.87-.863.458-.586.687-1.295.687-2.126s-.229-1.534-.687-2.11c-.458-.575-1.081-.863-1.87-.863-.789 0-1.417.293-1.886.879-.458.576-.687 1.273-.687 2.094 0 .831.229 1.54.687 2.126zm11.464 1.934c-1.086 0-1.955-.453-2.605-1.359v4.108h-1.199V268.28h1.199v1.151c.288-.405.661-.73 1.119-.975a3.104 3.104 0 011.486-.368c1.023 0 1.849.368 2.478 1.103.639.725.959 1.705.959 2.941 0 1.236-.32 2.222-.959 2.957-.629.735-1.455 1.103-2.478 1.103zm-.303-1.071c.756 0 1.358-.277 1.806-.831.447-.565.671-1.284.671-2.158 0-.874-.224-1.588-.671-2.142-.448-.554-1.05-.831-1.806-.831-.458 0-.906.123-1.343.368-.426.234-.746.522-.959.863v3.484c.213.352.533.65.959.895.437.235.885.352 1.343.352zm11.784-.096c-.693.778-1.615 1.167-2.765 1.167-1.151 0-2.078-.389-2.781-1.167-.693-.778-1.039-1.742-1.039-2.893 0-1.151.346-2.11 1.039-2.877.703-.778 1.63-1.167 2.781-1.167 1.15 0 2.072.389 2.765 1.167.703.767 1.055 1.726 1.055 2.877 0 1.151-.352 2.115-1.055 2.893zm-4.651-.767c.468.575 1.097.863 1.886.863.788 0 1.412-.288 1.87-.863.458-.586.687-1.295.687-2.126s-.229-1.534-.687-2.11c-.458-.575-1.082-.863-1.87-.863-.789 0-1.418.293-1.886.879-.459.576-.688 1.273-.688 2.094 0 .831.229 1.54.688 2.126zM213.07 276h-1.534l3.436-4.22-3.42-3.5h1.518l3.325 3.404v-3.404h1.199v3.388l3.324-3.388h1.519l-3.437 3.5 3.453 4.22h-1.535l-2.781-3.468-.543.543V276h-1.199v-2.925l-.544-.543L213.07 276zm10.804-7.72h1.199v2.989h2.893c.767 0 1.364.229 1.79.687.426.448.639 1.007.639 1.678 0 .672-.218 1.236-.655 1.695-.426.447-1.018.671-1.774.671h-4.092v-7.72zm3.964 4.044h-2.765v2.621h2.765c.426 0 .751-.117.975-.352.234-.245.352-.564.352-.959 0-.394-.118-.708-.352-.943-.224-.245-.549-.367-.975-.367zm10.86 3.868c-1.065 0-1.944-.341-2.637-1.023-.682-.693-1.066-1.567-1.151-2.621h-1.486V276h-1.199v-7.72h1.199v3.213h1.502c.128-.991.528-1.807 1.199-2.446.682-.639 1.54-.959 2.573-.959 1.151 0 2.078.389 2.781 1.167.704.767 1.055 1.726 1.055 2.877 0 1.151-.351 2.115-1.055 2.893-.703.778-1.63 1.167-2.781 1.167zm0-1.071c.799 0 1.428-.288 1.886-.863.459-.586.688-1.295.688-2.126s-.229-1.534-.688-2.11c-.458-.575-1.087-.863-1.886-.863-.778 0-1.401.293-1.87.879-.458.576-.687 1.273-.687 2.094 0 .831.229 1.54.687 2.126.458.575 1.082.863 1.87.863z" fill="#253942"/><path d="M68.5 317a9.5 9.5 0 019.5-9.5h214c5.247 0 9.5 4.256 9.5 9.503v39.994c0 5.247-4.253 9.503-9.5 9.503H78a9.5 9.5 0 01-9.5-9.5v-40z" fill="#253942" stroke="#253942"/><path d="M141.653 333h-2.302l-3.58-4.491-.927 1.087V333h-1.87v-10.661h1.87v5.083l4.172-5.083h2.317l-4.331 5.035 4.651 5.626zm7.36 0h-1.679v-.831c-.596.682-1.428 1.023-2.493 1.023a2.856 2.856 0 01-1.87-.672c-.544-.458-.815-1.086-.815-1.886 0-.82.266-1.443.799-1.87a2.97 2.97 0 011.886-.639c1.097 0 1.929.33 2.493.991v-1.151c0-.447-.165-.799-.495-1.055-.33-.255-.767-.383-1.311-.383-.863 0-1.625.325-2.285.975l-.688-1.167c.874-.831 1.956-1.247 3.245-1.247.948 0 1.721.224 2.318.671.596.448.895 1.157.895 2.126V333zm-3.517-.959c.842 0 1.455-.266 1.838-.799v-1.167c-.383-.533-.996-.799-1.838-.799-.479 0-.874.128-1.183.383a1.244 1.244 0 00-.463 1.007c0 .416.154.752.463 1.007.309.245.704.368 1.183.368zm12.917.959h-2.11l-2.365-3.181-1.071 1.103V333h-1.678v-7.72h1.678v3.724l3.404-3.724h2.078l-3.213 3.5 3.277 4.22zm8.81.192c-1.172 0-2.131-.378-2.877-1.135-.746-.767-1.119-1.742-1.119-2.925 0-1.172.373-2.136 1.119-2.893.746-.767 1.705-1.151 2.877-1.151 1.29 0 2.275.458 2.957 1.375l-1.103 1.023c-.426-.608-1.017-.911-1.774-.911-.703 0-1.268.239-1.694.719-.426.469-.639 1.081-.639 1.838 0 .757.213 1.375.639 1.854.426.48.991.719 1.694.719.735 0 1.327-.303 1.774-.911l1.103 1.023c-.682.917-1.667 1.375-2.957 1.375zm7.993 0c-1.172 0-2.142-.373-2.909-1.119-.756-.757-1.135-1.737-1.135-2.941 0-1.13.368-2.083 1.103-2.861.746-.789 1.684-1.183 2.813-1.183 1.14 0 2.057.394 2.749 1.183.704.788 1.055 1.795 1.055 3.021v.399h-5.961a2.33 2.33 0 00.751 1.519c.437.405 1.007.607 1.71.607a3.31 3.31 0 001.183-.224c.405-.149.74-.357 1.007-.623l.767 1.103c-.778.746-1.822 1.119-3.133 1.119zm2.046-4.683a2.208 2.208 0 00-.591-1.423c-.363-.415-.89-.623-1.583-.623-.66 0-1.177.208-1.55.623a2.308 2.308 0 00-.623 1.423h4.347zM189.196 333h-1.678v-5.37l-2.302 5.37h-.671l-2.318-5.37V333h-1.678v-7.72h2.19l2.141 4.987 2.11-4.987h2.206V333zm5.734.192c-1.172 0-2.142-.373-2.909-1.119-.756-.757-1.135-1.737-1.135-2.941 0-1.13.368-2.083 1.103-2.861.746-.789 1.684-1.183 2.813-1.183 1.141 0 2.057.394 2.75 1.183.703.788 1.054 1.795 1.054 3.021v.399h-5.961c.064.608.314 1.114.751 1.519.437.405 1.007.607 1.71.607.394 0 .789-.074 1.183-.224.405-.149.74-.357 1.007-.623l.767 1.103c-.778.746-1.822 1.119-3.133 1.119zm2.046-4.683a2.208 2.208 0 00-.591-1.423c-.363-.415-.89-.623-1.583-.623-.66 0-1.177.208-1.55.623a2.308 2.308 0 00-.623 1.423h4.347zm4.901 4.491h-1.614v-7.72h1.678v5.195l3.549-5.195h1.678V333h-1.678v-5.339L201.877 333zm4.636-9.942c-.693.938-1.625 1.407-2.798 1.407-1.161 0-2.099-.469-2.813-1.407l.768-.639c.511.703 1.193 1.055 2.045 1.055.853 0 1.53-.352 2.03-1.055l.768.639zm4.513 9.942h-1.679v-7.72h1.679v3.037h3.548v-3.037h1.678V333h-1.678v-3.213h-3.548V333zm7.406-7.72h1.678v2.797h2.733c.821 0 1.449.234 1.886.703.448.469.672 1.055.672 1.759 0 .692-.229 1.278-.688 1.758-.447.469-1.071.703-1.87.703h-4.411v-7.72zm4.203 4.268h-2.525v1.982h2.525c.331 0 .587-.091.768-.272.192-.181.287-.421.287-.719 0-.299-.095-.539-.287-.72-.181-.181-.437-.271-.768-.271zm5.611 3.452h-1.679v-7.72h1.679V333zm3.788 0h-1.615v-7.72h1.679v5.195l3.548-5.195h1.678V333h-1.678v-5.339L232.034 333zm4.635-9.942c-.693.938-1.625 1.407-2.797 1.407-1.162 0-2.099-.469-2.813-1.407l.767-.639c.512.703 1.193 1.055 2.046 1.055.852 0 1.529-.352 2.03-1.055l.767.639zM147.826 352h-1.678v-.831c-.597.682-1.428 1.023-2.493 1.023a2.854 2.854 0 01-1.87-.672c-.544-.458-.816-1.086-.816-1.886 0-.82.267-1.443.8-1.87a2.97 2.97 0 011.886-.639c1.097 0 1.928.33 2.493.991v-1.151c0-.447-.165-.799-.495-1.055-.331-.255-.768-.383-1.311-.383-.863 0-1.625.325-2.286.975l-.687-1.167c.874-.831 1.955-1.247 3.245-1.247.948 0 1.721.224 2.317.671.597.448.895 1.157.895 2.126V352zm-3.516-.959c.842 0 1.454-.266 1.838-.799v-1.167c-.384-.533-.996-.799-1.838-.799-.48 0-.874.128-1.183.383a1.244 1.244 0 00-.463 1.007c0 .416.154.752.463 1.007.309.245.703.368 1.183.368zm10.423.959h-4.731v-7.72h4.619c.714 0 1.274.186 1.679.559.405.373.607.847.607 1.423 0 .447-.122.826-.368 1.135a1.778 1.778 0 01-.927.623c.416.096.762.325 1.039.687.277.352.416.752.416 1.199 0 .618-.208 1.124-.623 1.519-.405.383-.975.575-1.711.575zm-.351-1.47c.298 0 .533-.075.703-.224.17-.16.256-.373.256-.64a.85.85 0 00-.256-.623c-.17-.17-.405-.256-.703-.256h-2.702v1.743h2.702zm-.048-3.213c.266 0 .474-.069.623-.208a.733.733 0 00.24-.559c0-.245-.08-.437-.24-.576-.149-.149-.357-.224-.623-.224h-2.654v1.567h2.654zm7.9 4.683h-1.678v-6.25h-2.206v-1.47h6.106v1.47h-2.222V352zm7.08.192c-1.193 0-2.152-.389-2.877-1.167-.725-.789-1.087-1.753-1.087-2.893s.362-2.099 1.087-2.877c.725-.778 1.684-1.167 2.877-1.167 1.204 0 2.169.389 2.893 1.167.725.778 1.087 1.737 1.087 2.877 0 1.151-.362 2.115-1.087 2.893-.724.778-1.689 1.167-2.893 1.167zm0-1.487c.693 0 1.236-.245 1.63-.735.405-.501.608-1.113.608-1.838 0-.714-.203-1.316-.608-1.806-.394-.501-.937-.751-1.63-.751-.682 0-1.225.25-1.63.751-.394.49-.592 1.092-.592 1.806 0 .725.198 1.337.592 1.838.405.49.948.735 1.63.735zM183.639 352h-1.678v-5.37l-2.302 5.37h-.671l-2.318-5.37V352h-1.678v-7.72h2.19l2.142 4.987 2.11-4.987h2.205V352zm5.655.192c-1.194 0-2.153-.389-2.877-1.167-.725-.789-1.087-1.753-1.087-2.893s.362-2.099 1.087-2.877c.724-.778 1.683-1.167 2.877-1.167 1.204 0 2.168.389 2.893 1.167.724.778 1.086 1.737 1.086 2.877 0 1.151-.362 2.115-1.086 2.893-.725.778-1.689 1.167-2.893 1.167zm0-1.487c.692 0 1.236-.245 1.63-.735.405-.501.607-1.113.607-1.838 0-.714-.202-1.316-.607-1.806-.394-.501-.938-.751-1.63-.751-.682 0-1.226.25-1.631.751-.394.49-.591 1.092-.591 1.806 0 .725.197 1.337.591 1.838.405.49.949.735 1.631.735zm9.162 0c.693 0 1.236-.25 1.63-.751.405-.501.608-1.119.608-1.854 0-.703-.203-1.3-.608-1.79-.394-.49-.937-.735-1.63-.735-.682 0-1.225.245-1.63.735-.395.49-.592 1.087-.592 1.79 0 .735.197 1.353.592 1.854.405.501.948.751 1.63.751zm2.893.304c-.714.789-1.678 1.183-2.893 1.183-1.215 0-2.179-.41-2.893-1.231-.703-.831-1.055-1.891-1.055-3.181 0-1.843.314-3.218.943-4.123.639-.906 1.62-1.439 2.941-1.599.799-.117 1.348-.229 1.646-.335.309-.107.464-.235.464-.384h1.646c0 1.119-1.097 1.801-3.292 2.046-.864.096-1.53.336-1.998.719-.459.373-.746.821-.863 1.343a3.11 3.11 0 011.198-.991 3.56 3.56 0 011.583-.368c1.065 0 1.939.394 2.621 1.183.682.788 1.023 1.737 1.023 2.845 0 1.14-.357 2.104-1.071 2.893zm4.462.991h-1.615v-7.72h1.679v5.195l3.548-5.195h1.678V352h-1.678v-5.339L205.811 352zm6.671.192v-1.375c.33 0 .591-.213.783-.639.202-.426.368-1.14.495-2.142l.464-3.756h5.962V352h-1.679v-6.25h-2.797l-.271 2.478c-.15 1.385-.464 2.392-.943 3.021-.48.628-1.151.943-2.014.943zm9.883-7.912h1.679v2.797h2.733c.82 0 1.449.234 1.886.703.447.469.671 1.055.671 1.759 0 .692-.229 1.278-.687 1.758-.448.469-1.071.703-1.87.703h-4.412v-7.72zm4.204 4.268h-2.525v1.982h2.525c.33 0 .586-.091.767-.272.192-.181.288-.421.288-.719 0-.299-.096-.539-.288-.72-.181-.181-.437-.271-.767-.271z" fill="#fff"/><path d="M68.5 393a9.5 9.5 0 019.5-9.5h214c5.247 0 9.5 4.256 9.5 9.503v39.994c0 5.247-4.253 9.503-9.5 9.503H78a9.5 9.5 0 01-9.5-9.5v-40z" fill="#fff" stroke="#253942"/><path d="M119.216 410.966v-3.037c.469-.032.842-.144 1.119-.336.277-.191.527-.596.751-1.214.234-.618.426-1.513.575-2.686l.656-5.354h6.521v9.478h.975v3.149h-1.327V409h-7.944v1.966h-1.326zm3.756-7.177c-.245 2.057-.789 3.4-1.63 4.028h6.169v-8.295h-4.012l-.527 4.267zm7.571 5.403v-.991c.362 0 .66-.24.895-.719.234-.48.426-1.279.575-2.398l.496-3.804h5.37V409h-1.199v-6.665h-3.117l-.351 2.893c-.171 1.417-.469 2.435-.895 3.053-.426.607-1.018.911-1.774.911zm10.88-.192h-1.406l2.062-3.037c-.586-.074-1.066-.32-1.439-.735-.362-.416-.543-.943-.543-1.582 0-.682.218-1.247.655-1.695.437-.447 1.034-.671 1.79-.671h4.076V409h-1.199v-2.989h-2.109L141.423 409zm1.247-4.044h2.749v-2.621h-2.749c-.415 0-.746.122-.991.367-.234.235-.351.549-.351.944 0 .394.117.713.351.959.235.234.565.351.991.351zM159.56 409h-1.199v-6.665h-4.028V409h-1.199v-7.72h6.426V409zm8.531-.975c-.692.778-1.614 1.167-2.765 1.167s-2.078-.389-2.781-1.167c-.693-.778-1.039-1.742-1.039-2.893 0-1.151.346-2.11 1.039-2.877.703-.778 1.63-1.167 2.781-1.167 1.151 0 2.073.389 2.765 1.167.703.767 1.055 1.726 1.055 2.877 0 1.151-.352 2.115-1.055 2.893zm-4.651-.767c.469.575 1.098.863 1.886.863.789 0 1.412-.288 1.87-.863.458-.586.687-1.295.687-2.126s-.229-1.534-.687-2.11c-.458-.575-1.081-.863-1.87-.863-.788 0-1.417.293-1.886.879-.458.576-.687 1.273-.687 2.094 0 .831.229 1.54.687 2.126zm6.749 3.708v-2.957c.395-.075.704-.309.927-.703.224-.405.405-1.146.544-2.222l.495-3.804h5.371v6.665h.895v3.021h-1.199V409h-5.834v1.966h-1.199zm3.021-8.631l-.351 2.893c-.182 1.353-.555 2.259-1.119 2.717h4.587v-5.61h-3.117zm5.939 8.631v-2.957c.394-.075.703-.309.927-.703.224-.405.405-1.146.543-2.222l.496-3.804h5.37v6.665h.895v3.021h-1.198V409h-5.834v1.966h-1.199zm3.021-8.631l-.352 2.893c-.181 1.353-.554 2.259-1.119 2.717h4.587v-5.61h-3.116zm10.334 6.857c-1.151 0-2.094-.373-2.829-1.119-.736-.757-1.103-1.737-1.103-2.941 0-1.13.362-2.083 1.087-2.861.724-.789 1.63-1.183 2.717-1.183 1.14 0 2.041.394 2.701 1.183.671.778 1.007 1.763 1.007 2.957v.304h-6.249c.053.756.33 1.39.831 1.902.501.511 1.151.767 1.95.767.959 0 1.753-.325 2.381-.975l.576.783c-.789.789-1.812 1.183-3.069 1.183zm2.397-4.54a2.76 2.76 0 00-.671-1.774c-.437-.532-1.06-.799-1.87-.799-.767 0-1.375.261-1.822.783a2.938 2.938 0 00-.703 1.79h5.066zm6.929 4.54c-1.087 0-1.955-.453-2.605-1.359v4.108h-1.199V401.28h1.199v1.151c.287-.405.66-.73 1.118-.975a3.108 3.108 0 011.487-.368c1.023 0 1.849.368 2.477 1.103.64.725.959 1.705.959 2.941 0 1.236-.319 2.222-.959 2.957-.628.735-1.454 1.103-2.477 1.103zm-.304-1.071c.757 0 1.359-.277 1.806-.831.448-.565.672-1.284.672-2.158 0-.874-.224-1.588-.672-2.142-.447-.554-1.049-.831-1.806-.831a2.71 2.71 0 00-1.342.368c-.427.234-.746.522-.959.863v3.484c.213.352.532.65.959.895.436.235.884.352 1.342.352zm5.613.879h-1.535l3.437-4.22-3.421-3.5h1.519l3.324 3.404v-3.404h1.199v3.388l3.325-3.388h1.518l-3.436 3.5 3.452 4.22h-1.534l-2.781-3.468-.544.543V409h-1.199v-2.925l-.543-.543-2.781 3.468zm16.83 0h-1.199v-.879c-.65.714-1.503 1.071-2.558 1.071a2.84 2.84 0 01-1.886-.687c-.543-.459-.815-1.082-.815-1.871 0-.809.267-1.433.799-1.87a2.907 2.907 0 011.902-.671c1.098 0 1.95.352 2.558 1.055v-1.391c0-.511-.181-.911-.544-1.198-.362-.288-.831-.432-1.406-.432-.906 0-1.694.357-2.366 1.071l-.559-.831c.82-.853 1.849-1.279 3.085-1.279.884 0 1.603.213 2.157.639.555.427.832 1.082.832 1.966V409zm-3.325-.671c.959 0 1.668-.32 2.126-.959v-1.455c-.458-.639-1.167-.959-2.126-.959-.554 0-1.012.16-1.375.48-.351.309-.527.714-.527 1.214 0 .491.176.895.527 1.215.363.309.821.464 1.375.464zm6.926.671h-1.198v-7.72h1.198v3.213h4.028v-3.213h1.199V409h-1.199v-3.452h-4.028V409zm8.771 0h-1.15v-7.72h1.198v5.898l4.044-5.898h1.183V409h-1.199v-6.01l-4.076 6.01zm8.819 0h-1.406l2.062-3.037c-.586-.074-1.066-.32-1.439-.735-.362-.416-.543-.943-.543-1.582 0-.682.218-1.247.655-1.695.437-.447 1.034-.671 1.79-.671h4.076V409h-1.199v-2.989h-2.109L245.16 409zm1.247-4.044h2.749v-2.621h-2.749c-.415 0-.746.122-.991.367-.234.235-.351.549-.351.944 0 .394.117.713.351.959.235.234.565.351.991.351zm-124.738 23.236c-1.141 0-2.068-.384-2.782-1.151-.713-.778-1.07-1.748-1.07-2.909 0-1.161.357-2.126 1.07-2.893.714-.767 1.641-1.151 2.782-1.151 1.193 0 2.136.448 2.829 1.343l-.8.735c-.49-.671-1.145-1.007-1.965-1.007-.81 0-1.46.277-1.95.831-.48.554-.72 1.268-.72 2.142 0 .874.24 1.593.72 2.158.49.554 1.14.831 1.95.831.809 0 1.465-.336 1.965-1.007l.8.735c-.693.895-1.636 1.343-2.829 1.343zm7.114-.192h-1.199v-6.665h-2.237v-1.055h5.69v1.055h-2.254V428zm9.851 0h-1.198v-.879c-.65.714-1.503 1.071-2.558 1.071a2.84 2.84 0 01-1.886-.687c-.543-.459-.815-1.082-.815-1.871 0-.809.267-1.433.799-1.87a2.907 2.907 0 011.902-.671c1.098 0 1.95.352 2.558 1.055v-1.391c0-.511-.181-.911-.544-1.198-.362-.288-.831-.432-1.406-.432-.906 0-1.695.357-2.366 1.071l-.559-.831c.82-.853 1.848-1.279 3.085-1.279.884 0 1.603.213 2.157.639.554.427.831 1.082.831 1.966V428zm-3.324-.671c.959 0 1.668-.32 2.126-.959v-1.455c-.458-.639-1.167-.959-2.126-.959-.554 0-1.012.16-1.375.48-.351.309-.527.714-.527 1.214 0 .491.176.895.527 1.215.363.309.821.464 1.375.464zm8.333.671h-1.199v-6.665h-2.238v-1.055h5.691v1.055h-2.254V428zm3.394 3.021l.192-1.087c.191.085.41.128.655.128.277 0 .506-.059.687-.176.181-.117.336-.33.464-.639l.511-1.167-3.228-7.8h1.294l2.574 6.329 2.557-6.329h1.311l-3.868 9.286c-.427 1.023-1.183 1.545-2.27 1.567-.32 0-.613-.038-.879-.112zm11.672-2.829c-1.141 0-2.068-.384-2.782-1.151-.713-.778-1.07-1.748-1.07-2.909 0-1.161.357-2.126 1.07-2.893.714-.767 1.641-1.151 2.782-1.151 1.193 0 2.136.448 2.829 1.343l-.8.735c-.49-.671-1.145-1.007-1.965-1.007-.81 0-1.46.277-1.95.831-.48.554-.72 1.268-.72 2.142 0 .874.24 1.593.72 2.158.49.554 1.14.831 1.95.831.809 0 1.465-.336 1.965-1.007l.8.735c-.693.895-1.636 1.343-2.829 1.343zm10.535-.192h-1.199v-.879c-.65.714-1.503 1.071-2.558 1.071a2.843 2.843 0 01-1.886-.687c-.543-.459-.815-1.082-.815-1.871 0-.809.267-1.433.799-1.87a2.907 2.907 0 011.902-.671c1.098 0 1.95.352 2.558 1.055v-1.391c0-.511-.181-.911-.544-1.198-.362-.288-.831-.432-1.406-.432-.906 0-1.694.357-2.366 1.071l-.559-.831c.82-.853 1.849-1.279 3.085-1.279.884 0 1.603.213 2.157.639.555.427.832 1.082.832 1.966V428zm-3.325-.671c.959 0 1.668-.32 2.126-.959v-1.455c-.458-.639-1.167-.959-2.126-.959-.554 0-1.012.16-1.375.48-.351.309-.527.714-.527 1.214 0 .491.176.895.527 1.215.363.309.821.464 1.375.464zm14.18.671h-4.332v-7.72h4.252c.671 0 1.199.181 1.582.543.395.363.592.842.592 1.439 0 .437-.123.815-.368 1.135a1.698 1.698 0 01-.879.623c.394.096.725.325.991.687.277.363.416.762.416 1.199 0 .629-.203 1.135-.608 1.519-.394.383-.943.575-1.646.575zm-.24-1.055c.384 0 .687-.106.911-.32.224-.213.336-.5.336-.863 0-.33-.112-.612-.336-.847-.224-.234-.527-.351-.911-.351h-2.893v2.381h2.893zm-.048-3.436c.363 0 .645-.096.847-.288.203-.203.304-.464.304-.783 0-.341-.101-.608-.304-.799-.202-.203-.484-.304-.847-.304h-2.845v2.174h2.845zm3.896 4.683v-.991c.362 0 .66-.24.895-.719.234-.48.426-1.279.575-2.398l.496-3.804h5.37V428h-1.199v-6.665h-3.116l-.352 2.893c-.171 1.417-.469 2.435-.895 3.053-.426.607-1.018.911-1.774.911zm15.756-.192h-1.199v-.879c-.65.714-1.503 1.071-2.558 1.071a2.84 2.84 0 01-1.886-.687c-.543-.459-.815-1.082-.815-1.871 0-.809.267-1.433.799-1.87a2.907 2.907 0 011.902-.671c1.098 0 1.95.352 2.558 1.055v-1.391c0-.511-.181-.911-.544-1.198-.362-.288-.831-.432-1.406-.432-.906 0-1.694.357-2.366 1.071l-.559-.831c.82-.853 1.849-1.279 3.085-1.279.884 0 1.603.213 2.157.639.554.427.832 1.082.832 1.966V428zm-3.325-.671c.959 0 1.668-.32 2.126-.959v-1.455c-.458-.639-1.167-.959-2.126-.959-.554 0-1.012.16-1.375.48-.351.309-.527.714-.527 1.214 0 .491.176.895.527 1.215.363.309.821.464 1.375.464zm4.816 2.637v-2.957c.395-.075.704-.309.928-.703.223-.405.404-1.146.543-2.222l.495-3.804h5.371v6.665h.895v3.021h-1.199V428h-5.834v1.966h-1.199zm3.021-8.631l-.351 2.893c-.181 1.353-.554 2.259-1.119 2.717h4.587v-5.61h-3.117zm10.334 6.857c-1.15 0-2.093-.373-2.829-1.119-.735-.757-1.102-1.737-1.102-2.941 0-1.13.362-2.083 1.086-2.861.725-.789 1.631-1.183 2.718-1.183 1.14 0 2.04.394 2.701 1.183.671.778 1.007 1.763 1.007 2.957v.304h-6.25c.054.756.331 1.39.831 1.902.501.511 1.151.767 1.95.767.959 0 1.753-.325 2.382-.975l.575.783c-.788.789-1.811 1.183-3.069 1.183zm2.398-4.54a2.765 2.765 0 00-.671-1.774c-.437-.532-1.061-.799-1.87-.799-.768 0-1.375.261-1.822.783a2.94 2.94 0 00-.704 1.79h5.067zm2.213 4.54v-.991c.363 0 .661-.24.895-.719.235-.48.427-1.279.576-2.398l.495-3.804h5.371V428h-1.199v-6.665h-3.117l-.351 2.893c-.171 1.417-.469 2.435-.895 3.053-.427.607-1.018.911-1.775.911zm9.73-7.912h1.199v2.989h2.893c.767 0 1.364.229 1.79.687.427.448.64 1.007.64 1.678 0 .672-.219 1.236-.656 1.695-.426.447-1.017.671-1.774.671h-4.092v-7.72zm3.964 4.044h-2.765v2.621h2.765c.427 0 .752-.117.975-.352.235-.245.352-.564.352-.959 0-.394-.117-.708-.352-.943-.223-.245-.548-.367-.975-.367zm10.509 5.642V428h-6.122v-7.72h1.199v6.665h4.028v-6.665h1.199v6.665h.895v3.021h-1.199zm8.864-1.966h-1.199v-.879c-.65.714-1.503 1.071-2.558 1.071a2.843 2.843 0 01-1.886-.687c-.543-.459-.815-1.082-.815-1.871 0-.809.267-1.433.799-1.87a2.907 2.907 0 011.902-.671c1.098 0 1.95.352 2.558 1.055v-1.391c0-.511-.181-.911-.544-1.198-.362-.288-.831-.432-1.406-.432-.906 0-1.694.357-2.366 1.071l-.559-.831c.82-.853 1.849-1.279 3.085-1.279.884 0 1.603.213 2.157.639.555.427.832 1.082.832 1.966V428zm-3.325-.671c.959 0 1.668-.32 2.126-.959v-1.455c-.458-.639-1.167-.959-2.126-.959-.554 0-1.012.16-1.375.48-.351.309-.527.714-.527 1.214 0 .491.176.895.527 1.215.363.309.821.464 1.375.464z" fill="#253942"/><path d="M68.5 469a9.5 9.5 0 019.5-9.5h214c5.247 0 9.5 4.256 9.5 9.503v39.994c0 5.247-4.253 9.503-9.5 9.503H78a9.5 9.5 0 01-9.5-9.5v-40z" fill="#fff" stroke="#253942"/><path d="M158.816 495.966v-3.037c.468-.032.841-.144 1.118-.336.277-.191.528-.596.752-1.214.234-.618.426-1.513.575-2.686l.655-5.354h6.522v9.478h.975v3.149h-1.327V494h-7.944v1.966h-1.326zm3.756-7.177c-.245 2.057-.789 3.4-1.631 4.028h6.17v-8.295h-4.012l-.527 4.267zm12.286 5.403c-1.087 0-1.956-.453-2.606-1.359v4.108h-1.198V486.28h1.198v1.151c.288-.405.661-.73 1.119-.975a3.105 3.105 0 011.487-.368c1.023 0 1.848.368 2.477 1.103.639.725.959 1.705.959 2.941 0 1.236-.32 2.222-.959 2.957-.629.735-1.454 1.103-2.477 1.103zm-.304-1.071c.756 0 1.359-.277 1.806-.831.448-.565.671-1.284.671-2.158 0-.874-.223-1.588-.671-2.142-.447-.554-1.05-.831-1.806-.831-.458 0-.906.123-1.343.368-.426.234-.746.522-.959.863v3.484c.213.352.533.65.959.895.437.235.885.352 1.343.352zm5.215 3.9l.192-1.087c.191.085.41.128.655.128.277 0 .506-.059.687-.176.181-.117.336-.33.464-.639l.511-1.167-3.228-7.8h1.294l2.574 6.329 2.557-6.329h1.311l-3.868 9.286c-.427 1.023-1.183 1.545-2.27 1.567-.32 0-.613-.038-.879-.112zm13.669-10.741v1.055h-4.203V494h-1.199v-7.72h5.402zm7.697 6.745c-.692.778-1.614 1.167-2.765 1.167s-2.078-.389-2.781-1.167c-.693-.778-1.039-1.742-1.039-2.893 0-1.151.346-2.11 1.039-2.877.703-.778 1.63-1.167 2.781-1.167 1.151 0 2.073.389 2.765 1.167.704.767 1.055 1.726 1.055 2.877 0 1.151-.351 2.115-1.055 2.893zm-4.651-.767c.469.575 1.098.863 1.886.863.789 0 1.412-.288 1.87-.863.458-.586.688-1.295.688-2.126s-.23-1.534-.688-2.11c-.458-.575-1.081-.863-1.87-.863-.788 0-1.417.293-1.886.879-.458.576-.687 1.273-.687 2.094 0 .831.229 1.54.687 2.126zm11.145 1.934c-1.151 0-2.094-.373-2.829-1.119-.735-.757-1.103-1.737-1.103-2.941 0-1.13.362-2.083 1.087-2.861.724-.789 1.63-1.183 2.717-1.183 1.14 0 2.041.394 2.701 1.183.672.778 1.007 1.763 1.007 2.957v.304h-6.249c.053.756.33 1.39.831 1.902.501.511 1.151.767 1.95.767.959 0 1.753-.325 2.381-.975l.576.783c-.789.789-1.812 1.183-3.069 1.183zm2.397-4.54a2.76 2.76 0 00-.671-1.774c-.437-.532-1.06-.799-1.87-.799-.767 0-1.375.261-1.822.783a2.938 2.938 0 00-.703 1.79h5.066zM45.847 96.87v-4.669c.5-.065.887-.197 1.163-.394.289-.197.551-.597.788-1.201.236-.605.42-1.465.551-2.581l.769-6.718h9.338v10.678h1.182v4.885H56.84v-2.423h-8.195v2.423h-2.798zm5.28-8.648c-.184 1.694-.716 2.948-1.596 3.763h6.108v-8.216h-4l-.512 4.453zm9.203 6.462v-2.05c.395 0 .71-.23.946-.689.237-.473.427-1.274.571-2.403l.611-4.61h7.703v9.515H67.66v-7.329h-3.014l-.315 2.72c-.197 1.667-.617 2.895-1.261 3.683-.63.775-1.543 1.163-2.739 1.163zm14.837-.237H72.33L74.536 91c-.59-.144-1.09-.472-1.497-.984-.407-.513-.61-1.17-.61-1.97 0-.88.295-1.616.886-2.207.59-.604 1.392-.906 2.403-.906h5.773v9.515h-2.502v-3.27h-1.95l-1.872 3.27zm.945-5.358h2.877v-2.05h-2.877c-.341 0-.617.093-.827.276a.921.921 0 00-.315.73c0 .315.098.57.295.768.21.184.493.276.847.276zm22.166 5.358h-3.133l-2.521-3.664-1.143 1.221v2.443h-2.502v-9.515h2.502v4.235l3.605-4.235h3.073l-3.763 4.314 3.882 5.201zm9.459 0h-2.502v-.985c-.683.814-1.688 1.222-3.014 1.222a3.572 3.572 0 01-2.305-.828c-.67-.565-1.005-1.34-1.005-2.325 0-1.024.328-1.792.985-2.305.67-.512 1.445-.768 2.325-.768 1.353 0 2.357.388 3.014 1.163V88.34c0-.486-.19-.874-.571-1.162-.381-.29-.887-.434-1.517-.434-1.038 0-1.964.374-2.778 1.123l-.946-1.674c1.13-.999 2.515-1.498 4.157-1.498 1.222 0 2.22.283 2.995.847.775.565 1.162 1.485 1.162 2.758v6.147zm-4.511-1.458c.932 0 1.602-.276 2.009-.827V90.98c-.407-.552-1.077-.828-2.009-.828-.513 0-.94.132-1.281.394-.342.25-.512.598-.512 1.044 0 .434.17.775.512 1.025.341.25.768.374 1.281.374zm16.291 1.458h-3.132l-2.522-3.664-1.142 1.221v2.443h-2.502v-9.515h2.502v4.235l3.605-4.235h3.073l-3.763 4.314 3.881 5.201zm3.648 0h-2.403v-9.515h2.502v5.752l3.92-5.752h2.522v9.515h-2.502v-5.97l-4.039 5.97zm17.712 0h-2.797l-2.167-3.211-2.187 3.211h-2.778l3.369-4.886-3.172-4.63h2.798l1.97 2.936 1.95-2.935h2.798l-3.192 4.63 3.408 4.885zm13.767 2.423v-2.423h-7.487v-9.515h2.502v7.328h3.94v-7.328h2.502v7.328h1.045v4.61h-2.502zm8.548-2.186c-1.471 0-2.686-.46-3.645-1.38-.958-.919-1.438-2.127-1.438-3.624 0-1.406.46-2.588 1.379-3.547.933-.958 2.115-1.438 3.546-1.438 1.419 0 2.568.486 3.448 1.458.88.959 1.32 2.22 1.32 3.783v.551h-7.073c.079.63.362 1.156.848 1.576.485.42 1.116.63 1.891.63.42 0 .873-.085 1.359-.255.499-.171.893-.4 1.182-.69l1.103 1.616c-.958.88-2.265 1.32-3.92 1.32zm2.187-5.89c-.04-.54-.256-1.025-.65-1.459-.381-.433-.946-.65-1.695-.65-.709 0-1.26.217-1.654.65-.394.42-.624.906-.69 1.458h4.689zm3.344 5.89v-2.05c.394 0 .709-.23.945-.689.237-.473.427-1.274.572-2.403l.61-4.61h7.703v9.515h-2.502v-7.329h-3.014l-.315 2.72c-.197 1.667-.617 2.895-1.261 3.683-.63.775-1.543 1.163-2.738 1.163zm16.786 0c-1.471 0-2.686-.46-3.644-1.38-.959-.919-1.439-2.127-1.439-3.624 0-1.406.46-2.588 1.379-3.547.933-.958 2.115-1.438 3.547-1.438 1.418 0 2.567.486 3.447 1.458.88.959 1.32 2.22 1.32 3.783v.551h-7.072c.078.63.361 1.156.847 1.576.486.42 1.116.63 1.891.63.42 0 .873-.085 1.359-.255.499-.171.893-.4 1.182-.69l1.104 1.616c-.959.88-2.266 1.32-3.921 1.32zm2.187-5.89c-.039-.54-.256-1.025-.65-1.459-.381-.433-.946-.65-1.694-.65-.71 0-1.261.217-1.655.65-.394.42-.624.906-.69 1.458h4.689zm6.634 5.653h-2.404v-9.515h2.502v5.752l3.921-5.752h2.521v9.515h-2.502v-5.97l-4.038 5.97zm5.516-12.195c-.854 1.156-2.003 1.734-3.448 1.734-1.431 0-2.587-.578-3.467-1.734l1.103-.925c.578.814 1.366 1.22 2.364 1.22.972 0 1.754-.406 2.345-1.22l1.103.925zm17.493 12.195h-2.502v-7.329h-3.94v7.33h-2.502v-9.516h8.944v9.515zm1.597.237v-2.05c.394 0 .709-.23.946-.689.236-.473.427-1.274.571-2.403l.611-4.61h7.703v9.515h-2.502v-7.329h-3.014l-.316 2.72c-.197 1.667-.617 2.895-1.26 3.683-.631.775-1.544 1.163-2.739 1.163zm20.53-.237h-2.502v-.985c-.683.814-1.688 1.222-3.014 1.222a3.573 3.573 0 01-2.305-.828c-.67-.565-1.005-1.34-1.005-2.325 0-1.024.328-1.792.985-2.305.67-.512 1.445-.768 2.325-.768 1.352 0 2.357.388 3.014 1.163V88.34c0-.486-.191-.874-.571-1.162-.381-.29-.887-.434-1.517-.434-1.038 0-1.964.374-2.778 1.123l-.946-1.674c1.13-.999 2.515-1.498 4.157-1.498 1.221 0 2.22.283 2.995.847.774.565 1.162 1.485 1.162 2.758v6.147zm-4.512-1.458c.933 0 1.603-.276 2.01-.827V90.98c-.407-.552-1.077-.828-2.01-.828-.512 0-.939.132-1.28.394-.342.25-.512.598-.512 1.044 0 .434.17.775.512 1.025.341.25.768.374 1.28.374zm9.496 1.458h-2.502v-9.515h2.502v3.526h3.94v-3.526h2.502v9.515h-2.502v-3.802h-3.94v3.802zm11.329 0h-2.404v-9.515h2.502v5.752l3.921-5.752h2.522v9.515h-2.502v-5.97l-4.039 5.97zm14.462.237c-1.195 0-2.174-.486-2.936-1.458v4.846h-2.502v-13.14h2.502v1.201c.749-.958 1.727-1.438 2.936-1.438 1.247 0 2.259.447 3.034 1.34.788.88 1.182 2.095 1.182 3.645 0 1.55-.394 2.77-1.182 3.664-.775.893-1.787 1.34-3.034 1.34zm-.788-2.227c.722 0 1.3-.256 1.733-.768.447-.512.67-1.182.67-2.01 0-.814-.223-1.477-.67-1.99-.433-.511-1.011-.767-1.733-.767-.407 0-.815.105-1.222.315-.407.21-.715.466-.926.768v3.369c.211.302.519.558.926.768.421.21.828.315 1.222.315zm6.501 5.714l.374-2.246c.237.105.5.157.788.157.67 0 1.11-.23 1.32-.69l.355-.807-3.861-9.653h2.679l2.482 6.62 2.483-6.62h2.699L280.8 96.004c-.328.84-.788 1.424-1.379 1.753-.591.341-1.333.525-2.226.551a5.18 5.18 0 01-1.241-.137zm14.908-3.487c-1.471 0-2.686-.46-3.645-1.38-.959-.919-1.438-2.127-1.438-3.624 0-1.406.459-2.588 1.379-3.547.932-.958 2.114-1.438 3.546-1.438 1.418 0 2.568.486 3.448 1.458.879.959 1.319 2.22 1.319 3.783v.551h-7.072c.079.63.361 1.156.847 1.576.486.42 1.116.63 1.891.63.421 0 .874-.085 1.36-.255.499-.171.893-.4 1.182-.69l1.103 1.616c-.959.88-2.266 1.32-3.92 1.32zm2.186-5.89c-.039-.54-.256-1.025-.65-1.459-.381-.433-.945-.65-1.694-.65-.709 0-1.261.217-1.655.65-.394.42-.624.906-.689 1.458h4.688zm8.506 5.653h-2.522v-7.329h-2.66v-2.186h7.841v2.186h-2.659v7.33zm8.661.237c-1.471 0-2.679-.467-3.625-1.4-.946-.932-1.418-2.133-1.418-3.604 0-1.458.472-2.653 1.418-3.586.946-.932 2.154-1.399 3.625-1.399 1.681 0 2.935.572 3.763 1.714l-1.635 1.537c-.46-.683-1.13-1.025-2.01-1.025-.762 0-1.385.257-1.871.769-.473.499-.71 1.162-.71 1.99 0 .827.237 1.497.71 2.01.486.511 1.109.767 1.871.767.854 0 1.524-.341 2.01-1.024l1.635 1.517c-.828 1.156-2.082 1.734-3.763 1.734zm7.92-.237h-2.837L317.505 91c-.591-.144-1.09-.472-1.498-.984-.407-.513-.61-1.17-.61-1.97 0-.88.295-1.616.886-2.207.591-.604 1.392-.906 2.404-.906h5.772v9.515h-2.502v-3.27h-1.95l-1.872 3.27zm.946-5.358h2.876v-2.05h-2.876c-.342 0-.618.093-.828.276a.922.922 0 00-.315.73c0 .315.099.57.296.768.21.184.492.276.847.276zM94.604 118.447h-2.502v-7.329h-3.94v7.329H85.66v-9.515h8.944v9.515zm10.561-1.202c-.919.959-2.14 1.439-3.664 1.439-1.523 0-2.745-.48-3.664-1.439-.907-.971-1.36-2.16-1.36-3.565 0-1.406.453-2.588 1.36-3.547.92-.958 2.14-1.438 3.664-1.438s2.745.48 3.664 1.438c.92.959 1.379 2.141 1.379 3.547 0 1.405-.459 2.594-1.379 3.565zm-5.437-1.576c.433.526 1.024.788 1.773.788.749 0 1.34-.262 1.773-.788.447-.538.67-1.201.67-1.989 0-.775-.223-1.425-.67-1.951-.433-.538-1.024-.808-1.773-.808-.749 0-1.34.27-1.773.808-.433.526-.65 1.176-.65 1.951 0 .788.216 1.451.65 1.989zm17.971 2.778h-3.132l-2.522-3.664-1.142 1.221v2.443h-2.502v-9.515h2.502v4.235l3.605-4.235h3.073l-3.763 4.314 3.881 5.201zm.91 3.724l.374-2.246c.236.105.499.157.788.157.67 0 1.11-.23 1.32-.689l.354-.808-3.861-9.653h2.679l2.483 6.619 2.482-6.619h2.699l-4.472 11.071c-.328.841-.788 1.426-1.379 1.754-.591.341-1.333.525-2.226.551-.46 0-.874-.045-1.241-.137zm19.379-3.724h-2.502v-7.329h-3.94v7.329h-2.502v-9.515h8.944v9.515zm11.783 0h-3.133l-2.522-3.664-1.142 1.221v2.443h-2.502v-9.515h2.502v4.235l3.605-4.235h3.073l-3.762 4.314 3.881 5.201zm9.459 0h-2.502v-.985c-.683.814-1.688 1.222-3.014 1.222a3.572 3.572 0 01-2.305-.828c-.67-.565-1.005-1.34-1.005-2.325 0-1.024.328-1.792.985-2.305.67-.512 1.445-.768 2.325-.768 1.353 0 2.357.388 3.014 1.162v-1.28c0-.486-.19-.873-.571-1.162-.381-.289-.887-.434-1.517-.434-1.038 0-1.964.374-2.778 1.123l-.946-1.674c1.13-.999 2.515-1.498 4.157-1.498 1.222 0 2.22.283 2.995.847.774.565 1.162 1.485 1.162 2.759v6.146zm-4.512-1.458c.933 0 1.603-.276 2.01-.827v-1.182c-.407-.552-1.077-.828-2.01-.828-.512 0-.939.132-1.28.394-.342.25-.512.598-.512 1.045 0 .433.17.774.512 1.024.341.25.768.374 1.28.374zm20.249 1.458h-2.502v-.985c-.683.814-1.687 1.222-3.014 1.222a3.572 3.572 0 01-2.305-.828c-.67-.565-1.005-1.34-1.005-2.325 0-1.024.329-1.792.986-2.305.669-.512 1.444-.768 2.324-.768 1.353 0 2.358.388 3.014 1.162v-1.28c0-.486-.19-.873-.571-1.162-.381-.289-.886-.434-1.517-.434-1.037 0-1.963.374-2.778 1.123l-.945-1.674c1.129-.999 2.515-1.498 4.157-1.498 1.221 0 2.219.283 2.994.847.775.565 1.162 1.485 1.162 2.759v6.146zm-4.511-1.458c.932 0 1.602-.276 2.009-.827v-1.182c-.407-.552-1.077-.828-2.009-.828-.512 0-.939.132-1.281.394-.341.25-.512.598-.512 1.045 0 .433.171.774.512 1.024.342.25.769.374 1.281.374zm13.199 1.458h-6.206v-9.515h6.028c.92 0 1.636.236 2.148.709.512.473.768 1.051.768 1.734 0 .551-.151 1.017-.453 1.398a2.2 2.2 0 01-1.162.769c.525.118.958.394 1.3.827.341.434.512.933.512 1.497 0 .749-.263 1.366-.788 1.852-.512.486-1.228.729-2.147.729zm-.611-2.049c.302 0 .539-.079.709-.236.184-.158.276-.374.276-.65 0-.25-.092-.46-.276-.631-.17-.17-.407-.256-.709-.256h-3.093v1.773h3.093zm-.079-3.822c.263 0 .473-.072.631-.216a.753.753 0 00.256-.572.737.737 0 00-.237-.571c-.157-.158-.374-.236-.65-.236h-3.014v1.595h3.014zm10.302 5.871h-2.521v-7.329h-2.66v-2.186h7.841v2.186h-2.66v7.329zm12.306-1.202c-.919.959-2.141 1.439-3.664 1.439-1.524 0-2.745-.48-3.664-1.439-.907-.971-1.36-2.16-1.36-3.565 0-1.406.453-2.588 1.36-3.547.919-.958 2.14-1.438 3.664-1.438 1.523 0 2.745.48 3.664 1.438.92.959 1.379 2.141 1.379 3.547 0 1.405-.459 2.594-1.379 3.565zm-5.437-1.576c.433.526 1.024.788 1.773.788.749 0 1.34-.262 1.773-.788.447-.538.67-1.201.67-1.989 0-.775-.223-1.425-.67-1.951-.433-.538-1.024-.808-1.773-.808-.749 0-1.34.27-1.773.808-.434.526-.65 1.176-.65 1.951 0 .788.216 1.451.65 1.989zm19.922 2.778h-2.502v-6.186l-2.542 6.186h-1.142l-2.562-6.186v6.186h-2.502v-9.515h3.291l2.344 5.674 2.305-5.674h3.31v9.515zm10.564-1.202c-.919.959-2.14 1.439-3.664 1.439-1.523 0-2.745-.48-3.664-1.439-.907-.971-1.36-2.16-1.36-3.565 0-1.406.453-2.588 1.36-3.547.919-.958 2.141-1.438 3.664-1.438 1.524 0 2.745.48 3.664 1.438.92.959 1.379 2.141 1.379 3.547 0 1.405-.459 2.594-1.379 3.565zm-5.437-1.576c.433.526 1.024.788 1.773.788.749 0 1.34-.262 1.773-.788.447-.538.67-1.201.67-1.989 0-.775-.223-1.425-.67-1.951-.433-.538-1.024-.808-1.773-.808-.749 0-1.34.27-1.773.808-.433.526-.65 1.176-.65 1.951 0 .788.217 1.451.65 1.989zm11.312-.019c.434.538 1.025.807 1.774.807.748 0 1.339-.269 1.773-.807.446-.539.669-1.209.669-2.01 0-.748-.223-1.385-.669-1.911-.434-.538-1.025-.808-1.773-.808-.749 0-1.34.263-1.774.789-.433.525-.65 1.168-.65 1.93 0 .801.217 1.471.65 2.01zm1.774 3.034c-1.55 0-2.778-.506-3.685-1.517-.893-1.025-1.339-2.332-1.339-3.921 0-2.272.407-3.973 1.221-5.102.815-1.13 2.056-1.806 3.724-2.029 1.431-.211 2.147-.48 2.147-.808h2.601c0 1.379-1.32 2.233-3.96 2.561-1.983.263-3.126 1.057-3.428 2.384.788-1.038 1.871-1.557 3.25-1.557 1.327 0 2.404.486 3.231 1.458.841.972 1.261 2.141 1.261 3.507 0 1.405-.459 2.594-1.379 3.566-.906.972-2.121 1.458-3.644 1.458zm9.36-.237h-2.403v-9.515h2.502v5.752l3.92-5.752h2.522v9.515h-2.502v-5.969l-4.039 5.969zm8.138.237v-2.049c.394 0 .709-.23.946-.69.236-.473.427-1.274.571-2.403l.611-4.61h7.703v9.515h-2.502v-7.329h-3.014l-.316 2.719c-.197 1.668-.617 2.896-1.26 3.684-.631.775-1.544 1.163-2.739 1.163zm14.836-.237h-2.837l2.207-3.447c-.591-.145-1.09-.473-1.497-.986-.408-.512-.611-1.168-.611-1.97 0-.88.295-1.615.886-2.206.591-.604 1.393-.906 2.404-.906h5.772v9.515h-2.502v-3.27h-1.95l-1.872 3.27zm.946-5.358h2.876v-2.049h-2.876c-.342 0-.617.092-.828.276a.918.918 0 00-.315.728c0 .316.099.572.296.769.21.184.492.276.847.276zm9.553 1.339c-.434-.473-.65-1.05-.65-1.733 0-.526.151-.999.453-1.419.302-.42.63-.735.985-.946.354-.21.683-.459.985-.748.302-.289.453-.578.453-.867a.989.989 0 00-.394-.808c-.25-.21-.63-.315-1.143-.315-.932 0-1.74.407-2.423 1.222l-1.596-1.793c1.09-1.274 2.529-1.911 4.315-1.911 1.261 0 2.259.289 2.994.867.736.564 1.104 1.313 1.104 2.246 0 .525-.112.998-.335 1.418-.224.42-.499.762-.828 1.024-.315.263-.637.506-.965.729a4.185 4.185 0 00-.828.729c-.223.263-.334.545-.334.847 0 .342.118.618.354.828l-2.147.63zm2.068 3.763a1.534 1.534 0 01-1.123.473c-.433 0-.807-.158-1.123-.473a1.533 1.533 0 01-.472-1.123c0-.433.157-.808.472-1.123.316-.315.69-.473 1.123-.473.434 0 .808.158 1.123.473.316.315.473.69.473 1.123 0 .434-.157.808-.473 1.123z" fill="#253942"/><path d="M322 28l16.355 16.355m0-16.355L322 44.355" stroke="#474747" stroke-width="1.487" stroke-miterlimit="2.366" stroke-linecap="round"/><defs><filter id="filter0_dd_0_2089" x=".2" y=".629" width="375.6" height="638.6" filterUnits="userSpaceOnUse" color-interpolation-filters="sRGB"><feFlood flood-opacity="0" result="BackgroundImageFix"/><feColorMatrix in="SourceAlpha" values="0 0 0 0 0 0 0 0 0 0 0 0 0 0 0 0 0 0 127 0" result="hardAlpha"/><feMorphology radius="2.971" in="SourceAlpha" result="effect1_dropShadow_0_2089"/><feOffset dy="7.429"/><feGaussianBlur stdDeviation="11.886"/><feColorMatrix values="0 0 0 0 0.0941176 0 0 0 0 0.152941 0 0 0 0 0.294118 0 0 0 0.1 0"/><feBlend in2="BackgroundImageFix" result="effect1_dropShadow_0_2089"/><feColorMatrix in="SourceAlpha" values="0 0 0 0 0 0 0 0 0 0 0 0 0 0 0 0 0 0 127 0" result="hardAlpha"/><feMorphology radius="4.457" in="SourceAlpha" result="effect2_dropShadow_0_2089"/><feOffset dy="4.457"/><feGaussianBlur stdDeviation="5.2"/><feColorMatrix values="0 0 0 0 0.0941176 0 0 0 0 0.152941 0 0 0 0 0.294118 0 0 0 0.12 0"/><feBlend in2="effect1_dropShadow_0_2089" result="effect2_dropShadow_0_2089"/><feBlend in="SourceGraphic" in2="effect2_dropShadow_0_2089" result="shape"/></filter></defs></svg>