<svg width="19" height="20" fill="none" xmlns="http://www.w3.org/2000/svg"><path d="M9.198 14.413c-.294 0-.577.26-.563.564.014.306.247.565.563.565.295 0 .577-.26.563-.565-.013-.305-.247-.564-.563-.564z" fill="#253942"/><path d="M18.926 18.164l-1.305-3.802a9.35 9.35 0 00.962-4.111 9.259 9.259 0 00-2.669-6.532A9.22 9.22 0 009.442.93a9.254 9.254 0 00-6.72 2.725A9.27 9.27 0 00.703 6.678a9.269 9.269 0 00-.702 3.708 9.25 9.25 0 002.784 6.483 9.227 9.227 0 006.506 2.673h.015a9.307 9.307 0 004.104-.963l3.796 1.307a1.343 1.343 0 001.396-.323c.37-.37.493-.906.324-1.4zm-1.12.601a.217.217 0 01-.234.055l-4.022-1.385a.561.561 0 00-.447.035 8.168 8.168 0 01-3.799.945c-4.436.007-8.106-3.603-8.176-8.046a8.123 8.123 0 012.39-5.916A8.095 8.095 0 019.424 2.06c4.436.07 8.039 3.745 8.032 8.19a8.204 8.204 0 01-.943 3.806.565.565 0 00-.035.447l1.382 4.03a.218.218 0 01-.054.233z" fill="#253942"/><path d="M9.198 5.676a2.808 2.808 0 00-2.802 2.807.564.564 0 101.126 0 1.68 1.68 0 011.676-1.679 1.68 1.68 0 010 3.357.564.564 0 00-.563.565v2.3a.564.564 0 101.126 0v-1.793a2.808 2.808 0 00-.563-5.557z" fill="#253942"/></svg>