<svg width="26" height="26" fill="none" xmlns="http://www.w3.org/2000/svg"><path d="M25.538 15.48L9.57 8.57a.764.764 0 00-1 1.001l6.909 15.967a.763.763 0 001.444-.132l1.602-6.88 6.88-1.602a.762.762 0 00.132-1.444zM9.902 6.094c.421 0 .762-.34.762-.762V.762a.761.761 0 10-1.523 0v4.57c0 .421.34.762.761.762zm-3.77 6.501L2.9 15.827a.761.761 0 101.078 1.077l3.232-3.232a.761.761 0 10-1.078-1.077zm7.54-5.385l3.232-3.232A.761.761 0 1015.827 2.9l-3.232 3.232a.762.762 0 101.077 1.078zM3.977 2.9A.761.761 0 102.9 3.977L6.132 7.21A.761.761 0 107.21 6.132L3.977 2.9zm2.117 7.002a.761.761 0 00-.762-.761H.762a.761.761 0 100 1.523h4.57c.421 0 .762-.34.762-.762z" fill="#253942"/></svg>