<svg width="26" height="29" fill="none" xmlns="http://www.w3.org/2000/svg"><path d="M17.944 3.103h-9.43C3.812 3.103 0 7.026 0 11.864V28.54l7.395-3.103h9.43c4.703 0 8.515-3.922 8.515-8.761V0l-7.396 3.103zM6.217 16.395c-1.19 0-2.154-.992-2.154-2.216 0-1.225.964-2.217 2.154-2.217s2.154.992 2.154 2.216c0 1.225-.965 2.217-2.154 2.217zm6.635 0c-1.19 0-2.154-.992-2.154-2.216 0-1.225.965-2.217 2.154-2.217 1.19 0 2.154.992 2.154 2.216 0 1.225-.964 2.217-2.154 2.217zm6.636 0c-1.19 0-2.154-.992-2.154-2.216 0-1.225.964-2.217 2.154-2.217s2.154.992 2.154 2.216c0 1.225-.964 2.217-2.154 2.217z" fill="#FF5273"/></svg>