<svg width="26" height="21" fill="none" xmlns="http://www.w3.org/2000/svg"><path d="M8.273 0h-7.09C.53 0 0 .53 0 1.182v7.09c0 .653.53 1.182 1.182 1.182h7.091c.653 0 1.182-.529 1.182-1.181V1.182C9.455.529 8.925 0 8.273 0zM7.091 7.09H2.364V2.365h4.727V7.09zM25 3.546H15c-.552 0-1 .529-1 1.181 0 .653.448 1.182 1 1.182h10c.552 0 1-.529 1-1.182 0-.652-.448-1.181-1-1.181zm0 11.817H15c-.552 0-1 .53-1 1.182 0 .653.448 1.182 1 1.182h10c.552 0 1-.53 1-1.182 0-.653-.448-1.182-1-1.182zM7.446 13.341l-3.934 3.887-1.48-1.536a1.182 1.182 0 00-1.7 1.644l2.31 2.4c.22.224.52.352.835.354h.014c.31 0 .607-.123.828-.341L9.1 15.022a1.182 1.182 0 10-1.654-1.68z" fill="#253942"/></svg>