<svg width="28" height="20" fill="none" xmlns="http://www.w3.org/2000/svg"><path d="M24.715 1H3.285C2.028 1 1 2.033 1 3.306v13.84c0 1.273 1.028 2.306 2.285 2.306h21.43c1.257 0 2.285-1.033 2.285-2.307V3.306A2.298 2.298 0 0024.715 1zm-.351 1.538l-9.774 9.897c-.297.301-.882.301-1.18 0L3.636 2.538h20.728zM2.524 16.863V3.589l6.554 6.637-6.555 6.636zm1.112 1.051l6.517-6.6 2.178 2.206c.892.904 2.446.903 3.338 0l2.178-2.205 6.517 6.599H3.636zm21.84-1.052l-6.553-6.636 6.554-6.637v13.274z" fill="#253942" stroke="#006964" stroke-width=".3"/></svg>