<svg width="22" height="24" fill="none" xmlns="http://www.w3.org/2000/svg"><path d="M17.5 15.25a4.32 4.32 0 00-3.49 1.788l-5.434-3.622a4.032 4.032 0 000-2.832l5.433-3.622a4.317 4.317 0 10-.843-2.545c.008.157.024.315.048.47l-5.84 3.894a4.333 4.333 0 100 6.438l5.84 3.893a4.23 4.23 0 00-.048.471A4.334 4.334 0 1017.5 15.25zm0-13a2.167 2.167 0 110 4.333 2.167 2.167 0 010-4.333zm-13 11.917a2.166 2.166 0 110-4.333 2.166 2.166 0 010 4.333zm13 7.583a2.167 2.167 0 110-4.334 2.167 2.167 0 010 4.334z" fill="#253942"/></svg>