<svg width="26" height="26" fill="none" xmlns="http://www.w3.org/2000/svg"><path d="M13 .004C8.996.004 5.366 1.882 2.991 4.73l-.974-.96a.707.707 0 00-.777-.182.703.703 0 00-.503.609l-.73 5.025c-.083.618.63.971.868.853l5.024-.716a.721.721 0 00.61-.503.767.767 0 00-.183-.791L5.169 6.907A9.973 9.973 0 0113 3.101c5.436 0 9.44 2.933 9.455 8.369v.03c0 .194-.007.387-.019.58-.03.48.391.87.871.8l1.535-.225a.76.76 0 00.65-.726c.005-.144.008-.288.008-.429C25.5 4.371 20.16.004 13 .004zm12.126 15.767l-5.025.716a.721.721 0 00-.609.503.767.767 0 00.183.791L20.893 19A9.95 9.95 0 0113 22.898c-5.45 0-8.5-2.898-9.467-8.298.005-.1-.012-.312.02-.718a.762.762 0 00-.864-.817l-1.535.216A.761.761 0 00.5 14c-.02.424-.01.766-.013.92C1.154 22.075 5.965 25.994 13 25.994c4.05 0 7.71-1.909 10.086-4.817l.898.898c.2.222.532.28.776.183a.703.703 0 00.503-.61l.73-5.024c.064-.471-.371-.935-.867-.853z" fill="#253942"/></svg>