<svg width="46" height="47" fill="none" xmlns="http://www.w3.org/2000/svg"><path d="M0 23.23c0 12.68 10.29 22.96 22.985 22.96 12.694 0 22.984-10.28 22.984-22.96C45.97 10.549 35.68.269 22.985.269 10.29.269 0 10.549 0 23.229z" fill="#4A505F"/><path fill-rule="evenodd" clip-rule="evenodd" d="M33.977 12.354c-2.865-2.862-6.685-4.389-10.697-4.389C14.876 7.965 8 14.835 8 23.23c0 2.671.764 5.342 2.101 7.632L8 38.494l8.022-2.099c2.292 1.145 4.775 1.908 7.258 1.908 8.405 0 15.28-6.868 15.28-15.264 0-4.007-1.718-7.823-4.583-10.685zM23.28 35.823c-2.292 0-4.584-.572-6.494-1.717l-.382-.191-4.775 1.336 1.337-4.58-.382-.572c-1.337-2.099-1.91-4.389-1.91-6.678 0-6.87 5.73-12.594 12.606-12.594 3.438 0 6.494 1.336 8.978 3.626 2.483 2.48 3.629 5.533 3.629 8.968 0 6.678-5.54 12.402-12.607 12.402zm6.877-9.54c-.383-.191-2.293-1.145-2.674-1.145-.383-.19-.574-.19-.765.19-.19.382-.955 1.146-1.146 1.527-.19.19-.382.19-.764.19-.382-.19-1.528-.572-3.056-1.907-1.146-.954-1.91-2.29-2.1-2.671-.192-.382 0-.573.19-.764l.573-.572c.191-.19.191-.382.382-.573.191-.19 0-.381 0-.572 0-.19-.764-2.099-1.146-2.862-.19-.572-.573-.572-.764-.572h-.764c-.19 0-.573 0-.955.381-.382.382-1.337 1.336-1.337 3.244 0 1.908 1.337 3.625 1.528 4.007.191.19 2.674 4.198 6.494 5.724 3.247 1.336 3.82.954 4.584.954.764 0 2.293-.954 2.483-1.717.383-.954.383-1.718.192-1.718-.191-.953-.573-.953-.955-1.144z" fill="#fff"/></svg>