<svg width="108" height="44" fill="none" xmlns="http://www.w3.org/2000/svg"><path d="M71.026 38.669l-.858 4.808h-1.326l.177-1.005c-.508.769-1.063 1.217-2.128 1.217-1.128 0-2.004-.657-2.052-2.16-.01-.323.014-.672.624-3.997.389-2.1 1.567-3.176 3.512-3.183 1.71 0 2.346.923 2.382 2.037.006.347-.032.694-.114 1.032h-1.694c.05-.262.074-.529.073-.796-.022-.646-.31-.907-.884-.907-.867 0-1.31.486-1.53 1.704-.574 3.267-.612 3.615-.603 3.9.023.684.293 1.007.928 1.007.743 0 1.346-.512 1.558-2.325h-1.13l.242-1.332h2.823zm2.041 4.807h-1.695l1.614-8.97h3.53c1.164 0 1.832.744 1.865 1.763.05 1.529-.917 2.622-1.77 2.684v.013c.735.124.951.659.967 1.127.013.41-.386 2.211-.37 2.696.009.248.088.423.274.423l-.054.26h-1.697c-.153-.148-.206-.384-.22-.657-.021-.658.323-1.877.31-2.311-.016-.471-.239-.832-.832-.831h-1.237l-.685 3.803zm.91-5.082h1.14c.657 0 1.522-.448 1.478-1.765-.02-.62-.422-.795-1.054-.794H74.44l-.461 2.559zm11.245-2.057c.015.448-.015.671-.662 4.324-.412 2.287-1.698 3.02-3.42 3.022-1.412 0-2.407-.52-2.457-2.012-.014-.448.03-.633.666-4.262.396-2.261 1.77-3.074 3.467-3.074 1.424 0 2.358.52 2.406 1.998v.004zm-4.096.868c-.69 3.865-.713 3.94-.704 4.202.02.584.327.907.959.907.73 0 1.236-.498 1.401-1.442.692-3.852.7-3.927.693-4.202-.02-.61-.33-.97-.9-.968-.804 0-1.281.547-1.45 1.503zm7.418-2.708l-1.134 6.312c-.04.197-.057.397-.054.597.02.585.309.857.927.856.842 0 1.211-.447 1.39-1.455l1.133-6.312h1.697l-1.171 6.558c-.294 1.615-1.303 2.572-3.286 2.573-1.634 0-2.399-.644-2.437-1.812a3.382 3.382 0 01.062-.758l1.171-6.558 1.702-.001zm5.276 8.966h-1.697l1.613-8.97h3.208c1.214 0 1.897.82 1.934 1.937.058 1.752-1.252 3.381-2.91 3.381H94.48l-.66 3.652zm.901-4.983h.855c.954 0 1.575-.683 1.54-1.763-.02-.573-.377-.895-1.07-.895h-.855l-.47 2.658zM39.368.41h10.568L48.7 30.23h-6.446l.39-7.115H39.61l-1.805 7.115h-6.492L39.368.41zm1.002 19.11h2.577l.761-10.297.567-5.293h-.373l-1.066 5.293-2.466 10.296zm22.725-8.972l.914-5.916c.05-.331-.022-.57-.221-.717a.96.96 0 00-.59-.233.689.689 0 00-.585.29c-.13.17-.218.37-.256.58l-3.306 21.422a.912.912 0 00.128.687.594.594 0 00.515.264c.584 0 .921-.307 1.014-.91l1.047-6.783h-1.04l.544-3.515h7.945l-2.241 14.518h-3.578l-.347-1.53c-.618.638-1.133 1.059-1.529 1.282a4.002 4.002 0 01-1.293.455c-.42.078-.843.133-1.268.166-.378.025-.824.042-1.321.042-1.498 0-2.666-.14-3.514-.41-.849-.27-1.453-.779-1.821-1.505-.368-.727-.489-1.58-.34-2.549l3.353-21.761c.234-1.515 1.038-2.632 2.413-3.35C59.092.357 61.136-.001 63.849 0c2.022 0 3.513.156 4.46.48.949.323 1.666.835 2.128 1.57.462.684.646 1.518.515 2.333l-.95 6.164h-6.907zM77.831.41h10.566L87.16 30.23h-6.443l.392-7.115H78.07l-1.808 7.12h-6.493L77.831.41zm1.007 19.112h2.577l.756-10.3.567-5.292h-.375l-1.066 5.293-2.459 10.3zM92.446.413H108l-.649 4.219h-4.284l-3.952 25.603h-7.029l3.951-25.603h-4.242l.65-4.219z" fill="#253942"/><path fill-rule="evenodd" clip-rule="evenodd" d="M33.68 8.184c.103-.41.206-.78.31-1.19l-3.373.021a7463.666 7463.666 0 00-3.544 3.31l2.457-.04c.618-.438.383-1.024.779-1.883a2.02 2.02 0 011.422-.717c.31 0 1.237.217 1.443.494l.506.005zM27.553 15.1h3.38a.156.156 0 01.15.158v.54a.155.155 0 01-.15.16h-3.38a.157.157 0 01-.14-.101.154.154 0 01-.01-.06v-.539a.155.155 0 01.15-.158z" fill="#253942"/><path fill-rule="evenodd" clip-rule="evenodd" d="M10.678.341L0 40.257l8.39-12.478 8.348-.01-.249 2.404h11.3l2.36-8.916h-1.051l-.242 1.029H24.08l-.084-.775h-.758c-.884-2.656-1.906-7.838-1.325-8.292l3.318-2.588-.316-.691c-.17.056-.39.18-.559.238-.757.027-1.34-.01-2.094.018-.363-.384-.478-.787-.012-1.14.954-.056 1.73-.022 2.68 0 .365.401.72.655 1.081 1.056l4.214-3.771 3.968-.09L35.627.34h-24.95zm6.605 22.046l-5.462.037 6.466-9.865-1.004 9.829z" fill="#253942"/></svg>