<svg width="153" height="45" fill="none" xmlns="http://www.w3.org/2000/svg"><path fill-rule="evenodd" clip-rule="evenodd" d="M33.493 26.032h1.65c2.572 0 7.207-.888 7.207-4.603v-1.238c0-4.063-4.222-5.206-7.238-5.206l-1.619.031v11.016zm0 3.905l-.032 14.318-5.905-3.555V11.238l10.318-.031c4.35 0 10.16 3.238 10.16 8.984v1.238c0 5.81-5.842 8.508-10.096 8.508h-4.445zm-19.239-3.873h6.064v-9.62l-6.064 9.62zm6.064 3.873h-8.667L7.62 36.446H0l16.413-25.24 10.032.032.032 28.89-6.159-3.682v-6.509zm81.495-18.73h6.095v10.857h9.397V11.207l6-3.62v28.7h-6V26.16h-9.397v10.127h-6.095v-25.08zm22.223-3.873h28.128l-6.572 4.92h-7.81v24.033h-6.095V12.254h-7.62v-4.92h-.031zM55.811 3.65v14.192l8.73-6.603 4.636 2.825-8.19 6.254 10.444 16.16h-7.302l-8.318-12.985v12.984H49.78V0l6.032 3.65z" fill="#253942"/><path fill-rule="evenodd" clip-rule="evenodd" d="M84.638 7.334c4.54 0 8.667 1.841 11.65 4.825a16.437 16.437 0 014.826 11.651c0 4.54-1.84 8.667-4.825 11.652a16.437 16.437 0 01-11.651 4.825c-4.54 0-8.667-1.841-11.651-4.825A16.437 16.437 0 0168.16 23.81a16.43 16.43 0 014.826-11.65 16.381 16.381 0 0111.65-4.826zm7.302 9.175a10.266 10.266 0 00-7.302-3.017 10.266 10.266 0 00-7.302 3.017 10.266 10.266 0 00-3.016 7.301c0 2.858 1.143 5.43 3.016 7.302a10.266 10.266 0 007.302 3.016c2.857 0 5.428-1.143 7.302-3.016a10.267 10.267 0 003.016-7.302c.031-2.857-1.143-5.428-3.016-7.301z" fill="#253942"/></svg>