<svg width="189" height="48" fill="none" xmlns="http://www.w3.org/2000/svg"><path d="M174.238 18.635h7.445l-.772 4.348h3.115a5.128 5.128 0 013.017.715c.341.274.609.629.781 1.032a2.7 2.7 0 01.207 1.28c-.007.414-.05.827-.129 1.233-.276 1.536-.834 2.634-1.674 3.275a6.022 6.022 0 01-3.68.962h-7.341l1.754-9.756h-3.262l.539-3.089zm6.133 7.277l-.454 2.614h2.128c.43.03.859-.076 1.227-.302.289-.254.476-.604.527-.987.025-.138.039-.278.043-.419a.772.772 0 00-.313-.703 1.945 1.945 0 00-1.03-.203h-2.128zm-13.492 2.62l1.227-6.962h-2.956l-.184 1.37a17.301 17.301 0 01-.865 3.305 9.396 9.396 0 01-1.422 2.287h4.2zm-8.438 0a9.253 9.253 0 001.601-2.405 14.25 14.25 0 00.993-3.311l.73-4.18h11.088l-1.754 9.896h1.226l-1.122 6.26h-3.784l.613-3.343h-7.573l-.614 3.318h-3.747l1.123-6.26 1.22.025zM151.56 27.3c0-.506-.165-.826-.49-.962a4.4 4.4 0 00-1.583-.203 2.976 2.976 0 00-1.404.27 1.424 1.424 0 00-.662 1.074c0 .616.153.993.454 1.153.347.175.733.258 1.122.24.479.013.957-.024 1.429-.11a1.35 1.35 0 00.803-.395 2.09 2.09 0 00.374-1.036l-.043-.031zm-.239 2.232h-.147c-.485 1.363-1.84 2.054-4.029 2.054a8.624 8.624 0 01-2.22-.235 2.449 2.449 0 01-1.349-.844 2.701 2.701 0 01-.473-1.684c.006-.414.049-.827.129-1.233a5.433 5.433 0 01.951-2.393 3.677 3.677 0 011.766-1.264 9.578 9.578 0 014.845-.123 1.314 1.314 0 01.993 1.19h.19l.368-2.029c.072-.297.113-.6.123-.906a.94.94 0 00-.35-.796 2.343 2.343 0 00-1.3-.265 2.566 2.566 0 00-1.337.29 1.537 1.537 0 00-.613 1.11h-4.139a5.335 5.335 0 01.895-2.245c.379-.52.889-.928 1.478-1.184a6.104 6.104 0 011.84-.444c.613-.061 1.441-.086 2.422-.086a16.165 16.165 0 013.103.228 2.863 2.863 0 011.699.9c.422.578.627 1.289.576 2.005-.017.62-.083 1.239-.196 1.85l-1.441 8.016h-4.244l.46-1.912zm-18.943 0L131.084 37h-4.183l3.281-18.382h4.183l-.442 2.022h.196a3.3 3.3 0 011.546-1.702 5.815 5.815 0 012.496-.475 4.973 4.973 0 013.066.802 3.023 3.023 0 011.049 2.572c.002.46-.039.921-.123 1.375l-.54 2.929a9.615 9.615 0 01-1.042 3.17 4.24 4.24 0 01-1.84 1.75 6.717 6.717 0 01-2.919.556 4.443 4.443 0 01-2.122-.432 2.24 2.24 0 01-1.055-1.653h-.257zm.803-4.47a13.068 13.068 0 00-.215 1.763 1.578 1.578 0 00.387 1.178c.379.298.858.437 1.337.389a3.53 3.53 0 001.441-.235c.387-.2.691-.532.858-.937.298-.69.504-1.415.614-2.158.121-.61.192-1.229.214-1.85a1.375 1.375 0 00-.417-1.184 2.662 2.662 0 00-1.515-.309 2.906 2.906 0 00-1.386.272 1.81 1.81 0 00-.772.974 11.61 11.61 0 00-.503 2.097h-.043zM120.56 31.45l2.527-14.084h7.604l.754-4.249h-12.473l-3.275 18.333h4.863zm-11.652-9.755a3.58 3.58 0 00-1.551.259 1.73 1.73 0 00-.779.919 12.168 12.168 0 00-.546 2.176 13.49 13.49 0 00-.245 1.93 1.237 1.237 0 00.417 1.11c.466.235.989.335 1.508.29.413.014.826-.03 1.227-.13.282-.08.531-.248.711-.48.209-.297.362-.63.454-.98.117-.426.239-1 .368-1.74.145-.67.235-1.35.27-2.035a1.579 1.579 0 00-.172-.795.85.85 0 00-.558-.401 3.505 3.505 0 00-1.128-.111l.024-.012zm.509-3.225c1.11-.03 2.219.07 3.306.296a2.839 2.839 0 011.711 1.042c.391.643.576 1.393.527 2.146a19.35 19.35 0 01-.343 3.083 14.241 14.241 0 01-1.227 4.107 3.987 3.987 0 01-2.177 1.905 12.203 12.203 0 01-4.152.543 12.678 12.678 0 01-3.262-.333 2.96 2.96 0 01-1.723-1.122 3.951 3.951 0 01-.528-2.214c.025-.97.132-1.935.319-2.886.174-1.126.46-2.23.852-3.3a5.087 5.087 0 011.288-1.966 4.637 4.637 0 012.085-1.012 14.69 14.69 0 013.3-.259l.024-.03zm-7.248.154l-.534 3.083h-3.348l-1.773 9.743h-4.188l1.754-9.755h-3.318l.534-3.084 10.873.013zM81.986 21.33l-.41 2.22h2.097c.378.03.758-.046 1.097-.216a1.31 1.31 0 00.436-.882c0-.197.043-.327.043-.37 0-.512-.374-.758-1.123-.758h-2.14v.006zm-3.49-2.695h6.912a6.017 6.017 0 012.913.549 2.024 2.024 0 01.975 1.936c0 .285-.024.57-.073.851a3.146 3.146 0 01-.834 1.758 3.5 3.5 0 01-1.718.875v.099c1.374.234 2.067.999 2.067 2.3 0 .245-.027.489-.08.728a5.222 5.222 0 01-.858 2.263 3.2 3.2 0 01-1.662 1.128 9.323 9.323 0 01-2.735.327h-7.175l2.269-12.814zm2.607 7.499l-.454 2.62h2.239c.438.035.876-.063 1.257-.283a1.466 1.466 0 00.533-1.018 4.33 4.33 0 00.05-.413.787.787 0 00-.32-.728 2.173 2.173 0 00-1.067-.185h-2.238v.007zM69.451 24.74l-.822-7.949h-.049l-3.636 7.949h4.507zm.344 3.577H63.27l-1.46 3.132h-5.06l8.752-18.333h7.396L75.16 31.45h-4.962l-.404-3.133z" fill="#253942"/><path fill-rule="evenodd" clip-rule="evenodd" d="M50.164 11.143l-17.735 4.44L26.983 0l-5.519 18.333-17.73 4.446 13.713 6.58L0 37.332l17.576-5.963 15.331-5.205-16.318 8.504L12.602 48l14.381-14.084 14.314 6.888-5.477-15.59 14.344-14.071zM25.082 26.374l2.662-9.33 2.637 7.511-5.299 1.82z" fill="#253942"/></svg>