<svg width="117" height="32" fill="none" xmlns="http://www.w3.org/2000/svg"><mask id="b" style="mask-type:alpha" maskUnits="userSpaceOnUse" x="0" y="0" width="117" height="32"><path fill-rule="evenodd" clip-rule="evenodd" d="M24.221 5.602H6.831a1.243 1.243 0 00-1.242 1.24V31H1.863A1.865 1.865 0 010 29.14V1.86A1.858 1.858 0 011.863 0H29.19a1.865 1.865 0 011.863 1.86v27.28A1.858 1.858 0 0129.19 31h-3.726V6.842a1.24 1.24 0 00-1.242-1.24z" fill="#32377D"/><mask id="a" style="mask-type:alpha" maskUnits="userSpaceOnUse" x="0" y="0" width="32" height="31"><path d="M29.19 0H1.864A1.862 1.862 0 00.001 1.86v27.28c0 1.027.834 1.86 1.863 1.86H29.19a1.862 1.862 0 001.864-1.86V1.86C31.054.833 30.219 0 29.19 0z" fill="#fff"/></mask><g mask="url(#a)"><path fill-rule="evenodd" clip-rule="evenodd" d="M31.054 31h-5.59c0-5.094-5.282-7.944-7.854-10.42-2.301-2.222-2.326-5.005 4.167-6.242L31.054 31zM13.53 24.305c.844 2.332-.573 5.184-3.34 6.695H0l7.995-14.27 6.989-12.65a.62.62 0 011.086-.001l5.223 9.39c-4.447.203-8.067 1.116-9.65 2.86-2.776 3.035.95 5.388 1.886 7.976z" fill="#E5682C"/></g><path fill-rule="evenodd" clip-rule="evenodd" d="M44.406 15.51l-7.142 15.498 4.969.001 1.362-3.506h7.79l1.716 3.506h4.968l-7.142-15.5h-6.52zm3.087 2.666l.018-.04.004-.001.15-.049.04.05 2.589 6.454h-5.409l2.608-6.414zM75.53 16.51c-.991-.808-2.246-1.092-3.523-1H60.864v15.5l11.488.037c1.552 0 2.712-.111 3.512-.878.8-.766 1.193-1.903 1.193-3.44v-.02c0-.271-.016-.541-.05-.81a4.855 4.855 0 00-.154-.761 3.005 3.005 0 00-1.58-1.97l.062-.04a3.76 3.76 0 001.446-3.175 4.46 4.46 0 00-1.252-3.443zm9.556 14.5h4.969v-12.4h6.21v-3.1l-17.39-.002v3.101h6.211v12.4zm22.285-15.67c-2.999 0-5.374.293-7.019 1.512-1.673 1.24-2.56 3.276-2.56 6.497 0 3.22.89 5.256 2.568 6.496 1.646 1.22 4.009 1.384 7.006 1.384 2.998 0 5.351-.163 6.984-1.383 1.658-1.242 2.537-3.273 2.537-6.497 0-3.222-.877-5.256-2.536-6.496-1.63-1.22-3.98-1.514-6.98-1.514zm-5.24 8.008c0-1.845.363-3.098 1.176-3.869l.001.005c.819-.777 2.134-1.11 4.03-1.11 1.907 0 3.231.336 4.04 1.105.809.768 1.167 2.02 1.167 3.874 0 1.842-.361 3.09-1.18 3.867-.818.776-2.134 1.11-4.03 1.11-1.885 0-3.212-.345-4.024-1.116-.812-.77-1.18-2.022-1.18-3.866zm2.521-11.534h1.932a.253.253 0 00.239-.177l1.096-2.747h5.436l1.118 2.762a.246.246 0 00.231.162h1.93a.26.26 0 00.253-.27.294.294 0 00-.028-.124L112.298.174a.254.254 0 00-.231-.162h-2.771a.254.254 0 00-.238.178l-4.638 11.245a.279.279 0 00.129.355.239.239 0 00.102.024zm5.992-9.929l2.069 5.247h-4.155l2.086-5.247zm-65.3.105v9.55a.26.26 0 00.253.271h1.843a.262.262 0 00.252-.27V.314a.261.261 0 00-.252-.27h-.04L45.97.04 44.542.037c-2.343-.004-4.686-.001-7.028.008a.261.261 0 00-.249.27V11.54a.262.262 0 00.253.27h1.843a.262.262 0 00.251-.269V1.99h5.731zm3.103 9.825h1.894l.002-.003a.248.248 0 00.23-.18l3.68-9.492 3.666 9.514a.249.249 0 00.225.164h1.891a.26.26 0 00.246-.27.287.287 0 00-.028-.124L55.843.2a.243.243 0 00-.224-.161h-2.74a.249.249 0 00-.234.19l-4.423 11.21a.28.28 0 00.127.353c.03.014.064.022.097.022zM83.954.043H82.13V.04a.261.261 0 00-.248.269v4.474h-5.815V.31a.261.261 0 00-.252-.27h-1.842a.264.264 0 00-.253.277v11.23a.262.262 0 00.253.27h1.843a.26.26 0 00.249-.27v-4.82h5.815v4.82a.26.26 0 00.251.27h1.844a.262.262 0 00.252-.27V.313a.261.261 0 00-.252-.27h-.02zm11.421 11.503v-1.4l-.001-.005a.262.262 0 00-.253-.27h-.02l-6.827.006v-3.11h6.617a.262.262 0 00.252-.269V5.103a.262.262 0 00-.252-.27h-6.617V1.984l6.782-.006a.26.26 0 00.252-.269V.31a.26.26 0 00-.252-.27h-.019L86.218.01a.261.261 0 00-.248.27v11.27a.26.26 0 00.252.27h.024l8.881-.005a.261.261 0 00.248-.269zm7.178-.001V1.982l3.852-.005a.264.264 0 00.252-.27V.308a.252.252 0 00-.07-.187.256.256 0 00-.182-.083H96.58a.262.262 0 00-.253.27v1.4a.261.261 0 00.253.27h3.63v9.566a.262.262 0 00.252.27h1.843a.26.26 0 00.248-.269zm-41.504.267h1.888-.001a.248.248 0 00.232-.178l1.072-2.746h5.311l1.094 2.762a.249.249 0 00.226.162h1.887a.261.261 0 00.233-.17.258.258 0 00.015-.1.29.29 0 00-.027-.125L68.524.172a.248.248 0 00-.226-.162h-2.707a.249.249 0 00-.232.178l-4.534 11.245a.28.28 0 00.124.355.221.221 0 00.1.024zm5.855-9.93l2.023 5.247h-4.06l2.037-5.246zM64.59 18.61h6.52c.858 0 1.553.555 1.553 1.24 0 .685-.695 1.24-1.552 1.24H64.59v-2.48zm0 6.2h6.831c1.03 0 1.863.695 1.863 1.55 0 .856-.834 1.55-1.863 1.55H64.59v-3.1z" fill="#2E2D77"/></mask><g mask="url(#b)"><path fill="#253942" d="M.001-1h117v33h-117z"/></g></svg>