<svg width="371" height="426" fill="none" xmlns="http://www.w3.org/2000/svg"><g filter="url(#filter0_d_0_2481)"><rect x="36" y="23" width="289.975" height="344.93" rx="16.23" fill="#fff"/><rect x="36.541" y="23.541" width="288.893" height="343.848" rx="15.689" stroke="#F8F9FA" stroke-width="1.082"/></g><path stroke="#CBCBCB" stroke-width="1.082" d="M67.57 165.108h226.835M67.57 195.509h226.835M67.57 228.248h226.835M67.57 260.987h226.835"/><path d="M88.43 54.998H66.587c-.748 0-1.356.607-1.356 1.356v21.843c0 .749.608 1.356 1.356 1.356h11.76v-9.509h-3.2v-3.706h3.2v-2.733c0-3.171 1.936-4.899 4.765-4.899 1.356 0 2.52.101 2.859.145v3.315h-1.963c-1.538 0-1.835.732-1.835 1.805v2.366h3.67l-.48 3.705h-3.19v9.51h6.256c.75 0 1.357-.608 1.357-1.355V56.353c0-.748-.608-1.355-1.356-1.355zm25.858 10.001h-2.026V59.96h-6.007v5.038h-2.025V53.452h2.025v4.726h6.007v-4.726h2.026v11.547zm6.174.207c-1.292 0-2.331-.421-3.116-1.264-.785-.854-1.177-1.898-1.177-3.133s.392-2.274 1.177-3.116c.785-.843 1.824-1.264 3.116-1.264 1.304 0 2.349.421 3.134 1.264.785.842 1.177 1.881 1.177 3.116 0 1.247-.392 2.291-1.177 3.134-.785.842-1.83 1.263-3.134 1.263zm0-1.61c.75 0 1.339-.265 1.766-.796.439-.542.658-1.206.658-1.991 0-.773-.219-1.425-.658-1.956-.427-.543-1.016-.814-1.766-.814-.738 0-1.327.271-1.766.814-.427.53-.64 1.183-.64 1.956 0 .785.213 1.449.64 1.99.439.532 1.028.797 1.766.797zM131.737 65h-5.125v-8.362h5.003c.774 0 1.38.202 1.818.606.439.404.658.917.658 1.54 0 .485-.133.895-.398 1.23-.266.334-.6.56-1.004.675.45.104.825.352 1.125.744.3.381.45.814.45 1.299 0 .67-.225 1.217-.675 1.644-.439.416-1.056.624-1.852.624zm-.381-1.593c.323 0 .577-.081.761-.242.185-.174.277-.404.277-.693a.918.918 0 00-.277-.675c-.184-.185-.438-.277-.761-.277h-2.926v1.887h2.926zm-.052-3.48c.288 0 .513-.075.675-.225a.795.795 0 00.26-.606c0-.265-.087-.473-.26-.623-.162-.162-.387-.242-.675-.242h-2.874v1.696h2.874zm5.215-3.29h1.818v3.03h2.96c.889 0 1.57.254 2.043.762.485.508.727 1.143.727 1.905 0 .75-.248 1.385-.744 1.904-.485.508-1.16.762-2.026.762h-4.778v-8.362zm4.553 4.623h-2.735v2.147h2.735c.358 0 .635-.098.831-.294.208-.197.312-.456.312-.78 0-.323-.104-.582-.312-.779-.196-.196-.473-.294-.831-.294zm6.077 3.74h-1.818v-8.362h1.818V65zm9.677 0h-2.043l-2.164-3.082L150.438 65h-2.025l3.064-4.294-2.891-4.068h2.042l1.991 2.839 1.974-2.84h2.043l-2.891 4.07L156.826 65zm8.724.207c-1.639 0-2.92-.45-3.843-1.35l.848-1.16c.762.681 1.76 1.022 2.995 1.022.635 0 1.131-.099 1.489-.295.369-.208.554-.485.554-.83 0-.728-.733-1.092-2.199-1.092h-1.783v-1.454h1.783c.635 0 1.131-.092 1.489-.277.369-.184.554-.456.554-.813 0-.3-.19-.549-.571-.745-.381-.196-.86-.294-1.437-.294-1.12 0-2.014.335-2.683 1.004l-.901-1.108c.889-.912 2.055-1.368 3.497-1.368 1.235-.011 2.205.19 2.909.606.715.404 1.073.958 1.073 1.662 0 .531-.225.981-.675 1.35a3.042 3.042 0 01-1.541.658 3.245 3.245 0 011.628.59c.507.345.761.819.761 1.419 0 .727-.358 1.321-1.073 1.783-.704.462-1.662.692-2.874.692zM178.254 65h-1.818v-.9c-.646.738-1.546 1.107-2.701 1.107a3.097 3.097 0 01-2.025-.727c-.589-.496-.883-1.177-.883-2.043 0-.888.289-1.563.866-2.025a3.213 3.213 0 012.042-.693c1.189 0 2.089.358 2.701 1.074v-1.247c0-.485-.179-.865-.537-1.142-.357-.277-.831-.416-1.419-.416-.935 0-1.76.352-2.476 1.056l-.744-1.264c.946-.9 2.118-1.35 3.514-1.35 1.027 0 1.864.242 2.51.727.647.485.97 1.252.97 2.303V65zm-3.809-1.04c.912 0 1.576-.288 1.991-.865V61.83c-.415-.577-1.079-.865-1.991-.865-.519 0-.946.138-1.281.415-.335.277-.502.64-.502 1.091 0 .45.167.814.502 1.09.335.266.762.399 1.281.399zm7.949 1.04h-2.078l2.06-3.117a2.47 2.47 0 01-1.419-.865c-.358-.45-.537-1.022-.537-1.714 0-.75.243-1.38.727-1.887.497-.52 1.177-.78 2.043-.78h4.778V65h-1.818v-3.03h-1.921L182.394 65zm1.021-4.623h2.735V58.23h-2.735c-.346 0-.623.103-.831.311a.999.999 0 00-.311.762c0 .323.098.583.294.779.208.196.49.294.848.294zM195.439 65h-5.124v-8.362h5.003c.773 0 1.379.202 1.818.606.438.404.658.917.658 1.54 0 .485-.133.895-.399 1.23-.265.334-.6.56-1.004.675.45.104.825.352 1.126.744.3.381.45.814.45 1.299 0 .67-.225 1.217-.676 1.644-.438.416-1.056.624-1.852.624zm-.381-1.593c.323 0 .577-.081.762-.242.185-.174.277-.404.277-.693a.918.918 0 00-.277-.675c-.185-.185-.439-.277-.762-.277h-2.926v1.887h2.926zm-.052-3.48c.289 0 .514-.075.675-.225a.792.792 0 00.26-.606c0-.265-.086-.473-.26-.623-.161-.162-.386-.242-.675-.242h-2.874v1.696h2.874zm8.99 5.28c-1.293 0-2.332-.421-3.116-1.264-.785-.854-1.178-1.898-1.178-3.133s.393-2.274 1.178-3.116c.784-.843 1.823-1.264 3.116-1.264 1.304 0 2.348.421 3.133 1.264.785.842 1.177 1.881 1.177 3.116 0 1.247-.392 2.291-1.177 3.134-.785.842-1.829 1.263-3.133 1.263zm0-1.61c.75 0 1.339-.265 1.766-.796.438-.542.657-1.206.657-1.991 0-.773-.219-1.425-.657-1.956-.427-.543-1.016-.814-1.766-.814-.739 0-1.327.271-1.766.814-.427.53-.641 1.183-.641 1.956 0 .785.214 1.449.641 1.99.439.532 1.027.797 1.766.797zM217.971 65h-2.285l-2.563-3.445-1.16 1.194v2.25h-1.817v-8.361h1.817v4.033l3.688-4.033h2.25l-3.479 3.791 3.549 4.57z" fill="#253942"/><path d="M112.193 82.09h-1.203v-8.598h-5.655v8.598h-1.204v-9.67h8.062v9.671zm7.785-.884c-.628.705-1.464 1.058-2.508 1.058s-1.885-.353-2.523-1.058c-.628-.706-.943-1.58-.943-2.625 0-1.044.315-1.914.943-2.61.638-.705 1.479-1.058 2.523-1.058s1.88.353 2.508 1.058c.638.696.957 1.566.957 2.61 0 1.044-.319 1.92-.957 2.625zm-4.219-.696c.425.522.996.783 1.711.783.715 0 1.281-.261 1.696-.783.416-.532.624-1.175.624-1.929s-.208-1.392-.624-1.914c-.415-.522-.981-.783-1.696-.783s-1.286.266-1.711.798c-.416.522-.624 1.155-.624 1.9 0 .753.208 1.396.624 1.928zm16.516 1.58h-1.087v-6.046h-3.654v6.046h-1.088v-7.003h5.829v7.003zm5.333.174c-1.044 0-1.9-.338-2.567-1.015-.667-.686-1-1.575-1-2.668 0-1.024.328-1.89.986-2.595.657-.716 1.479-1.073 2.465-1.073 1.034 0 1.851.358 2.45 1.073.609.706.913 1.6.913 2.682v.276h-5.669c.048.686.3 1.261.754 1.725.454.464 1.044.696 1.769.696.87 0 1.59-.295 2.161-.884l.522.71c-.716.715-1.644 1.073-2.784 1.073zm2.175-4.118a2.51 2.51 0 00-.609-1.61c-.397-.483-.962-.724-1.697-.724-.696 0-1.247.237-1.653.71a2.668 2.668 0 00-.638 1.624h4.597zm6.285 4.118c-.986 0-1.774-.41-2.364-1.232v3.726h-1.087v-9.671h1.087v1.044a2.91 2.91 0 011.015-.885 2.815 2.815 0 011.349-.333c.928 0 1.677.333 2.247 1 .58.658.87 1.547.87 2.668 0 1.122-.29 2.016-.87 2.683-.57.667-1.319 1-2.247 1zm-.276-.971c.687 0 1.233-.252 1.639-.754.406-.513.609-1.165.609-1.958 0-.792-.203-1.44-.609-1.943-.406-.502-.952-.754-1.639-.754-.415 0-.821.112-1.218.334-.386.212-.676.474-.87.783v3.16c.194.32.484.59.87.813a2.55 2.55 0 001.218.319zm8.283.971c-1.043 0-1.899-.338-2.566-1.015-.667-.686-1-1.575-1-2.668 0-1.024.328-1.89.986-2.595.657-.716 1.479-1.073 2.464-1.073 1.035 0 1.852.358 2.451 1.073.609.706.913 1.6.913 2.682v.276h-5.669c.048.686.3 1.261.754 1.725.454.464 1.044.696 1.769.696.87 0 1.59-.295 2.16-.884l.522.71c-.715.715-1.643 1.073-2.784 1.073zm2.175-4.118a2.5 2.5 0 00-.609-1.61c-.396-.483-.961-.724-1.696-.724-.696 0-1.247.237-1.653.71a2.668 2.668 0 00-.638 1.624h4.596zm8.635 3.944h-1.262l-2.102-2.87-2.103 2.87h-1.247l2.683-3.596-2.538-3.407h1.262l1.943 2.668 1.943-2.668h1.261l-2.537 3.407 2.697 3.596zm6.281-.884c-.628.705-1.464 1.058-2.508 1.058s-1.885-.353-2.523-1.058c-.629-.706-.943-1.58-.943-2.625 0-1.044.314-1.914.943-2.61.638-.705 1.479-1.058 2.523-1.058s1.88.353 2.508 1.058c.638.696.957 1.566.957 2.61 0 1.044-.319 1.92-.957 2.625zm-4.219-.696c.425.522.995.783 1.711.783.715 0 1.281-.261 1.696-.783.416-.532.624-1.175.624-1.929s-.208-1.392-.624-1.914c-.415-.522-.981-.783-1.696-.783-.716 0-1.286.266-1.711.798-.416.522-.624 1.155-.624 1.9 0 .753.208 1.396.624 1.928zm6.123 3.364V81.19c.357-.067.637-.28.84-.638.203-.367.368-1.039.493-2.015l.45-3.451h4.872v6.046h.812v2.74h-1.088V82.09h-5.292v1.784h-1.087zm2.74-7.83l-.319 2.624c-.164 1.228-.503 2.05-1.015 2.465h4.161v-5.09h-2.827zm11.68 6.046h-1.087v-.797c-.59.647-1.363.971-2.32.971a2.575 2.575 0 01-1.711-.623c-.493-.416-.74-.981-.74-1.697 0-.734.242-1.3.725-1.696a2.633 2.633 0 011.726-.61c.995 0 1.769.32 2.32.958v-1.262c0-.464-.165-.826-.493-1.087-.329-.261-.754-.392-1.276-.392-.822 0-1.537.324-2.146.972l-.508-.754c.745-.773 1.677-1.16 2.799-1.16.802 0 1.454.193 1.957.58.503.386.754.981.754 1.783v4.814zm-3.016-.609c.87 0 1.513-.29 1.929-.87v-1.32c-.416-.58-1.059-.87-1.929-.87-.502 0-.918.146-1.247.436-.319.28-.478.647-.478 1.102 0 .444.159.812.478 1.102.329.28.745.42 1.247.42zm12.344.61h-1.087v-5.496l-2.277 5.495h-.405l-2.291-5.495v5.495h-1.088v-7.003h1.436l2.145 5.19 2.117-5.19h1.45v7.003zM84.802 347.529h-4.955v-.714a73.56 73.56 0 001.742-1.406c.418-.354.819-.725 1.2-1.115.39-.396.664-.746.823-1.049.159-.31.238-.617.238-.92 0-.433-.148-.761-.443-.985a1.711 1.711 0 00-1.06-.335c-.83 0-1.483.303-1.96.909l-.551-.574c.274-.36.631-.638 1.071-.833a3.456 3.456 0 011.44-.303c.656 0 1.222.184 1.698.552.483.368.725.891.725 1.569 0 .671-.289 1.342-.866 2.013-.577.663-1.457 1.46-2.64 2.391h3.538v.8zm5.496 0H89.4v-1.828h-3.43v-.747l3.094-4.641h1.234v4.598h1.017v.79h-1.017v1.828zm-.898-2.618v-3.765l-2.532 3.765H89.4zm91.281 2.618h-4.955v-.714a73.56 73.56 0 001.742-1.406c.418-.354.818-.725 1.201-1.115.389-.396.663-.746.822-1.049.159-.31.238-.617.238-.92 0-.433-.148-.761-.443-.985a1.714 1.714 0 00-1.061-.335c-.829 0-1.482.303-1.958.909l-.552-.574c.274-.36.631-.638 1.071-.833a3.455 3.455 0 011.439-.303c.657 0 1.223.184 1.699.552.483.368.725.891.725 1.569 0 .671-.289 1.342-.866 2.013-.577.663-1.457 1.46-2.64 2.391h3.538v.8zm3.126 0h-.995l2.91-6.416h-3.884v-.8h4.923v.616l-2.954 6.6zm87.753.13c-.577 0-1.089-.111-1.537-.335-.447-.224-.79-.509-1.028-.855l.531-.563c.216.289.501.52.854.693.354.173.74.26 1.158.26.527 0 .938-.119 1.234-.357.303-.246.454-.577.454-.996 0-.433-.162-.754-.487-.963-.317-.209-.754-.314-1.309-.314-.426 0-.675.004-.747.011v-.822c.08.007.329.011.747.011.49 0 .891-.098 1.201-.292.317-.202.476-.502.476-.898 0-.383-.155-.682-.465-.899-.303-.223-.686-.335-1.147-.335-.729 0-1.363.292-1.904.876l-.498-.562c.613-.743 1.435-1.115 2.467-1.115.714 0 1.298.173 1.753.52.461.339.692.808.692 1.406 0 .476-.159.859-.476 1.147a2.175 2.175 0 01-1.082.53c.397.036.772.21 1.125.52.361.31.541.728.541 1.255a1.88 1.88 0 01-.692 1.504c-.462.382-1.082.573-1.861.573zm6.455 0c-.476 0-.898-.108-1.266-.324a2.554 2.554 0 01-.865-.888 4.754 4.754 0 01-.476-1.19 5.74 5.74 0 01-.152-1.331c0-.461.051-.905.152-1.33.108-.426.267-.819.476-1.18.216-.368.505-.66.865-.876.368-.224.79-.336 1.266-.336.469 0 .888.112 1.256.336.367.216.656.508.865.876.216.361.375.754.476 1.18.108.425.162.869.162 1.33 0 .462-.054.906-.162 1.331-.101.426-.26.823-.476 1.19a2.438 2.438 0 01-.865.888 2.435 2.435 0 01-1.256.324zm-1.082-1.244c.289.296.65.444 1.082.444.433 0 .794-.148 1.082-.444.289-.303.487-.664.595-1.082.109-.418.163-.887.163-1.407a5.58 5.58 0 00-.163-1.406 2.331 2.331 0 00-.595-1.071 1.448 1.448 0 00-1.082-.444 1.45 1.45 0 00-1.082.444 2.34 2.34 0 00-.595 1.071 5.628 5.628 0 00-.162 1.406c0 .52.054.989.162 1.407.108.418.307.779.595 1.082z" fill="#838383"/><path d="M69.906 241.302l4.092-13.447 5.846 4.093 18.124-14.616 8.772-21.047 11.105 8.185 9.941-6.431 12.278-30.4 12.859 11.692 7.6-1.169 11.692 9.354 9.354-18.123 12.278-7.016 9.938-17.539 13.447 17.539 8.184 7.016 18.124-7.016 9.354-10.523 13.446-7.016 9.939-19.293 14.034-8.769 9.354-14.616" stroke="#10B899" stroke-width="3.246"/><defs><filter id="filter0_d_0_2481" x=".294" y=".278" width="370.043" height="424.998" filterUnits="userSpaceOnUse" color-interpolation-filters="sRGB"><feFlood flood-opacity="0" result="BackgroundImageFix"/><feColorMatrix in="SourceAlpha" values="0 0 0 0 0 0 0 0 0 0 0 0 0 0 0 0 0 0 127 0" result="hardAlpha"/><feOffset dx="4.328" dy="17.312"/><feGaussianBlur stdDeviation="20.017"/><feComposite in2="hardAlpha" operator="out"/><feColorMatrix values="0 0 0 0 0 0 0 0 0 0 0 0 0 0 0 0 0 0 0.05 0"/><feBlend in2="BackgroundImageFix" result="effect1_dropShadow_0_2481"/><feBlend in="SourceGraphic" in2="effect1_dropShadow_0_2481" result="shape"/></filter></defs></svg>