<svg width="1920" height="1331" fill="none" xmlns="http://www.w3.org/2000/svg"><g opacity=".4"><path opacity=".2" fill-rule="evenodd" clip-rule="evenodd" d="M293.269 235.625c36.006-59.41 77.412-99.822 153.35-85.467 68.226 12.897 92.874 100.677 138.511 152.914 30.077 34.428 114.216 75.654 127.355 117.336 20.6 65.351 33.729 131.857-31.662 151.006-70.29 20.584-110.882-65.586-184.955-89.256-75.195-24.029-153.757 17.331-210.594-37.143-58.008-55.596-29.232-147.965 7.995-209.39z" fill="url(#paint0_linear_0_2450)" fill-opacity=".69"/><path opacity=".2" fill-rule="evenodd" clip-rule="evenodd" d="M201.69 1247.78c-59.72 35.49-115.269 51.68-175.529 3.29-54.14-43.47-34.6-132.53-50.3-200.1-10.348-44.52-65.205-120.483-57.193-163.446 12.562-67.36 32.26-132.224 98.972-118.363 71.711 14.899 66.998 110.035 121.23 165.766 55.054 56.575 143.837 57.032 168.37 131.843 25.038 76.34-43.805 144.32-105.55 181.01z" fill="url(#paint1_linear_0_2450)" fill-opacity=".69"/><path opacity=".2" fill-rule="evenodd" clip-rule="evenodd" d="M1972.11 787.394c55.79 41.395 92.16 86.393 70.78 160.66-19.21 66.726-108.9 83.066-165.17 123.626-37.09 26.74-85.99 106.66-128.72 115.85-66.98 14.41-134.43 21.27-147.39-45.62-13.93-71.9 75.65-104.27 106.14-175.815 30.94-72.623-2.91-154.704 56.64-206.207 60.76-52.565 150.04-15.292 207.72 27.506z" fill="url(#paint2_linear_0_2450)" fill-opacity=".69"/><path opacity=".2" d="M380.094 535.098c43.163-6.947 91.613 7.048 95.971 16.08 0 0 61.097 32.865 61.097 99.172 0 66.306-110.234 229.612-230.7 208.283C155.88 831.973 69.341 634.952 91.766 555.342c17.941-63.689 84.2-64.282 122.176-56.597 32.673 14.998 122.989 43.3 166.152 36.353z" fill="url(#paint3_linear_0_2450)"/><path opacity=".15" d="M640.05 704.14c8.151-46.004 39.118-93.224 49.686-95.895 0 0 54.285-56.459 120.666-43.013 66.381 13.446 191.288 160.454 127.777 280.592-79.391 150.172-306.921 199.626-378.773 160.316-57.481-31.451-34.886-100.029-13.901-137.706 26.451-30.717 86.394-118.29 94.545-164.294z" fill="url(#paint4_linear_0_2450)"/><path opacity=".2" fill-rule="evenodd" clip-rule="evenodd" d="M-228.001 498.952c-51.614-46.496-83.556-94.739-55.231-166.644 25.447-64.603 116.291-72.374 176.151-107.418 39.452-23.097 95.708-98.025 139.113-103.125 68.053-7.995 135.841-8.435 142.404 59.386 7.054 72.901-85.194 96.635-122.32 164.963-37.688 69.364-11.775 154.283-75.93 199.911-65.478 46.568-150.822 1.001-204.187-47.073z" fill="url(#paint5_linear_0_2450)" fill-opacity=".69"/><path opacity=".2" fill-rule="evenodd" clip-rule="evenodd" d="M1533.35 257.759c37.1-77.567 83.58-132.232 180.86-123.004 87.41 8.29 130.31 114.147 194.72 173.66 42.45 39.222 153.69 80.78 175.87 130.885 34.76 78.555 60.3 159.38-19.18 190.428-85.43 33.374-148.13-68.697-244.34-89.662-97.67-21.283-190.66 38.731-269.44-22.29-80.39-62.279-56.85-179.82-18.49-260.017z" fill="url(#paint6_linear_0_2450)" fill-opacity=".69"/></g><defs><linearGradient id="paint0_linear_0_2450" x1="438.5" y1="518.5" x2="372.746" y2="249.88" gradientUnits="userSpaceOnUse"><stop stop-color="#FAFAFA" stop-opacity=".69"/><stop offset="1" stop-color="#FAFAFA" stop-opacity=".15"/></linearGradient><linearGradient id="paint1_linear_0_2450" x1="206.244" y1="1245.07" x2="23.89" y2="730.615" gradientUnits="userSpaceOnUse"><stop stop-color="#FAFAFA" stop-opacity=".69"/><stop offset="1" stop-color="#FAFAFA" stop-opacity=".15"/></linearGradient><linearGradient id="paint2_linear_0_2450" x1="1967.86" y1="784.239" x2="1563.64" y2="1151.02" gradientUnits="userSpaceOnUse"><stop stop-color="#FAFAFA" stop-opacity=".69"/><stop offset="1" stop-color="#FAFAFA" stop-opacity=".15"/></linearGradient><linearGradient id="paint3_linear_0_2450" x1="387.584" y1="496.056" x2="197.752" y2="808.812" gradientUnits="userSpaceOnUse"><stop stop-color="#FAFAFA" stop-opacity=".69"/><stop offset="1" stop-color="#FAFAFA" stop-opacity=".18"/></linearGradient><linearGradient id="paint4_linear_0_2450" x1="572.737" y1="847.967" x2="892.922" y2="575.123" gradientUnits="userSpaceOnUse"><stop stop-color="#FAFAFA" stop-opacity=".69"/><stop offset="1" stop-color="#FAFAFA" stop-opacity=".1"/></linearGradient><linearGradient id="paint5_linear_0_2450" x1="-224.062" y1="502.497" x2="213.1" y2="175.679" gradientUnits="userSpaceOnUse"><stop stop-color="#FAFAFA" stop-opacity=".69"/><stop offset="1" stop-color="#FAFAFA" stop-opacity=".15"/></linearGradient><linearGradient id="paint6_linear_0_2450" x1="1931" y1="557" x2="1751.07" y2="116.267" gradientUnits="userSpaceOnUse"><stop stop-color="#FAFAFA" stop-opacity=".69"/><stop offset="1" stop-color="#FAFAFA" stop-opacity=".06"/></linearGradient></defs></svg>