<svg width="47" height="46" fill="none" xmlns="http://www.w3.org/2000/svg"><path d="M.789 22.96c0 12.682 10.29 22.962 22.985 22.962 12.694 0 22.984-10.28 22.984-22.961S36.468 0 23.773 0C11.08 0 .79 10.28.79 22.96z" fill="#4A505F"/><path d="M12.425 22.542c6.17-2.685 10.284-4.455 12.342-5.31 5.878-2.443 7.1-2.867 7.895-2.881.175-.003.567.04.82.246.215.173.273.408.302.572.028.165.063.54.035.833-.318 3.343-1.697 11.456-2.398 15.2-.296 1.584-.88 2.116-1.446 2.168-1.23.113-2.163-.812-3.353-1.591-1.863-1.22-2.915-1.98-4.723-3.17-2.09-1.375-.735-2.131.456-3.367.311-.323 5.727-5.244 5.831-5.69.014-.056.026-.264-.098-.374-.124-.11-.306-.072-.438-.042-.187.042-3.163 2.007-8.928 5.894-.844.58-1.61.862-2.295.847-.755-.016-2.21-.427-3.29-.778-1.325-.43-2.379-.658-2.287-1.389.048-.38.573-.77 1.575-1.168z" fill="#fff"/></svg>