<svg width="252" height="11" fill="none" xmlns="http://www.w3.org/2000/svg"><path d="M89.642.534c6.636-.105 13.48-.212 20.118-.18 7.261.023 14.519-.091 21.78-.068 5.807-.092 11.618.09 17.427.136 5.809.045 11.825.087 17.634.133 2.906.09 6.016.042 9.129.13 3.528.08 7.263.159 10.791.24 5.397.189 10.998.237 16.393.29 3.942.074 7.885.149 11.62.227 2.698.094 5.396.188 8.302.279 4.567.202 8.924.27 13.496.744 2.493.235 4.989.605 7.486 1.112 2.498.508 4.789 1.018 7.289 1.662-3.106.322-6.42.647-9.528.833-3.109.185-6.012.23-9.125.143-1.869-.107-3.737-.215-5.604-.185-1.247-.117-2.283-.101-3.528-.082-2.905-.09-5.604-.185-8.509-.276-13.075-.341-26.354-.542-39.426-.747-2.698-.094-5.394-.052-8.092-.146-3.321-.085-6.639-.032-10.167-.114l-20.537-.087c-5.602-.049-11.201.04-17.008.13-5.599.088-10.993.036-16.593.124-6.222.098-12.238.056-18.457.29l-12.442.195-2.075.033-4.77.075c-3.937.198-8.085.263-12.023.462 3.318-.052 6.638.032 9.956-.02 6.017.042 12.033.085 17.842.13 13.28.201 26.557.266 39.838.604 11.829.224 23.864.445 35.693.806 6.849.165 13.904.328 20.752.493 2.906.091 5.809.046 8.507.14 3.114.088 6.021.315 9.137.54 2.7.23 5.403.598 7.896.832-6.207.917-12.834 1.568-19.265 1.532-6.017-.042-11.826-.088-17.844-.266-13.282-.338-26.562-.54-39.636-.88-11.827-.225-23.652-.312-35.48-.536-5.81-.046-11.826-.088-17.635-.133-6.223-.04-12.447-.078-18.668.02-6.43.1-12.654.062-19.082.162-6.636.105-13.48.212-20.118.18-1.66.026-3.318.052-5.187-.055-2.696.042-5.392.084-7.892-.56C.995 8.62.364 8.083.147 7.54c-.219-.68.187-1.232 1.007-1.792.205-.14.41-.28.618-.283.617-.283 1.03-.426 1.857-.575.413-.143.828-.15 1.24-.293.62-.146 1.24-.293 2.069-.306 1.449-.16 2.691-.315 4.14-.475 2.692-.315 5.386-.494 8.08-.673 5.385-.494 9.85-.616 16.163-.937C49.32 1.496 55.728 1.607 71.188.96L85.082.742c1.864-.166 3.108-.186 4.56-.208z" fill="#F37060"/></svg>