<svg width="701" height="865" fill="none" xmlns="http://www.w3.org/2000/svg"><mask id="a" fill="#fff"><path d="M53 865H-91l72-72.083L53 865zm-72-216.25h-72v-72.083l72 72.083zm0-216.25l-72 72.083V432.5h72zm72 360.417h-72l72-72.084v72.084zm0-144.167l-72 72.083V648.75l72-72.083v72.083zm0-72.083h-72l72-72.084v72.084zm0-72.084L-19 432.5h72v72.083zm0-72.083H-91l72-72.083L53 432.5zm-72-216.25h-72v-72.083l72 72.083zM-19 0l-72 72.083V0h72zm72 360.417h-72l72-72.084v72.084zm0-144.167l-72 72.083V216.25l72-72.083v72.083zm0-72.083h-72l72-72.084v72.084zm0-72.084L-19 0h72v72.083zm216 720.834L197 865l-72-72.083V865l-72-72.083 72-72.084 72 72.084h72zM197 648.75l-72 72.083-72-72.083h144zm-72 0l-72-72.083h72v72.083zm0-72.083l-72-72.084h72v72.084zM197 432.5l-72 72.083L53 432.5h144zm144 72.083l-72 72.084-72 72.083-72-72.083h72l72-72.084 72-72.083v72.083zm-144 72.084l-72-72.084h72v72.084zm72 216.25l-72-72.084 72-72.083v144.167zm0-288.334h-72l72-72.083v72.083zM341 865l-72-72.083 72-72.084V865zm0-144.167h-72l72-72.083v72.083zm0-72.083l-72-72.083h72v72.083zm216 144.167L485 865l-72-72.083V865l-72-72.083 72-72.084 72 72.084h72zm0-216.25L413 720.833h-72l72-72.083 72-72.083h72zM413 648.75l-72-72.083h72v72.083zm0-144.167l-72 72.084v-72.084l72-72.083v72.083zm72 72.084h-72v-72.084l72 72.084zM557 432.5l-72 72.083-72-72.083h144zm72 360.417h-72l-72-72.084h72l72 72.084zm0-72.084h-72l-72-72.083h72l72 72.083zm0-216.25l-72 72.084-72-72.084h144zM701 865H557l72-72.083L701 865zm-72-216.25h-72v-72.083l72 72.083zm0-216.25l-72 72.083V432.5h72zm72 360.417h-72l72-72.084v72.084zm0-144.167l-72 72.083V648.75l72-72.083v72.083zm0-72.083h-72l72-72.084v72.084zm0-72.084L629 432.5h72v72.083zM269 360.417L197 432.5l-72-72.083V432.5l-72-72.083 72-72.084 72 72.084h72zM197 216.25l-72 72.083-72-72.083h144zm-72 0l-72-72.083h72v72.083zm0-72.083L53 72.083h72v72.084zM197 0l-72 72.083L53 0h144zm144 72.083l-72 72.084-72 72.083-72-72.083h72l72-72.084L341 0v72.083zm-144 72.084l-72-72.084h72v72.084zm72 216.25l-72-72.084 72-72.083v144.167zm0-288.334h-72L269 0v72.083zM341 432.5l-72-72.083 72-72.084V432.5zm0-144.167h-72l72-72.083v72.083zm0-72.083l-72-72.083h72v72.083zm216 144.167L485 432.5l-72-72.083V432.5l-72-72.083 72-72.084 72 72.084h72zm0-216.25L413 288.333h-72l72-72.083 72-72.083h72zM413 216.25l-72-72.083h72v72.083zm0-144.167l-72 72.084V72.083L413 0v72.083zm72 72.084h-72V72.083l72 72.084zM557 0l-72 72.083L413 0h144zm72 360.417h-72l-72-72.084h72l72 72.084zm0-72.084h-72l-72-72.083h72l72 72.083zm0-216.25l-72 72.084-72-72.084h144zM701 432.5H557l72-72.083 72 72.083zm-72-216.25h-72v-72.083l72 72.083zM629 0l-72 72.083V0h72zm72 360.417h-72l72-72.084v72.084zm0-144.167l-72 72.083V216.25l72-72.083v72.083zm0-72.083h-72l72-72.084v72.084zm0-72.084L629 0h72v72.083z"/></mask><path d="M-19 792.917v.5h1.206l-.852-.854-.354.354zm-72-72.084v-.5h-1.206l.852.854.354-.354zm72 0v.5h1.206l-.852-.853-.354.353zm0-360.416v.5h1.206l-.852-.854-.354.354zm-72-72.084v-.5h-1.206l.852.854.354-.354zm72 0v.5h1.206l-.852-.853-.354.353zm0 504.084h-72v1h72v-1zm-72.354-71.23l72 72.083.708-.707-72-72.083-.708.707zm72.354-.854h-72v1h72v-1zm-72.354-71.23l72 72.084.708-.707-72-72.083-.708.706zm72-144.873l-72 72.083.708.707 72-72.083-.708-.707zM-19 359.917h-72v1h72v-1zm-72.354-71.23l72 72.083.708-.707-72-72.083-.708.707zm72.354-.854h-72v1h72v-1zm-72.354-71.23l72 72.084.708-.707-72-72.083-.708.706zm72-144.873l-72 72.083.708.707 72-72.083-.708-.707zM-91 576.667l.708-.707-1.708-1.709v2.416h1zm0-144.167l-.707-.707-.293.293v.414h1zm72 288.333h-1v2.417l1.708-1.71-.708-.707zm-72-72.083h-1v1h1v-1zM53 865v1h2.412l-1.704-1.707L53 865zm-144 0l-.707-.707-1.705 1.707H-91v-1zm0-360.417h-1V507l1.708-1.71-.708-.707zm144 216.25h1v-2.416l-1.708 1.71.708.706zm-72-144.166l-.707-.707-1.705 1.707H-19v-1zm-72-432.5l.708-.707-1.708-1.71v2.417h1zM-91 0v-1h-1v1h1zm72 288.333h-1v2.417l1.708-1.71-.708-.707zm-72-72.083h-1v1h1v-1zm0-144.167h-1V74.5l1.708-1.709-.708-.707zm144 216.25h1v-2.416l-1.708 1.71.708.706zm-72-144.166l-.707-.707-1.705 1.707H-19v-1zM197 865l-.707.707.707.708.708-.708L197 865zm-72-72.083l.708-.707-1.708-1.709v2.416h1zM125 865l-.707.707 1.707 1.709V865h-1zm72-72.083l-.707.706.292.294H197v-1zM125 648.75l-.707.707 1.707 1.709v-2.416h-1zm144-72.083l-.707-.707.707.707zm-72 0v1h.415l.293-.294-.708-.706zm0 144.166l-.707-.706-.706.706.706.707.707-.707zm72-72.083h1v-2.416l-1.707 1.709.707.707zm0-216.25h1v-2.416l-1.707 1.709.707.707zM341 865l-.707.707 1.707 1.709V865h-1zm-72-144.167l-.707-.706-1.705 1.706H269v-1zM485 865l-.708.707.708.708.707-.708L485 865zm-72-72.083l.708-.707-1.708-1.709v2.416h1zM413 865l-.708.707 1.708 1.709V865h-1zm-72-72.083l-.707-.707-.706.707.706.706.707-.706zm144 0l-.708.706.293.294H485v-1zm0-288.334l-.708.707.708-.707zm0 216.25v-1h-2.412l1.704 1.707.708-.707zm144 0v1h.415l.292-.293-.707-.707zM485 648.75v-1h-2.412l1.704 1.707.708-.707zm144-144.167l.708.707 1.704-1.707H629v1zM701 865v1h2.412l-1.705-1.707L701 865zm-144 0l-.708-.707-1.704 1.707H557v-1zm0-360.417h-1V507l1.708-1.71-.708-.707zm144 288.334v1h1v-1h-1zm0-72.084h1v-2.416l-1.708 1.71.708.706zm0-72.083l.707.707.293-.293v-.414h-1zm-72-72.083l-.708-.707-1.704 1.707H629v-1zM701 432.5h1v-.414l-.293-.293-.707.707zm-576-72.083l.708-.707L124 358v2.417h1zm0 72.083l-.707.707 1.707 1.709V432.5h-1zm72-72.083l-.707.706.292.294H197v-1zM125 216.25l-.707.707 1.707 1.709v-2.416h-1zM197 0l.708.707L199.412-1H197v1zm72 144.167l-.707-.707.707.707zm-72 0v1h.415l.293-.294-.708-.706zM341 0h1v-2.416l-1.707 1.71L341 0zM197 288.333l-.707-.706-.706.706.706.707.707-.707zm72-72.083h1v-2.416l-1.707 1.709.707.707zM269 0h1v-2.416l-1.707 1.71L269 0zm0 288.333l-.707-.706-1.705 1.706H269v-1zM485 432.5l-.708.707.708.708.708-.708-.708-.707zm-72-72.083l.708-.707L412 358v2.417h1zm-72 0l-.707-.707-.706.707.706.706.707-.706zm144 0l-.708.706.293.294H485v-1zM413 0v-1h-.415l-.292.293L413 0zm72 288.333v-1h-2.412l1.704 1.707.708-.707zm144 0v1h.415l.293-.293-.708-.707zM485 216.25v-1h-2.412l1.705 1.707.707-.707zM629 72.083l.708.707 1.704-1.707H629v1zm-72 0h-1V74.5l1.708-1.709-.708-.707zm144 288.334v1h1v-1h-1zm0-72.084h1v-2.416l-1.708 1.71.708.706zm0-72.083l.708.707.292-.293v-.414h-1zm-72-72.083l-.708-.707-1.704 1.707H629v-1zM701 0h1v-1h-1v1zM53 864H-91v2H53v-2zm-143.292 1.707l72-72.084-1.415-1.413-72 72.083 1.415 1.414zm70.585-72.084l72 72.084 1.415-1.414-72-72.083-1.415 1.413zM-19 647.75h-72v2h72v-2zm-71 1v-72.083h-2v72.083h2zm-1.707-71.377l72 72.084 1.415-1.414-72-72.083-1.415 1.413zm72-145.58l-72 72.084 1.415 1.413 72-72.083-1.415-1.414zM-90 504.583V432.5h-2v72.083h2zm-1-71.083h72v-2h-72v2zM53 791.917h-72v2h72v-2zm-71.292 1.706l72-72.083-1.416-1.413-72 72.083 1.416 1.413zM52 720.833v72.084h2v-72.084h-2zm.292-72.79l-72 72.084 1.416 1.413 72-72.083-1.416-1.414zM-18 720.833V648.75h-2v72.083h2zm-.292-71.376l72-72.084-1.416-1.413-72 72.083 1.416 1.414zM52 576.667v72.083h2v-72.083h-2zm1-1h-72v2h72v-2zm-71.292 1.706l72-72.083-1.416-1.413-72 72.083 1.416 1.413zM52 504.583v72.084h2v-72.084h-2zm1.708-.706l-72-72.084-1.415 1.414 72 72.083 1.415-1.413zM-19 433.5h72v-2h-72v2zm71-1v72.083h2V432.5h-2zm1-1H-91v2H53v-2zm-143.292 1.707l72-72.084-1.415-1.413-72 72.083 1.415 1.414zm70.585-72.084l72 72.084 1.415-1.414-72-72.083-1.415 1.413zM-19 215.25h-72v2h72v-2zm-71 1v-72.083h-2v72.083h2zm-1.707-71.377l72 72.084 1.415-1.414-72-72.083-1.415 1.413zm72-145.58l-72 72.084 1.415 1.413 72-72.083-1.415-1.414zM-90 72.083V0h-2v72.083h2zM-91 1h72v-2h-72v2zM53 359.417h-72v2h72v-2zm-71.292 1.706l72-72.083-1.416-1.413-72 72.083 1.416 1.413zM52 288.333v72.084h2v-72.084h-2zm.292-72.79l-72 72.084 1.416 1.413 72-72.083-1.416-1.414zM-18 288.333V216.25h-2v72.083h2zm-.292-71.376l72-72.084-1.416-1.413-72 72.083 1.416 1.414zM52 144.167v72.083h2v-72.083h-2zm1-1h-72v2h72v-2zm-71.292 1.706l72-72.083-1.416-1.413-72 72.083 1.416 1.413zM52 72.083v72.084h2V72.083h-2zm1.708-.706l-72-72.084-1.415 1.414 72 72.083 1.415-1.413zM-19 1h72v-2h-72v2zm71-1v72.083h2V0h-2zm216.293 792.21l-72 72.083 1.415 1.414 72-72.084-1.415-1.413zm-70.585 72.083l-72-72.083-1.415 1.413 72 72.084 1.415-1.414zM124 792.917V865h2v-72.083h-2zm1.708 71.376l-72-72.083-1.416 1.413 72.001 72.084 1.415-1.414zm-72-70.67l72-72.083-1.415-1.413-72 72.083 1.415 1.413zm70.585-72.083l72 72.083 1.415-1.413-72-72.083-1.415 1.413zM197 793.917h72v-2h-72v2zm-.707-145.874l-72 72.084 1.415 1.413 72-72.083-1.415-1.414zm-70.585 72.084l-72-72.084-1.416 1.414 72.001 72.083 1.415-1.413zM53 649.75h144v-2H53v2zm72.708-1.707l-72-72.083-1.416 1.413 72.001 72.084 1.415-1.414zM53 577.667h72v-2H53v2zm71-1v72.083h2v-72.083h-2zm1.708-.707l-72-72.083-1.416 1.413 72.001 72.083 1.415-1.413zM53 505.583h72v-2H53v2zm71-1v72.084h2v-72.084h-2zm72.293-72.79l-72 72.084 1.415 1.413 72-72.083-1.415-1.414zm-70.585 72.084l-72-72.084-1.416 1.414 72.001 72.083 1.415-1.413zM53 433.5h144v-2H53v2zm287.293 70.377l-72 72.083 1.415 1.413 72-72.083-1.415-1.413zm-72 72.083l-72 72.083 1.415 1.414 72-72.084-1.415-1.413zm-70.585 72.083l-72-72.083-1.415 1.413 72 72.084 1.415-1.414zM125 577.667h72v-2h-72v2zm72.708-.294l72-72.083-1.415-1.413-72 72.083 1.415 1.413zm72-72.083l72-72.083-1.415-1.414-72 72.084 1.415 1.413zM340 432.5v72.083h2V432.5h-2zM197.708 575.96l-72-72.083-1.415 1.413 72 72.083 1.415-1.413zM125 505.583h72v-2h-72v2zm71-1v72.084h2v-72.084h-2zm73.708 287.627l-72-72.083-1.415 1.413 72 72.083 1.415-1.413zm-72-70.67l72-72.083-1.415-1.414-72 72.084 1.415 1.413zM268 648.75v144.167h2V648.75h-2zm1-145.167h-72v2h72v-2zm-71.292 1.707l72-72.083-1.415-1.414-72 72.084 1.415 1.413zM268 432.5v72.083h2V432.5h-2zm73.708 431.793l-72-72.083-1.415 1.413 72 72.084 1.415-1.414zm-72-70.67l72-72.083-1.415-1.413-72 72.083 1.415 1.413zM340 720.833V865h2V720.833h-2zm1-1h-72v2h72v-2zm-71.292 1.707l72-72.083-1.415-1.414-72 72.084 1.415 1.413zM340 648.75v72.083h2V648.75h-2zm1.708-.707l-72-72.083-1.415 1.413 72 72.084 1.415-1.414zM269 577.667h72v-2h-72v2zm71-1v72.083h2v-72.083h-2zM556.292 792.21l-72 72.083 1.415 1.414 72.001-72.084-1.416-1.413zm-70.585 72.083l-71.999-72.083-1.416 1.413 72 72.084 1.415-1.414zM412 792.917V865h2v-72.083h-2zm1.708 71.376l-72-72.083-1.415 1.413 71.999 72.084 1.416-1.414zm-72-70.67l72-72.083-1.416-1.413-71.999 72.083 1.415 1.413zm70.584-72.083l72 72.083 1.416-1.413-72-72.083-1.416 1.413zM485 793.917h72v-2h-72v2zm71.292-217.957l-144 144.167 1.416 1.413 144-144.167-1.416-1.413zM413 719.833h-72v2h72v-2zm-71.292 1.707l72-72.083-1.416-1.414-71.999 72.084 1.415 1.413zm72-72.083l72-72.084-1.416-1.413-72 72.083 1.416 1.414zM485 577.667h72v-2h-72v2zm-71.292 70.376l-72-72.083-1.415 1.413 71.999 72.084 1.416-1.414zM341 577.667h72v-2h-72v2zm71-1v72.083h2v-72.083h-2zm.292-72.79l-71.999 72.083 1.415 1.413 72-72.083-1.416-1.413zM342 576.667v-72.084h-2v72.084h2zm-.292-71.377l72-72.083-1.416-1.414-71.999 72.084 1.415 1.413zM412 432.5v72.083h2V432.5h-2zm73 143.167h-72v2h72v-2zm-71 1v-72.084h-2v72.084h2zm-1.708-71.377l72 72.083 1.416-1.413-72-72.083-1.416 1.413zm144-73.497l-72 72.084 1.416 1.413 72-72.083-1.416-1.414zm-70.584 72.084l-72-72.084-1.416 1.414 72 72.083 1.416-1.413zM413 433.5h144v-2H413v2zm216 358.417h-72v2h72v-2zm-71.292.293l-72-72.083-1.416 1.413 72 72.083 1.416-1.413zM485 721.833h72v-2h-72v2zm71.292-.293l72 72.083 1.415-1.413-71.999-72.083-1.416 1.413zM629 719.833h-72v2h72v-2zm-71.292.294l-72-72.084-1.416 1.414 72 72.083 1.416-1.413zM485 649.75h72v-2h-72v2zm71.292-.293l72 72.083 1.415-1.413-71.999-72.084-1.416 1.414zm72-145.58l-72 72.083 1.416 1.413 72-72.083-1.416-1.413zm-70.584 72.083l-72-72.083-1.416 1.413 72 72.083 1.416-1.413zM485 505.583h144v-2H485v2zM701 864H557v2h144v-2zm-143.293 1.707l72-72.084-1.415-1.413-72 72.083 1.415 1.414zm70.585-72.084l72 72.084 1.415-1.414-72-72.083-1.415 1.413zM629 647.75h-72v2h72v-2zm-71 1v-72.083h-2v72.083h2zm-1.708-71.377l72 72.084 1.415-1.414-71.999-72.083-1.416 1.413zm72-145.58l-72 72.084 1.416 1.413 72-72.083-1.416-1.414zM558 504.583V432.5h-2v72.083h2zm-1-71.083h72v-2h-72v2zm144 358.417h-72v2h72v-2zm-71.293 1.706l72-72.083-1.415-1.413-72 72.083 1.415 1.413zM700 720.833v72.084h2v-72.084h-2zm.292-72.79l-72 72.084 1.415 1.413 72-72.083-1.415-1.414zM630 720.833V648.75h-2v72.083h2zm-.293-71.376l72-72.084-1.415-1.413-72 72.083 1.415 1.414zM700 576.667v72.083h2v-72.083h-2zm1-1h-72v2h72v-2zm-71.292 1.706l71.999-72.083-1.415-1.413-72 72.083 1.416 1.413zM700 504.583v72.084h2v-72.084h-2zm1.707-.706l-71.999-72.084-1.416 1.414 72 72.083 1.415-1.413zM629 433.5h72v-2h-72v2zm71-1v72.083h2V432.5h-2zm-431.707-72.79l-72 72.083 1.415 1.414 72-72.084-1.415-1.413zm-70.585 72.083l-72-72.083-1.415 1.413 72 72.084 1.415-1.414zM124 360.417V432.5h2v-72.083h-2zm1.708 71.376l-72-72.083-1.416 1.413 72.001 72.084 1.415-1.414zm-72-70.67l72-72.083-1.415-1.413-72 72.083 1.415 1.413zm70.585-72.083l72 72.083 1.415-1.413-72-72.083-1.415 1.413zM197 361.417h72v-2h-72v2zm-.707-145.874l-72 72.084 1.415 1.413 72-72.083-1.415-1.414zm-70.585 72.084l-72-72.084-1.416 1.414 72.001 72.083 1.415-1.413zM53 217.25h144v-2H53v2zm72.708-1.707l-72-72.083-1.416 1.413 72.001 72.084 1.415-1.414zM53 145.167h72v-2H53v2zm71-1v72.083h2v-72.083h-2zm1.708-.707l-72-72.083-1.416 1.413 72.001 72.083 1.415-1.413zM53 73.083h72v-2H53v2zm71-1v72.084h2V72.083h-2zm72.293-72.79l-72 72.084 1.415 1.413 72-72.083-1.415-1.414zm-70.585 72.084l-72-72.084L52.292.707l72.001 72.083 1.415-1.413zM53 1h144v-2H53v2zm287.293 70.377l-72 72.083 1.415 1.413 72-72.083-1.415-1.413zm-72 72.083l-72 72.083 1.415 1.414 72-72.084-1.415-1.413zm-70.585 72.083l-72-72.083-1.415 1.413 72 72.084 1.415-1.414zM125 145.167h72v-2h-72v2zm72.708-.294l72-72.083-1.415-1.413-72 72.083 1.415 1.413zm72-72.083l72-72.083-1.415-1.414-72 72.084 1.415 1.413zM340 0v72.083h2V0h-2zM197.708 143.46l-72-72.083-1.415 1.413 72 72.083 1.415-1.413zM125 73.083h72v-2h-72v2zm71-1v72.084h2V72.083h-2zm73.708 287.627l-72-72.083-1.415 1.413 72 72.083 1.415-1.413zm-72-70.67l72-72.083-1.415-1.414-72 72.084 1.415 1.413zM268 216.25v144.167h2V216.25h-2zm1-145.167h-72v2h72v-2zm-71.292 1.707l72-72.083-1.415-1.414-72 72.084 1.415 1.413zM268 0v72.083h2V0h-2zm73.708 431.793l-72-72.083-1.415 1.413 72 72.084 1.415-1.414zm-72-70.67l72-72.083-1.415-1.413-72 72.083 1.415 1.413zM340 288.333V432.5h2V288.333h-2zm1-1h-72v2h72v-2zm-71.292 1.707l72-72.083-1.415-1.414-72 72.084 1.415 1.413zM340 216.25v72.083h2V216.25h-2zm1.708-.707l-72-72.083-1.415 1.413 72 72.084 1.415-1.414zM269 145.167h72v-2h-72v2zm71-1v72.083h2v-72.083h-2zM556.292 359.71l-72 72.083 1.416 1.414 72-72.084-1.416-1.413zm-70.584 72.083l-72-72.083-1.416 1.413 72 72.084 1.416-1.414zM412 360.417V432.5h2v-72.083h-2zm1.708 71.376l-72-72.083-1.415 1.413 71.999 72.084 1.416-1.414zm-72-70.67l72-72.083-1.416-1.413-71.999 72.083 1.415 1.413zm70.584-72.083l72 72.083 1.416-1.413-72-72.083-1.416 1.413zM485 361.417h72v-2h-72v2zm71.292-217.957l-144 144.167 1.416 1.413 144-144.167-1.416-1.413zM413 287.333h-72v2h72v-2zm-71.292 1.707l72-72.083-1.415-1.414-72 72.084 1.415 1.413zm72-72.083l72-72.084-1.415-1.413-72 72.083 1.415 1.414zM485 145.167h72v-2h-72v2zm-71.292 70.376l-72-72.083-1.415 1.413 72 72.084 1.415-1.414zM341 145.167h72v-2h-72v2zm71-1v72.083h2v-72.083h-2zm.293-72.79l-72 72.083 1.415 1.413 72-72.083-1.415-1.413zM342 144.167V72.083h-2v72.084h2zm-.292-71.377l72-72.083-1.415-1.414-72 72.084 1.415 1.413zM412 0v72.083h2V0h-2zm73 143.167h-72v2h72v-2zm-71 1V72.083h-2v72.084h2zm-1.707-71.377l72 72.083 1.415-1.413-72-72.083-1.415 1.413zM556.292-.707l-71.999 72.084 1.415 1.413 72-72.083-1.416-1.414zm-70.584 72.084l-72-72.084-1.415 1.414 72 72.083 1.415-1.413zM413 1h144v-2H413v2zm216 358.417h-72v2h72v-2zm-71.292.293l-72-72.083-1.416 1.413 72 72.083 1.416-1.413zM485 289.333h72v-2h-72v2zm71.292-.293l72 72.083 1.416-1.413-72-72.083-1.416 1.413zM629 287.333h-72v2h72v-2zm-71.292.294l-72-72.084-1.415 1.414 71.999 72.083 1.416-1.413zM485 217.25h72v-2h-72v2zm71.292-.293l72 72.083 1.416-1.413-72-72.084-1.416 1.414zm72-145.58l-72 72.083 1.416 1.413 72-72.083-1.416-1.413zm-70.584 72.083l-72-72.083-1.415 1.413 71.999 72.083 1.416-1.413zM485 73.083h144v-2H485v2zM701 431.5H557v2h144v-2zm-143.292 1.707l72-72.084-1.416-1.413-72 72.083 1.416 1.414zm70.584-72.084l72 72.084 1.415-1.414-71.999-72.083-1.416 1.413zM629 215.25h-72v2h72v-2zm-71 1v-72.083h-2v72.083h2zm-1.708-71.377l72 72.084 1.416-1.414-72-72.083-1.416 1.413zm72-145.58l-72 72.084 1.416 1.413 72-72.083-1.416-1.414zM558 72.083V0h-2v72.083h2zM557 1h72v-2h-72v2zm144 358.417h-72v2h72v-2zm-71.292 1.706l72-72.083-1.416-1.413-72 72.083 1.416 1.413zM700 288.333v72.084h2v-72.084h-2zm.292-72.79l-72 72.084 1.416 1.413 72-72.083-1.416-1.414zM630 288.333V216.25h-2v72.083h2zm-.292-71.376l72-72.084-1.416-1.413-72 72.083 1.416 1.414zM700 144.167v72.083h2v-72.083h-2zm1-1h-72v2h72v-2zm-71.292 1.706l72-72.083-1.416-1.413-72 72.083 1.416 1.413zM700 72.083v72.084h2V72.083h-2zm1.708-.706l-72-72.084-1.416 1.414 72 72.083 1.416-1.413zM629 1h72v-2h-72v2zm71-1v72.083h2V0h-2z" fill="#BDBDBD" fill-opacity=".08" mask="url(#a)"/></svg>