<svg width="144" height="29" fill="none" xmlns="http://www.w3.org/2000/svg"><path d="M44.714 9.778v-1.71h2.855v12.014c0 1.686-.519 3.01-1.556 3.973-1.038.963-2.508 1.444-4.41 1.444-1.685 0-3.007-.385-3.966-1.155-.96-.77-1.486-1.83-1.58-3.178h2.902c.14 1.332 1.037 1.998 2.69 1.998.968 0 1.704-.257 2.212-.77.506-.514.76-1.26.76-2.24V18.59c-.874 1.236-2.106 1.854-3.697 1.854-1.638 0-2.956-.586-3.954-1.758-.998-1.14-1.497-2.664-1.497-4.575 0-1.926.499-3.458 1.497-4.598.983-1.156 2.293-1.734 3.93-1.734 1.7 0 2.972.667 3.814 1.999zm-3.135 8.161c.983 0 1.747-.337 2.293-1.01.546-.675.82-1.614.82-2.818s-.274-2.143-.82-2.817c-.546-.674-1.31-1.01-2.293-1.01-.951 0-1.704.34-2.258 1.022-.553.683-.83 1.626-.83 2.83 0 1.188.277 2.118.83 2.792.554.674 1.307 1.011 2.258 1.011zm20.472-3.443v.723h-9.03c.108 1.06.432 1.858.97 2.395.538.538 1.26.807 2.164.807 1.342 0 2.262-.594 2.761-1.782h2.831c-.312 1.269-.967 2.276-1.965 3.022-.998.746-2.215 1.12-3.65 1.12-1.794 0-3.244-.594-4.352-1.782-1.107-1.188-1.66-2.76-1.66-4.72 0-1.957.545-3.53 1.637-4.718 1.107-1.188 2.55-1.782 4.328-1.782 1.825 0 3.276.618 4.352 1.854 1.076 1.236 1.614 2.857 1.614 4.864zm-5.99-4.357c-1.73 0-2.736.987-3.017 2.961h6.06c-.126-.915-.453-1.637-.983-2.167-.53-.53-1.217-.794-2.06-.794zM70.334 8.07v2.31h-2.386v6.718c0 .401.105.683.315.843.21.16.565.24 1.065.24h1.006v2.312a16.28 16.28 0 01-1.544.096c-1.31 0-2.266-.253-2.866-.758-.601-.506-.901-1.313-.901-2.42v-7.03H63.15V8.069h1.872V4.458h2.925v3.611h2.386zm5.381 12.422h-2.948V3.35h2.948v17.142zm13.148-1.493c-1.123 1.188-2.605 1.781-4.445 1.781-1.84 0-3.322-.593-4.445-1.781-1.14-1.172-1.708-2.745-1.708-4.72 0-1.973.569-3.546 1.708-4.718 1.123-1.188 2.605-1.782 4.445-1.782 1.84 0 3.322.586 4.445 1.758 1.123 1.172 1.685 2.753 1.685 4.743 0 1.958-.562 3.531-1.685 4.719zm-6.75-1.758c.554.69 1.323 1.036 2.305 1.036.983 0 1.75-.35 2.305-1.048.553-.698.83-1.68.83-2.95 0-1.267-.277-2.25-.83-2.948-.554-.699-1.322-1.048-2.305-1.048-.983 0-1.75.346-2.305 1.036-.553.69-.83 1.677-.83 2.96 0 1.285.276 2.272.83 2.962zm17.279-6.043l.983-3.13h3.088l-4.656 13.434c-.5 1.413-1.123 2.384-1.872 2.914-.764.545-1.871.818-3.322.818-.484 0-.912-.024-1.287-.072v-2.383h1.123c.64 0 1.131-.185 1.474-.554.343-.37.515-.851.515-1.445 0-.594-.187-1.428-.561-2.504l-3.51-10.208h3.182l.982 3.106a122.32 122.32 0 011.92 6.934c.467-1.814 1.114-4.117 1.941-6.91zm16.284 9.293h-2.948c-.14-.256-.25-.762-.327-1.516-.812 1.204-2.106 1.805-3.884 1.805-1.326 0-2.383-.328-3.171-.987-.787-.658-1.181-1.572-1.181-2.744 0-2.264 1.544-3.556 4.632-3.877l1.825-.168c.608-.08 1.045-.229 1.31-.446.265-.216.398-.541.398-.975 0-.53-.168-.918-.503-1.168-.335-.248-.901-.373-1.696-.373-.858 0-1.474.149-1.848.446-.375.297-.594.806-.655 1.529h-2.902c.172-2.825 1.981-4.238 5.428-4.238 3.354 0 5.03 1.244 5.03 3.732v6.621c0 1.092.164 1.878.492 2.36zm-6.458-1.877c.921 0 1.669-.261 2.247-.783.576-.521.865-1.272.865-2.251v-1.132c-.281.257-.741.426-1.38.506l-1.591.193c-.78.096-1.338.285-1.673.566-.336.28-.503.686-.503 1.215 0 .53.176.944.526 1.24.351.297.854.446 1.509.446zm11.792 1.878h-2.948V3.35h2.948v17.142zm9.383-12.422v2.31h-2.387v6.718c0 .401.106.683.316.843.211.16.565.24 1.065.24h1.006v2.312c-.64.064-1.155.096-1.544.096-1.311 0-2.266-.253-2.866-.758-.601-.506-.901-1.313-.901-2.42v-7.03h-1.872V8.069h1.872V4.458h2.924v3.611h2.387zm9.334 3.128l.983-3.13h3.088l-4.656 13.434c-.499 1.413-1.123 2.384-1.872 2.914-.764.545-1.871.818-3.322.818-.484 0-.912-.024-1.287-.072v-2.383h1.123c.64 0 1.131-.185 1.474-.554.343-.37.515-.851.515-1.445 0-.594-.187-1.428-.561-2.504l-3.51-10.208h3.182l.983 3.106a122.41 122.41 0 011.918 6.934 210.582 210.582 0 011.942-6.91z" fill="#4A4A49"/><path d="M17.944 3.103h-9.43C3.812 3.103 0 7.026 0 11.864V28.54l7.395-3.103h9.43c4.703 0 8.515-3.922 8.515-8.761V0l-7.396 3.103zM6.217 16.395c-1.19 0-2.154-.992-2.154-2.216 0-1.225.964-2.217 2.154-2.217s2.154.992 2.154 2.216c0 1.225-.965 2.217-2.154 2.217zm6.635 0c-1.19 0-2.154-.992-2.154-2.216 0-1.225.965-2.217 2.154-2.217 1.19 0 2.154.992 2.154 2.216 0 1.225-.964 2.217-2.154 2.217zm6.636 0c-1.19 0-2.154-.992-2.154-2.216 0-1.225.964-2.217 2.154-2.217s2.154.992 2.154 2.216c0 1.225-.964 2.217-2.154 2.217z" fill="#FF5273"/></svg>