<svg width="1140" height="363" fill="none" xmlns="http://www.w3.org/2000/svg"><path d="M359.5 52.5c291 82.5 395.5-6.5 659.5 57M270.5 71c71 159.5-66.5 100-127 192.5m145-197.764C312.87 134.51 338 178.5 420.5 214m-94-173C513.356 15.262 636 33.5 636 33.5m-304.5 29c115.5 127 229.5 61 349 102m175 84.5c-266.5-102.406-480-35-541-183.264M21 160c29-58.5 103.4-96.702 171-107.5" stroke="#BDBDBD" stroke-opacity=".5" stroke-width=".964" stroke-dasharray="8 8"/><path d="M639.5 35.142C329.845 177.14 111 74.019 26 155.142m613.5-120c291.5 0 369 64.358 369 64.358m-369-64.358C627.684 78.046 849 66 852.5 244.5M417 220.641c87-43.5 206-51 214.5-176.5m50.5 117.5c-39.5-46.5-38-72-47.496-119.658l-3.004 2.158m0 0C453.5 248 473 81.5 143 267.5" stroke="#BDBDBD" stroke-opacity=".5" stroke-width=".964" stroke-dasharray="8 8"/><path d="M682 164.5c57.5 59.5 317-71.5 336.5-51s-51.5 97.5-155 133m148.5-137c-439-39-264 70.596-592 105" stroke="#BDBDBD" stroke-opacity=".5" stroke-width=".964" stroke-dasharray="8 8"/><path d="M412.052 219.916C321.5 260.5 283.5 216 143.5 269m268.552-49.084C501 309.5 670.5 292.5 846 249.5m-433.948-29.584C601 316.5 813 183.5 1006 114.5M412.052 219.916C289 151.5 98 243.5 21.5 164m390.552 55.916C550.5 248.5 642.5 226 681.5 161.5" stroke="#E1E1E1" stroke-width=".964" stroke-dasharray="8 8"/><path d="M140 271.5c-40-22.5-103-45-119.5-108m122.5 108c115 67 585.5 47.5 713.5-18.5" stroke="#BDBDBD" stroke-opacity=".5" stroke-width=".964" stroke-dasharray="8 8"/><path d="M897.201 253h-2.369v-11.419h-7.026V253h-2.368v-13.505h11.763V253zm7.221.243c-1.512 0-2.726-.493-3.644-1.478-.918-.999-1.377-2.22-1.377-3.665 0-1.444.459-2.659 1.377-3.644.918-.986 2.132-1.478 3.644-1.478 1.525 0 2.747.492 3.665 1.478.918.985 1.377 2.2 1.377 3.644 0 1.458-.459 2.68-1.377 3.665-.918.985-2.14 1.478-3.665 1.478zm0-1.883c.878 0 1.566-.31 2.065-.931.513-.635.77-1.411.77-2.329 0-.904-.257-1.667-.77-2.288-.499-.634-1.187-.951-2.065-.951-.864 0-1.552.317-2.065.951-.499.621-.749 1.384-.749 2.288 0 .918.25 1.694.749 2.329.513.621 1.201.931 2.065.931zm9.238 1.64h-2.045v-9.779h2.126v6.58l4.495-6.58h2.125V253h-2.125v-6.762L913.66 253zm13.917.243c-1.485 0-2.7-.479-3.645-1.438-.945-.971-1.417-2.206-1.417-3.705 0-1.485.472-2.706 1.417-3.664.945-.972 2.16-1.458 3.645-1.458 1.633 0 2.881.58 3.745 1.741l-1.397 1.296c-.54-.77-1.289-1.154-2.247-1.154-.891 0-1.606.303-2.146.911-.54.594-.81 1.37-.81 2.328 0 .959.27 1.741.81 2.349.54.607 1.255.911 2.146.911.931 0 1.68-.385 2.247-1.154l1.397 1.296c-.864 1.161-2.112 1.741-3.745 1.741zm14.761-.243h-2.672l-2.997-4.029-1.357 1.397V253h-2.126v-9.779h2.126v4.717l4.313-4.717h2.632l-4.07 4.434 4.151 5.345zm5.821.243c-1.512 0-2.727-.493-3.645-1.478-.918-.999-1.376-2.22-1.376-3.665 0-1.444.458-2.659 1.376-3.644.918-.986 2.133-1.478 3.645-1.478 1.525 0 2.747.492 3.664 1.478.918.985 1.377 2.2 1.377 3.644 0 1.458-.459 2.68-1.377 3.665-.917.985-2.139 1.478-3.664 1.478zm0-1.883c.877 0 1.566-.31 2.065-.931.513-.635.769-1.411.769-2.329 0-.904-.256-1.667-.769-2.288-.499-.634-1.188-.951-2.065-.951-.864 0-1.552.317-2.065.951-.5.621-.75 1.384-.75 2.288 0 .918.25 1.694.75 2.329.513.621 1.201.931 2.065.931zm13.185 1.64h-5.993v-9.779h5.852c.904 0 1.613.236 2.126.708.513.473.769 1.073.769 1.802 0 .567-.155 1.046-.466 1.438a2.26 2.26 0 01-1.174.79c.526.121.965.411 1.316.87.351.446.527.952.527 1.519 0 .783-.264 1.424-.79 1.923-.513.486-1.235.729-2.167.729zm-.445-1.863c.378 0 .675-.094.891-.283.216-.203.324-.473.324-.81 0-.311-.108-.574-.324-.79-.216-.216-.513-.324-.891-.324h-3.422v2.207h3.422zm-.061-4.069c.338 0 .601-.088.79-.264a.93.93 0 00.304-.708c0-.311-.102-.554-.304-.729-.189-.189-.452-.284-.79-.284h-3.361v1.985h3.361zm6.1-3.847h2.126v3.543h3.462c1.039 0 1.836.297 2.389.891.567.594.851 1.336.851 2.227 0 .877-.291 1.62-.871 2.227-.567.594-1.357.891-2.369.891h-5.588v-9.779zm5.325 5.406h-3.199v2.51h3.199c.418 0 .742-.114.972-.344.243-.229.364-.533.364-.911s-.121-.682-.364-.911c-.23-.23-.554-.344-.972-.344zM979.37 253h-2.126v-9.779h2.126V253zm7.268.243c-1.485 0-2.713-.472-3.685-1.417-.958-.959-1.437-2.2-1.437-3.726 0-1.431.465-2.639 1.397-3.624.945-.999 2.133-1.498 3.563-1.498 1.445 0 2.605.499 3.483 1.498.891.999 1.336 2.274 1.336 3.827v.506h-7.552c.081.769.398 1.41.952 1.923.553.513 1.275.77 2.166.77.499 0 .999-.095 1.498-.284a3.48 3.48 0 001.276-.789l.972 1.397c-.986.945-2.308 1.417-3.969 1.417zm2.592-5.932c-.027-.675-.277-1.276-.749-1.802-.459-.527-1.127-.79-2.005-.79-.837 0-1.491.263-1.964.79a2.93 2.93 0 00-.789 1.802h5.507zm13.82 5.932c-1.49 0-2.7-.479-3.647-1.438-.944-.971-1.417-2.206-1.417-3.705 0-1.485.473-2.706 1.417-3.664.947-.972 2.157-1.458 3.647-1.458 1.63 0 2.88.58 3.74 1.741l-1.39 1.296c-.54-.77-1.29-1.154-2.25-1.154-.89 0-1.61.303-2.15.911-.54.594-.81 1.37-.81 2.328 0 .959.27 1.741.81 2.349.54.607 1.26.911 2.15.911.93 0 1.68-.385 2.25-1.154l1.39 1.296c-.86 1.161-2.11 1.741-3.74 1.741zm7.65-.243h-2.04v-9.779h2.12v6.58l4.5-6.58h2.12V253h-2.12v-6.762L1010.7 253zm13.92.243c-1.49 0-2.7-.479-3.64-1.438-.95-.971-1.42-2.206-1.42-3.705 0-1.485.47-2.706 1.42-3.664.94-.972 2.15-1.458 3.64-1.458 1.63 0 2.88.58 3.75 1.741l-1.4 1.296c-.54-.77-1.29-1.154-2.25-1.154-.89 0-1.61.303-2.15.911-.54.594-.81 1.37-.81 2.328 0 .959.27 1.741.81 2.349.54.607 1.26.911 2.15.911.93 0 1.68-.385 2.25-1.154l1.4 1.296c-.87 1.161-2.12 1.741-3.75 1.741zm9.52-.243h-2.13v-7.917h-2.79v-1.862h7.73v1.862h-2.81V253zm9.07.243c-1.49 0-2.72-.472-3.69-1.417-.96-.959-1.44-2.2-1.44-3.726 0-1.431.47-2.639 1.4-3.624.95-.999 2.13-1.498 3.57-1.498s2.6.499 3.48 1.498c.89.999 1.33 2.274 1.33 3.827v.506h-7.55c.08.769.4 1.41.95 1.923.56.513 1.28.77 2.17.77.5 0 1-.095 1.5-.284.51-.189.94-.452 1.27-.789l.98 1.397c-.99.945-2.31 1.417-3.97 1.417zm2.59-5.932c-.03-.675-.28-1.276-.75-1.802-.46-.527-1.13-.79-2-.79-.84 0-1.5.263-1.97.79a2.976 2.976 0 00-.79 1.802h5.51zm15.12 5.689h-2.13v-6.803l-2.92 6.803h-.85l-2.93-6.803V253h-2.13v-9.779h2.78l2.71 6.317 2.67-6.317h2.8V253zm2.74-9.779h2.13v3.543h3.46c1.04 0 1.84.297 2.39.891.57.594.85 1.336.85 2.227 0 .877-.29 1.62-.87 2.227-.57.594-1.35.891-2.37.891h-5.59v-9.779zm5.33 5.406h-3.2v2.51h3.2c.42 0 .74-.114.97-.344.24-.229.37-.533.37-.911s-.13-.682-.37-.911c-.23-.23-.55-.344-.97-.344zm7.11 4.373h-2.13v-9.779h2.13V253z" fill="#253942"/><circle cx="851" cy="247" r="23" fill="#10B899"/><path fill-rule="evenodd" clip-rule="evenodd" d="M861.297 247.28c-.573-3.989-3.063-8.729-6.52-11.331-1.416-1.066-3.146-1.759-4.738-1.917-3.933-.393-7.438 2.886-8.488 6.483-1.439 4.788-.11 11.179 4.576 16.016l.002.002a.022.022 0 00.003.005 10.713 10.713 0 001.314 1.082c1.921 1.483 3.815 2.421 6.609 2.447 2.724.025 3.463-1.273 2.331-3.685-1.373-2.924-3.763-1.997-6.181-4.879-.751-.897-1.361-1.922-1.84-3.004-1.978-4.466-1.324-9.054 1.461-10.246 2.786-1.192 6.205 1.282 8.184 5.748.501 1.13.867 2.129 1.081 3.208.233 1.172.714 1.316 1.372 1.709.773.462 1.023-.324.834-1.638z" fill="#fff"/><path fill-rule="evenodd" clip-rule="evenodd" d="M850.934 243.685c1.135-.485 2.707.595 3.513 2.413.806 1.819.539 3.686-.595 4.172-1.134.485-2.707-.595-3.513-2.414-.805-1.818-.539-3.686.595-4.171zm7.349 13.143c.513 1.074 1.057.731 1.032-.353-.016-.677-.04-.806-.073-1.527-.029-.653.006-1.324.656-1.472.174-.039.34-.065.679-.142.305-.069.473-.133.524-.24.113-.24-.122-.523-.592-.757a50.521 50.521 0 00-2.962-1.374c-1.134-.48-1.552-.714-1.77-.52-.201.18.016.623.609 2.042a171.173 171.173 0 001.897 4.343z" fill="#fff"/><path fill-rule="evenodd" clip-rule="evenodd" d="M854.4 235.691c.62.408 1.427 1.023 2.087 1.676 2.571 2.549 4.295 6.333 4.81 9.913.056.386.156 1.136.149 1.571-.016 1.051-.39 1.861-1.018 1.76-.718-.118-1.087-.734-1.116-1.505a13.283 13.283 0 00-.221-1.897c-.215-1.079-.581-2.078-1.081-3.208-1.979-4.466-5.398-6.939-8.184-5.748-1.437.614-2.174 2.25-2.418 3.739-.606 3.685.948 7.859 4.226 10.837-7.185-3.976-7.952-13.852-4.145-17.04 1.861-1.559 3.973-2.034 6.911-.098z" fill="#fff"/><path d="M675.917 38.243c-2.025 0-3.712-.648-5.062-1.944-1.35-1.309-2.025-2.99-2.025-5.041 0-2.052.675-3.726 2.025-5.021 1.35-1.31 3.037-1.964 5.062-1.964 2.348 0 4.157 1.012 5.426 3.037l-2.025 1.032a3.918 3.918 0 00-1.437-1.417 3.755 3.755 0 00-1.964-.547c-1.337 0-2.45.46-3.341 1.377-.878.918-1.316 2.085-1.316 3.503 0 1.417.438 2.585 1.316 3.503.891.917 2.004 1.376 3.341 1.376.715 0 1.376-.182 1.984-.546a3.96 3.96 0 001.417-1.418l2.025 1.033c-1.296 2.025-3.105 3.037-5.426 3.037zm15.36-.243h-2.126v-1.053c-.756.864-1.809 1.296-3.159 1.296-.891 0-1.68-.284-2.369-.85-.688-.58-1.032-1.377-1.032-2.39 0-1.039.337-1.828 1.012-2.368.689-.54 1.485-.81 2.389-.81 1.391 0 2.443.418 3.159 1.255v-1.458c0-.567-.209-1.012-.628-1.336-.418-.324-.972-.486-1.66-.486-1.093 0-2.059.412-2.895 1.235l-.871-1.478c1.107-1.053 2.477-1.58 4.11-1.58 1.201 0 2.18.284 2.936.851.756.567 1.134 1.465 1.134 2.693V38zm-4.455-1.215c1.067 0 1.843-.337 2.329-1.012v-1.478c-.486-.675-1.262-1.013-2.329-1.013-.607 0-1.106.162-1.498.486-.391.324-.587.75-.587 1.276s.196.952.587 1.276c.392.31.891.465 1.498.465zM696.078 38h-2.045v-9.78h2.126v6.581l4.495-6.58h2.126V38h-2.126v-6.762L696.078 38zm5.872-12.594c-.878 1.188-2.059 1.782-3.544 1.782-1.471 0-2.659-.594-3.563-1.782l.972-.81c.648.891 1.511 1.337 2.591 1.337 1.08 0 1.937-.446 2.572-1.337l.972.81zM709.448 38h-2.126v-7.917h-2.794v-1.862h7.735v1.862h-2.815V38zm17.854 0h-2.126v-1.053c-.756.864-1.809 1.296-3.158 1.296a3.62 3.62 0 01-2.369-.85c-.689-.58-1.033-1.377-1.033-2.39 0-1.039.338-1.828 1.012-2.368.689-.54 1.485-.81 2.39-.81 1.39 0 2.443.418 3.158 1.255v-1.458c0-.567-.209-1.012-.628-1.336-.418-.324-.971-.486-1.66-.486-1.093 0-2.058.412-2.895 1.235l-.871-1.478c1.107-1.053 2.477-1.58 4.11-1.58 1.202 0 2.18.284 2.936.851.756.567 1.134 1.465 1.134 2.693V38zm-4.454-1.215c1.066 0 1.842-.337 2.328-1.012v-1.478c-.486-.675-1.262-1.013-2.328-1.013-.608 0-1.107.162-1.499.486-.391.324-.587.75-.587 1.276s.196.952.587 1.276c.392.31.891.465 1.499.465zM736.051 38h-5.993v-9.78h5.852c.904 0 1.613.237 2.126.71.513.472.769 1.073.769 1.801 0 .567-.155 1.046-.466 1.438a2.26 2.26 0 01-1.174.79c.526.121.965.411 1.316.87.351.446.526.952.526 1.519 0 .782-.263 1.424-.789 1.923-.513.486-1.235.729-2.167.729zm-.445-1.863c.378 0 .675-.094.891-.283.216-.203.324-.473.324-.81 0-.31-.108-.574-.324-.79-.216-.216-.513-.324-.891-.324h-3.422v2.207h3.422zm-.061-4.07c.338 0 .601-.087.79-.263a.93.93 0 00.304-.708c0-.31-.102-.554-.304-.73-.189-.188-.452-.283-.79-.283h-3.361v1.985h3.361zM745.553 38h-2.126v-7.917h-2.794v-1.862h7.734v1.862h-2.814V38zm8.968.243c-1.511 0-2.726-.493-3.644-1.478-.918-.999-1.377-2.22-1.377-3.665 0-1.444.459-2.659 1.377-3.644.918-.986 2.133-1.478 3.644-1.478 1.526 0 2.747.492 3.665 1.478.918.985 1.377 2.2 1.377 3.644 0 1.458-.459 2.68-1.377 3.665-.918.985-2.139 1.478-3.665 1.478zm0-1.883c.878 0 1.566-.31 2.066-.931.512-.635.769-1.41.769-2.329 0-.904-.257-1.667-.769-2.288-.5-.634-1.188-.951-2.066-.951-.863 0-1.552.317-2.065.951-.499.621-.749 1.384-.749 2.288 0 .918.25 1.694.749 2.329.513.62 1.202.931 2.065.931zm11.647 1.883c-1.484 0-2.699-.48-3.644-1.438-.945-.971-1.417-2.206-1.417-3.705 0-1.485.472-2.706 1.417-3.665.945-.971 2.16-1.457 3.644-1.457 1.634 0 2.882.58 3.746 1.741l-1.397 1.296c-.54-.77-1.289-1.154-2.247-1.154-.891 0-1.607.303-2.147.91-.54.595-.81 1.37-.81 2.33 0 .958.27 1.74.81 2.348.54.607 1.256.911 2.147.911.931 0 1.68-.385 2.247-1.154l1.397 1.296c-.864 1.16-2.112 1.741-3.746 1.741zM779.877 38h-2.126v-1.053c-.756.864-1.809 1.296-3.159 1.296a3.62 3.62 0 01-2.368-.85c-.689-.58-1.033-1.377-1.033-2.39 0-1.039.337-1.828 1.012-2.368.689-.54 1.485-.81 2.389-.81 1.391 0 2.444.418 3.159 1.255v-1.458c0-.567-.209-1.012-.628-1.336-.418-.324-.972-.486-1.66-.486-1.093 0-2.058.412-2.895 1.235l-.871-1.478c1.107-1.053 2.477-1.58 4.11-1.58 1.202 0 2.18.284 2.936.851.756.567 1.134 1.465 1.134 2.693V38zm-4.454-1.215c1.066 0 1.842-.337 2.328-1.012v-1.478c-.486-.675-1.262-1.013-2.328-1.013-.608 0-1.107.162-1.499.486-.391.324-.587.75-.587 1.276s.196.952.587 1.276c.392.31.891.465 1.499.465zm6.198 1.458v-1.741c.418 0 .749-.27.992-.81.256-.54.466-1.444.628-2.713l.587-4.758h7.552V38h-2.126v-7.917h-3.543l-.345 3.139c-.188 1.755-.587 3.03-1.194 3.826-.607.797-1.458 1.195-2.551 1.195zm16.934 0c-1.512 0-2.727-.493-3.645-1.478-.918-.999-1.377-2.22-1.377-3.665 0-1.444.459-2.659 1.377-3.644.918-.986 2.133-1.478 3.645-1.478 1.525 0 2.746.492 3.664 1.478.918.985 1.377 2.2 1.377 3.644 0 1.458-.459 2.68-1.377 3.665-.918.985-2.139 1.478-3.664 1.478zm0-1.883c.877 0 1.565-.31 2.065-.931.513-.635.769-1.41.769-2.329 0-.904-.256-1.667-.769-2.288-.5-.634-1.188-.951-2.065-.951-.864 0-1.553.317-2.066.951-.499.621-.749 1.384-.749 2.288 0 .918.25 1.694.749 2.329.513.62 1.202.931 2.066.931zm9.318 1.64h-2.126v-9.78h2.126v3.848h4.495V28.22h2.126V38h-2.126v-4.07h-4.495V38zm17.48 0h-2.126v-1.053c-.755.864-1.808 1.296-3.158 1.296a3.62 3.62 0 01-2.369-.85c-.688-.58-1.033-1.377-1.033-2.39 0-1.039.338-1.828 1.013-2.368.688-.54 1.485-.81 2.389-.81 1.39 0 2.443.418 3.158 1.255v-1.458c0-.567-.209-1.012-.627-1.336-.419-.324-.972-.486-1.66-.486-1.094 0-2.059.412-2.896 1.235l-.87-1.478c1.106-1.053 2.477-1.58 4.11-1.58 1.201 0 2.18.284 2.936.851.755.567 1.133 1.465 1.133 2.693V38zm-4.454-1.215c1.066 0 1.843-.337 2.328-1.012v-1.478c-.485-.675-1.262-1.013-2.328-1.013-.607 0-1.107.162-1.498.486-.392.324-.587.75-.587 1.276s.195.952.587 1.276c.391.31.891.465 1.498.465z" fill="#253942"/><circle cx="636" cy="33" r="23" fill="#10B899"/><path fill-rule="evenodd" clip-rule="evenodd" d="M646.297 33.28c-.573-3.99-3.063-8.729-6.52-11.331-1.416-1.066-3.146-1.759-4.738-1.917-3.933-.393-7.438 2.886-8.488 6.483-1.439 4.788-.11 11.179 4.576 16.016l.002.002a.044.044 0 00.003.005l.012.01c.29.296.856.762 1.302 1.072 1.921 1.483 3.815 2.42 6.609 2.447 2.724.025 3.463-1.273 2.331-3.685-1.373-2.924-3.763-1.997-6.181-4.88-.751-.896-1.361-1.921-1.84-3.003-1.978-4.466-1.324-9.054 1.461-10.246 2.786-1.192 6.205 1.282 8.184 5.748.501 1.13.867 2.13 1.081 3.208.233 1.172.714 1.316 1.372 1.71.773.461 1.023-.325.834-1.639z" fill="#fff"/><path fill-rule="evenodd" clip-rule="evenodd" d="M635.934 29.684c1.134-.485 2.707.596 3.513 2.414.805 1.819.539 3.686-.595 4.172-1.135.485-2.707-.596-3.513-2.414-.805-1.819-.54-3.686.595-4.172zm7.349 13.144c.513 1.074 1.057.73 1.032-.353-.016-.678-.04-.806-.073-1.527-.029-.653.006-1.324.656-1.472.174-.04.34-.065.679-.142.305-.07.473-.133.524-.24.113-.24-.122-.523-.592-.758a50.997 50.997 0 00-2.962-1.373c-1.134-.48-1.552-.715-1.77-.52-.201.18.016.623.609 2.042.681 1.63 1.606 3.71 1.897 4.343z" fill="#fff"/><path fill-rule="evenodd" clip-rule="evenodd" d="M639.4 21.69a14.35 14.35 0 012.086 1.677c2.572 2.549 4.296 6.334 4.811 9.913.055.386.156 1.136.149 1.571-.016 1.051-.39 1.861-1.018 1.76-.718-.118-1.088-.734-1.116-1.505a13.277 13.277 0 00-.222-1.897c-.214-1.079-.58-2.078-1.081-3.208-1.978-4.466-5.398-6.94-8.183-5.748-1.438.614-2.174 2.25-2.419 3.739-.606 3.685.949 7.859 4.227 10.837-7.185-3.976-7.952-13.852-4.145-17.04 1.861-1.56 3.973-2.034 6.911-.098z" fill="#fff"/><path d="M458.917 224.243c-2.025 0-3.712-.648-5.062-1.944-1.35-1.309-2.025-2.99-2.025-5.041 0-2.052.675-3.726 2.025-5.021 1.35-1.31 3.037-1.964 5.062-1.964 2.348 0 4.157 1.012 5.426 3.037l-2.025 1.032a3.916 3.916 0 00-1.437-1.417 3.75 3.75 0 00-1.964-.547c-1.337 0-2.45.459-3.341 1.377-.878.918-1.316 2.085-1.316 3.503 0 1.417.438 2.585 1.316 3.502.891.918 2.004 1.377 3.341 1.377.715 0 1.376-.182 1.984-.546a3.961 3.961 0 001.417-1.418l2.025 1.033c-1.296 2.025-3.105 3.037-5.426 3.037zm11.675 0c-1.512 0-2.727-.493-3.645-1.478-.918-.999-1.376-2.22-1.376-3.665 0-1.444.458-2.659 1.376-3.644.918-.986 2.133-1.478 3.645-1.478 1.525 0 2.747.492 3.664 1.478.918.985 1.377 2.2 1.377 3.644 0 1.458-.459 2.68-1.377 3.665-.917.985-2.139 1.478-3.664 1.478zm0-1.883c.877 0 1.566-.31 2.065-.931.513-.635.769-1.411.769-2.329 0-.904-.256-1.667-.769-2.288-.499-.634-1.188-.951-2.065-.951-.864 0-1.552.317-2.065.951-.5.621-.75 1.384-.75 2.288 0 .918.25 1.694.75 2.329.513.621 1.201.931 2.065.931zm14.886 4.13V224h-7.694v-9.779h2.126v7.916h4.495v-7.916h2.126v7.916h1.073v4.353h-2.126zm5.918-2.49h-2.045v-9.779h2.126v6.58l4.495-6.58h2.126V224h-2.126v-6.762L491.396 224zm17.562 0h-2.126v-1.053c-.756.864-1.809 1.296-3.159 1.296-.891 0-1.68-.283-2.369-.85-.688-.581-1.032-1.377-1.032-2.39 0-1.039.337-1.829 1.012-2.368.688-.54 1.485-.81 2.389-.81 1.39 0 2.443.418 3.159 1.255v-1.458c0-.567-.21-1.012-.628-1.336-.419-.324-.972-.486-1.66-.486-1.094 0-2.059.412-2.896 1.235l-.87-1.478c1.107-1.053 2.477-1.579 4.11-1.579 1.201 0 2.18.283 2.936.85.756.567 1.134 1.465 1.134 2.693V224zm-4.455-1.215c1.067 0 1.843-.337 2.329-1.012v-1.478c-.486-.675-1.262-1.013-2.329-1.013-.607 0-1.107.162-1.498.486-.392.324-.587.75-.587 1.276s.195.952.587 1.276c.391.31.891.465 1.498.465zm6.198 1.458v-1.741c.419 0 .75-.27.993-.81.256-.54.465-1.444.627-2.713l.587-4.758h7.552V224h-2.125v-7.917h-3.544l-.344 3.139c-.189 1.754-.587 3.03-1.194 3.826-.608.797-1.458 1.195-2.552 1.195zm12.52-10.022h2.126v3.543h3.462c1.04 0 1.836.297 2.39.891.567.594.85 1.336.85 2.227 0 .877-.29 1.62-.871 2.227-.567.594-1.356.891-2.369.891h-5.588v-9.779zm5.325 5.406h-3.199v2.51h3.199c.419 0 .743-.114.972-.344.243-.229.365-.533.365-.911s-.122-.682-.365-.911c-.229-.23-.553-.344-.972-.344zm7.735 4.373h-2.126v-9.779h2.126v3.847h4.495v-3.847h2.126V224h-2.126v-4.07h-4.495V224zm9.382-9.779h2.126v3.543h3.462c1.04 0 1.836.297 2.389.891.567.594.851 1.336.851 2.227 0 .877-.291 1.62-.871 2.227-.567.594-1.356.891-2.369.891h-5.588v-9.779zm5.325 5.406h-3.199v2.51h3.199c.418 0 .742-.114.972-.344.243-.229.364-.533.364-.911s-.121-.682-.364-.911c-.23-.23-.554-.344-.972-.344zm7.107 4.373h-2.126v-9.779h2.126V224zm7.268.243c-1.484 0-2.713-.472-3.685-1.417-.958-.959-1.437-2.2-1.437-3.726 0-1.431.466-2.639 1.397-3.624.945-.999 2.133-1.498 3.563-1.498 1.445 0 2.605.499 3.483 1.498.891.999 1.336 2.274 1.336 3.827v.506h-7.552c.081.769.398 1.41.952 1.923.553.513 1.275.77 2.166.77.499 0 .999-.095 1.498-.284a3.48 3.48 0 001.276-.789l.972 1.397c-.986.945-2.308 1.417-3.969 1.417zm2.592-5.932c-.027-.675-.277-1.276-.749-1.802-.459-.527-1.127-.79-2.005-.79-.837 0-1.491.263-1.964.79a2.93 2.93 0 00-.789 1.802h5.507zm13.818 5.932c-1.485 0-2.7-.479-3.644-1.438-.945-.971-1.418-2.206-1.418-3.705 0-1.485.473-2.706 1.418-3.664.944-.972 2.159-1.458 3.644-1.458 1.633 0 2.882.58 3.746 1.741l-1.397 1.296c-.54-.77-1.289-1.154-2.248-1.154-.891 0-1.606.303-2.146.911-.54.594-.81 1.37-.81 2.328 0 .959.27 1.741.81 2.349.54.607 1.255.911 2.146.911.932 0 1.681-.385 2.248-1.154l1.397 1.296c-.864 1.161-2.113 1.741-3.746 1.741zm10.125 0c-1.485 0-2.713-.472-3.685-1.417-.958-.959-1.438-2.2-1.438-3.726 0-1.431.466-2.639 1.397-3.624.945-.999 2.133-1.498 3.564-1.498 1.444 0 2.605.499 3.482 1.498.891.999 1.337 2.274 1.337 3.827v.506h-7.552a2.96 2.96 0 00.951 1.923c.554.513 1.276.77 2.167.77a4.21 4.21 0 001.498-.284 3.467 3.467 0 001.275-.789l.972 1.397c-.985.945-2.308 1.417-3.968 1.417zm2.591-5.932c-.027-.675-.276-1.276-.749-1.802-.459-.527-1.127-.79-2.004-.79-.837 0-1.492.263-1.964.79a2.93 2.93 0 00-.79 1.802h5.507zm8.072 5.689h-2.126v-7.917h-2.794v-1.862h7.734v1.862h-2.814V224zm6.6 0h-2.045v-9.779h2.126v6.58l4.494-6.58h2.126V224h-2.126v-6.762L609.161 224z" fill="#253942"/><circle cx="418" cy="217" r="23" fill="#10B899"/><path fill-rule="evenodd" clip-rule="evenodd" d="M428.297 217.28c-.573-3.989-3.063-8.729-6.52-11.331-1.416-1.066-3.146-1.759-4.738-1.917-3.933-.393-7.438 2.886-8.488 6.483-1.439 4.788-.11 11.179 4.576 16.016l.002.002a.022.022 0 00.003.005 10.713 10.713 0 001.314 1.082c1.921 1.483 3.815 2.421 6.609 2.447 2.724.025 3.463-1.273 2.331-3.685-1.373-2.924-3.763-1.997-6.181-4.879-.751-.897-1.361-1.922-1.84-3.004-1.978-4.466-1.324-9.054 1.461-10.246 2.786-1.192 6.205 1.282 8.184 5.748.501 1.13.867 2.129 1.081 3.208.233 1.172.714 1.316 1.372 1.709.773.462 1.023-.324.834-1.638z" fill="#fff"/><path fill-rule="evenodd" clip-rule="evenodd" d="M417.934 213.685c1.134-.485 2.707.595 3.513 2.414.805 1.818.539 3.686-.595 4.172-1.135.484-2.707-.596-3.513-2.415-.805-1.818-.54-3.686.595-4.171zm7.349 13.143c.513 1.075 1.057.731 1.032-.353-.016-.677-.04-.805-.073-1.527-.029-.652.006-1.324.656-1.472.174-.039.34-.064.679-.141.305-.07.473-.133.524-.241.113-.24-.122-.523-.592-.757a50.521 50.521 0 00-2.962-1.374c-1.134-.48-1.552-.714-1.77-.519-.201.179.016.623.609 2.041a171.173 171.173 0 001.897 4.343z" fill="#fff"/><path fill-rule="evenodd" clip-rule="evenodd" d="M421.4 205.691c.62.408 1.427 1.023 2.086 1.677 2.572 2.548 4.296 6.333 4.811 9.912.055.386.156 1.136.149 1.572-.016 1.05-.39 1.861-1.018 1.759-.718-.117-1.088-.733-1.116-1.505a13.276 13.276 0 00-.222-1.897c-.214-1.079-.58-2.077-1.081-3.208-1.978-4.466-5.398-6.939-8.183-5.747-1.438.614-2.174 2.249-2.419 3.738-.606 3.685.949 7.859 4.227 10.837-7.185-3.975-7.952-13.852-4.145-17.04 1.861-1.559 3.973-2.034 6.911-.098z" fill="#fff"/><path d="M64.375 169.896c-2.025 0-3.712-.648-5.062-1.944-1.35-1.309-2.024-2.99-2.024-5.041 0-2.052.675-3.726 2.024-5.022 1.35-1.309 3.037-1.964 5.062-1.964 2.349 0 4.157 1.013 5.426 3.037l-2.025 1.033a3.914 3.914 0 00-1.437-1.417 3.746 3.746 0 00-1.964-.547c-1.336 0-2.45.459-3.34 1.377-.878.918-1.317 2.085-1.317 3.503 0 1.417.439 2.584 1.316 3.502.891.918 2.005 1.377 3.341 1.377.715 0 1.377-.182 1.984-.547a3.952 3.952 0 001.418-1.417l2.024 1.033c-1.296 2.024-3.104 3.037-5.426 3.037zm15.36-.243H77.61V168.6c-.756.864-1.808 1.296-3.158 1.296a3.62 3.62 0 01-2.37-.851c-.688-.58-1.032-1.376-1.032-2.389 0-1.039.338-1.829 1.013-2.369.688-.54 1.484-.809 2.389-.809 1.39 0 2.443.418 3.158 1.255v-1.458c0-.567-.209-1.012-.627-1.336-.419-.324-.972-.486-1.66-.486-1.094 0-2.06.412-2.896 1.235l-.87-1.478c1.106-1.053 2.476-1.579 4.11-1.579 1.2 0 2.18.283 2.935.85.756.567 1.134 1.464 1.134 2.693v6.479zm-4.454-1.215c1.066 0 1.842-.337 2.328-1.012v-1.478c-.486-.675-1.262-1.013-2.328-1.013-.608 0-1.107.162-1.498.486-.392.324-.588.749-.588 1.276 0 .526.196.951.588 1.275.391.311.89.466 1.498.466zm9.255 1.215h-2.044v-9.779h2.125v6.58l4.495-6.58h2.126v9.779h-2.126v-6.763l-4.576 6.763zm5.872-12.594c-.877 1.188-2.058 1.782-3.543 1.782-1.471 0-2.66-.594-3.564-1.782l.972-.81c.648.891 1.512 1.337 2.592 1.337s1.937-.446 2.571-1.337l.972.81zm7.499 12.594H95.78v-7.917h-2.794v-1.862h7.734v1.862h-2.814v7.917zm4.555-9.779h2.126v3.543h3.462c1.039 0 1.835.297 2.389.891.567.594.85 1.336.85 2.227 0 .877-.29 1.62-.87 2.227-.567.594-1.357.891-2.369.891h-5.588v-9.779zm5.325 5.405h-3.199v2.511h3.199c.418 0 .742-.115.971-.344.243-.23.365-.533.365-.911s-.122-.682-.365-.911c-.229-.23-.553-.345-.971-.345zm7.106 4.374h-2.126v-9.779h2.126v9.779zm16.701 0h-2.126v-7.917h-4.495v7.917h-2.126v-9.779h8.747v9.779zm8.025.243c-1.296 0-2.342-.533-3.139-1.6v5.082h-2.125v-13.504h2.125v1.336c.783-1.053 1.829-1.579 3.139-1.579 1.282 0 2.321.459 3.118 1.376.81.918 1.215 2.167 1.215 3.746 0 1.579-.405 2.835-1.215 3.766-.797.918-1.836 1.377-3.118 1.377zm-.628-1.883c.837 0 1.505-.304 2.005-.911.499-.608.749-1.391.749-2.349 0-.958-.25-1.734-.749-2.328-.5-.608-1.168-.911-2.005-.911-.486 0-.965.128-1.437.384-.473.257-.831.567-1.074.932v3.867c.243.364.601.675 1.074.931.472.257.951.385 1.437.385zm11.483 1.883c-1.512 0-2.727-.493-3.645-1.478-.918-.999-1.377-2.221-1.377-3.665s.459-2.659 1.377-3.644c.918-.986 2.133-1.478 3.645-1.478 1.525 0 2.746.492 3.664 1.478.918.985 1.377 2.2 1.377 3.644 0 1.458-.459 2.679-1.377 3.665-.918.985-2.139 1.478-3.664 1.478zm0-1.883c.877 0 1.565-.311 2.065-.932.513-.634.769-1.41.769-2.328 0-.904-.256-1.667-.769-2.288-.5-.634-1.188-.951-2.065-.951-.864 0-1.553.317-2.066.951-.499.621-.749 1.384-.749 2.288 0 .918.25 1.694.749 2.328.513.621 1.202.932 2.066.932zm9.237 1.64h-2.045v-9.779h2.126v6.58l4.495-6.58h2.126v9.779h-2.126v-6.763l-4.576 6.763zm12.986.243c-1.917 0-3.415-.527-4.495-1.579l.992-1.357c.891.796 2.058 1.195 3.503 1.195.742 0 1.322-.115 1.741-.345.432-.243.648-.567.648-.971 0-.851-.857-1.276-2.572-1.276h-2.085v-1.701h2.085c.743 0 1.323-.108 1.742-.324.432-.216.648-.533.648-.951 0-.351-.223-.642-.669-.871-.445-.229-1.005-.344-1.68-.344-1.309 0-2.355.391-3.138 1.174l-1.053-1.296c1.039-1.066 2.402-1.599 4.09-1.599 1.444-.014 2.578.223 3.401.708.837.473 1.256 1.121 1.256 1.944 0 .621-.264 1.148-.79 1.579a3.559 3.559 0 01-1.802.77 3.79 3.79 0 011.903.688c.594.405.891.959.891 1.66 0 .851-.418 1.546-1.255 2.086-.824.54-1.944.81-3.361.81zm12.751-.243h-5.993v-9.779h5.852c.904 0 1.613.236 2.126.708.513.473.769 1.073.769 1.802 0 .567-.155 1.046-.466 1.438-.31.391-.702.654-1.174.789.526.122.965.412 1.316.871.351.445.527.952.527 1.518 0 .783-.264 1.425-.79 1.924-.513.486-1.235.729-2.167.729zm-.445-1.863c.378 0 .675-.094.891-.283.216-.203.324-.473.324-.81 0-.311-.108-.574-.324-.79-.216-.216-.513-.324-.891-.324h-3.422v2.207h3.422zm-.061-4.07c.338 0 .601-.087.79-.263a.93.93 0 00.304-.708c0-.311-.102-.554-.304-.729-.189-.189-.452-.284-.79-.284h-3.361v1.984h3.361zm10.514 6.176c-1.512 0-2.727-.493-3.645-1.478-.917-.999-1.376-2.221-1.376-3.665s.459-2.659 1.376-3.644c.918-.986 2.133-1.478 3.645-1.478 1.525 0 2.747.492 3.665 1.478.917.985 1.376 2.2 1.376 3.644 0 1.458-.459 2.679-1.376 3.665-.918.985-2.14 1.478-3.665 1.478zm0-1.883c.877 0 1.566-.311 2.065-.932.513-.634.769-1.41.769-2.328 0-.904-.256-1.667-.769-2.288-.499-.634-1.188-.951-2.065-.951-.864 0-1.552.317-2.065.951-.5.621-.749 1.384-.749 2.288 0 .918.249 1.694.749 2.328.513.621 1.201.932 2.065.932zm6.18 4.13v-4.252a1.534 1.534 0 001.033-.789c.243-.432.438-1.256.587-2.47l.587-4.758h7.552v7.916h1.073v4.353h-2.126v-2.49h-6.58v2.49h-2.126zm4.09-10.407l-.344 3.139c-.135 1.295-.567 2.267-1.296 2.915h5.183v-6.054h-3.543zm10.534 7.917h-2.045v-9.779h2.126v6.58l4.495-6.58h2.126v9.779h-2.126v-6.763l-4.576 6.763zm13.37 0h-2.125v-7.917h-2.795v-1.862h7.735v1.862h-2.815v7.917zm9.07.243c-1.484 0-2.713-.473-3.684-1.417-.959-.959-1.438-2.201-1.438-3.726 0-1.431.466-2.639 1.397-3.624.945-.999 2.133-1.498 3.564-1.498 1.444 0 2.605.499 3.482 1.498.891.999 1.336 2.274 1.336 3.827v.506h-7.552c.081.769.398 1.41.952 1.923.553.513 1.275.77 2.166.77.5 0 .999-.095 1.498-.284a3.46 3.46 0 001.276-.79l.972 1.398c-.985.944-2.308 1.417-3.969 1.417zm2.592-5.933c-.027-.674-.277-1.275-.749-1.802-.459-.526-1.127-.789-2.004-.789-.837 0-1.492.263-1.964.789a2.927 2.927 0 00-.79 1.802h5.507zm3.151 5.933v-1.741c.419 0 .749-.27.992-.81.257-.54.466-1.445.628-2.713l.587-4.758h7.552v9.779h-2.126v-7.917h-3.543l-.344 3.139c-.189 1.754-.587 3.03-1.195 3.826-.607.797-1.457 1.195-2.551 1.195zm14.606-.243h-2.43l2.409-3.645a2.892 2.892 0 01-1.66-1.012c-.418-.526-.627-1.195-.627-2.004 0-.878.283-1.613.85-2.207.58-.608 1.377-.911 2.389-.911h5.588v9.779h-2.126v-3.543h-2.247l-2.146 3.543zm1.194-5.406h3.199v-2.511h-3.199c-.405 0-.729.122-.972.365-.243.229-.364.526-.364.891 0 .378.115.681.344.911.243.229.574.344.992.344z" fill="#253942"/><circle cx="23" cy="163" r="23" fill="#10B899"/><path fill-rule="evenodd" clip-rule="evenodd" d="M33.297 163.28c-.573-3.99-3.063-8.729-6.52-11.331-1.416-1.066-3.146-1.759-4.738-1.917-3.933-.393-7.438 2.886-8.488 6.483-1.439 4.788-.11 11.179 4.576 16.016l.002.002.003.005a.112.112 0 01.012.01c.29.296.857.761 1.302 1.072 1.92 1.483 3.815 2.421 6.61 2.447 2.723.025 3.462-1.273 2.33-3.686-1.372-2.924-3.763-1.997-6.18-4.879-.752-.896-1.362-1.922-1.84-3.003-1.98-4.466-1.325-9.054 1.46-10.246 2.786-1.192 6.205 1.282 8.184 5.748.5 1.13.866 2.129 1.08 3.208.234 1.171.715 1.315 1.373 1.709.773.462 1.023-.324.834-1.638z" fill="#fff"/><path fill-rule="evenodd" clip-rule="evenodd" d="M22.934 159.686c1.134-.485 2.707.595 3.513 2.414.806 1.818.539 3.686-.595 4.172-1.134.484-2.707-.596-3.513-2.415-.805-1.818-.54-3.686.595-4.171zm7.349 13.141c.513 1.075 1.057.731 1.032-.353-.016-.677-.04-.805-.073-1.526-.03-.653.006-1.324.656-1.472.174-.039.34-.065.679-.142.305-.069.473-.133.524-.24.112-.24-.122-.524-.592-.758a50.955 50.955 0 00-2.962-1.373c-1.134-.481-1.552-.715-1.77-.52-.2.179.015.623.609 2.041a173.167 173.167 0 001.897 4.343z" fill="#fff"/><path fill-rule="evenodd" clip-rule="evenodd" d="M26.4 151.691c.62.408 1.427 1.023 2.086 1.676 2.572 2.549 4.296 6.333 4.81 9.913.056.386.157 1.136.15 1.571-.016 1.051-.39 1.861-1.018 1.76-.718-.118-1.087-.734-1.116-1.505a13.294 13.294 0 00-.222-1.897c-.214-1.079-.58-2.078-1.08-3.208-1.98-4.466-5.399-6.939-8.184-5.748-1.437.614-2.174 2.25-2.419 3.739-.606 3.685.95 7.859 4.227 10.837-7.185-3.976-7.952-13.852-4.145-17.04 1.861-1.559 3.973-2.034 6.911-.098z" fill="#fff"/><path d="M1054.88 114.801h-2.27v-12.885h5.66c1.31 0 2.33.386 3.08 1.159.76.773 1.14 1.732 1.14 2.878 0 1.134-.38 2.093-1.14 2.879-.75.772-1.77 1.159-3.08 1.159h-3.39v4.81zm3.09-6.8c.64 0 1.17-.187 1.58-.56.41-.374.62-.869.62-1.488 0-.618-.21-1.114-.62-1.487-.41-.373-.94-.56-1.58-.56h-3.09v4.095h3.09zm13.69 6.8h-2.03v-1.005c-.72.824-1.72 1.237-3.01 1.237-.85 0-1.61-.271-2.26-.812-.66-.554-.99-1.313-.99-2.279 0-.992.32-1.745.97-2.26.65-.515 1.41-.773 2.28-.773 1.32 0 2.33.399 3.01 1.198v-1.391c0-.541-.2-.966-.6-1.275-.4-.309-.93-.464-1.58-.464-1.04 0-1.97.393-2.76 1.179l-.83-1.411c1.05-1.004 2.36-1.506 3.92-1.506 1.14 0 2.08.27 2.8.811.72.541 1.08 1.397 1.08 2.569v6.182zm-4.25-1.159c1.02 0 1.76-.322 2.22-.966v-1.41c-.46-.644-1.2-.966-2.22-.966-.58 0-1.06.154-1.43.463-.37.31-.56.715-.56 1.217 0 .503.19.908.56 1.217.37.297.85.445 1.43.445zm11.13 1.391c-1.42 0-2.58-.458-3.48-1.372-.9-.927-1.35-2.106-1.35-3.535 0-1.417.45-2.582 1.35-3.496.9-.928 2.06-1.391 3.48-1.391 1.56 0 2.75.553 3.57 1.661l-1.33 1.236c-.52-.734-1.23-1.101-2.14-1.101-.85 0-1.54.29-2.05.869-.52.567-.77 1.308-.77 2.222 0 .914.25 1.661.77 2.241.51.579 1.2.869 2.05.869.88 0 1.6-.367 2.14-1.101l1.33 1.236c-.82 1.108-2.01 1.662-3.57 1.662zm9.6 0c-1.42 0-2.57-.458-3.48-1.372-.9-.927-1.35-2.106-1.35-3.535 0-1.417.45-2.582 1.35-3.496.91-.928 2.06-1.391 3.48-1.391 1.56 0 2.75.553 3.57 1.661l-1.33 1.236c-.51-.734-1.23-1.101-2.14-1.101-.85 0-1.53.29-2.05.869-.52.567-.77 1.308-.77 2.222 0 .914.25 1.661.77 2.241.52.579 1.2.869 2.05.869.89 0 1.6-.367 2.14-1.101l1.33 1.236c-.82 1.108-2.01 1.662-3.57 1.662zm5.35-9.563h2.03v3.381h3.3c1 0 1.76.283 2.28.85.55.567.82 1.275.82 2.125 0 .837-.28 1.545-.83 2.125-.55.566-1.3.85-2.27.85h-5.33v-9.331zm5.08 5.158h-3.05v2.396h3.05c.4 0 .71-.11.93-.329.23-.219.35-.509.35-.869 0-.361-.12-.65-.35-.869-.22-.219-.53-.329-.93-.329zm6.78 4.173h-2.02v-9.331h2.02v9.331zm1.67.232v-1.662c.39 0 .71-.257.94-.772.25-.516.45-1.378.6-2.589l.56-4.54h7.21v9.331h-2.03v-7.553h-3.38l-.33 2.994c-.18 1.674-.56 2.891-1.14 3.651-.58.76-1.39 1.14-2.43 1.14zm20.67-.232h-2.55l-2.86-3.844-1.29 1.333v2.511h-2.03v-9.331h2.03v4.501l4.11-4.501h2.51l-3.88 4.231 3.96 5.1zm3.39 0h-1.95v-9.331h2.03v6.279l4.29-6.279h2.02v9.331h-2.02v-6.452l-4.37 6.452z" fill="#253942"/><circle cx="1019" cy="108" r="23" fill="#10B899"/><path fill-rule="evenodd" clip-rule="evenodd" d="M1029.3 108.28c-.58-3.989-3.07-8.729-6.52-11.331-1.42-1.066-3.15-1.759-4.74-1.917-3.93-.393-7.44 2.886-8.49 6.483-1.44 4.788-.11 11.179 4.58 16.016v.007c.01.004.01.007.01.01.29.296.86.762 1.31 1.072 1.92 1.483 3.81 2.421 6.61 2.447 2.72.025 3.46-1.273 2.33-3.685-1.38-2.924-3.77-1.997-6.18-4.879a12.092 12.092 0 01-1.84-3.004c-1.98-4.466-1.33-9.054 1.46-10.246 2.78-1.192 6.2 1.282 8.18 5.748.5 1.13.87 2.129 1.08 3.208.23 1.172.72 1.316 1.37 1.709.78.462 1.03-.324.84-1.638z" fill="#fff"/><path fill-rule="evenodd" clip-rule="evenodd" d="M1018.93 104.684c1.14-.485 2.71.596 3.52 2.414.8 1.819.54 3.686-.6 4.172-1.13.485-2.71-.596-3.51-2.414-.81-1.819-.54-3.686.59-4.172zm7.35 13.144c.52 1.074 1.06.73 1.03-.353-.01-.678-.04-.806-.07-1.527-.03-.653.01-1.324.66-1.472.17-.039.34-.065.68-.142.3-.069.47-.133.52-.24.11-.24-.12-.523-.59-.758-.88-.44-1.85-.905-2.96-1.373-1.14-.48-1.55-.715-1.77-.52-.2.18.01.623.61 2.042.68 1.631 1.6 3.71 1.89 4.343z" fill="#fff"/><path fill-rule="evenodd" clip-rule="evenodd" d="M1022.4 96.69c.62.41 1.43 1.024 2.09 1.677 2.57 2.549 4.29 6.333 4.81 9.913.05.386.15 1.136.15 1.571-.02 1.051-.39 1.861-1.02 1.76-.72-.118-1.09-.734-1.12-1.505-.02-.632-.12-1.386-.22-1.897-.21-1.079-.58-2.078-1.08-3.208-1.98-4.466-5.4-6.94-8.18-5.748-1.44.615-2.18 2.25-2.42 3.739-.61 3.685.95 7.859 4.22 10.837-7.18-3.976-7.95-13.852-4.14-17.04 1.86-1.56 3.97-2.034 6.91-.098z" fill="#fff"/><circle cx="141.538" cy="271.117" r="8.538" fill="#BDBDBD"/><path d="M175.478 277h-2.369v-10.022L168.959 277h-1.013l-4.13-10.022V277h-2.369v-13.505h3.341l3.664 8.889 3.685-8.889h3.341V277zm10.912 0h-2.125v-1.053c-.756.864-1.809 1.296-3.159 1.296a3.62 3.62 0 01-2.369-.85c-.688-.581-1.032-1.377-1.032-2.39 0-1.039.337-1.829 1.012-2.368.688-.54 1.485-.81 2.389-.81 1.39 0 2.443.418 3.159 1.255v-1.458c0-.567-.21-1.012-.628-1.336-.419-.324-.972-.486-1.66-.486-1.094 0-2.059.412-2.896 1.235l-.87-1.478c1.107-1.053 2.477-1.579 4.11-1.579 1.201 0 2.18.283 2.936.85.756.567 1.133 1.465 1.133 2.693V277zm-4.454-1.215c1.066 0 1.843-.337 2.329-1.012v-1.478c-.486-.675-1.263-1.013-2.329-1.013-.607 0-1.107.162-1.498.486-.392.324-.587.75-.587 1.276s.195.952.587 1.276c.391.31.891.465 1.498.465zm12.475 1.458c-1.296 0-2.342-.533-3.138-1.6v5.082h-2.126v-13.504h2.126v1.336c.783-1.053 1.829-1.579 3.138-1.579 1.282 0 2.322.459 3.118 1.377.81.917 1.215 2.166 1.215 3.745 0 1.58-.405 2.835-1.215 3.766-.796.918-1.836 1.377-3.118 1.377zm-.628-1.883c.837 0 1.505-.304 2.005-.911.499-.608.749-1.39.749-2.349 0-.958-.25-1.734-.749-2.328-.5-.608-1.168-.911-2.005-.911-.486 0-.965.128-1.437.384-.473.257-.83.567-1.073.932v3.867c.243.364.6.675 1.073.931.472.257.951.385 1.437.385zm16.221 1.64h-2.673l-2.997-4.029-1.356 1.397V277h-2.126v-9.779h2.126v4.717l4.313-4.717h2.632l-4.07 4.434 4.151 5.345zm5.922.243c-1.485 0-2.714-.472-3.685-1.417-.959-.959-1.438-2.2-1.438-3.726 0-1.431.466-2.639 1.397-3.624.945-.999 2.133-1.498 3.564-1.498 1.444 0 2.605.499 3.482 1.498.891.999 1.336 2.274 1.336 3.827v.506h-7.552c.081.769.398 1.41.952 1.923.553.513 1.275.77 2.166.77.5 0 .999-.095 1.499-.284a3.475 3.475 0 001.275-.789l.972 1.397c-.985.945-2.308 1.417-3.968 1.417zm2.591-5.932c-.027-.675-.277-1.276-.749-1.802-.459-.527-1.127-.79-2.004-.79-.837 0-1.492.263-1.964.79a2.925 2.925 0 00-.79 1.802h5.507zm8.071 5.689h-2.126v-7.917h-2.794v-1.862h7.735v1.862h-2.815V277zm13.302 0h-2.126v-7.917h-4.495V277h-2.126v-9.779h8.747V277zm1.749.243v-1.741c.418 0 .749-.27.992-.81.256-.54.465-1.444.627-2.713l.587-4.758h7.553V277h-2.126v-7.917h-3.544l-.344 3.139c-.189 1.754-.587 3.03-1.194 3.826-.608.797-1.458 1.195-2.551 1.195zm17.034 0c-1.484 0-2.713-.472-3.684-1.417-.959-.959-1.438-2.2-1.438-3.726 0-1.431.466-2.639 1.397-3.624.945-.999 2.133-1.498 3.563-1.498 1.445 0 2.606.499 3.483 1.498.891.999 1.336 2.274 1.336 3.827v.506h-7.552c.081.769.398 1.41.952 1.923.553.513 1.275.77 2.166.77.5 0 .999-.095 1.498-.284a3.471 3.471 0 001.276-.789l.972 1.397c-.985.945-2.308 1.417-3.969 1.417zm2.592-5.932c-.027-.675-.277-1.276-.749-1.802-.459-.527-1.127-.79-2.005-.79-.836 0-1.491.263-1.963.79a2.925 2.925 0 00-.79 1.802h5.507zm6.209 5.689h-2.045v-9.779h2.126v6.58l4.494-6.58h2.126V277h-2.126v-6.762L267.474 277zm5.871-12.594c-.877 1.188-2.058 1.782-3.543 1.782-1.471 0-2.659-.594-3.563-1.782l.971-.809c.648.89 1.512 1.336 2.592 1.336s1.937-.446 2.571-1.336l.972.809zm8.046 12.837c-1.485 0-2.7-.479-3.645-1.438-.945-.971-1.417-2.206-1.417-3.705 0-1.485.472-2.706 1.417-3.664.945-.972 2.16-1.458 3.645-1.458 1.633 0 2.881.58 3.745 1.741l-1.397 1.296c-.54-.77-1.289-1.154-2.247-1.154-.891 0-1.606.303-2.146.911-.54.594-.81 1.37-.81 2.328 0 .959.27 1.741.81 2.349.54.607 1.255.911 2.146.911.931 0 1.68-.385 2.247-1.154l1.397 1.296c-.864 1.161-2.112 1.741-3.745 1.741zM287 267.221h2.126v3.543h3.463c1.039 0 1.835.297 2.389.891.567.594.85 1.336.85 2.227 0 .877-.29 1.62-.871 2.227-.566.594-1.356.891-2.368.891H287v-9.779zm5.325 5.406h-3.199v2.51h3.199c.419 0 .743-.114.972-.344.243-.229.365-.533.365-.911s-.122-.682-.365-.911c-.229-.23-.553-.344-.972-.344zm7.107 4.373h-2.126v-9.779h2.126V277z" fill="#253942"/><circle cx="680.538" cy="162.079" r="8.538" fill="#BDBDBD"/><path d="M706.217 168h-2.369v-5.608l-5.244-7.897h2.713l3.726 5.791 3.685-5.791h2.713l-5.224 7.897V168zm8.518.243c-1.511 0-2.726-.493-3.644-1.478-.918-.999-1.377-2.22-1.377-3.665 0-1.444.459-2.659 1.377-3.644.918-.986 2.133-1.478 3.644-1.478 1.526 0 2.747.492 3.665 1.478.918.985 1.377 2.2 1.377 3.644 0 1.458-.459 2.68-1.377 3.665-.918.985-2.139 1.478-3.665 1.478zm0-1.883c.878 0 1.566-.31 2.066-.931.513-.635.769-1.411.769-2.329 0-.904-.256-1.667-.769-2.288-.5-.634-1.188-.951-2.066-.951-.863 0-1.552.317-2.065.951-.499.621-.749 1.384-.749 2.288 0 .918.25 1.694.749 2.329.513.621 1.202.931 2.065.931zm15.919 1.64h-2.125v-1.296c-.918 1.026-2.072 1.539-3.463 1.539-2.092 0-3.138-1.033-3.138-3.098v-6.924h2.126v6.155c0 .715.169 1.228.506 1.539.338.297.824.445 1.458.445.513 0 .992-.121 1.437-.364a3.234 3.234 0 001.074-.912v-6.863h2.125V168zm5.698.243c-.824 0-1.451-.216-1.883-.648-.419-.432-.628-1.053-.628-1.863v-5.649h-1.62v-1.862h1.62v-2.673h2.126v2.673h1.984v1.862h-1.984v5.123c0 .351.081.634.243.85.162.203.391.304.688.304.432 0 .749-.115.952-.344l.506 1.599c-.445.419-1.114.628-2.004.628zm12.256-.243h-2.126v-1.296c-.918 1.026-2.072 1.539-3.462 1.539-2.093 0-3.139-1.033-3.139-3.098v-6.924h2.126v6.155c0 .715.169 1.228.506 1.539.338.297.824.445 1.458.445.513 0 .992-.121 1.438-.364a3.24 3.24 0 001.073-.912v-6.863h2.126V168zm4.887-2.936c.23.365.581.675 1.053.932.486.243.972.364 1.458.364.837 0 1.505-.297 2.004-.891.513-.607.77-1.39.77-2.349 0-.958-.257-1.741-.77-2.348-.499-.608-1.167-.911-2.004-.911a2.99 2.99 0 00-1.438.384c-.472.257-.83.574-1.073.952v3.867zm0 2.936h-2.126v-13.505h2.126v5.082c.796-1.066 1.843-1.599 3.138-1.599 1.269 0 2.309.472 3.118 1.417.81.931 1.215 2.173 1.215 3.725 0 1.58-.405 2.828-1.215 3.746-.809.918-1.849 1.377-3.118 1.377-1.282 0-2.328-.526-3.138-1.579V168zm14.154.243c-1.485 0-2.713-.472-3.685-1.417-.958-.959-1.438-2.2-1.438-3.726 0-1.431.466-2.639 1.397-3.624.945-.999 2.133-1.498 3.564-1.498 1.444 0 2.605.499 3.482 1.498.891.999 1.337 2.274 1.337 3.827v.506h-7.552c.08.769.398 1.41.951 1.923.554.513 1.276.77 2.167.77a4.21 4.21 0 001.498-.284 3.467 3.467 0 001.275-.789l.972 1.397c-.985.945-2.308 1.417-3.968 1.417zm2.591-5.932c-.027-.675-.276-1.276-.749-1.802-.459-.527-1.127-.79-2.004-.79-.837 0-1.492.263-1.964.79a2.925 2.925 0 00-.79 1.802h5.507z" fill="#253942"/><rect x="175" width="209.264" height="77.893" rx="17.439" fill="#FFF8E6"/><path d="M212.736 38.412a5.44 5.44 0 100-10.88 5.44 5.44 0 000 10.88zm0-9.958a4.518 4.518 0 11-4.518 4.518 4.525 4.525 0 014.518-4.518zm0 11.319c-2.365 0-4.564.917-6.196 2.586-1.656 1.692-2.564 4.002-2.564 6.51.001.254.207.46.461.461h16.598c.254 0 .46-.207.461-.461 0-2.504-.908-4.818-2.563-6.505a8.594 8.594 0 00-6.197-2.591zm-7.828 8.635c.101-2.084.908-3.988 2.286-5.399 1.457-1.49 3.426-2.31 5.537-2.31 2.112 0 4.081.82 5.537 2.31 1.384 1.41 2.186 3.315 2.287 5.399h-15.647z" fill="#F37060" stroke="#F37060" stroke-width="1.163"/><path d="M244.974 44.83h-2.896V33.856h-6.377V44.83h-2.875V31.325h12.148V44.83zm10.902-1.236c-.945.986-2.201 1.479-3.766 1.479-1.566 0-2.821-.493-3.766-1.479-.932-.998-1.397-2.22-1.397-3.664s.465-2.66 1.397-3.645c.945-.985 2.2-1.478 3.766-1.478 1.565 0 2.821.493 3.766 1.478.944.986 1.417 2.2 1.417 3.645 0 1.444-.473 2.666-1.417 3.664zm-5.589-1.62c.446.54 1.053.81 1.823.81.769 0 1.376-.27 1.822-.81.459-.553.688-1.234.688-2.044 0-.797-.229-1.465-.688-2.005-.446-.553-1.053-.83-1.822-.83-.77 0-1.377.277-1.823.83-.445.54-.668 1.208-.668 2.005 0 .81.223 1.491.668 2.045zm13.307 2.856h-2.591v-7.532h-2.734V35.05h8.058v2.248h-2.733v7.532zm9.934.243c-1.228 0-2.234-.5-3.017-1.499v4.981h-2.571V35.05h2.571v1.235c.77-.985 1.775-1.478 3.017-1.478 1.282 0 2.322.46 3.118 1.377.81.905 1.215 2.153 1.215 3.746s-.405 2.848-1.215 3.766c-.796.918-1.836 1.377-3.118 1.377zm-.81-2.288c.743 0 1.337-.264 1.782-.79.459-.526.688-1.215.688-2.065 0-.837-.229-1.519-.688-2.045-.445-.526-1.039-.79-1.782-.79-.418 0-.837.108-1.255.324-.419.216-.736.48-.952.79v3.462c.216.31.533.574.952.79.432.216.85.324 1.255.324zm11.622 2.288c-1.512 0-2.76-.473-3.746-1.418-.985-.945-1.478-2.186-1.478-3.725 0-1.444.473-2.66 1.418-3.645.958-.985 2.173-1.478 3.644-1.478 1.458 0 2.639.5 3.543 1.499.905.985 1.357 2.28 1.357 3.887v.567h-7.269a2.48 2.48 0 00.871 1.62c.499.432 1.147.648 1.944.648.432 0 .897-.088 1.397-.264.513-.175.917-.411 1.214-.708l1.134 1.66c-.985.904-2.328 1.357-4.029 1.357zm2.248-6.054c-.041-.554-.264-1.053-.669-1.499-.391-.445-.971-.668-1.741-.668-.729 0-1.296.223-1.701.668a2.588 2.588 0 00-.708 1.499h4.819zm7.06 2.936c.446.553 1.053.83 1.823.83.769 0 1.376-.277 1.822-.83.459-.554.688-1.242.688-2.066 0-.77-.229-1.424-.688-1.964-.446-.553-1.053-.83-1.822-.83-.77 0-1.377.27-1.823.81-.445.54-.668 1.201-.668 1.984 0 .824.223 1.512.668 2.066zm1.823 3.118c-1.593 0-2.855-.52-3.787-1.56-.917-1.052-1.376-2.395-1.376-4.029 0-2.335.418-4.083 1.255-5.244.837-1.16 2.112-1.855 3.827-2.085 1.471-.216 2.206-.493 2.206-.83h2.673c0 1.417-1.356 2.295-4.07 2.632-2.038.27-3.212 1.087-3.523 2.45.81-1.066 1.924-1.6 3.341-1.6 1.364 0 2.47.5 3.321 1.499.864.998 1.296 2.2 1.296 3.604 0 1.444-.473 2.665-1.418 3.664-.931 1-2.18 1.499-3.745 1.499zm9.62-.243h-2.47v-9.78h2.571v5.912l4.029-5.912h2.592v9.78h-2.572v-6.135l-4.15 6.135zm13.668 0h-2.591v-7.532h-2.734V35.05h8.058v2.248h-2.733v7.532zm8.942.243c-1.512 0-2.76-.473-3.746-1.418-.985-.945-1.478-2.186-1.478-3.725 0-1.444.473-2.66 1.418-3.645.958-.985 2.173-1.478 3.644-1.478 1.458 0 2.639.5 3.543 1.499.905.985 1.357 2.28 1.357 3.887v.567h-7.269a2.48 2.48 0 00.871 1.62c.499.432 1.147.648 1.943.648.432 0 .898-.088 1.398-.264.512-.175.917-.411 1.214-.708l1.134 1.66c-.985.904-2.328 1.357-4.029 1.357zm2.247-6.054c-.04-.554-.263-1.053-.668-1.499-.391-.445-.972-.668-1.741-.668-.729 0-1.296.223-1.701.668a2.588 2.588 0 00-.708 1.499h4.818zm3.437 6.054v-2.106c.405 0 .729-.236.972-.709.243-.486.439-1.31.587-2.47l.628-4.738h7.916v9.78h-2.571v-7.532h-3.098l-.324 2.794c-.202 1.714-.634 2.976-1.296 3.786-.648.796-1.586 1.195-2.814 1.195zm12.656-10.023h2.571v3.361h3.341c1.08 0 1.917.304 2.511.911.594.608.891 1.37.891 2.288 0 .905-.304 1.667-.912 2.288-.607.621-1.437.932-2.49.932h-5.912v-9.78zm5.527 5.508h-2.956v2.105h2.956c.351 0 .628-.094.83-.283.216-.203.324-.46.324-.77s-.108-.56-.324-.749c-.202-.202-.479-.303-.83-.303z" fill="#F37060"/></svg>