<svg width="326" height="400" fill="none" xmlns="http://www.w3.org/2000/svg"><path d="M36 111c5-16.5 37.1-46.8 91.5-72M36 111c-9.334 24.667-13.5 101.5 15 151.5M36 111c66 22 42.5 24.5 120.5 53M36 111c80.5 55 102.5 158 195 208.5M36 111c33.833.333 40-37.5 219-21M36 111c49 10.5 193-13 243 115.5M29.5 111C-17.5 230-2 338 101 376" stroke="#D0D0D0" stroke-opacity=".5" stroke-dasharray="6 6"/><path d="M279.5 231.5C283 269 261 298 233.5 322c-48.667 8.5-109 15.5-173-56.5M234 318c9.5-93 34-117.5 41-217" stroke="#D0D0D0" stroke-opacity=".5" stroke-dasharray="6 6"/><path d="M272 90c-75 8-61.993 65-108 79.5M272 90c9 7.5 28 65.5 14.5 127.5M272 90c-58 84-59 130-203.5 174.5M272 90s-14.981 79.531-44.5 146.5c-33.5 76-107.899 147.115-125.5 135-38.5-26.5 41-157 35-319.5m15.5 120c-33 21-70 47-88 92.5M227.5 35c26 10 40 35 46 52M202 46c15 85 82 93.5 79 168.5M116 52c-4 89.5-70.5 96-57 202.5m117-207c35 61 51.5 122 56 273M70.5 269c70.5 4 128 2.5 205-41m-108-50c26.333 12 31 7.5 99 39.5M159 59.5v98m5 25l65 136m57.5-93c6 29-8.5 155.5-184.5 151" stroke="#D0D0D0" stroke-opacity=".5" stroke-dasharray="6 6"/><path d="M58.5 268.5c0 34 4.5 84 44 105.5m0 0C153 374 208 357 232 321.5M102.5 374c66-52.5 20.5-93.5 56-196" stroke="#D0D0D0" stroke-opacity=".5" stroke-dasharray="6 6"/><path d="M245.983 258.83h-1.861v-8.974h-5.521v8.974h-1.862v-10.613h9.244v10.613zm5.675.191c-1.188 0-2.142-.388-2.864-1.162-.721-.785-1.082-1.745-1.082-2.88 0-1.135.361-2.089 1.082-2.864.722-.774 1.676-1.161 2.864-1.161 1.199 0 2.159.387 2.88 1.161.721.775 1.082 1.729 1.082 2.864 0 1.146-.361 2.106-1.082 2.88-.721.774-1.681 1.162-2.88 1.162zm0-1.48c.69 0 1.231-.244 1.623-.732.403-.499.605-1.109.605-1.83 0-.711-.202-1.31-.605-1.798-.392-.498-.933-.748-1.623-.748-.679 0-1.22.25-1.623.748-.392.488-.588 1.087-.588 1.798 0 .721.196 1.331.588 1.83.403.488.944.732 1.623.732zm7.259 1.289h-1.607v-7.685h1.671v5.171l3.532-5.171h1.671v7.685h-1.671v-5.315l-3.596 5.315zm10.937.191c-1.167 0-2.122-.377-2.864-1.13-.743-.764-1.114-1.734-1.114-2.912 0-1.167.371-2.127 1.114-2.88.742-.763 1.697-1.145 2.864-1.145 1.283 0 2.264.456 2.943 1.368l-1.098 1.018c-.424-.604-1.013-.907-1.766-.907-.7 0-1.262.239-1.686.716-.425.467-.637 1.077-.637 1.83 0 .753.212 1.369.637 1.846.424.477.986.716 1.686.716.732 0 1.321-.302 1.766-.907l1.098 1.018c-.679.912-1.66 1.369-2.943 1.369zm11.6-.191h-2.1l-2.355-3.167-1.066 1.098v2.069h-1.671v-7.685h1.671v3.707l3.389-3.707h2.068l-3.198 3.484 3.262 4.201zm4.574.191c-1.188 0-2.143-.388-2.864-1.162-.721-.785-1.082-1.745-1.082-2.88 0-1.135.361-2.089 1.082-2.864.721-.774 1.676-1.161 2.864-1.161 1.199 0 2.158.387 2.88 1.161.721.775 1.082 1.729 1.082 2.864 0 1.146-.361 2.106-1.082 2.88-.722.774-1.681 1.162-2.88 1.162zm0-1.48c.689 0 1.23-.244 1.623-.732.403-.499.604-1.109.604-1.83 0-.711-.201-1.31-.604-1.798-.393-.498-.934-.748-1.623-.748-.679 0-1.22.25-1.623.748-.392.488-.589 1.087-.589 1.798 0 .721.197 1.331.589 1.83.403.488.944.732 1.623.732zm10.362 1.289h-4.71v-7.685h4.598c.711 0 1.268.185 1.671.557.403.371.605.843.605 1.416 0 .445-.122.822-.366 1.129a1.774 1.774 0 01-.923.621c.413.095.758.323 1.034.684.276.35.414.748.414 1.193 0 .615-.207 1.119-.621 1.512-.403.382-.97.573-1.702.573zm-.35-1.464c.297 0 .53-.074.7-.223.169-.159.254-.371.254-.636a.848.848 0 00-.254-.621c-.17-.17-.403-.254-.7-.254h-2.689v1.734h2.689zm-.048-3.198c.265 0 .472-.069.62-.207a.728.728 0 00.239-.557c0-.244-.079-.435-.239-.573-.148-.148-.355-.223-.62-.223h-2.641v1.56h2.641zm4.793-3.023h1.671v2.784h2.721c.816 0 1.442.233 1.877.7.446.467.668 1.05.668 1.75 0 .69-.228 1.273-.684 1.751-.445.466-1.066.7-1.861.7h-4.392v-7.685zm4.185 4.248h-2.514v1.973h2.514c.329 0 .583-.09.764-.271.19-.18.286-.419.286-.716s-.096-.535-.286-.716c-.181-.18-.435-.27-.764-.27zm5.585 3.437h-1.671v-7.685h1.671v7.685zm5.711.191c-1.166 0-2.132-.372-2.895-1.114-.753-.753-1.13-1.729-1.13-2.928 0-1.124.366-2.074 1.098-2.848.742-.785 1.676-1.177 2.8-1.177 1.135 0 2.047.392 2.737 1.177.7.785 1.05 1.787 1.05 3.007v.398h-5.935c.064.605.313 1.109.748 1.512s1.002.604 1.702.604a3.3 3.3 0 001.178-.223 2.718 2.718 0 001.002-.62l.764 1.098c-.774.742-1.814 1.114-3.119 1.114zm2.037-4.662a2.191 2.191 0 00-.589-1.416c-.36-.414-.885-.621-1.575-.621-.657 0-1.172.207-1.543.621a2.306 2.306 0 00-.621 1.416h4.328zm-65.16 23.662c-1.167 0-2.122-.377-2.864-1.13-.743-.764-1.114-1.734-1.114-2.912 0-1.167.371-2.127 1.114-2.88.742-.763 1.697-1.145 2.864-1.145 1.283 0 2.264.456 2.943 1.368l-1.098 1.018c-.424-.604-1.013-.907-1.766-.907-.7 0-1.262.239-1.686.716-.425.467-.637 1.077-.637 1.83 0 .753.212 1.369.637 1.846.424.477.986.716 1.686.716.732 0 1.321-.302 1.766-.907l1.098 1.018c-.679.912-1.66 1.369-2.943 1.369zm6.015-.191h-1.607v-7.685h1.671v5.171l3.532-5.171h1.671v7.685h-1.671v-5.315l-3.596 5.315zm10.937.191c-1.167 0-2.122-.377-2.864-1.13-.743-.764-1.114-1.734-1.114-2.912 0-1.167.371-2.127 1.114-2.88.742-.763 1.697-1.145 2.864-1.145 1.283 0 2.264.456 2.943 1.368l-1.098 1.018c-.424-.604-1.013-.907-1.766-.907-.7 0-1.262.239-1.686.716-.425.467-.637 1.077-.637 1.83 0 .753.212 1.369.637 1.846.424.477.986.716 1.686.716.732 0 1.321-.302 1.766-.907l1.098 1.018c-.679.912-1.66 1.369-2.943 1.369zm7.479-.191h-1.671v-6.222h-2.196v-1.463h6.078v1.463h-2.211v6.222zm7.127.191c-1.166 0-2.132-.372-2.895-1.114-.754-.753-1.13-1.729-1.13-2.928 0-1.124.366-2.074 1.098-2.848.742-.785 1.676-1.177 2.8-1.177 1.135 0 2.047.392 2.737 1.177.7.785 1.05 1.787 1.05 3.007v.398h-5.935c.064.605.313 1.109.748 1.512s1.002.604 1.702.604a3.3 3.3 0 001.178-.223 2.718 2.718 0 001.002-.62l.764 1.098c-.775.742-1.814 1.114-3.119 1.114zm2.037-4.662a2.196 2.196 0 00-.589-1.416c-.36-.414-.886-.621-1.575-.621-.658 0-1.172.207-1.543.621a2.3 2.3 0 00-.621 1.416h4.328zm11.88 4.471h-1.671v-5.346l-2.291 5.346h-.669l-2.307-5.346v5.346h-1.67v-7.685h2.18l2.132 4.964 2.1-4.964h2.196v7.685zm2.16-7.685h1.67v2.784h2.721c.817 0 1.442.233 1.877.7.446.467.669 1.05.669 1.75 0 .69-.228 1.273-.685 1.751-.445.466-1.066.7-1.861.7h-4.391v-7.685zm4.184 4.248h-2.514v1.973h2.514c.329 0 .583-.09.764-.271.191-.18.286-.419.286-.716s-.095-.535-.286-.716c-.181-.18-.435-.27-.764-.27zm5.585 3.437h-1.671v-7.685h1.671v7.685z" fill="#253942"/><circle cx="280.168" cy="219.074" r="18.074" fill="#10B899"/><path fill-rule="evenodd" clip-rule="evenodd" d="M288.26 219.296c-.451-3.135-2.407-6.86-5.124-8.905-1.113-.838-2.472-1.382-3.723-1.506-3.091-.309-5.845 2.268-6.67 5.094-1.131 3.763-.087 8.785 3.595 12.587l.002.001.003.004a8.556 8.556 0 001.032.85c1.509 1.165 2.997 1.902 5.194 1.923 2.14.02 2.721-1 1.831-2.896-1.078-2.298-2.957-1.569-4.857-3.834a9.97 9.97 0 01-1.446-2.36c-1.555-3.51-1.041-7.115 1.148-8.052 2.19-.937 4.876 1.007 6.431 4.517.394.888.681 1.673.85 2.521.183.921.561 1.034 1.078 1.343.607.363.804-.255.656-1.287z" fill="#fff"/><path fill-rule="evenodd" clip-rule="evenodd" d="M280.116 216.468c.891-.382 2.127.467 2.761 1.896.633 1.43.423 2.897-.468 3.279-.891.381-2.127-.468-2.76-1.897s-.425-2.897.467-3.278zm5.775 10.329c.403.844.831.574.811-.277-.013-.533-.032-.633-.057-1.2-.023-.513.004-1.041.516-1.157.136-.03.267-.051.533-.111.24-.055.372-.105.412-.189.088-.188-.096-.411-.466-.595a40.12 40.12 0 00-2.327-1.08c-.891-.377-1.22-.561-1.391-.408-.158.141.012.49.478 1.604a140.286 140.286 0 001.491 3.413z" fill="#fff"/><path fill-rule="evenodd" clip-rule="evenodd" d="M282.84 210.187a11.32 11.32 0 011.639 1.318c2.021 2.002 3.376 4.977 3.78 7.79.044.303.123.892.118 1.234-.013.826-.307 1.463-.8 1.383-.565-.092-.855-.576-.878-1.183a10.476 10.476 0 00-.173-1.49c-.169-.848-.456-1.633-.85-2.521-1.555-3.51-4.242-5.453-6.431-4.517-1.129.483-1.708 1.768-1.9 2.938-.477 2.896.745 6.176 3.321 8.516-5.646-3.124-6.249-10.886-3.257-13.39 1.462-1.226 3.122-1.599 5.431-.078z" fill="#fff"/><path d="M146.748 206.347c-1.591 0-2.916-.509-3.977-1.528-1.061-1.029-1.591-2.349-1.591-3.962 0-1.612.53-2.927 1.591-3.945 1.061-1.029 2.386-1.544 3.977-1.544 1.846 0 3.268.796 4.265 2.387l-1.591.811a3.08 3.08 0 00-1.13-1.113 2.943 2.943 0 00-1.544-.43c-1.05 0-1.925.361-2.625 1.082-.689.721-1.034 1.639-1.034 2.752 0 1.114.345 2.032 1.034 2.753.7.721 1.575 1.082 2.625 1.082.563 0 1.082-.143 1.56-.43a3.118 3.118 0 001.114-1.113l1.591.811c-1.019 1.591-2.44 2.387-4.265 2.387zm12.071-.191h-1.671v-.828c-.594.679-1.421 1.019-2.482 1.019-.7 0-1.32-.223-1.861-.669-.541-.456-.812-1.081-.812-1.877 0-.817.266-1.437.796-1.862a2.958 2.958 0 011.877-.636c1.093 0 1.92.329 2.482.986v-1.145c0-.446-.164-.796-.493-1.05-.329-.255-.764-.382-1.304-.382-.86 0-1.618.323-2.276.97l-.684-1.161c.87-.827 1.947-1.241 3.23-1.241.944 0 1.713.223 2.307.668.594.446.891 1.151.891 2.116v5.092zm-3.5-.955c.838 0 1.448-.265 1.829-.795v-1.162c-.381-.53-.991-.795-1.829-.795-.478 0-.87.127-1.178.381a1.24 1.24 0 00-.461 1.003c0 .413.154.748.461 1.002.308.244.7.366 1.178.366zm7.273.955h-1.607v-7.685h1.671v5.171l3.532-5.171h1.67v7.685h-1.67v-5.314l-3.596 5.314zm4.614-9.897c-.689.934-1.617 1.4-2.784 1.4-1.156 0-2.09-.466-2.801-1.4l.764-.636c.509.7 1.188 1.05 2.037 1.05.848 0 1.522-.35 2.02-1.05l.764.636zm5.893 9.897h-1.671v-6.221h-2.195v-1.464h6.077v1.464h-2.211v6.221zm-48.339 19h-1.671v-.828c-.594.679-1.421 1.019-2.482 1.019-.7 0-1.32-.223-1.861-.669-.541-.456-.812-1.081-.812-1.877 0-.817.266-1.437.796-1.862a2.958 2.958 0 011.877-.636c1.093 0 1.92.329 2.482.986v-1.145c0-.446-.164-.796-.493-1.05-.329-.255-.764-.382-1.305-.382-.859 0-1.617.323-2.275.97l-.684-1.161c.87-.827 1.947-1.241 3.23-1.241.944 0 1.713.223 2.307.668.594.446.891 1.151.891 2.116v5.092zm-3.5-.955c.838 0 1.448-.265 1.829-.795v-1.162c-.381-.53-.991-.795-1.829-.795-.478 0-.87.127-1.178.381a1.24 1.24 0 00-.461 1.003c0 .413.154.748.461 1.002.308.244.7.366 1.178.366zm10.376.955h-4.71v-7.685h4.598c.711 0 1.268.185 1.671.557.403.371.604.843.604 1.416 0 .445-.122.822-.365 1.129a1.774 1.774 0 01-.923.621c.413.095.758.323 1.034.684.276.35.414.748.414 1.193 0 .616-.207 1.12-.621 1.512-.403.382-.97.573-1.702.573zm-.35-1.464c.297 0 .53-.074.7-.223.169-.159.254-.371.254-.636a.848.848 0 00-.254-.621c-.17-.169-.403-.254-.7-.254h-2.689v1.734h2.689zm-.048-3.198c.265 0 .472-.069.62-.207a.73.73 0 00.239-.557c0-.244-.08-.435-.239-.573-.148-.148-.355-.222-.62-.222h-2.641v1.559h2.641zm7.864 4.662h-1.671v-6.221h-2.195v-1.464h6.078v1.464h-2.212v6.221zm7.048.191c-1.188 0-2.143-.387-2.864-1.162-.721-.785-1.082-1.745-1.082-2.88 0-1.135.361-2.089 1.082-2.864.721-.774 1.676-1.161 2.864-1.161 1.199 0 2.159.387 2.88 1.161.721.775 1.082 1.729 1.082 2.864 0 1.146-.361 2.106-1.082 2.88-.721.775-1.681 1.162-2.88 1.162zm0-1.48c.689 0 1.23-.244 1.623-.732.403-.498.604-1.108.604-1.83 0-.71-.201-1.31-.604-1.798-.393-.498-.934-.747-1.623-.747-.679 0-1.22.249-1.623.747-.392.488-.589 1.088-.589 1.798 0 .722.197 1.332.589 1.83.403.488.944.732 1.623.732zm9.153 1.48c-1.167 0-2.122-.377-2.864-1.13-.743-.764-1.114-1.734-1.114-2.912 0-1.166.371-2.126 1.114-2.879.742-.764 1.697-1.146 2.864-1.146 1.283 0 2.264.456 2.943 1.368l-1.098 1.019c-.424-.605-1.013-.907-1.766-.907-.7 0-1.262.238-1.686.716-.425.466-.637 1.076-.637 1.829 0 .753.212 1.369.637 1.846.424.477.986.716 1.686.716.732 0 1.321-.302 1.766-.907l1.098 1.018c-.679.913-1.66 1.369-2.943 1.369zm10.772-.191h-1.67v-.828c-.594.679-1.422 1.019-2.482 1.019a2.843 2.843 0 01-1.862-.669c-.541-.456-.811-1.081-.811-1.877 0-.817.265-1.437.795-1.862a2.958 2.958 0 011.878-.636c1.092 0 1.919.329 2.482.986v-1.145c0-.446-.165-.796-.494-1.05-.328-.255-.763-.382-1.304-.382-.859 0-1.618.323-2.276.97l-.684-1.161c.87-.827 1.947-1.241 3.23-1.241.944 0 1.713.223 2.307.668.594.446.891 1.151.891 2.116v5.092zm-3.5-.955c.838 0 1.448-.265 1.83-.795v-1.162c-.382-.53-.992-.795-1.83-.795-.477 0-.87.127-1.178.381a1.24 1.24 0 00-.461 1.003c0 .413.154.748.461 1.002.308.244.701.366 1.178.366zm4.871 1.146v-1.369c.329 0 .588-.212.779-.636.202-.424.366-1.135.494-2.132l.461-3.739h5.935v7.685h-1.671v-6.221h-2.784l-.271 2.466c-.148 1.379-.461 2.381-.939 3.007-.477.626-1.145.939-2.004.939zm13.307 0c-1.188 0-2.143-.387-2.864-1.162-.721-.785-1.082-1.745-1.082-2.88 0-1.135.361-2.089 1.082-2.864.721-.774 1.676-1.161 2.864-1.161 1.198 0 2.158.387 2.88 1.161.721.775 1.082 1.729 1.082 2.864 0 1.146-.361 2.106-1.082 2.88-.722.775-1.682 1.162-2.88 1.162zm0-1.48c.689 0 1.23-.244 1.623-.732.403-.498.604-1.108.604-1.83 0-.71-.201-1.31-.604-1.798-.393-.498-.934-.747-1.623-.747-.679 0-1.22.249-1.623.747-.393.488-.589 1.088-.589 1.798 0 .722.196 1.332.589 1.83.403.488.944.732 1.623.732zm7.323 1.289h-1.671v-7.685h1.671v3.023h3.532v-3.023h1.67v7.685h-1.67v-3.198h-3.532v3.198zm13.736 0h-1.67v-.828c-.594.679-1.422 1.019-2.482 1.019-.7 0-1.321-.223-1.862-.669-.541-.456-.811-1.081-.811-1.877 0-.817.265-1.437.795-1.862a2.958 2.958 0 011.878-.636c1.092 0 1.92.329 2.482.986v-1.145c0-.446-.165-.796-.494-1.05-.328-.255-.763-.382-1.304-.382-.859 0-1.618.323-2.275.97l-.685-1.161c.87-.827 1.947-1.241 3.23-1.241.944 0 1.713.223 2.307.668.594.446.891 1.151.891 2.116v5.092zm-3.5-.955c.838 0 1.448-.265 1.83-.795v-1.162c-.382-.53-.992-.795-1.83-.795-.477 0-.87.127-1.177.381a1.239 1.239 0 00-.462 1.003c0 .413.154.748.462 1.002.307.244.7.366 1.177.366z" fill="#253942"/><circle cx="159.91" cy="170.074" r="18.074" fill="#10B899"/><path fill-rule="evenodd" clip-rule="evenodd" d="M168.002 170.295c-.451-3.135-2.407-6.86-5.124-8.905-1.113-.837-2.472-1.382-3.723-1.506-3.091-.308-5.845 2.268-6.67 5.095-1.131 3.762-.087 8.784 3.595 12.586l.002.001.003.004.009.008c.228.232.673.598 1.023.842 1.509 1.166 2.998 1.903 5.194 1.923 2.14.02 2.721-1 1.832-2.896-1.079-2.298-2.958-1.569-4.858-3.834a9.95 9.95 0 01-1.446-2.36c-1.555-3.51-1.041-7.115 1.149-8.052 2.189-.937 4.875 1.007 6.431 4.517.393.888.681 1.673.849 2.521.183.921.561 1.034 1.078 1.343.608.363.805-.254.656-1.287z" fill="#fff"/><path fill-rule="evenodd" clip-rule="evenodd" d="M159.858 167.47c.891-.382 2.127.467 2.761 1.896.633 1.429.423 2.897-.468 3.279-.892.381-2.127-.468-2.76-1.897s-.425-2.897.467-3.278zm5.775 10.328c.404.844.831.574.811-.278-.012-.532-.031-.633-.057-1.2-.023-.512.004-1.04.516-1.156.136-.031.267-.051.533-.112.24-.054.372-.104.412-.189.088-.188-.096-.411-.466-.595a39.843 39.843 0 00-2.327-1.079c-.891-.377-1.22-.562-1.391-.409-.158.142.012.49.478 1.605a140.286 140.286 0 001.491 3.413z" fill="#fff"/><path fill-rule="evenodd" clip-rule="evenodd" d="M162.582 161.188a11.32 11.32 0 011.639 1.318c2.021 2.002 3.376 4.977 3.78 7.79.044.303.123.892.118 1.234-.013.826-.307 1.463-.8 1.383-.565-.092-.855-.576-.878-1.183a10.326 10.326 0 00-.174-1.49c-.168-.848-.455-1.633-.849-2.521-1.555-3.51-4.242-5.453-6.431-4.517-1.129.483-1.708 1.768-1.9 2.938-.477 2.896.745 6.176 3.321 8.516-5.646-3.124-6.249-10.886-3.257-13.39 1.462-1.226 3.122-1.599 5.431-.078z" fill="#fff"/><path d="M223.866 128.96c-1.591 0-2.917-.509-3.978-1.527-1.061-1.029-1.591-2.35-1.591-3.962 0-1.613.53-2.928 1.591-3.946 1.061-1.029 2.387-1.543 3.978-1.543 1.846 0 3.267.795 4.264 2.386l-1.591.812a3.067 3.067 0 00-1.13-1.114 2.942 2.942 0 00-1.543-.43c-1.05 0-1.925.361-2.625 1.082-.69.721-1.035 1.639-1.035 2.753s.345 2.031 1.035 2.752c.7.722 1.575 1.082 2.625 1.082.562 0 1.082-.143 1.559-.429a3.12 3.12 0 001.114-1.114l1.591.811c-1.018 1.591-2.44 2.387-4.264 2.387zm9.175 0c-1.188 0-2.143-.387-2.864-1.162-.722-.784-1.082-1.744-1.082-2.879s.36-2.09 1.082-2.864c.721-.775 1.676-1.162 2.864-1.162 1.198 0 2.158.387 2.88 1.162.721.774 1.081 1.729 1.081 2.864 0 1.145-.36 2.105-1.081 2.879-.722.775-1.682 1.162-2.88 1.162zm0-1.48c.689 0 1.23-.244 1.623-.732.403-.498.604-1.108.604-1.829 0-.711-.201-1.31-.604-1.798-.393-.499-.934-.748-1.623-.748-.679 0-1.22.249-1.623.748-.393.488-.589 1.087-.589 1.798 0 .721.196 1.331.589 1.829.403.488.944.732 1.623.732zm11.698 3.246v-1.957h-6.046v-7.685h1.67v6.221h3.533v-6.221h1.67v6.221h.844v3.421h-1.671zm4.65-1.957h-1.607v-7.685h1.671v5.171l3.532-5.171h1.671v7.685h-1.671v-5.314l-3.596 5.314zm13.801 0h-1.671v-.827c-.594.679-1.421 1.018-2.482 1.018-.7 0-1.32-.223-1.861-.668-.541-.456-.812-1.082-.812-1.878 0-.817.265-1.437.796-1.861a2.95 2.95 0 011.877-.637c1.093 0 1.92.329 2.482.987v-1.146c0-.445-.164-.795-.493-1.05-.329-.255-.764-.382-1.305-.382-.859 0-1.617.324-2.275.971l-.684-1.162c.87-.827 1.946-1.241 3.23-1.241.944 0 1.713.223 2.307.668.594.446.891 1.151.891 2.117v5.091zm-3.501-.955c.838 0 1.448-.265 1.83-.795v-1.162c-.382-.53-.992-.795-1.83-.795-.477 0-.869.127-1.177.382a1.235 1.235 0 00-.461 1.002c0 .414.153.748.461 1.002.308.244.7.366 1.177.366zm4.871 1.146v-1.368c.329 0 .589-.212.78-.637.201-.424.366-1.135.493-2.132l.462-3.739h5.934v7.685h-1.67v-6.221h-2.785l-.27 2.466c-.149 1.379-.462 2.381-.939 3.007-.477.626-1.146.939-2.005.939zm9.839-7.876h1.671v2.785h2.72c.817 0 1.443.233 1.878.7.445.466.668 1.05.668 1.75 0 .689-.228 1.273-.684 1.75-.446.467-1.066.7-1.862.7h-4.391v-7.685zm4.184 4.248h-2.513v1.973h2.513c.329 0 .584-.09.764-.27.191-.181.287-.419.287-.716s-.096-.536-.287-.716c-.18-.181-.435-.271-.764-.271zm6.079 3.437h-1.671v-7.685h1.671v3.023h3.532v-3.023h1.671v7.685h-1.671v-3.198h-3.532v3.198zm7.372-7.685h1.671v2.785h2.721c.816 0 1.442.233 1.877.7.446.466.668 1.05.668 1.75 0 .689-.228 1.273-.684 1.75-.445.467-1.066.7-1.861.7h-4.392v-7.685zm4.185 4.248h-2.514v1.973h2.514c.329 0 .583-.09.764-.27.191-.181.286-.419.286-.716s-.095-.536-.286-.716c-.181-.181-.435-.271-.764-.271zm5.585 3.437h-1.671v-7.685h1.671v7.685zm5.712.191c-1.167 0-2.133-.371-2.896-1.114-.753-.753-1.13-1.729-1.13-2.927 0-1.125.366-2.074 1.098-2.848.742-.785 1.676-1.178 2.8-1.178 1.135 0 2.047.393 2.737 1.178.7.785 1.05 1.787 1.05 3.007v.398h-5.935c.064.604.313 1.108.748 1.511.435.403 1.002.605 1.703.605a3.32 3.32 0 001.177-.223 2.72 2.72 0 001.002-.621l.764 1.098c-.774.743-1.814 1.114-3.118 1.114zm2.036-4.662a2.196 2.196 0 00-.589-1.416c-.36-.414-.885-.62-1.575-.62-.657 0-1.172.206-1.543.62a2.306 2.306 0 00-.621 1.416h4.328zM255.09 147.96c-1.167 0-2.122-.377-2.864-1.13-.743-.763-1.114-1.734-1.114-2.911 0-1.167.371-2.127 1.114-2.88.742-.764 1.697-1.146 2.864-1.146 1.283 0 2.264.456 2.943 1.369l-1.098 1.018c-.424-.605-1.013-.907-1.766-.907-.7 0-1.262.239-1.686.716-.425.467-.637 1.077-.637 1.83 0 .753.212 1.368.637 1.845.424.478.986.716 1.686.716.732 0 1.321-.302 1.766-.907l1.098 1.019c-.679.912-1.66 1.368-2.943 1.368zm7.956 0c-1.167 0-2.132-.371-2.896-1.114-.753-.753-1.129-1.729-1.129-2.927 0-1.125.366-2.074 1.098-2.848.742-.785 1.676-1.178 2.8-1.178 1.135 0 2.047.393 2.737 1.178.7.785 1.05 1.787 1.05 3.007v.398h-5.935c.064.604.313 1.108.748 1.511.435.403 1.002.605 1.702.605.393 0 .785-.075 1.178-.223a2.72 2.72 0 001.002-.621l.764 1.098c-.775.743-1.814 1.114-3.119 1.114zm2.037-4.662a2.2 2.2 0 00-.589-1.416c-.361-.414-.886-.62-1.575-.62-.658 0-1.172.206-1.543.62a2.295 2.295 0 00-.621 1.416h4.328zm6.342 4.471h-1.67v-6.221h-2.196v-1.464h6.078v1.464h-2.212v6.221zm5.187 0h-1.607v-7.685h1.67v5.171l3.533-5.171h1.67v7.685h-1.67v-5.314l-3.596 5.314z" fill="#253942"/><circle cx="266.683" cy="91.074" r="18.074" fill="#10B899"/><path fill-rule="evenodd" clip-rule="evenodd" d="M274.776 91.296c-.451-3.135-2.407-6.86-5.124-8.905-1.113-.837-2.472-1.382-3.723-1.506-3.091-.309-5.845 2.268-6.671 5.094-1.131 3.763-.086 8.785 3.596 12.587l.002.001.002.004.009.008c.229.232.674.598 1.024.842 1.509 1.166 2.997 1.903 5.193 1.923 2.141.02 2.722-1 1.832-2.896-1.079-2.298-2.957-1.57-4.857-3.834a9.931 9.931 0 01-1.446-2.36c-1.555-3.51-1.041-7.115 1.148-8.052 2.19-.937 4.876 1.007 6.431 4.517.394.888.681 1.673.85 2.52.183.922.561 1.035 1.078 1.344.607.363.804-.254.656-1.287z" fill="#fff"/><path fill-rule="evenodd" clip-rule="evenodd" d="M266.632 88.469c.891-.382 2.127.467 2.76 1.896.633 1.43.424 2.897-.467 3.279-.892.38-2.128-.468-2.761-1.897-.633-1.43-.424-2.897.468-3.278zm5.774 10.328c.404.844.831.575.811-.277-.012-.532-.031-.633-.057-1.2-.023-.513.005-1.04.516-1.157.136-.03.267-.05.533-.111.24-.055.372-.105.412-.189.088-.189-.096-.411-.465-.595a39.992 39.992 0 00-2.328-1.08c-.891-.377-1.219-.561-1.391-.408-.158.141.012.49.479 1.604a137.343 137.343 0 001.49 3.413z" fill="#fff"/><path fill-rule="evenodd" clip-rule="evenodd" d="M269.355 82.187c.487.321 1.121.805 1.64 1.318 2.02 2.002 3.375 4.977 3.78 7.79.044.303.122.892.117 1.234-.013.826-.307 1.463-.8 1.383-.564-.092-.855-.576-.877-1.183a10.479 10.479 0 00-.174-1.49c-.169-.848-.456-1.633-.849-2.521-1.555-3.51-4.242-5.453-6.432-4.517-1.129.483-1.708 1.768-1.9 2.938-.476 2.896.746 6.176 3.322 8.516-5.647-3.124-6.25-10.886-3.258-13.39 1.463-1.226 3.122-1.6 5.431-.078z" fill="#fff"/><path d="M42.22 304.218c-1.591 0-2.917-.509-3.978-1.528-1.06-1.029-1.59-2.349-1.59-3.961 0-1.613.53-2.928 1.59-3.946 1.061-1.029 2.387-1.544 3.978-1.544 1.846 0 3.267.796 4.264 2.387l-1.59.811a3.072 3.072 0 00-1.13-1.113 2.942 2.942 0 00-1.544-.43c-1.05 0-1.925.361-2.625 1.082-.69.721-1.034 1.639-1.034 2.753 0 1.113.344 2.031 1.034 2.752.7.721 1.575 1.082 2.625 1.082a2.97 2.97 0 001.56-.43 3.108 3.108 0 001.113-1.113l1.591.811c-1.018 1.591-2.44 2.387-4.264 2.387zm12.07-.191h-1.67v-.828c-.594.679-1.421 1.019-2.482 1.019-.7 0-1.32-.223-1.862-.668-.54-.457-.811-1.082-.811-1.878 0-.817.265-1.437.795-1.862a2.957 2.957 0 011.878-.636c1.093 0 1.92.329 2.482.987v-1.146c0-.446-.164-.796-.493-1.05-.329-.255-.764-.382-1.305-.382-.86 0-1.617.324-2.275.971l-.684-1.162c.87-.827 1.946-1.241 3.23-1.241.944 0 1.713.223 2.307.668.594.446.89 1.151.89 2.116v5.092zm-3.5-.955c.838 0 1.448-.265 1.83-.795v-1.162c-.382-.53-.992-.795-1.83-.795-.477 0-.87.127-1.177.382a1.236 1.236 0 00-.462 1.002c0 .414.154.748.462 1.002.307.244.7.366 1.177.366zm7.274.955h-1.607v-7.685h1.67v5.171l3.532-5.171h1.671v7.685h-1.67v-5.314l-3.596 5.314zm4.614-9.897c-.69.934-1.618 1.4-2.785 1.4-1.156 0-2.09-.466-2.8-1.4l.764-.636c.509.7 1.188 1.05 2.036 1.05.849 0 1.523-.35 2.021-1.05l.764.636zm5.892 9.897H66.9v-6.221h-2.196v-1.464h6.078v1.464H68.57v6.221zm3.58-7.685h1.67v2.784h2.721c.817 0 1.443.234 1.878.7.445.467.668 1.051.668 1.751 0 .689-.228 1.272-.684 1.75-.446.466-1.066.7-1.862.7H72.15v-7.685zm4.184 4.248H73.82v1.973h2.514c.33 0 .584-.09.764-.27.191-.181.287-.419.287-.716s-.096-.536-.287-.716c-.18-.181-.435-.271-.764-.271zm5.585 3.437h-1.67v-7.685h1.67v7.685zm-69.576 19h-1.671v-6.221H7.14v6.221H5.47v-7.685h6.873v7.685zm6.306.191c-1.018 0-1.84-.419-2.466-1.257v3.993h-1.67v-10.612h1.67v1.05c.615-.827 1.437-1.241 2.466-1.241 1.008 0 1.824.361 2.45 1.082.637.721.955 1.702.955 2.943s-.318 2.228-.955 2.96c-.626.721-1.442 1.082-2.45 1.082zm-.493-1.48c.657 0 1.182-.239 1.575-.716.392-.477.589-1.092.589-1.846 0-.753-.197-1.363-.59-1.829-.392-.478-.917-.716-1.574-.716-.382 0-.759.1-1.13.302-.371.202-.652.446-.843.732v3.039c.19.286.472.53.843.732a2.35 2.35 0 001.13.302zm9.023 1.48c-1.188 0-2.142-.387-2.864-1.162-.721-.785-1.082-1.745-1.082-2.88 0-1.135.36-2.089 1.082-2.863.721-.775 1.676-1.162 2.864-1.162 1.199 0 2.159.387 2.88 1.162.721.774 1.082 1.728 1.082 2.863 0 1.146-.36 2.106-1.082 2.88-.721.775-1.681 1.162-2.88 1.162zm0-1.48c.69 0 1.23-.244 1.623-.732.403-.498.605-1.108.605-1.83 0-.71-.202-1.31-.605-1.797-.392-.499-.933-.748-1.623-.748-.679 0-1.22.249-1.623.748-.392.487-.588 1.087-.588 1.797 0 .722.196 1.332.588 1.83.403.488.944.732 1.623.732zm7.26 1.289H32.83v-7.685h1.67v5.171l3.533-5.171h1.67v7.685h-1.67v-5.314l-3.596 5.314zm10.204.191c-1.506 0-2.684-.414-3.532-1.241l.78-1.066c.7.626 1.617.938 2.752.938.583 0 1.04-.09 1.368-.27.34-.191.51-.446.51-.764 0-.668-.674-1.002-2.021-1.002h-1.64v-1.337h1.64c.583 0 1.04-.084 1.368-.254.34-.17.51-.419.51-.748 0-.276-.176-.504-.526-.684-.35-.18-.79-.271-1.32-.271-1.03 0-1.851.308-2.467.923l-.827-1.018c.817-.838 1.888-1.257 3.214-1.257 1.135-.011 2.026.175 2.673.557.657.371.986.88.986 1.527 0 .488-.206.902-.62 1.241a2.792 2.792 0 01-1.416.605c.54.042 1.04.223 1.495.541.467.318.7.753.7 1.305 0 .668-.328 1.214-.986 1.638-.647.425-1.527.637-2.641.637zm10.02-.191h-4.709v-7.685h4.598c.71 0 1.268.186 1.67.557.404.371.605.843.605 1.416 0 .445-.121.822-.365 1.13a1.776 1.776 0 01-.923.62c.413.096.758.324 1.034.684.276.35.414.748.414 1.194 0 .615-.207 1.119-.62 1.511-.404.382-.971.573-1.703.573zm-.35-1.464c.298 0 .53-.074.7-.223.17-.159.255-.371.255-.636a.846.846 0 00-.254-.621c-.17-.169-.403-.254-.7-.254h-2.69v1.734h2.69zm-.047-3.198c.265 0 .472-.069.62-.207a.73.73 0 00.239-.557c0-.244-.08-.435-.239-.573-.148-.148-.355-.222-.62-.222h-2.641v1.559h2.64zm8.262 4.853c-1.188 0-2.143-.387-2.864-1.162-.721-.785-1.082-1.745-1.082-2.88 0-1.135.36-2.089 1.082-2.863.721-.775 1.676-1.162 2.864-1.162 1.198 0 2.158.387 2.88 1.162.72.774 1.082 1.728 1.082 2.863 0 1.146-.361 2.106-1.082 2.88-.722.775-1.682 1.162-2.88 1.162zm0-1.48c.69 0 1.23-.244 1.623-.732.403-.498.604-1.108.604-1.83 0-.71-.201-1.31-.604-1.797-.393-.499-.934-.748-1.623-.748-.68 0-1.22.249-1.623.748-.393.487-.589 1.087-.589 1.797 0 .722.196 1.332.589 1.83.403.488.944.732 1.623.732zm4.856 3.246v-3.341c.361-.085.632-.292.812-.621.19-.339.345-.986.461-1.941l.462-3.739h5.934v6.221h.844v3.421h-1.67v-1.957h-5.172v1.957h-1.67zm3.214-8.178l-.27 2.466c-.106 1.018-.446 1.782-1.018 2.291h4.073v-4.757h-2.785zm8.279 6.221H77.27v-7.685h1.67v5.171l3.532-5.171h1.671v7.685h-1.67v-5.314l-3.596 5.314zm10.506 0h-1.67v-6.221h-2.196v-1.464h6.078v1.464h-2.212v6.221zm7.128.191c-1.167 0-2.132-.371-2.896-1.114-.753-.753-1.13-1.729-1.13-2.928 0-1.124.367-2.073 1.098-2.848.743-.785 1.676-1.177 2.8-1.177 1.136 0 2.048.392 2.737 1.177.7.785 1.05 1.788 1.05 3.008v.397h-5.934c.063.605.313 1.109.748 1.512.434.403 1.002.604 1.702.604.392 0 .785-.074 1.177-.222a2.736 2.736 0 001.003-.621l.763 1.098c-.774.743-1.813 1.114-3.118 1.114zm2.037-4.662a2.2 2.2 0 00-.59-1.416c-.36-.414-.885-.621-1.574-.621-.658 0-1.172.207-1.544.621a2.301 2.301 0 00-.62 1.416h4.328zm2.476 4.662v-1.369c.329 0 .589-.212.78-.636.201-.424.365-1.135.493-2.132l.461-3.739h5.935v7.685h-1.671v-6.221h-2.784l-.271 2.466c-.148 1.379-.461 2.381-.938 3.007-.478.626-1.146.939-2.005.939zm11.477-.191h-1.909l1.893-2.864a2.27 2.27 0 01-1.304-.796c-.329-.413-.494-.938-.494-1.575 0-.689.223-1.267.669-1.734.456-.477 1.082-.716 1.877-.716h4.392v7.685h-1.671v-2.785h-1.766l-1.687 2.785zm.939-4.248h2.514v-1.973h-2.514c-.318 0-.573.095-.764.286a.919.919 0 00-.286.7c0 .297.09.536.27.716.191.181.451.271.78.271z" fill="#253942"/><circle cx="59.706" cy="264.074" r="18.074" fill="#10B899"/><path fill-rule="evenodd" clip-rule="evenodd" d="M67.798 264.292c-.45-3.135-2.407-6.859-5.124-8.904-1.113-.838-2.472-1.382-3.723-1.506-3.09-.309-5.845 2.267-6.67 5.094-1.131 3.763-.087 8.785 3.596 12.586l.001.002.003.004.009.008c.228.232.673.598 1.023.842 1.51 1.165 2.998 1.902 5.194 1.923 2.14.02 2.721-1.001 1.832-2.896-1.08-2.298-2.958-1.57-4.857-3.834a9.957 9.957 0 01-1.447-2.36c-1.554-3.51-1.04-7.115 1.149-8.052 2.19-.937 4.875 1.007 6.43 4.517.394.888.682 1.673.85 2.521.184.92.561 1.033 1.079 1.343.607.363.804-.255.655-1.288z" fill="#fff"/><path fill-rule="evenodd" clip-rule="evenodd" d="M59.654 261.47c.892-.382 2.128.467 2.761 1.896.633 1.429.424 2.897-.467 3.279-.892.381-2.128-.468-2.76-1.897-.634-1.429-.425-2.897.466-3.278zm5.776 10.326c.402.845.83.574.81-.277-.012-.532-.032-.633-.057-1.2-.023-.513.004-1.041.516-1.157.136-.03.267-.051.533-.111.24-.055.372-.105.412-.189.088-.188-.096-.411-.466-.595a39.99 39.99 0 00-2.327-1.08c-.891-.377-1.22-.561-1.39-.408-.159.141.011.49.477 1.604a136.386 136.386 0 001.491 3.413z" fill="#fff"/><path fill-rule="evenodd" clip-rule="evenodd" d="M62.378 255.187c.487.321 1.121.805 1.64 1.318 2.02 2.002 3.375 4.977 3.78 7.79.043.303.122.892.117 1.234-.013.826-.307 1.463-.8 1.383-.564-.092-.855-.576-.877-1.183a10.44 10.44 0 00-.174-1.49c-.169-.848-.456-1.633-.85-2.521-1.554-3.51-4.242-5.453-6.43-4.517-1.13.483-1.709 1.768-1.901 2.938-.476 2.896.746 6.176 3.322 8.516-5.647-3.124-6.25-10.886-3.258-13.39 1.463-1.226 3.122-1.599 5.431-.078z" fill="#fff"/><path d="M4.854 152.156H3.078V142.03h4.448c1.022 0 1.826.304 2.413.911.597.608.896 1.361.896 2.262 0 .891-.299 1.645-.896 2.262-.587.607-1.391.911-2.413.911H4.854v3.78zm2.429-5.344c.506 0 .92-.146 1.245-.44.323-.293.485-.683.485-1.169s-.162-.875-.485-1.169c-.324-.293-.74-.44-1.245-.44h-2.43v3.218h2.43zm10.76 5.344H16.45v-.79c-.567.648-1.356.972-2.368.972a2.72 2.72 0 01-1.777-.638c-.516-.435-.774-1.032-.774-1.791 0-.779.253-1.371.76-1.776a2.82 2.82 0 011.79-.607c1.043 0 1.832.313 2.369.941v-1.093c0-.425-.157-.759-.471-1.002-.314-.243-.729-.364-1.245-.364-.82 0-1.543.308-2.17.926l-.653-1.108c.83-.79 1.857-1.184 3.081-1.184.901 0 1.635.212 2.201.637.567.425.85 1.098.85 2.019v4.858zm-3.34-.911c.8 0 1.382-.253 1.747-.759v-1.108c-.365-.506-.947-.759-1.746-.759-.456 0-.83.121-1.123.364a1.18 1.18 0 00-.44.956c0 .395.146.714.44.957.293.233.668.349 1.123.349zm8.747 1.093c-1.113 0-2.024-.359-2.733-1.078-.708-.729-1.062-1.655-1.062-2.778 0-1.113.354-2.029 1.062-2.748.709-.728 1.62-1.092 2.733-1.092 1.224 0 2.16.435 2.808 1.305l-1.047.972c-.405-.577-.967-.866-1.685-.866-.668 0-1.205.228-1.61.683-.404.446-.607 1.028-.607 1.746 0 .719.203 1.306.608 1.761.404.455.94.683 1.609.683.698 0 1.26-.288 1.685-.865l1.047.971c-.648.871-1.584 1.306-2.808 1.306zm7.546 0c-1.114 0-2.025-.359-2.733-1.078-.708-.729-1.063-1.655-1.063-2.778 0-1.113.355-2.029 1.063-2.748.708-.728 1.62-1.092 2.732-1.092 1.225 0 2.161.435 2.809 1.305l-1.048.972c-.404-.577-.966-.866-1.685-.866-.668 0-1.204.228-1.609.683-.405.446-.607 1.028-.607 1.746 0 .719.202 1.306.607 1.761.405.455.941.683 1.61.683.698 0 1.26-.288 1.684-.865l1.048.971c-.648.871-1.584 1.306-2.809 1.306zm4.206-7.514h1.593v2.656h2.596c.78 0 1.377.223 1.791.668.426.445.638 1.002.638 1.67 0 .658-.218 1.214-.653 1.67-.425.445-1.017.668-1.776.668h-4.19v-7.332zm3.992 4.053h-2.399v1.882h2.399c.314 0 .556-.086.728-.258.183-.172.274-.4.274-.683 0-.283-.091-.511-.273-.683-.172-.172-.415-.258-.73-.258zm5.328 3.279h-1.594v-7.332h1.594v7.332zm1.306.182v-1.306c.313 0 .561-.202.743-.607.193-.405.35-1.083.471-2.034l.44-3.567h5.663v7.332H51.55v-5.936h-2.657l-.258 2.353c-.142 1.316-.44 2.272-.896 2.869-.455.597-1.093.896-1.912.896zm16.248-.182h-2.004l-2.246-3.021-1.017 1.047v1.974h-1.594v-7.332h1.593v3.537l3.234-3.537h1.973l-3.05 3.324 3.111 4.008zm2.662 0h-1.533v-7.332h1.594v4.933l3.37-4.933h1.594v7.332h-1.594v-5.07l-3.43 5.07z" fill="#253942"/><circle cx="37.008" cy="111.074" r="18.074" fill="#10B899"/><path fill-rule="evenodd" clip-rule="evenodd" d="M45.1 111.296c-.451-3.135-2.407-6.86-5.124-8.905-1.113-.837-2.472-1.382-3.723-1.506-3.091-.308-5.845 2.268-6.67 5.095-1.131 3.762-.087 8.784 3.595 12.586l.002.001c0 .002.002.003.003.004l.009.008c.228.232.673.598 1.023.842 1.51 1.166 2.997 1.903 5.194 1.923 2.14.02 2.721-1 1.831-2.896-1.078-2.298-2.957-1.569-4.857-3.834a9.911 9.911 0 01-1.446-2.36c-1.555-3.51-1.04-7.115 1.148-8.052 2.19-.937 4.876 1.007 6.431 4.517.394.888.681 1.673.85 2.521.183.921.561 1.034 1.078 1.343.607.363.804-.254.656-1.287z" fill="#fff"/><path fill-rule="evenodd" clip-rule="evenodd" d="M36.956 108.469c.891-.381 2.127.468 2.76 1.897s.424 2.896-.467 3.278c-.892.381-2.128-.468-2.76-1.897-.633-1.429-.425-2.896.467-3.278zm5.774 10.328c.404.844.832.574.812-.278-.013-.532-.032-.633-.057-1.2-.023-.512.004-1.04.515-1.156.137-.031.267-.051.533-.112.24-.054.373-.104.412-.189.089-.188-.095-.411-.465-.595a40.052 40.052 0 00-2.327-1.079c-.892-.377-1.22-.562-1.391-.408-.158.141.012.489.478 1.604a136.469 136.469 0 001.49 3.413z" fill="#fff"/><path fill-rule="evenodd" clip-rule="evenodd" d="M39.68 102.187c.487.321 1.121.805 1.64 1.318 2.02 2.002 3.375 4.977 3.78 7.79.043.303.122.892.117 1.234-.013.826-.307 1.463-.8 1.383-.565-.092-.855-.576-.877-1.183a10.44 10.44 0 00-.174-1.49c-.169-.848-.456-1.633-.85-2.521-1.555-3.51-4.242-5.453-6.43-4.517-1.13.483-1.709 1.768-1.901 2.938-.477 2.896.745 6.176 3.321 8.516-5.646-3.124-6.249-10.886-3.257-13.39 1.462-1.226 3.122-1.599 5.43-.078z" fill="#fff"/><circle cx="232.252" cy="321.709" r="6.709" fill="#BDBDBD"/><path d="M189.156 345.378h-1.862v-7.875l-3.261 7.875h-.796l-3.246-7.875v7.875h-1.861v-10.612h2.625l2.88 6.985 2.896-6.985h2.625v10.612zm8.575 0h-1.671v-.827c-.594.679-1.421 1.018-2.482 1.018-.7 0-1.32-.222-1.861-.668-.541-.456-.812-1.082-.812-1.877 0-.817.266-1.438.796-1.862a2.958 2.958 0 011.877-.636c1.093 0 1.92.328 2.482.986v-1.145c0-.446-.164-.796-.493-1.051-.329-.254-.763-.381-1.304-.381-.86 0-1.618.323-2.276.97l-.684-1.161c.87-.828 1.947-1.241 3.23-1.241.944 0 1.713.222 2.307.668.594.445.891 1.151.891 2.116v5.091zm-3.5-.954c.838 0 1.448-.265 1.829-.796v-1.161c-.381-.531-.991-.796-1.829-.796-.478 0-.87.127-1.178.382a1.24 1.24 0 00-.461 1.002c0 .414.154.748.461 1.003.308.244.7.366 1.178.366zm9.803 1.145c-1.018 0-1.84-.419-2.466-1.257v3.994h-1.671v-10.612h1.671v1.05c.615-.828 1.437-1.241 2.466-1.241 1.008 0 1.824.36 2.45 1.082.637.721.955 1.702.955 2.943s-.318 2.228-.955 2.959c-.626.722-1.442 1.082-2.45 1.082zm-.493-1.479c.657 0 1.182-.239 1.575-.716.392-.478.589-1.093.589-1.846 0-.753-.197-1.363-.589-1.83-.393-.477-.918-.716-1.575-.716a2.34 2.34 0 00-1.13.303c-.371.201-.652.445-.843.731v3.039c.191.287.472.531.843.732a2.34 2.34 0 001.13.303zm12.746 1.288h-2.1l-2.355-3.166-1.066 1.098v2.068h-1.67v-7.684h1.67v3.707l3.389-3.707h2.069l-3.199 3.484 3.262 4.2zm4.654.191c-1.167 0-2.132-.371-2.896-1.113-.753-.754-1.13-1.729-1.13-2.928 0-1.124.366-2.074 1.098-2.848.743-.785 1.676-1.177 2.801-1.177 1.135 0 2.047.392 2.736 1.177.7.785 1.05 1.787 1.05 3.007v.398h-5.934c.063.604.313 1.108.747 1.511.435.403 1.003.605 1.703.605.392 0 .785-.074 1.177-.223a2.73 2.73 0 001.003-.62l.763 1.098c-.774.742-1.813 1.113-3.118 1.113zm2.036-4.662a2.2 2.2 0 00-.588-1.416c-.361-.413-.886-.62-1.575-.62-.658 0-1.173.207-1.544.62a2.304 2.304 0 00-.62 1.416h4.327zm6.343 4.471h-1.671v-6.221h-2.195v-1.463h6.078v1.463h-2.212v6.221zm10.453 0h-1.671v-6.221h-3.532v6.221h-1.67v-7.684h6.873v7.684zm1.374.191v-1.368c.329 0 .589-.212.78-.636.201-.425.366-1.135.493-2.132l.461-3.739h5.935v7.684h-1.671v-6.221h-2.784l-.27 2.466c-.149 1.379-.462 2.382-.939 3.008-.478.625-1.146.938-2.005.938zm13.387 0c-1.167 0-2.132-.371-2.896-1.113-.753-.754-1.13-1.729-1.13-2.928 0-1.124.366-2.074 1.098-2.848.743-.785 1.676-1.177 2.8-1.177 1.135 0 2.048.392 2.737 1.177.7.785 1.05 1.787 1.05 3.007v.398h-5.935c.064.604.313 1.108.748 1.511.435.403 1.003.605 1.703.605.392 0 .785-.074 1.177-.223a2.73 2.73 0 001.003-.62l.763 1.098c-.774.742-1.814 1.113-3.118 1.113zm2.036-4.662a2.2 2.2 0 00-.588-1.416c-.361-.413-.886-.62-1.576-.62-.657 0-1.172.207-1.543.62a2.304 2.304 0 00-.62 1.416h4.327zm4.879 4.471h-1.607v-7.684h1.671v5.171l3.532-5.171h1.671v7.684h-1.671v-5.314l-3.596 5.314zm4.614-9.896c-.689.933-1.617 1.4-2.784 1.4-1.156 0-2.09-.467-2.8-1.4l.763-.637c.509.701 1.188 1.051 2.037 1.051s1.522-.35 2.021-1.051l.763.637zm6.323 10.087c-1.167 0-2.122-.376-2.864-1.129-.743-.764-1.114-1.735-1.114-2.912 0-1.167.371-2.127 1.114-2.88.742-.764 1.697-1.145 2.864-1.145 1.283 0 2.264.456 2.943 1.368l-1.098 1.018c-.424-.604-1.013-.907-1.766-.907-.7 0-1.262.239-1.686.716-.425.467-.637 1.077-.637 1.83 0 .753.212 1.368.637 1.846.424.477.986.716 1.686.716.732 0 1.321-.303 1.766-.907l1.098 1.018c-.679.912-1.66 1.368-2.943 1.368zm4.408-7.875h1.671v2.784h2.72c.817 0 1.443.233 1.878.7.445.467.668 1.05.668 1.75 0 .69-.228 1.273-.684 1.75-.446.467-1.066.7-1.862.7h-4.391v-7.684zm4.185 4.248h-2.514v1.973h2.514c.328 0 .583-.091.763-.271.191-.18.287-.419.287-.716s-.096-.536-.287-.716c-.18-.18-.435-.27-.763-.27zm5.584 3.436h-1.67v-7.684h1.67v7.684z" fill="#253942"/><rect x="76" width="164.447" height="61.211" rx="13.704" fill="#FFF8E6"/><path d="M105.654 30.188a4.275 4.275 0 100-8.55 4.275 4.275 0 000 8.55zm0-7.826a3.55 3.55 0 110 7.1 3.55 3.55 0 010-7.1zm0 8.895a6.746 6.746 0 00-4.869 2.032c-1.301 1.33-2.015 3.145-2.015 5.116 0 .2.163.362.362.362h13.043c.2 0 .362-.162.363-.362 0-1.967-.714-3.786-2.015-5.112a6.749 6.749 0 00-4.869-2.036zm-6.152 6.786c.08-1.638.714-3.134 1.797-4.243a6.037 6.037 0 014.351-1.815c1.66 0 3.207.645 4.352 1.815 1.086 1.109 1.717 2.605 1.797 4.243H99.502z" fill="#F37060" stroke="#F37060" stroke-width=".914"/><path d="M130.987 35.084h-2.275v-8.623H123.7v8.623h-2.259V24.472h9.546v10.612zm8.568-.97c-.743.774-1.729 1.161-2.96 1.161-1.23 0-2.217-.387-2.959-1.161-.732-.785-1.098-1.745-1.098-2.88 0-1.135.366-2.09 1.098-2.864.742-.774 1.729-1.161 2.959-1.161 1.231 0 2.217.387 2.96 1.161.742.774 1.113 1.73 1.113 2.864 0 1.135-.371 2.095-1.113 2.88zm-4.392-1.273c.35.424.828.636 1.432.636.605 0 1.082-.212 1.432-.636.361-.435.541-.97.541-1.607 0-.626-.18-1.15-.541-1.575-.35-.435-.827-.652-1.432-.652-.604 0-1.082.217-1.432.652-.35.424-.525.95-.525 1.575 0 .636.175 1.172.525 1.607zm10.457 2.243h-2.037v-5.918h-2.148V27.4h6.333v1.766h-2.148v5.918zm7.806.191c-.965 0-1.755-.392-2.37-1.177v3.914h-2.021V27.4h2.021v.97c.604-.774 1.395-1.161 2.37-1.161 1.008 0 1.825.36 2.451 1.082.636.71.954 1.691.954 2.943s-.318 2.238-.954 2.96c-.626.72-1.443 1.081-2.451 1.081zm-.636-1.797c.583 0 1.05-.207 1.4-.621.361-.414.541-.955.541-1.623 0-.658-.18-1.193-.541-1.607-.35-.414-.817-.62-1.4-.62a2.13 2.13 0 00-.986.254c-.329.17-.578.377-.748.62v2.721c.17.244.419.451.748.62.339.17.668.255.986.255zm9.133 1.797c-1.188 0-2.169-.37-2.944-1.113-.774-.743-1.161-1.719-1.161-2.928 0-1.135.371-2.09 1.114-2.864.753-.774 1.708-1.161 2.864-1.161 1.145 0 2.073.392 2.784 1.177.711.774 1.066 1.793 1.066 3.055v.445h-5.712c.064.51.292.934.684 1.273.393.34.902.51 1.528.51a3.33 3.33 0 001.098-.207c.403-.138.721-.324.954-.557l.891 1.304c-.774.711-1.83 1.066-3.166 1.066zm1.766-4.757a1.927 1.927 0 00-.525-1.177c-.308-.35-.764-.525-1.368-.525-.573 0-1.019.175-1.337.525a2.04 2.04 0 00-.557 1.177h3.787zm5.549 2.307c.35.435.827.652 1.432.652.604 0 1.082-.217 1.432-.652.36-.435.541-.976.541-1.623 0-.604-.181-1.119-.541-1.543-.35-.435-.828-.652-1.432-.652-.605 0-1.082.212-1.432.636-.35.424-.525.944-.525 1.56 0 .646.175 1.187.525 1.622zm1.432 2.45c-1.252 0-2.244-.408-2.976-1.225-.721-.827-1.082-1.883-1.082-3.166 0-1.835.329-3.209.987-4.12.658-.913 1.66-1.46 3.007-1.64 1.156-.17 1.734-.387 1.734-.652h2.101c0 1.114-1.066 1.803-3.199 2.068-1.601.213-2.524.854-2.768 1.926.636-.838 1.512-1.257 2.625-1.257 1.072 0 1.941.392 2.61 1.177.678.785 1.018 1.729 1.018 2.832 0 1.135-.371 2.095-1.114 2.88-.732.785-1.713 1.177-2.943 1.177zm7.56-.19h-1.941V27.4h2.02v4.645l3.166-4.645h2.037v7.684h-2.021v-4.82l-3.261 4.82zm10.741 0h-2.037v-5.92h-2.148V27.4h6.333v1.766h-2.148v5.918zm7.027.19c-1.188 0-2.17-.37-2.944-1.113s-1.161-1.719-1.161-2.928c0-1.135.371-2.09 1.113-2.864.753-.774 1.708-1.161 2.864-1.161 1.146 0 2.074.392 2.785 1.177.71.774 1.066 1.793 1.066 3.055v.445h-5.712c.063.51.291.934.684 1.273.392.34.901.51 1.527.51.34 0 .706-.07 1.098-.207.403-.138.721-.324.955-.557l.891 1.304c-.775.711-1.83 1.066-3.166 1.066zm1.766-4.757a1.927 1.927 0 00-.525-1.177c-.308-.35-.764-.525-1.369-.525-.573 0-1.018.175-1.336.525a2.04 2.04 0 00-.557 1.177h3.787zm2.7 4.757v-1.654c.318 0 .573-.186.764-.557.191-.382.345-1.03.461-1.941l.494-3.723h6.221v7.684h-2.021v-5.918h-2.434l-.255 2.195c-.159 1.348-.498 2.34-1.018 2.976-.509.625-1.247.938-2.212.938zm9.946-7.875h2.02v2.64h2.626c.848 0 1.506.24 1.973.717.466.477.7 1.076.7 1.798 0 .71-.239 1.31-.716 1.798-.478.487-1.13.731-1.957.731h-4.646V27.4zm4.343 4.327h-2.323v1.655h2.323c.276 0 .494-.074.653-.223a.795.795 0 00.254-.604.746.746 0 00-.254-.589c-.159-.16-.377-.239-.653-.239z" fill="#F37060"/><circle cx="101.287" cy="371.709" r="6.709" fill="#BDBDBD"/><path d="M77.998 394.804h-1.861v-4.407l-4.121-6.205h2.132l2.928 4.55 2.895-4.55h2.132l-4.105 6.205v4.407zm6.694.191c-1.188 0-2.142-.387-2.864-1.161-.72-.785-1.082-1.745-1.082-2.88 0-1.135.361-2.09 1.082-2.864.722-.774 1.676-1.161 2.864-1.161 1.199 0 2.159.387 2.88 1.161.721.774 1.082 1.729 1.082 2.864 0 1.146-.36 2.106-1.082 2.88-.721.774-1.681 1.161-2.88 1.161zm0-1.479c.69 0 1.23-.244 1.623-.732.403-.499.605-1.109.605-1.83 0-.711-.202-1.31-.605-1.798-.392-.498-.933-.748-1.623-.748-.678 0-1.22.25-1.623.748-.392.488-.588 1.087-.588 1.798 0 .721.196 1.331.588 1.83.403.488.944.732 1.623.732zm12.51 1.288h-1.67v-1.018c-.722.806-1.629 1.209-2.721 1.209-1.644 0-2.467-.811-2.467-2.434v-5.441h1.671v4.836c0 .563.133.966.398 1.21.265.233.647.35 1.145.35.404 0 .78-.096 1.13-.287.35-.191.631-.429.843-.716v-5.393h1.671v7.684zm4.477.191c-.647 0-1.14-.169-1.48-.509-.328-.339-.493-.827-.493-1.464v-4.439h-1.273v-1.463h1.273v-2.101h1.671v2.101h1.559v1.463h-1.559v4.026c0 .276.063.498.191.668.127.159.307.239.541.239.339 0 .588-.09.747-.271l.398 1.257c-.35.329-.875.493-1.575.493zm9.631-.191h-1.67v-1.018c-.721.806-1.628 1.209-2.721 1.209-1.644 0-2.466-.811-2.466-2.434v-5.441h1.671v4.836c0 .563.132.966.397 1.21.265.233.647.35 1.146.35.403 0 .779-.096 1.13-.287.35-.191.631-.429.843-.716v-5.393h1.67v7.684zm3.841-2.307c.18.287.456.531.827.732.382.191.764.287 1.146.287.658 0 1.183-.234 1.575-.7.403-.478.605-1.093.605-1.846 0-.753-.202-1.368-.605-1.846-.392-.477-.917-.716-1.575-.716-.382 0-.758.101-1.13.303-.371.201-.652.45-.843.747v3.039zm0 2.307h-1.671v-10.612h1.671v3.994c.626-.838 1.448-1.257 2.466-1.257.997 0 1.814.371 2.45 1.113.637.732.955 1.708.955 2.928 0 1.241-.318 2.222-.955 2.943-.636.722-1.453 1.082-2.45 1.082-1.007 0-1.83-.413-2.466-1.241v1.05zm11.123.191c-1.167 0-2.133-.371-2.896-1.113-.753-.753-1.13-1.729-1.13-2.928 0-1.124.366-2.074 1.098-2.848.742-.785 1.676-1.177 2.8-1.177 1.135 0 2.047.392 2.737 1.177.7.785 1.05 1.787 1.05 3.007v.398h-5.935c.064.605.313 1.108.748 1.511.435.404 1.002.605 1.703.605.392 0 .784-.074 1.177-.223a2.718 2.718 0 001.002-.62l.764 1.098c-.774.742-1.814 1.113-3.118 1.113zm2.036-4.661a2.196 2.196 0 00-.589-1.417c-.36-.413-.885-.62-1.575-.62-.657 0-1.172.207-1.543.62a2.311 2.311 0 00-.621 1.417h4.328z" fill="#253942"/></svg>